<?xml version="1.0" encoding="utf-8"?>
<!-- Generator: Adobe Illustrator 26.0.1, SVG Export Plug-In . SVG Version: 6.00 Build 0)  -->
<svg version="1.1"
	 id="Layer_1" inkscape:version="1.1.1 (c3084ef, 2021-09-22)" sodipodi:docname="ballisztika.svg" xmlns:inkscape="http://www.inkscape.org/namespaces/inkscape" xmlns:sodipodi="http://sodipodi.sourceforge.net/DTD/sodipodi-0.dtd" xmlns:svg="http://www.w3.org/2000/svg"
	 xmlns="http://www.w3.org/2000/svg" xmlns:xlink="http://www.w3.org/1999/xlink" x="0px" y="0px" viewBox="0 0 100 100"
	 style="enable-background:new 0 0 100 100;" xml:space="preserve">
<style type="text/css">
	.st0{fill:#C99D73;}
	.st1{fill:#FFFFFF;}
	.st2{font-family:'Helvetica-Bold';}
	.st3{font-size:9px;}
</style>
<sodipodi:namedview  bordercolor="#eeeeee" borderopacity="1" id="namedview910" inkscape:current-layer="Layer_1" inkscape:cx="189.29648" inkscape:cy="219.41854" inkscape:pagecheckerboard="0" inkscape:pageopacity="0" inkscape:pageshadow="0" inkscape:window-height="969" inkscape:window-maximized="0" inkscape:window-width="1296" inkscape:window-x="0" inkscape:window-y="25" inkscape:zoom="1.6931113" pagecolor="#505050" showgrid="false">
	</sodipodi:namedview>
<g id="g456" transform="matrix(0.25929441,0,0,-0.23554185,94.397946,100)">
	<path id="path458" class="st0" d="M0.34,0h-342.5c-11.9,0-21.6,9.7-21.6,21.6v381.3c0,11.9,9.7,21.6,21.6,21.6H0.34
		c11.9,0,21.6-9.7,21.6-21.6V21.6C21.94,9.7,12.24,0,0.34,0"/>
</g>
<text transform="matrix(1.022 0 0 1 27.5885 90.1148)" class="st1 st2 st3">Ballisztika</text>
<g>
	<g>
		<path id="path531" class="st1" d="M24.59,46.59l2.06,2.06l-0.13,0.13c-0.52,0.52-1.16,1.16-1.68,1.68
			c-0.13,0.13-0.13,0.26-0.26,0.39c-0.26,0.64-0.52,1.29-0.77,1.81c0,0.13-0.13,0.13-0.13,0.26c-2.32,2.19-4.51,4.51-6.84,6.71
			c-0.13,0.13-0.26,0.13-0.39,0c-1.03-1.03-1.93-1.93-2.97-2.97c-0.13-0.13-0.26-0.26,0-0.39c0.13-0.13,0.39-0.39,0.52-0.52
			c2.06-2.06,4.13-4.13,6.19-6.19c0.13-0.13,0.26-0.13,0.39-0.26c0.64-0.26,1.29-0.52,1.81-0.77c0.13,0,0.26-0.13,0.26-0.26
			C23.3,47.88,23.94,47.24,24.59,46.59z M14.53,57.3l0.13-0.13l1.29-1.29c1.68-1.68,3.48-3.35,5.16-5.03
			c0.26-0.26,0.52-0.52,0.9-0.64c0.39-0.39,0.9-0.64,1.42-1.03c0.64-0.52,1.16-1.03,1.68-1.68c0.13-0.13,0-0.26,0-0.26
			c-0.13-0.13-0.13-0.13-0.26,0c-0.52,0.52-1.03,1.03-1.55,1.55c-0.13,0.13-0.26,0.26-0.39,0.26c-0.39,0.26-0.64,0.39-1.03,0.52
			c-0.52,0.26-1.03,0.64-1.42,1.03c-2.06,2.06-4,4-6.06,5.93l-0.13,0.13L14.53,57.3z"/>
		<path id="path533" class="st1" d="M16.33,60c-0.39,0.52-0.39,0.52-0.77,0c-0.9-0.9-1.81-1.81-2.71-2.71
			c-0.13-0.13-0.13-0.26,0-0.39c0.13-0.13,0.13-0.13,0.26-0.26L16.33,60z"/>
		<path id="path535" class="st1" d="M13.5,56.78c0.13,0.13,0.26,0.13,0.26,0.26l2.45,2.45l0.13,0.13v0.13h-0.13l-0.13-0.13
			l-2.58-2.45C13.5,57.04,13.37,56.91,13.5,56.78L13.5,56.78z"/>
		<path id="path537" class="st1" d="M30.39,42.59c0.26,0,0.39,0,0.39,0.26c-0.13,0.52-0.26,0.9-0.52,1.29
			c-0.52,0.9-1.16,1.81-1.93,2.58c-0.52,0.52-0.9,1.03-1.42,1.55l-0.13,0.13l-1.81-1.81c0.13-0.13,0.13-0.26,0.26-0.26
			c0.77-0.64,1.42-1.29,2.19-1.93c0.77-0.64,1.55-1.16,2.58-1.68C30,42.72,30.26,42.72,30.39,42.59
			C30.39,42.59,30.39,42.72,30.39,42.59c-0.52,0.26-0.9,0.52-1.42,0.77c-1.42,0.9-2.71,1.93-3.87,3.22c0,0,0,0.13-0.13,0.13
			l0.26,0.26c0.39-0.39,0.77-0.77,1.16-1.03c0.52-0.52,1.03-0.9,1.55-1.42C28.84,43.76,29.49,43.24,30.39,42.59
			C30.39,42.72,30.39,42.72,30.39,42.59L30.39,42.59z"/>
	</g>
	<g>
		<path id="path541" class="st1" d="M54.56,33.69v2.97H54.3c-0.77,0-1.68,0-2.45,0c-0.13,0-0.26,0-0.39,0.13
			c-0.64,0.26-1.29,0.52-1.93,0.77c-0.13,0-0.26,0-0.26,0h-9.54c-0.26,0-0.26-0.13-0.26-0.26c0-1.42,0-2.71,0-4.13
			c0-0.13,0-0.26,0.26-0.26c0.26,0,0.52,0,0.77,0h8.77c0.13,0,0.26,0,0.39,0.13c0.64,0.26,1.29,0.52,1.93,0.77
			c0.13,0,0.26,0.13,0.39,0.13C52.88,33.69,53.65,33.69,54.56,33.69L54.56,33.69z M39.73,34.2h2.06c2.45,0,4.9,0,7.35,0
			c0.39,0,0.77,0,1.03,0.13c0.52,0.13,1.16,0.26,1.68,0.26c0.77,0,1.55,0,2.32,0c0.26,0,0.26-0.13,0.26-0.26
			c0-0.13,0-0.26-0.26-0.26c-0.77,0-1.42,0-2.19,0c-0.13,0-0.26,0-0.52-0.13c-0.39-0.13-0.77-0.26-1.16-0.39
			c-0.52-0.13-1.16-0.26-1.81-0.26c-2.84,0-5.67,0-8.64,0c-0.13,0-0.13,0-0.26,0L39.73,34.2z"/>
		<path id="path543" class="st1" d="M39.08,37.43c-0.64,0-0.64,0-0.64-0.52c0-1.29,0-2.58,0-3.74c0-0.26,0-0.26,0.26-0.26
			c0.13,0,0.26,0,0.39,0V37.43z"/>
		<path id="path545" class="st1" d="M39.34,33.17c0,0.13,0,0.26,0,0.39c0,1.16,0,2.32,0,3.48v0.13c0,0,0,0.13-0.13,0.13
			c0,0-0.13,0-0.13-0.13v-0.13c0-1.16,0-2.32,0-3.48C39.21,33.3,39.21,33.17,39.34,33.17L39.34,33.17z"/>
		<path id="path547" class="st1" d="M61.52,34.98c0.26,0.13,0.26,0.26,0,0.39c-0.39,0.26-0.77,0.39-1.29,0.52
			c-1.03,0.26-2.06,0.39-3.22,0.52c-0.77,0-1.42,0-2.19,0.13h-0.26v-2.58c0.13,0,0.26,0,0.39,0c1.03,0,1.93,0.13,2.97,0.13
			c1.03,0.13,2.06,0.26,2.97,0.64C61.26,34.72,61.39,34.85,61.52,34.98L61.52,34.98c-0.52-0.13-1.03-0.26-1.55-0.39
			c-1.68-0.26-3.35-0.39-5.03-0.39h-0.13v0.26c0.52,0,1.03,0,1.55,0c0.77,0,1.42,0.13,2.19,0.13
			C59.59,34.59,60.49,34.72,61.52,34.98C61.39,34.98,61.52,34.98,61.52,34.98L61.52,34.98z"/>
	</g>
	<g>
		<path id="path551" class="st1" d="M83.41,54.31l-2.06,2.06l-0.13-0.13c-0.52-0.52-1.16-1.16-1.68-1.68
			c-0.13-0.13-0.26-0.13-0.39-0.26c-0.64-0.26-1.29-0.52-1.93-0.77c-0.13,0-0.13-0.13-0.26-0.13c-2.32-2.19-4.51-4.51-6.84-6.71
			c-0.13-0.13-0.13-0.26,0-0.39c1.03-1.03,1.93-1.93,2.97-2.97c0.13-0.13,0.26-0.13,0.39,0c0.13,0.13,0.39,0.39,0.52,0.52
			c2.06,2.06,4.13,4.13,6.19,6.19c0.13,0.13,0.13,0.26,0.26,0.39c0.26,0.64,0.52,1.29,0.77,1.81c0,0.13,0.13,0.26,0.26,0.26
			C82.12,53.02,82.77,53.67,83.41,54.31L83.41,54.31z M72.58,44.38l0.13,0.13c0.39,0.39,0.9,0.77,1.29,1.29
			c1.68,1.68,3.48,3.35,5.16,5.03c0.26,0.26,0.52,0.52,0.64,0.77c0.39,0.39,0.64,0.9,1.03,1.29c0.52,0.52,1.16,1.03,1.68,1.68
			c0.13,0.13,0.26,0,0.26,0c0.13-0.13,0.13-0.13,0-0.26c-0.52-0.52-1.03-1.03-1.55-1.55c-0.13-0.13-0.26-0.26-0.26-0.39
			c-0.26-0.39-0.39-0.64-0.52-1.03c-0.26-0.52-0.64-1.03-1.03-1.42c-2.06-1.93-4-4-6.06-5.93l-0.13-0.13L72.58,44.38z"/>
		<path id="path553" class="st1" d="M69.74,46.19c-0.52-0.39-0.52-0.39,0-0.77c0.9-0.9,1.81-1.81,2.71-2.71
			c0.13-0.13,0.26-0.13,0.39,0c0.13,0.13,0.13,0.13,0.26,0.26L69.74,46.19z"/>
		<path id="path555" class="st1" d="M72.97,43.35c-0.13,0.13-0.13,0.26-0.26,0.26l-2.45,2.45l-0.13,0.13H70v-0.13l0.13-0.13
			c0.9-0.77,1.68-1.68,2.58-2.45C72.84,43.35,72.84,43.22,72.97,43.35L72.97,43.35z"/>
		<path id="path557" class="st1" d="M87.41,59.99c0,0.26,0,0.39-0.26,0.39c-0.52-0.13-0.9-0.26-1.29-0.52
			c-0.9-0.52-1.81-1.16-2.58-1.93c-0.52-0.52-1.03-0.9-1.55-1.42l-0.13-0.13l1.81-1.81c0.13,0.13,0.26,0.13,0.26,0.26
			c0.64,0.77,1.29,1.42,1.93,2.19c0.64,0.77,1.16,1.55,1.68,2.45C87.28,59.6,87.41,59.86,87.41,59.99L87.41,59.99
			c-0.26-0.52-0.52-0.9-0.77-1.42c-0.9-1.42-2.06-2.58-3.22-3.74c0,0-0.13,0-0.13-0.13l-0.26,0.26c0.39,0.39,0.77,0.77,1.03,1.16
			c0.52,0.52,0.9,1.03,1.42,1.55C86.25,58.44,86.77,59.22,87.41,59.99C87.28,59.99,87.41,59.99,87.41,59.99L87.41,59.99z"/>
	</g>
</g>
</svg>
