<?xml version="1.0" encoding="utf-8"?>
<!-- Generator: Adobe Illustrator 26.0.1, SVG Export Plug-In . SVG Version: 6.00 Build 0)  -->
<svg version="1.1" id="Layer_1" xmlns="http://www.w3.org/2000/svg" xmlns:xlink="http://www.w3.org/1999/xlink" x="0px" y="0px"
	 viewBox="0 0 100 100" style="enable-background:new 0 0 100 100;" xml:space="preserve">
<style type="text/css">
	.st0{fill:#10313B;}
	.st1{fill:#FFFFFF;}
	.st2{font-family:'Helvetica-Bold';}
	.st3{font-size:9px;}
	.st4{fill:#FCFCFC;}
</style>
<g id="g448" transform="matrix(1.2024051,0,0,1.116236,556.3086,1504.7855)">
	<path id="path450" class="st0" d="M-383.99-1258.5h-73.8c-2.6,0-4.7-2-4.7-4.6v-80.5c0-2.5,2.1-4.6,4.7-4.6h73.8
		c2.6,0,4.7,2,4.7,4.6v80.5C-379.29-1260.5-381.39-1258.5-383.99-1258.5"/>
</g>
<text transform="matrix(1.022 0 0 1 15.4694 89.9992)" class="st1 st2 st3">Fegyvertörténet</text>
<g id="g12649">
	<path id="path427" class="st4" d="M63.98,38.3l1.6-3.3l-3.3,1.5c-7.3,3.3-14.5,6.6-21.8,9.9c-0.2,0.1-0.5,0.3-0.6,0.6
		c-0.2,0.3-0.5,0.7-0.6,1.1c-0.4,0.9-1,1.5-2,1.8c-0.9,0.3-1.7,0.7-2.5,1.1c-0.2,0.1-0.5,0.1-0.7,0c-0.9-0.5-1.9-0.9-2.8-1.5
		c-0.9-0.5-1.9-0.7-2.9-0.8c-0.6,0-1.2-0.1-2-0.2c0.2-0.1,0.3-0.2,0.4-0.2c3-1.4,6-2.7,9-4.1c0.2-0.1,0.4-0.1,0.6,0
		c0.9,0.2,1.7,0.5,2.6,0.7c0.2,0,0.4,0,0.6-0.1c8.3-3.8,16.5-7.5,24.8-11.3c0.1,0,0.2-0.1,0.3-0.2l-3.6-1c4.2-1.3,8.6-2.1,13-2.2
		C70.98,33.2,67.58,36,63.98,38.3L63.98,38.3z"/>
	<path id="path429" class="st4" d="M36.98,26.2c0.1-1.1,0.5-2,1.4-2.7c0.1-0.1,0.3-0.1,0.4-0.1c2.8,0.1,5.6-0.2,8.3-0.5
		c1.9-0.2,3.8-0.5,5.8-0.6c1,0,2.1,0.3,3.1,0.5c1.4,0.3,2.8,1,3.9,1.9c1.6,1.3,2,3,1.3,4.9c-0.4,1.1-1.1,2-1.8,2.9
		c-0.1,0.1-0.1,0.2-0.2,0.3c0.5,0.7,1,1.3,1.5,2c-0.1,0.1-0.2,0.1-0.3,0.2c-1.2,0.5-2.4,1.1-3.6,1.6c-0.3,0.1-0.4,0.1-0.6-0.1
		c-0.7-0.9-1.4-1.7-2.2-2.6c-0.2-0.2-0.2-0.4,0-0.7c0.6-0.9,1.2-1.8,1.5-2.9c0.3-1.4-0.1-2.4-1.4-3.1c-1.1-0.6-2.3-0.8-3.5-1
		c-2.6-0.3-5.2-0.2-7.7-0.1c-1.9,0.1-3.7,0.1-5.6,0.1C37.28,26.2,37.08,26.2,36.98,26.2L36.98,26.2z"/>
	<path id="path431" class="st4" d="M53.18,60.4c1.1-1.2,2.1-2.4,3.1-3.5c1.9-2.1,3.9-4.1,5.5-6.5c0.8-1.1,1.4-2.2,1.7-3.5
		s-0.2-2.3-1.4-3c-1.1-0.6-2.2-0.8-3.4-0.9c-0.3,0-0.5-0.2-0.5-0.4l0,0c-0.2-1.1-0.4-2.2-0.6-3.3c0-0.2,0-0.3,0.2-0.4
		c1.3-0.6,2.6-1.2,3.8-1.7c0.1,0,0.1,0,0.2,0c0.2,0.6,0.3,1.3,0.5,1.9c0.1,0.4,0.2,0.5,0.6,0.5c1.1,0,2.2,0.1,3.3,0.5
		c2.1,0.7,3.1,2.3,3,4.4c-0.1,1.8-0.7,3.3-1.5,4.9c-0.5,0.9-1.1,1.8-1.9,2.5c-2.2,2-4.4,4.1-6.6,6.2c-0.9,0.9-1.7,1.9-2.5,2.8
		c-0.2,0.2-0.4,0.3-0.6,0.3C54.98,61.3,54.08,60.9,53.18,60.4L53.18,60.4z"/>
	<path id="path433" class="st4" d="M29.48,49c0.1,0.1,0.3,0.1,0.4,0.2c7.6,3.8,15.2,7.6,22.7,11.5c1.1,0.6,2.4,0.7,3.6,0.9
		c0.1,0,0.3,0,0.4,0c0.2,0.1,0.6,0.1,0.7,0.2c0.2,0.4,0.2,0.9-0.1,1.2c-0.4,0.6-1.6,0.9-2.2,0.5c-5-2.6-10-5.2-15-7.7
		c-3.4-1.7-6.8-3.4-10.1-5.1C29.08,50.3,28.88,49.6,29.48,49L29.48,49z"/>
	<path id="path435" class="st4" d="M29.88,46.6c0.1-0.4,0.2-0.7,0.3-1.1c1.6-6.5,3.3-13.1,4.9-19.6c0.2-1,0.4-2,0.6-3
		c0.1-0.7,0.7-1.3,1.4-1.4s1.1,0.3,1.5,0.8c-0.1,0.2-0.2,0.3-0.3,0.5c-1.2,1.5-1.8,3.1-2.3,5c-1.5,5.9-3,11.9-4.5,17.8
		c0,0.2-0.2,0.4-0.4,0.5C30.68,46.2,30.28,46.4,29.88,46.6L29.88,46.6z"/>
	<path id="path437" class="st4" d="M34.58,25.8c-1.5-0.2-3-0.4-4.2-1.4c-0.9-0.7-1.2-1.6-1.2-2.7c0-0.1,0.1-0.2,0.1-0.3
		c1.7-1,3.5-1.4,5.4-1c0,0,0.1,0,0.1,0.1c0,0.3-0.1,0.7-0.1,1c0,0.4,0.1,0.7,0.4,1c0.1,0.1,0.1,0.3,0.1,0.4
		C35.08,23.8,34.78,24.8,34.58,25.8L34.58,25.8z"/>
	<path id="path439" class="st4" d="M52.08,62.4c1,0.5,1.9,0.9,2.8,1.4c0.1,0,0.2,0.1,0.2,0.2c0,0.6,0.3,0.9,0.8,1.2
		c0.2,0.1,0.4,0.2,0.6,0.4c-0.7,1.4-1.9,2.5-3.3,3.2c-0.2,0.1-0.4,0.2-0.5,0.2c-0.7,0.3-0.7,0.3-1.2-0.2c-0.9-0.9-1.2-2.1-0.8-3.3
		C50.78,64.4,51.38,63.4,52.08,62.4z"/>
	<path id="path441" class="st4" d="M32.18,52.2l-3.3,1.5l-0.1-0.1l1.7-2.4L32.18,52.2z"/>
</g>
</svg>
