<?xml version="1.0" encoding="utf-8"?>
<!-- Generator: Adobe Illustrator 26.0.1, SVG Export Plug-In . SVG Version: 6.00 Build 0)  -->
<svg version="1.1" id="Layer_1" xmlns="http://www.w3.org/2000/svg" xmlns:xlink="http://www.w3.org/1999/xlink" x="0px" y="0px"
	 viewBox="0 0 100 100" style="enable-background:new 0 0 100 100;" xml:space="preserve">
<style type="text/css">
	.st0{fill:#876440;}
	.st1{fill:#FFFFFF;}
	.st2{font-family:'Helvetica-Bold';}
	.st3{font-size:9px;}
	.st4{fill:#809677;}
</style>
<g id="g452" transform="matrix(1.2024051,0,0,1.116236,556.308,959.73867)">
	<path id="path454" class="st0" d="M-384.38-770.2h-74c-2.6,0-4.7-2-4.7-4.6v-80.5c0-2.5,2.1-4.6,4.7-4.6h74c2.6,0,4.7,2,4.7,4.6
		v80.5C-379.68-772.3-381.78-770.2-384.38-770.2"/>
</g>
<text transform="matrix(1.024 0 0 1 29.6591 89.6344)" class="st1 st2 st3">Lőszerek</text>
<g id="g12639" transform="translate(-1377.5904,404.06168)">
	<path id="path481" class="st1" d="M1423.98-365.47c-0.12,0.23-0.35,0.46-0.46,0.7c-0.58,1.39-0.7,2.79-0.93,4.18
		c-0.12,1.39-0.23,2.79-0.23,4.18c0,0.23,0,0.35,0,0.58h3.83c0-0.12,0-0.23,0-0.35c0-1.04-0.12-1.97-0.12-3.02
		c-0.12-1.51-0.35-3.02-0.7-4.53c-0.12-0.58-0.35-1.28-0.81-1.74C1424.44-365.82,1424.21-365.82,1423.98-365.47L1423.98-365.47z
		 M1443.01-380.21C1442.9-380.21,1442.9-380.21,1443.01-380.21c-0.23,0.23-0.35,0.46-0.46,0.7c-0.46,1.04-0.58,2.2-0.81,3.37
		c-0.23,2.09-0.46,4.18-0.46,6.27c0,0.35,0,0.7,0,1.04h3.83v-0.23c0-2.2-0.12-4.29-0.35-6.38c-0.12-1.28-0.46-2.44-0.7-3.71
		c-0.12-0.35-0.23-0.7-0.46-0.93C1443.36-380.44,1443.13-380.44,1443.01-380.21L1443.01-380.21z M1441.04-368.6v0.35
		c0,0.93,0,1.86,0,2.79c0,0.12,0,0.23-0.12,0.35c-0.46,1.04-1.04,2.09-1.51,3.13c-0.12,0.12-0.12,0.35-0.12,0.58
		c0,3.02,0,6.03,0,9.05v16.71c0,0.46,0,0.46,0.46,0.46h4.64c0.7,0,1.51,0,2.32,0c0.23,0,0.23-0.12,0.23-0.23c0-1.62,0-3.13,0-4.76
		c0-5.92,0-11.84,0-17.87c0-1.16,0-2.32,0-3.48c0-0.12,0-0.23-0.12-0.46c-0.46-1.04-1.04-2.09-1.51-3.13
		c-0.12-0.12-0.12-0.35-0.12-0.46c0-0.93,0-1.74,0-2.67v-0.35L1441.04-368.6L1441.04-368.6z M1417.37-341.8v-2.09
		c0-5.57,0-11.14,0-16.6c0-0.46-0.12-0.7-0.7-0.7h-7.89c-0.58,0-0.7,0.12-0.7,0.7v8.47c0,3.37,0,6.61,0,9.98c0,0.12,0,0.23,0,0.23
		L1417.37-341.8z M1431.52-362.22v0.23c0,0.81,0,1.62,0,2.44s-0.12,1.51-0.46,2.2c-0.12,0.23-0.23,0.46-0.23,0.7
		c0,2.2,0,4.41,0,6.61c0,1.86,0,3.71,0,5.57c0,3.37,0,6.61,0,9.98c0,0.23,0.12,0.35,0.35,0.35c1.51,0,3.13,0,4.64,0
		c0.46,0,0.46,0,0.46-0.46v-11.84c0-3.25,0-6.38,0-9.63c0-0.58-0.12-1.16-0.35-1.74c-0.23-0.46-0.35-0.93-0.35-1.39
		c0-0.93,0-1.74,0-2.67v-0.35L1431.52-362.22L1431.52-362.22z M1422.12-355.72c0,1.28,0,2.55,0,3.83c0,0.23,0,0.35-0.12,0.58
		c-0.35,0.93-0.7,1.74-1.04,2.67c-0.12,0.23-0.12,0.35-0.12,0.58c0,4.18,0,8.24,0,12.42c0,0.35,0,0.7,0,1.04
		c0,0.35,0.12,0.35,0.46,0.35c1.97,0,4.06,0,6.03,0c0.23,0,0.35-0.12,0.35-0.35c0-4.53,0-9.05,0-13.46c0-0.12,0-0.35-0.12-0.46
		c-0.35-0.93-0.7-1.74-1.04-2.67c-0.12-0.23-0.12-0.35-0.12-0.58c0-1.16,0-2.32,0-3.48v-0.35L1422.12-355.72z M1417.37-334.37v-7.31
		h-9.4v7.31H1417.37z M1435.35-362.45c0-0.12,0-0.23,0-0.35c-0.12-1.16-0.12-2.44-0.23-3.6c-0.12-1.39-0.35-2.9-0.7-4.29
		c-0.12-0.58-0.35-1.04-0.7-1.51c-0.23-0.35-0.46-0.35-0.58,0c-0.23,0.46-0.46,0.81-0.58,1.28c-0.35,1.28-0.58,2.67-0.7,4.06
		c-0.12,1.39-0.12,2.79-0.23,4.18c0,0.12,0,0.23,0,0.35h3.37C1435.24-362.45,1435.24-362.45,1435.35-362.45L1435.35-362.45z
		 M1412.61-332.98c1.39,0,2.9,0,4.41,0c0.93,0,0.81,0.12,0.81-0.81c0-0.46,0-0.46-0.46-0.46c-3.02,0-6.03,0-9.05,0
		c-0.93,0-0.81-0.12-0.81,0.81c0,0.35,0,0.35,0.35,0.35h4.76V-332.98z M1439.42-334.14c0,0.35,0,0.58,0,0.81s0.12,0.35,0.35,0.35
		c1.74,0,3.37,0,5.11,0c0.58,0,1.16,0,1.74,0c0.12,0,0.35,0,0.35-0.23c0-0.35,0-0.58,0-0.93H1439.42z M1427.69-333.79h-6.61
		c0,0.23,0,0.35,0,0.46c0,0.23,0.12,0.35,0.35,0.35c1.86,0,3.71,0,5.57,0C1427.69-332.98,1427.69-332.98,1427.69-333.79
		L1427.69-333.79z M1446.49-334.95h-6.73v0.58h6.73V-334.95z M1430.83-333.67v0.23c0,0.46,0,0.46,0.46,0.46h4.53
		c0.12,0,0.23,0,0.35,0v-0.7H1430.83z M1421.31-334.25v0.12c0.12,0,0.35,0,0.46,0.12c1.74,0,3.48,0,5.22,0c0.12,0,0.12,0,0.23,0
		l0.12-0.12l-0.12-0.12c-0.12,0-0.12,0-0.23,0h-4.99C1421.78-334.25,1421.54-334.25,1421.31-334.25L1421.31-334.25z M1431.18-333.91
		L1431.18-333.91l4.76,0.12v-0.12H1431.18z"/>
	<path id="path483" class="st1" d="M1441.04-368.6h4.18v0.35c0,0.93,0,1.74,0,2.67c0,0.12,0,0.35,0.12,0.46
		c0.46,1.04,1.04,2.09,1.51,3.13c0.12,0.12,0.12,0.23,0.12,0.46c0,1.16,0,2.32,0,3.48c0,5.92,0,11.84,0,17.87c0,1.62,0,3.13,0,4.76
		c0,0.12,0,0.23-0.23,0.23c-0.7,0-1.51,0-2.32,0h-4.64c-0.46,0-0.46,0-0.46-0.46v-16.71c0-3.02,0-6.03,0-9.05
		c0-0.23,0-0.35,0.12-0.58c0.46-1.04,1.04-2.09,1.51-3.13c0-0.12,0.12-0.23,0.12-0.35c0-0.93,0-1.86,0-2.79V-368.6z M1441.62-368.26
		c0,0.93,0,1.74,0,2.55c0,0.23,0,0.46-0.12,0.7c-0.23,0.81-0.58,1.62-0.93,2.55c-0.12,0.35-0.23,0.7-0.23,1.04c0,2.79,0,5.57,0,8.36
		v17.64h1.28v-0.46c0-8.24,0-16.36,0-24.6c0-0.93,0.12-1.86,0.35-2.67c0.23-0.81,0.35-1.62,0.46-2.44c0.12-0.81,0-1.51,0-2.32
		c0-0.12,0-0.23,0-0.35L1441.62-368.26z"/>
	<path id="path485" class="st1" d="M1417.37-341.91h-9.28c0-0.12,0-0.23,0-0.23c0-3.37,0-6.61,0-9.98v-8.47c0-0.46,0.12-0.7,0.7-0.7
		h7.89c0.46,0,0.7,0.12,0.7,0.7c0,5.57,0,11.14,0,16.6V-341.91z M1410.87-360.83h-0.81c-0.58,0-0.7,0.12-0.7,0.7v17.64
		c0,0.12,0,0.12,0,0.23s0.12,0.12,0.12,0.12c0.46,0,0.93,0,1.28,0c0-0.12,0-0.23,0-0.23c0-2.44,0-4.99,0-7.43c0-3.37,0-6.73,0-10.21
		C1410.75-360.25,1410.75-360.6,1410.87-360.83L1410.87-360.83z"/>
	<path id="path487" class="st1" d="M1431.52-362.22h4.06v0.35c0,0.93,0,1.86,0,2.67c0,0.46,0.12,0.93,0.35,1.39
		c0.35,0.58,0.35,1.16,0.35,1.74c0,3.25,0,6.38,0,9.63v11.84c0,0.46,0,0.46-0.46,0.46c-1.51,0-3.13,0-4.64,0
		c-0.23,0-0.35-0.12-0.35-0.35c0-3.37,0-6.61,0-9.98c0-1.86,0-3.71,0-5.57c0-2.2,0-4.41,0-6.61c0-0.23,0.12-0.46,0.23-0.7
		c0.35-0.7,0.58-1.39,0.46-2.2c0-0.81,0-1.62,0-2.44V-362.22z M1432.45-334.49v-0.35c0-7.31,0-14.51,0-21.82c0-0.12,0-0.35,0-0.46
		c0.23-0.81,0.23-1.74,0.23-2.55c0-0.58,0-1.28,0-1.86c0-0.12,0-0.23,0-0.35h-0.7c0,1.04,0,2.09,0,3.02c0,0.23,0,0.46-0.12,0.58
		c-0.12,0.46-0.35,0.93-0.35,1.39c0,2.09,0,4.18,0,6.15c0,2.09,0,4.06,0,6.15c0,3.25,0,6.5,0,9.75v0.35H1432.45z"/>
	<path id="path489" class="st1" d="M1422.12-355.72h4.29v0.35c0,1.16,0,2.32,0,3.48c0,0.23,0,0.35,0.12,0.58
		c0.35,0.93,0.7,1.74,1.04,2.67c0,0.12,0.12,0.35,0.12,0.46c0,4.53,0,9.05,0,13.46c0,0.23-0.12,0.35-0.35,0.35
		c-1.97,0-4.06,0-6.03,0c-0.23,0-0.46,0-0.46-0.35c0-0.35,0-0.7,0-1.04c0-4.18,0-8.24,0-12.42c0-0.23,0-0.35,0.12-0.58
		c0.35-0.93,0.7-1.74,1.04-2.67c0.12-0.12,0.12-0.35,0.12-0.58C1422.24-353.17,1422.12-354.45,1422.12-355.72L1422.12-355.72z
		 M1422.94-334.72v-2.79c0-3.48,0-6.85,0-10.33c0-0.46,0.12-1.04,0.12-1.51c0.12-0.81,0.35-1.62,0.35-2.32c0.12-1.04,0-2.2,0-3.25
		c0-0.35-0.12-0.23-0.35-0.23c-0.23,0-0.35,0-0.35,0.23c0,1.04,0,2.09,0,3.13c0,0.23,0,0.46-0.12,0.7
		c-0.12,0.58-0.35,1.04-0.46,1.62c-0.23,0.81-0.35,1.62-0.35,2.44c0,4.06,0,8.12,0,12.19c0,0.12,0,0.23,0,0.35L1422.94-334.72z"/>
	<path id="path491" class="st1" d="M1417.37-334.37h-9.4v-7.31h9.4V-334.37z M1410.63-334.6v-6.73h-1.51v6.73H1410.63z"/>
	<path id="path493" class="st1" d="M1443.01-380.21c0.23-0.23,0.35-0.23,0.46,0.12c0.23,0.35,0.35,0.58,0.46,0.93
		c0.23,1.28,0.58,2.44,0.7,3.71c0.23,2.09,0.35,4.29,0.35,6.38v0.23h-3.83c0-0.35,0-0.7,0-1.04c0-2.09,0.23-4.18,0.46-6.27
		c0.12-1.16,0.35-2.32,0.81-3.37C1442.66-379.75,1442.78-379.98,1443.01-380.21c-0.23,0.46-0.46,0.93-0.58,1.39
		c-0.35,1.39-0.58,2.67-0.58,4.06c-0.12,1.86-0.23,3.71-0.23,5.57v0.12h0.46c0-0.12,0-0.12,0-0.23c0-2.79,0.12-5.69,0.46-8.47
		c0.12-0.81,0.12-1.62,0.58-2.44C1443.01-380.21,1443.01-380.21,1443.01-380.21L1443.01-380.21z"/>
	<path id="path495" class="st1" d="M1423.98-365.47c0.23-0.35,0.46-0.35,0.7-0.12c0.46,0.58,0.58,1.16,0.81,1.74
		c0.35,1.51,0.58,3.02,0.7,4.53c0.12,1.04,0.12,1.97,0.12,3.02c0,0.12,0,0.23,0,0.35h-3.83c0-0.23,0-0.35,0-0.58
		c0.12-1.39,0.12-2.79,0.23-4.18c0.12-1.39,0.35-2.79,0.93-4.18C1423.63-365.01,1423.86-365.24,1423.98-365.47L1423.98-365.47
		c-0.23,0.81-0.46,1.39-0.7,2.09c-0.46,2.32-0.7,4.64-0.58,6.96c0,0.12,0,0.12,0,0.23h0.46c0-0.81,0-1.51,0.12-2.32
		c0-1.04,0.12-1.97,0.23-3.02c0.12-1.28,0.23-2.67,0.58-3.95C1424.1-365.36,1423.98-365.47,1423.98-365.47L1423.98-365.47z"/>
	<path id="path497" class="st1" d="M1435.35-362.45h-0.12h-3.37c0-0.12,0-0.23,0-0.35c0.12-1.39,0.12-2.79,0.23-4.18
		c0.12-1.39,0.35-2.67,0.7-4.06c0.12-0.46,0.35-0.93,0.58-1.28c0.23-0.35,0.46-0.35,0.58,0c0.35,0.46,0.46,1.04,0.7,1.51
		c0.23,1.39,0.46,2.9,0.7,4.29c0.12,1.16,0.12,2.44,0.23,3.6C1435.35-362.69,1435.35-362.57,1435.35-362.45L1435.35-362.45z
		 M1433.26-372.2c-0.12,0.35-0.23,0.58-0.35,0.93c-0.23,1.28-0.58,2.55-0.7,3.83c-0.12,1.51-0.12,3.02-0.23,4.64v0.12
		c0.12,0,0.12,0,0.23,0c0.12,0,0.12,0,0.23,0C1432.57-365.82,1432.57-369.07,1433.26-372.2L1433.26-372.2z"/>
	<path id="path499" class="st4" d="M1412.61-332.98h-4.76c-0.35,0-0.35,0-0.35-0.35c0-0.93-0.12-0.81,0.81-0.81
		c3.02,0,6.03,0,9.05,0c0.46,0,0.46,0,0.46,0.46c0,0.93,0.12,0.81-0.81,0.81C1415.51-332.98,1414.12-332.98,1412.61-332.98
		L1412.61-332.98z"/>
	<path id="path501" class="st4" d="M1439.42-334.14h7.54c0,0.35,0,0.7,0,0.93c0,0.23-0.12,0.23-0.35,0.23c-0.58,0-1.16,0-1.74,0
		c-1.74,0-3.37,0-5.11,0c-0.35,0-0.35-0.12-0.35-0.35C1439.42-333.56,1439.42-333.91,1439.42-334.14L1439.42-334.14z"/>
	<path id="path503" class="st4" d="M1427.69-333.79c0.12,0.81,0.12,0.81-0.7,0.81c-1.86,0-3.71,0-5.57,0
		c-0.35,0-0.35-0.12-0.35-0.35c0-0.12,0-0.35,0-0.46L1427.69-333.79z"/>
	<path id="path505" class="st4" d="M1443.01-380.21L1443.01-380.21c-0.35,0.93-0.35,1.74-0.46,2.55c-0.35,2.79-0.46,5.69-0.46,8.47
		c0,0.12,0,0.12,0,0.23h-0.46v-0.12c0.12-1.86,0.12-3.71,0.23-5.57c0.12-1.39,0.23-2.79,0.58-4.06
		C1442.55-379.28,1442.78-379.75,1443.01-380.21C1442.9-380.21,1442.9-380.21,1443.01-380.21L1443.01-380.21z"/>
	<path id="path507" class="st4" d="M1446.49-334.95v0.58h-6.73v-0.58H1446.49z"/>
	<path id="path509" class="st4" d="M1430.83-333.67h5.22v0.7c-0.12,0-0.23,0-0.35,0h-4.53c-0.46,0-0.46,0-0.46-0.46L1430.83-333.67z
		"/>
	<path id="path511" class="st4" d="M1421.31-334.14c0.23,0,0.46,0,0.58,0h4.99c0.12,0,0.12,0,0.23,0l0.12,0.12c0,0,0,0.12-0.12,0.12
		c-0.12,0-0.12,0-0.23,0c-1.74,0-3.48,0-5.22,0C1421.66-334.02,1421.54-334.02,1421.31-334.14L1421.31-334.14z"/>
	<path id="path513" d="M1431.18-333.91h4.76v0.12L1431.18-333.91L1431.18-333.91z"/>
	<path id="path515" class="st4" d="M1441.62-368.26h0.7c0,0.12,0,0.23,0,0.35c0,0.81,0,1.51,0,2.32c-0.12,0.81-0.23,1.62-0.46,2.44
		c-0.23,0.93-0.35,1.74-0.35,2.67c0,8.24,0,16.36,0,24.6v0.46h-1.28v-17.64c0-2.79,0-5.57,0-8.36c0-0.35,0.12-0.7,0.23-1.04
		c0.23-0.81,0.58-1.62,0.93-2.55c0.12-0.23,0.12-0.46,0.12-0.7C1441.62-366.52,1441.62-367.33,1441.62-368.26L1441.62-368.26z"/>
	<path id="path517" class="st4" d="M1410.87-360.83c0,0.35,0,0.58,0,0.81c0,3.37,0,6.73,0,10.21c0,2.44,0,4.99,0,7.43
		c0,0.12,0,0.12,0,0.23c-0.46,0-0.93,0-1.28,0l-0.12-0.12c0-0.12,0-0.12,0-0.23v-17.64c0-0.58,0.12-0.7,0.7-0.7L1410.87-360.83z"/>
	<path id="path519" class="st4" d="M1432.45-334.49h-0.81v-0.35c0-3.25,0-6.5,0-9.75c0-2.09,0-4.06,0-6.15s0-4.18,0-6.15
		c0-0.46,0.23-0.93,0.35-1.39c0-0.23,0.12-0.46,0.12-0.58c0-1.04,0-2.09,0-3.02h0.7c0,0.12,0,0.23,0,0.35c0,0.58,0,1.28,0,1.86
		c0,0.81-0.12,1.74-0.23,2.55c0,0.12,0,0.35,0,0.46c0,7.31,0,14.51,0,21.82L1432.45-334.49z"/>
	<path id="path521" class="st4" d="M1422.94-334.72h-1.04c0-0.12,0-0.23,0-0.35c0-4.06,0-8.12,0-12.19c0-0.81,0.12-1.62,0.35-2.44
		c0.23-0.58,0.35-1.04,0.46-1.62c0.12-0.23,0.12-0.46,0.12-0.7c0-1.04,0-2.09,0-3.13c0-0.23,0.12-0.35,0.35-0.23
		c0.23,0,0.35,0,0.35,0.23c0,1.04,0,2.2,0,3.25c0,0.81-0.23,1.62-0.35,2.32c-0.12,0.46-0.12,1.04-0.12,1.51c0,3.48,0,6.85,0,10.33
		L1422.94-334.72L1422.94-334.72z"/>
	<path id="path523" class="st4" d="M1410.63-334.6h-1.51v-6.73h1.51V-334.6z"/>
	<path id="path525" class="st4" d="M1423.98-365.47l0.12,0.12c-0.46,1.28-0.58,2.55-0.58,3.95c-0.12,1.04-0.12,1.97-0.23,3.02
		c0,0.7-0.12,1.51-0.12,2.32h-0.46c0-0.12,0-0.12,0-0.23c0-2.32,0.23-4.76,0.58-6.96C1423.52-364.08,1423.75-364.66,1423.98-365.47
		L1423.98-365.47L1423.98-365.47z"/>
	<path id="path527" class="st4" d="M1433.26-372.2c-0.7,3.13-0.7,6.27-0.81,9.52c-0.12,0-0.12,0-0.23,0c-0.12,0-0.12,0-0.23,0v-0.12
		c0.12-1.51,0.12-3.02,0.23-4.64c0.12-1.28,0.46-2.55,0.7-3.83C1433.03-371.51,1433.15-371.85,1433.26-372.2L1433.26-372.2z"/>
</g>
</svg>
