<?xml version="1.0" encoding="utf-8"?>
<!-- Generator: Adobe Illustrator 26.0.1, SVG Export Plug-In . SVG Version: 6.00 Build 0)  -->
<svg version="1.1"
	 id="Layer_1" inkscape:version="1.1.1 (c3084ef, 2021-09-22)" sodipodi:docname="modern-fegyverek.svg" xmlns:inkscape="http://www.inkscape.org/namespaces/inkscape" xmlns:sodipodi="http://sodipodi.sourceforge.net/DTD/sodipodi-0.dtd" xmlns:svg="http://www.w3.org/2000/svg"
	 xmlns="http://www.w3.org/2000/svg" xmlns:xlink="http://www.w3.org/1999/xlink" x="0px" y="0px" viewBox="0 0 100 100"
	 style="enable-background:new 0 0 100 100;" xml:space="preserve">
<style type="text/css">
	.st0{fill:#407687;}
	.st1{fill:#FFFFFF;}
	.st2{font-family:'Helvetica-Bold';}
	.st3{font-size:9px;}
</style>
<sodipodi:namedview  bordercolor="#eeeeee" borderopacity="1" id="namedview2055" inkscape:current-layer="Layer_1" inkscape:cx="15.693613" inkscape:cy="67.193044" inkscape:pagecheckerboard="0" inkscape:pageopacity="0" inkscape:pageshadow="0" inkscape:window-height="969" inkscape:window-maximized="0" inkscape:window-width="1296" inkscape:window-x="0" inkscape:window-y="25" inkscape:zoom="3.2815897" pagecolor="#505050" showgrid="false">
	</sodipodi:namedview>
<g id="g460" transform="matrix(0.25854715,0,0,-0.23523045,94.414091,99.867792)">
	<path id="path462" class="st0" d="M-0.08-0.6h-343.4c-12,0-21.7,9.7-21.7,21.6v381.8c0,11.9,9.7,21.6,21.7,21.6h343.4
		c12,0,21.7-9.7,21.7-21.6V21.1C21.62,9.1,11.92-0.6-0.08-0.6"/>
</g>
<text transform="matrix(1.0508 0 0 1 9.4879 89.308)" class="st1 st2 st3">Modern fegyverek</text>
<g id="g12613" transform="matrix(0.24112841,0,0,-0.24384424,-160.79079,475.60293)">
	<path id="path443" class="st1" d="M833.92,1764.5c-1.63-1.75-3.13-3.63-4.5-5.63c-2.13-3.5-1.5-7.13-0.5-10.88
		c0.25-1,0.13-2-0.25-2.88c-1.88-2.75-2.88-6.13-2.75-9.63c0.13-1.5-0.13-3-0.38-4.38c-0.75-3.75-4.38-6.13-8.13-5.38
		c0,0,0,0-0.13,0c-1.88,0.25-3.75-0.38-4.88-1.88c-14.26-14.26-28.52-28.52-42.79-42.79c-2.25-2.25-2.13-4.25,0.5-6.13
		c7.88-5.63,15.01-12.39,21.14-20.02c1.75-2.25,4.63-1.88,6.01,0.63c6.13,11.01,12.39,22.14,18.52,33.28
		c2.63,4.75,5.25,9.51,8.01,14.14c1.5,2.5,2.75,2.88,5.25,1.5c0.75-0.5,1.63-0.75,2.5-0.88c3.38,0.13,6.63,1.5,9.13,4
		c1.25,1.13,1.63,3,0.75,4.5c-0.75,1.5-1.25,3-1.75,4.5c-1.88,6.76-1,13.26,3,19.52c1-0.75,1.75-1.38,2.5-2
		c3.13-3.13,6.13-3.13,9.26-0.12c5,4.88,5.88,9.38,2.5,15.64c-0.63,0.88-0.5,2.13,0.38,2.75c9.26,9.88,18.39,19.89,27.52,29.9
		c12.64,13.76,25.27,27.52,37.91,41.29c4.25,4.25,4.38,11.01,0.5,15.51c0.13,0.25,0.38,0.5,0.63,0.75
		c7.13,7.38,14.26,14.76,21.39,22.02c11.38,11.64,22.64,23.27,34.03,34.78c1.13,1.25,1.88,2.38,0.75,3.88c-0.5,0.75-1.25,1.5-2,2.13
		c-2.25,1.75-2.75,1.63-4.88-0.25c-0.75-0.63-2-1.38-2.88-1.38c-3.5,0.38-5.88-1-8.01-3.5c-1.5-1.63-2.38-3.25-1.88-5.5
		c0.38-1.75-0.25-2.88-1.5-4.13c-24.02-23.9-47.92-47.67-71.81-71.56l-7.13-7.01c-1.88,0.63-3.5,1.75-4.38,1.25
		c-2.13-1-2.5,0.5-3.75,1.75c2,1,3.75,1.88,5.5,2.88c3.88,2.13,8.13,3.88,11.51,6.63c4.63,3.75,8.51,8.38,12.89,12.51
		c1.13,0.88,1.38,2.5,0.63,3.75c-3.13,5.75-7.88,10.38-13.64,13.51c-1.38,0.75-3,0.5-4-0.75c-2.5-2.63-5.13-5.38-7.76-7.76
		c-4-3.63-7.26-8.13-9.51-13.01c-1.75-3.75-3.63-7.63-6.13-10.76c-3.63-4.38-8.01-8.26-12.01-12.26c-0.38-0.38-1.13-0.38-1.75-0.38
		c-2.88-0.25-4.13,1.88-5.88,3.5c-1.25,1.25-2.38,1.38-3.63,0.13c-1.75-1.75-3.63-3.63-5.38-5.38c-1.13-1.13-1.25-2.38,0-3.5
		c2.13-1.88,4-3.88,3.75-7.26c-3.63-3.63-7.51-7.63-11.51-11.38c-2.13-1.75-4.25-3.38-6.63-4.88c-2.38-1.63-5.13-2.88-7.26-4.75
		c-4.5-4.13-8.76-8.63-13.14-12.89c-1.25-1-1.5-2.75-0.63-4c2.25-4,5.5-7.26,9.38-9.51c1.63-1,3-0.75,4.38,0.75
		c3.88,4,7.88,7.88,11.76,11.89c1.38,1.5,2.63,3.25,3.75,5c1.38,2.13,2.5,4.5,4.13,7.13c1-1.25,2.38-2.63,2.13-3
		C831.41,1767.13,832.42,1765.75,833.92,1764.5L833.92,1764.5z"/>
	<path id="path445" class="st0" d="M833.92,1764.5c-1.38,1.25-2.38,2.63-1.25,4.75c0.25,0.5-1.25,1.75-2.13,3
		c-1.5-2.75-2.75-5-4.13-7.13c-1.13-1.75-2.38-3.5-3.75-5c-3.88-4-7.88-7.88-11.76-11.89c-1.38-1.38-2.63-1.63-4.38-0.75
		c-4,2.25-7.26,5.5-9.38,9.51c-0.88,1.25-0.63,3,0.63,4c4.38,4.25,8.63,8.76,13.14,12.89c2.13,1.88,4.88,3.13,7.26,4.75
		c2.38,1.5,4.5,3.13,6.63,4.88c4,3.75,7.88,7.76,11.51,11.38c0.13,3.38-1.63,5.38-3.75,7.26c-1.25,1.13-1.13,2.38,0,3.5
		c1.75,1.75,3.63,3.63,5.38,5.38c1.25,1.25,2.5,1.13,3.63-0.13c1.63-1.63,3.13-3.75,5.88-3.5c0.63,0,1.38,0,1.75,0.38
		c4.13,4,8.38,7.76,12.01,12.26c2.63,3.13,4.38,7.01,6.13,10.76c2.25,4.88,5.5,9.38,9.51,13.01c2.75,2.5,5.25,5.13,7.76,7.76
		c0.88,1.25,2.63,1.63,4,0.75c5.75-3.13,10.38-7.88,13.51-13.64c0.75-1.25,0.5-2.88-0.63-3.75c-4.25-4.13-8.26-8.76-12.89-12.51
		c-3.38-2.88-7.63-4.5-11.51-6.63c-1.75-1-3.63-1.88-5.5-2.88c1.13-1.25,1.63-2.75,3.75-1.75c1,0.38,2.5-0.63,4.38-1.25l7.13,7.01
		c23.9,23.9,47.92,47.79,71.81,71.56c1.25,1.25,1.88,2.38,1.5,4.13c-0.5,2.25,0.38,3.75,1.88,5.5c2.25,2.5,4.63,3.88,8.01,3.5
		c0.88-0.12,2.13,0.63,2.88,1.38c2.13,1.88,2.63,2,4.88,0.25c0.75-0.63,1.38-1.38,2-2.13c1.13-1.5,0.38-2.63-0.75-3.88
		c-11.38-11.64-22.77-23.14-34.03-34.78c-7.13-7.38-14.26-14.64-21.39-22.02c-0.25-0.25-0.38-0.5-0.63-0.75
		c3.88-4.5,3.75-11.26-0.5-15.51c-12.64-13.76-25.27-27.65-37.91-41.29c-9.13-10.01-18.39-20.02-27.52-29.9
		c-0.88-0.63-1-1.88-0.38-2.75c3.38-6.26,2.5-10.76-2.5-15.64c-3.13-3-6.01-3-9.26,0.12c-0.75,0.75-1.63,1.25-2.5,2
		c-4-6.26-5-12.76-3-19.52c0.5-1.5,1-3,1.75-4.5c0.88-1.5,0.5-3.38-0.75-4.5c-2.38-2.38-5.63-3.88-9.13-4
		c-0.88,0.13-1.75,0.38-2.5,0.88c-2.5,1.25-3.75,1-5.25-1.5c-2.75-4.75-5.38-9.51-8.01-14.14c-6.13-11.13-12.39-22.14-18.52-33.28
		c-1.5-2.63-4.25-3-6.01-0.63c-6.13,7.63-13.26,14.26-21.14,20.02c-2.63,1.88-2.75,3.88-0.5,6.13
		c14.26,14.26,28.52,28.52,42.79,42.79c1.25,1.38,3.13,2.13,4.88,1.88c3.75-0.88,7.38,1.5,8.26,5.25c0,0,0,0,0,0.13
		c0.38,1.38,0.5,2.88,0.38,4.38c-0.13,3.38,0.75,6.76,2.75,9.63c0.5,0.88,0.63,1.88,0.25,2.88c-1,3.75-1.63,7.38,0.5,10.88
		C830.79,1760.87,832.29,1762.75,833.92,1764.5L833.92,1764.5z M790.63,1669.92c1.38,3.75,3.13,7.01,6.76,8.88
		c-1.63-2.75-3.38-5.5-5.25-8.01c-0.38-0.5-0.88-1.63-0.63-1.88c1.25-1.38,2.5-2.63,3.75-3.88l6.88,6.88l0.38-0.25l-4.13-6.13
		l0.63-0.63c0.88,0.75,1.75,1.5,2.38,2.5c1.88,3.13,3.63,6.38,5.38,9.51c0.5,1,1,2,1.63,3l-0.38,0.38l-11.89-9.26
		c4,9.01,9.63,17.14,16.51,24.02l-10.38-16.01l0.5-0.38c1.88,1.13,3.63,2.25,5.38,3.5c1.38,1,2.63,2.38,3.63,3.88
		c3.13,5.38,6.26,10.88,9.13,16.39c1.75,3.38,3.88,5.88,7.88,4.63l6.51,8.13l0.63-0.38c-0.75-2.88-1.38-5.63-2.25-9.13
		c2,1.13,3.38,2,4.75,2.88c1.38,0.88,1.38,1.88,0.75,3.5c-1.13,3-1.88,6.01-2.5,9.13c-0.25,2-0.25,4-0.13,6.01l-9.01-3l-0.25,0.5
		l7.38,5.75l-0.38-1.75c2.13,0,2.88,1,3.75,2.75c1.25,3.13,2.88,5.88,5,8.51c12.26,13.51,24.65,26.77,36.91,40.28
		c0.75,0.75,1.25,1.63,2,2.38l-0.25,0.25l-21.52-13.26c2.63,5.5,16.14,22.02,18.77,23.14c-3.88-5.25-7.76-10.51-11.63-15.76
		l0.5-0.38c4.88,2.88,9.63,5.75,14.64,8.38c3.13,1.75,5.75,4,8.13,6.63c4.38,5,9.01,9.88,13.51,14.89l7.63,8.26l-33.53-28.4
		l-0.38,0.5c5.25,8.26,11.63,15.76,18.77,22.39l-9.51-12.26l0.38-0.25l25.77,20.14l-5.5-2.25c1.88,1.75,4,3.13,6.26,4.25
		c3.75,1.63,6.13,4.38,8.51,7.51c1.38,1.88,1.88,4.25,1.38,6.51l-4.75-2.88c1,1.75,2.13,3.38,3.38,4.88
		c0.38,0.5,0.25,1.25,0.38,1.88c-0.63,0-1.63,0.38-2,0c-4.63-3.63-6.88-8.88-9.38-14.01l9.26,6.63l0.38-0.5l-20.02-17.39l-0.5,0.5
		l11.89,16.26c-5.88-5.88-13.01-12.89-20.02-20.02c-9.13-9.26-18.27-18.52-27.27-27.9c-10.26-10.51-20.89-20.52-29.28-32.65
		c-1.75-2.63-4-5-6.01-7.51l-0.5,0.38l3.13,5.63c-2.88-2.25-4.63-5.75-4.75-9.38c0-1.63,0-3.25-0.25-4.88
		c-0.75-5.75-5-9.01-10.76-8.38c-0.63,0.13-1.75-0.25-1.88-0.75c-1-2.63-1.75-5.38-2.63-8.38l13.14,6.01
		c-4.63-4.5-10.26-7.13-16.76-9.38c1.75,3.88,3.38,7.26,5.13,11.01c-0.38-0.12-0.63-0.38-1-0.63c-5-5-10.01-9.88-15.01-15.01
		c-0.63-0.63-1-1.5-1.13-2.38c-1.13-6.26-2.13-12.64-3.13-19.02c-0.13-0.63-0.38-1.13-0.75-1.63l1,0.12l37.16,35.78l0.63-0.63
		l-40.41-40.28h-0.5c1.5,8.38,2.88,16.76,4.5,25.4c-2.63-2.88-5.38-4.88-6.51-8.51c-1.25-4.13-3.25-8.01-4.88-12.01l-0.75,0.13
		l0.13,8.13l-8.76-8.76l2.5-1.63c1.38,1.63,2.5,2.88,4.13,4.75c0.13-2.38,0.25-4.13,0.25-5.88c0-2.63,0.75-3.63,3.25-4.75l4.5,9.13
		l0.63-0.25c-0.38-3.25-0.63-6.63-1.38-9.76C787.88,1672.67,788.38,1671.17,790.63,1669.92L790.63,1669.92z M844.55,1763.63
		c-0.13,0.63-0.13,1-0.13,1.13c0,0.88-0.38,2,0,2.5c0.75,1.13,1.5,2,3.38,1.63c1.63-0.13,3.13,0.38,4.38,1.38
		c4.63,4.38,9.26,8.88,13.64,13.64c1,1.25,1.38,2.75,1.25,4.38c-0.25,1,0.13,2.13,1,2.88c8.88,8.88,17.64,17.64,26.4,26.52
		l81.19,81.69l1.5,1.5c-1.38,2.13-2.25,0.75-3.13-0.25c-36.16-36.03-72.31-72.06-108.47-108.09l-1.88-1.88
		c2.38-3.13,2.63-4.13,1.13-5.63c-4.5-4.63-9.13-9.26-13.76-13.76c-1.38-1.25-2.75-1.25-4.13-0.13c-0.5,0.38-1,0.75-1.5,1.25
		c-1.25-1.25-2.38-2.25-3.38-3.38c-0.38-0.5-0.38-1.25-0.13-1.75C842.55,1766,843.42,1764.75,844.55,1763.63L844.55,1763.63z
		 M844.05,1774.51l24.4,24.27c-0.5,1.88-1.38,3.5-1,4.5c0.88,2-0.75,2.38-1.5,3.13c-0.25,0.25-1.63-0.38-2.13-0.88
		c-8.63-8.63-17.26-17.14-25.9-25.9c-0.5-0.5-1-1-1.5-1.75c1.13-0.88,2.5-2.38,2.88-2.13
		C841.3,1777.01,842.67,1775.76,844.05,1774.51L844.05,1774.51z M832.42,1785.27l1.75,1.75l20.89,20.77
		c3.13,3.13,3.13,3.13,6.63,0.25c0.25-0.13,0.5-0.25,0.63-0.25c-0.88,1-1.63,2-2.38,3.13c-0.25,0.5-0.38,1.13-0.13,1.63
		c2.13,2.25,4.25,4.38,6.63,6.63l3.88-3c-0.75,1.38-1.88,2.38-2.63,3.63c-0.38,0.75-0.5,1.63-0.25,2.38
		c3.63,7.01,6.63,14.51,13.14,19.77c1.88,1.63,3.63,3.38,5.13,5.25c1.25,1.5,2.38,1.38,3.75,0.25c2.88-2.5,5.75-5,8.63-7.51
		c-2,2.75-4.25,5.38-6.63,7.76c-3.5,3.38-3.75,3.13-7.38,0c-7.63-6.76-14.01-14.39-18.14-23.9c-1.13-2.5-2.63-4.63-4.5-6.63
		c-11.89-12.14-23.9-24.15-35.91-36.03c-1.63-1.5-3.38-2.75-5.13-4c-2.5-1.63-5.5-2.88-7.63-4.88c-4.38-4-8.51-8.51-12.64-12.89
		c-0.5-0.63-0.63-1.38-0.38-2.13c1.5-2.63,3.75-4.75,6.38-6.13c-1.88,2.13-3.25,3.88-4.75,5.5c-1,1-0.88,1.88,0.25,2.88
		c2,1.88,4,3.88,6.01,5.75c3.5,3.13,6.63,6.76,10.88,9.01c3,1.63,5.38,2.5,7.76-0.63c0-0.12,0.25,0,0.25,0
		c-0.63,1.38-2.13,2.88-1.88,4c0.38,1.38,2.25,2.25,3.38,3.38c3.5,3.25,3.5,3.25,7.38,0.5
		C834.29,1782.77,833.42,1783.89,832.42,1785.27L832.42,1785.27z M846.68,1740.86l-2-2.25c0.88-1.13,2-2.13,3-3
		c0.75-0.63,1.88-0.88,2.88-0.75c5.13,1.88,7.01,9.26,3.25,13.89c-1.5-1.75-3.75-3.38-4.25-5.38c-0.63-2,0.25-4.63,3.13-5.75
		C850.18,1736.98,849.18,1737.6,846.68,1740.86z M793.38,1656.79c-5.13,8.76-13.01,15.51-22.39,20.77L793.38,1656.79z
		 M854.31,1781.52L854.31,1781.52c-2.13-2.13-4.38-4.38-6.51-6.63c-0.38-0.38-0.38-1-0.5-1.5c0.63,0.13,1.38,0,1.75,0.38
		c4.38,4.38,8.76,8.76,13.14,13.14c0.38,0.38,0.25,1.13,0.38,1.75c-0.5-0.12-1.13-0.12-1.5-0.5
		C858.69,1785.9,856.44,1783.77,854.31,1781.52L854.31,1781.52z M834.42,1761.62c-2.63-2.13-4.25-4.5-4.25-8.38l6.63,6.63
		L834.42,1761.62z M838.92,1758.5h0.75c-3.25,3.63,1.38,4.25,2,7.13c-1,0.25-2.25,0.88-2.88,0.5c-1.25-0.88-2.38-2-3.38-3.13
		L838.92,1758.5z M966.28,1899.49c-4.75-3-5.63-4.25-4.63-6.51L966.28,1899.49z M842.92,1803.41c-5.75-4.25-6.51-5.38-5.63-6.63
		L842.92,1803.41z M839.8,1773.76c-5.38-3.88-6.88-5.88-6.13-7.13L839.8,1773.76z M868.7,1801.53l6.01,7.13
		C869.32,1804.79,867.95,1802.91,868.7,1801.53z"/>
	<path id="path447" class="st1" d="M790.63,1669.92c-2.25,1.25-2.75,2.88-2.13,5c0.75,3.25,1,6.51,1.38,9.76l-0.63,0.25l-4.5-9.13
		c-2.5,1-3.25,2-3.25,4.75c0,1.75-0.13,3.5-0.25,5.88c-1.63-1.88-2.88-3.25-4.13-4.75l-2.5,1.63l8.76,8.76l-0.13-8.13l0.75-0.13
		c1.63,4,3.63,7.88,4.88,12.01c1.13,3.63,3.88,5.75,6.51,8.51c-1.5-8.76-3-17.14-4.5-25.4h0.5l40.41,40.28l-0.63,0.63l-37.16-35.78
		l-1-0.13c0.38,0.5,0.63,1.13,0.75,1.63c1.13,6.38,2.13,12.64,3.13,19.02c0.13,0.88,0.5,1.75,1.13,2.38
		c4.88,5,10.01,10.01,15.01,15.01c0.25,0.25,0.63,0.5,1,0.63c-1.75-3.75-3.25-7.13-5.13-11.01c6.38,2.38,12.01,5,16.76,9.38
		l-13.14-6.01c1,3,1.63,5.75,2.63,8.38c0.13,0.38,1.25,0.75,1.88,0.75c5.75-0.63,10.01,2.63,10.76,8.38
		c0.13,1.63,0.25,3.25,0.25,4.88c0.13,3.63,1.88,7.13,4.75,9.38l-3.13-5.63l0.5-0.38c2,2.5,4.25,4.88,6.01,7.51
		c8.38,12.14,19.14,22.14,29.28,32.65c9.01,9.26,18.14,18.64,27.27,27.9c7.01,7.13,14.14,14.14,20.02,20.02l-11.89-16.26l0.5-0.5
		l19.52,17.26l-0.38,0.5l-9.13-6.63c2.5,5.13,4.75,10.38,9.38,14.01c0.38,0.38,1.38,0,2,0c-0.13-0.63,0-1.38-0.38-1.88
		c-1.25-1.5-2.38-3.13-3.38-4.88l4.75,2.88c0.5-2.25,0-4.63-1.38-6.51c-2.25-3.13-4.75-5.88-8.51-7.51c-2.25-1-4.38-2.5-6.26-4.25
		l5.5,2.25l-25.77-20.02l-0.38,0.25l9.51,12.26c-7.26-6.63-13.51-14.14-18.77-22.39l0.38-0.5l33.53,28.4l-7.63-8.26
		c-4.5-4.88-9.13-9.76-13.51-14.89c-2.25-2.75-5-5-8.13-6.63c-5-2.63-9.76-5.63-14.64-8.38l-0.5,0.38
		c3.88,5.25,7.76,10.51,11.63,15.76c-2.75-1.13-16.14-17.64-18.77-23.14l21.39,13.26l0.25-0.25c-0.63-0.75-1.25-1.63-2-2.38
		c-12.39-13.39-24.77-26.77-36.91-40.28c-2.13-2.5-3.75-5.38-5-8.51c-0.75-1.75-1.63-2.88-3.75-2.75l0.38,1.75l-7.38-5.75l0.25-0.5
		l9.01,3c-0.13-2-0.13-4,0.13-6.01c0.63-3.13,1.38-6.13,2.5-9.13c0.63-1.5,0.5-2.63-0.75-3.5c-1.25-0.88-2.88-1.75-4.75-2.88
		c0.88,3.5,1.5,6.38,2.25,9.13l-0.63,0.38l-6.51-8.13c-4,1.38-6.13-1.13-7.88-4.63c-2.88-5.5-6.01-11.01-9.13-16.39
		c-1-1.5-2.25-2.75-3.63-3.88c-1.75-1.25-3.5-2.5-5.38-3.5l-0.5,0.38l10.38,16.01c-7.01-6.88-12.64-15.14-16.51-24.15l11.76,9.26
		l0.38-0.38c-0.5-1-1-2-1.63-3c-1.75-3.25-3.5-6.38-5.38-9.51c-0.75-0.88-1.5-1.75-2.38-2.5l-0.63,0.63l4.13,6.13l-0.38,0.25
		l-6.88-6.88c-1.38,1.25-2.63,2.5-3.75,3.88c-0.25,0.25,0.25,1.38,0.63,1.88c1.88,2.63,3.63,5.25,5.25,8.01
		C793.76,1676.93,791.88,1673.55,790.63,1669.92L790.63,1669.92z M802.39,1699.07l2.88,7.26l-0.5,0.25l-7.51-14.01l0.5-0.38
		l26.65,23.14l-0.5,0.63L802.39,1699.07z M830.91,1731.22l20.02,20.02l-0.38,0.5l-15.39-13.01l-0.5,0.25l5.25,10.63
		C834.79,1744.23,832.67,1737.73,830.91,1731.22L830.91,1731.22z M847.93,1757.5l-0.38,0.25l-3.5-6.13l0.63-0.63l20.39,13.01
		l-0.5,0.88l-17.26-9.63L847.93,1757.5z M852.56,1762.38l0.5-0.63l17.77,9.51l-0.38,0.88l-14.76-6.63c0.38,1.5,0.75,2.75,1,4
		l-0.38,0.12C855.06,1767.25,853.81,1764.75,852.56,1762.38L852.56,1762.38z"/>
	<path id="path449" class="st1" d="M844.55,1763.63c-1,1.13-2,2.38-2.88,3.63c-0.25,0.63-0.13,1.25,0.13,1.75
		c1,1.13,2.13,2.25,3.38,3.38c0.63-0.5,1-0.88,1.5-1.25c1.38-1.13,2.88-1.25,4.13,0.12c4.63,4.5,9.26,9.13,13.76,13.76
		c1.63,1.63,1.38,2.63-1.13,5.63l1.88,1.88c36.16,36.03,72.31,72.06,108.47,108.09c1,1,1.75,2.25,3.13,0.25l-1.5-1.5l-81.19-81.69
		c-8.76-8.88-17.64-17.64-26.4-26.52c-0.88-0.75-1.13-1.88-1-2.88c0.13-1.5-0.25-3.13-1.25-4.38c-4.38-4.75-8.88-9.26-13.64-13.64
		c-1.25-1-2.75-1.5-4.38-1.38c-1.88,0.38-2.75-0.5-3.38-1.63c-0.38-0.63,0-1.75,0-2.5C844.43,1764.5,844.43,1764.13,844.55,1763.63
		L844.55,1763.63z"/>
	<path id="path451" class="st1" d="M844.05,1774.51c-1.38,1.25-2.88,2.5-5,1.25c-0.38-0.25-1.75,1.38-2.88,2.13
		c0.63,0.75,1.13,1.25,1.5,1.75c8.63,8.63,17.26,17.26,25.9,25.9c0.5,0.5,1.88,1.13,2.13,0.88c0.75-0.75,2.38-1.13,1.5-3.13
		c-0.38-1,0.5-2.63,1-4.5L844.05,1774.51z"/>
	<path id="path453" class="st1" d="M832.42,1785.27c1-1.38,1.88-2.5,3-3.88c-4,2.88-4,2.88-7.38-0.5c-1.13-1.13-3-2-3.38-3.38
		c-0.25-1.13,1.13-2.63,1.88-4c-0.13,0-0.25,0-0.25,0c-2.38,3.13-4.75,2.25-7.76,0.63c-4.25-2.25-7.38-5.75-10.88-9.01
		c-2-1.88-3.88-3.88-6.01-5.75c-1.13-1-1.13-1.75-0.25-2.88c1.5-1.63,2.88-3.38,4.75-5.5c-2.63,1.5-4.88,3.63-6.38,6.13
		c-0.25,0.75-0.13,1.5,0.38,2.13c4.13,4.38,8.13,8.76,12.64,12.89c2.25,2,5.13,3.13,7.63,4.88c1.88,1.13,3.63,2.5,5.13,4
		c12.01,11.89,24.02,23.9,35.91,36.03c1.88,1.88,3.38,4.13,4.5,6.63c4.13,9.51,10.51,17.14,18.14,23.9c3.5,3.13,3.88,3.38,7.38,0
		c2.5-2.38,4.63-5,6.63-7.76c-2.88,2.5-5.75,5-8.63,7.51c-1.38,1.25-2.5,1.25-3.75-0.25c-1.63-1.88-3.25-3.63-5.13-5.25
		c-6.38-5.25-9.51-12.64-13.14-19.77c-0.25-0.75-0.13-1.63,0.25-2.38c0.75-1.25,1.88-2.25,2.63-3.63l-3.88,3
		c-2.25-2.25-4.5-4.38-6.63-6.63c-0.25-0.5-0.13-1.13,0.13-1.63c0.75-1.13,1.5-2.13,2.38-3.13c-0.25,0.13-0.5,0.13-0.63,0.25
		c-3.5,2.88-3.5,2.88-6.63-0.25l-20.89-20.77L832.42,1785.27z"/>
	<path id="path455" class="st1" d="M846.68,1740.86c2.5-3.13,3.63-3.88,6.01-3.13c-2.88,1.13-3.75,3.75-3.13,5.75
		c0.63,2,2.88,3.5,4.25,5.38c3.75-4.5,1.88-12.01-3.25-13.89c-1-0.12-2,0.13-2.88,0.75c-1.13,0.88-2.13,1.88-3,3L846.68,1740.86z"/>
	<path id="path457" class="st1" d="M793.38,1656.79l-22.39,20.77C780.37,1672.3,788.25,1665.54,793.38,1656.79z"/>
	<path id="path459" class="st1" d="M854.31,1781.52c2.25,2.13,4.38,4.38,6.63,6.51c0.38,0.38,1,0.38,1.5,0.5
		c-0.13-0.63,0-1.38-0.38-1.75c-4.38-4.38-8.76-8.76-13.14-13.14c-0.38-0.38-1.13-0.25-1.75-0.38c0.13,0.5,0.13,1.13,0.5,1.5
		C849.8,1777.14,852.06,1779.39,854.31,1781.52L854.31,1781.52z"/>
	<path id="path461" class="st1" d="M834.42,1761.62l2.38-1.75l-6.63-6.63C830.04,1757.12,831.79,1759.5,834.42,1761.62z"/>
	<path id="path463" class="st1" d="M838.92,1758.5l-3.38,4.5c1,1.25,2.13,2.25,3.38,3.13c0.63,0.38,1.88-0.38,2.88-0.5
		c-0.75-2.88-5.38-3.5-2-7.13H838.92z"/>
	<path id="path465" class="st1" d="M966.28,1899.49l-4.63-6.51C960.77,1895.24,961.53,1896.49,966.28,1899.49z"/>
	<path id="path467" class="st1" d="M842.92,1803.41l-5.63-6.63C836.42,1798.16,837.17,1799.16,842.92,1803.41z"/>
	<path id="path469" class="st1" d="M839.8,1773.76l-6.13-7.13C832.92,1767.88,834.42,1769.88,839.8,1773.76z"/>
	<path id="path471" class="st1" d="M868.7,1801.53c-0.75,1.38,0.63,3.25,6.01,7.13L868.7,1801.53z"/>
	<path id="path473" class="st0" d="M802.39,1699.07l21.52,17.01l0.5-0.63l-26.65-23.14l-0.5,0.38l7.51,14.01l0.5-0.25
		L802.39,1699.07z"/>
	<path id="path475" class="st0" d="M830.91,1731.22c1.88,6.63,3.88,13.01,9.13,18.27l-5.38-10.63l0.5-0.25l15.39,13.01l0.38-0.5
		L830.91,1731.22z"/>
	<path id="path477" class="st0" d="M847.93,1757.5l-0.63-2.25l17.26,9.88l0.5-0.88l-20.39-13.01l-0.63,0.63l3.5,6.13L847.93,1757.5z
		"/>
	<path id="path479" class="st0" d="M852.56,1762.38c1.25,2.5,2.5,4.88,3.88,7.38l0.38-0.12c-0.38-1.25-0.63-2.5-1-4l14.76,6.63
		l0.38-0.88l-17.77-9.51L852.56,1762.38z"/>
</g>
</svg>
