<?xml version="1.0" encoding="utf-8"?>
<!-- Generator: Adobe Illustrator 26.0.1, SVG Export Plug-In . SVG Version: 6.00 Build 0)  -->
<svg version="1.1" id="Layer_1" xmlns="http://www.w3.org/2000/svg" xmlns:xlink="http://www.w3.org/1999/xlink" x="0px" y="0px"
	 viewBox="0 0 100 100" style="enable-background:new 0 0 100 100;" xml:space="preserve">
<style type="text/css">
	.st0{fill:#3B2816;}
	.st1{fill:#FFFFFF;}
	.st2{font-family:'Helvetica-Bold';}
	.st3{font-size:9px;}
</style>
<g id="g444" transform="matrix(1.2024051,0,0,1.116236,556.3086,406.25126)">
	<path id="path446" class="st0" d="M-384.18-274.4h-73.8c-2.6,0-4.7-2-4.7-4.6v-80.5c0-2.5,2.1-4.6,4.7-4.6h73.8
		c2.6,0,4.7,2,4.7,4.6v80.5C-379.48-276.4-381.58-274.4-384.18-274.4"/>
</g>
<text transform="matrix(1 0 0 1 13.488 90.3167)" class="st1 st2 st3">Optikai eszközök</text>
<g>
	<path id="path559" class="st1" d="M38.45,36.6c5.8,4.1,7.5,9.4,4.8,16h2.4c0.4-2.9,1.9-4.3,4.2-4.4c2.3,0,3.8,1.5,4.2,4.3h2.4
		c-2.6-6.6-1-11.9,4.9-16h-0.4c-1.4,0-2.9,0-4.3,0c-0.2,0-0.4-0.1-0.5-0.3c-0.5-0.8-1.3-1.5-2.2-1.9c-2.1-0.9-4.2-1-6.4-0.6
		c-1.6,0.3-3,1.1-3.9,2.5c-0.1,0.1-0.3,0.2-0.4,0.2c-1.4,0-2.9,0-4.3,0L38.45,36.6z M31.25,59.9c6.7,0,12.2-5.4,12.2-12
		c0-6.7-5.5-12.1-12.2-12.1s-12.2,5.4-12.2,12C19.05,54.5,24.55,59.9,31.25,59.9L31.25,59.9L31.25,59.9z M68.55,59.9
		c6.7,0,12.2-5.4,12.2-11.9c0-6.8-5.4-12.2-12.2-12.2c-6.7-0.1-12.3,5.2-12.4,11.9c-0.1,6.7,5.3,12.1,12,12.2
		C68.35,59.9,68.45,59.9,68.55,59.9L68.55,59.9z"/>
	<path id="path561" class="st1" d="M38.45,36.6h0.5c1.4,0,2.9,0,4.3,0c0.2,0,0.3-0.1,0.4-0.2c0.9-1.4,2.3-2.2,3.9-2.5
		c2.2-0.4,4.3-0.4,6.4,0.6c0.9,0.4,1.7,1,2.2,1.9c0.1,0.2,0.3,0.3,0.5,0.3c1.4,0,2.9,0,4.3,0h0.4c-5.8,4.1-7.4,9.4-4.9,16h-2.4
		c-0.4-2.9-1.9-4.4-4.2-4.3c-2.4,0-3.8,1.5-4.2,4.4h-2.4C45.95,46,44.35,40.7,38.45,36.6L38.45,36.6z"/>
	<path id="path563" class="st1" d="M68.75,35.8c-6.7,0-12.2,5.4-12.2,12c0,6.7,5.5,12.1,12.2,12.1s12.2-5.4,12.2-12
		C80.95,41.2,75.45,35.8,68.75,35.8L68.75,35.8z M68.75,57h-0.1c-5.2,0-9.3-4.1-9.3-9.2s4.2-9.2,9.3-9.2h0.2h0.1c0.1,0,0.2,0,0.3,0
		c4.8,0.2,8.7,4,8.9,8.7C78.25,53.3,73.35,57.1,68.75,57L68.75,57z"/>
	<path id="path565" class="st1" d="M31.35,35.8c-6.7,0-12.2,5.4-12.2,12c0,6.7,5.5,12.1,12.2,12.1s12.2-5.4,12.2-12
		C43.55,41.2,38.05,35.8,31.35,35.8L31.35,35.8z M31.35,57h-0.1c-5.2,0-9.3-4.1-9.3-9.2s4.2-9.2,9.3-9.2h0.2h0.1c0.1,0,0.2,0,0.3,0
		c4.8,0.2,8.7,4,8.9,8.7C40.85,53.3,35.95,57.1,31.35,57L31.35,57z"/>
	<ellipse id="circle567" class="st0" cx="68.75" cy="47.8" rx="10.3" ry="10.2"/>
	<ellipse id="circle569" class="st0" cx="31.25" cy="47.8" rx="10.3" ry="10.2"/>
</g>
</svg>
