<?xml version="1.0" encoding="utf-8"?>
<!-- Generator: Adobe Illustrator 26.0.1, SVG Export Plug-In . SVG Version: 6.00 Build 0)  -->
<svg version="1.1"
	 id="svg1279" inkscape:version="1.1.1 (c3084ef, 2021-09-22)" sodipodi:docname="allathatarozo.svg" xmlns:inkscape="http://www.inkscape.org/namespaces/inkscape" xmlns:sodipodi="http://sodipodi.sourceforge.net/DTD/sodipodi-0.dtd" xmlns:svg="http://www.w3.org/2000/svg"
	 xmlns="http://www.w3.org/2000/svg" xmlns:xlink="http://www.w3.org/1999/xlink" x="0px" y="0px" viewBox="0 0 100 100"
	 style="enable-background:new 0 0 100 100;" xml:space="preserve">
<style type="text/css">
	.st0{fill:#7A3287;}
	.st1{fill:#FFFFFF;}
	.st2{font-family:'Helvetica-Bold';}
	.st3{font-size:8.4609px;}
</style>
<sodipodi:namedview  bordercolor="#eeeeee" borderopacity="1" id="namedview1281" inkscape:current-layer="layer1" inkscape:cx="123.33665" inkscape:cy="561.25984" inkscape:document-units="mm" inkscape:pagecheckerboard="0" inkscape:pageopacity="0" inkscape:pageshadow="0" inkscape:window-height="1259" inkscape:window-maximized="0" inkscape:window-width="1171" inkscape:window-x="264" inkscape:window-y="25" inkscape:zoom="0.64052329" pagecolor="#505050" showgrid="false">
	</sodipodi:namedview>
<g id="g448" transform="matrix(0.26072452,0,0,-0.23556924,94.831274,100.19445)">
	<path id="path450" class="st0" d="M-1.66,0.83h-340.57c-11.87,0-21.49,9.67-21.49,21.6v381.3c0,11.93,9.62,21.6,21.49,21.6H-1.66
		c11.87,0,21.49-9.67,21.49-21.6V22.43C19.82,10.5,10.21,0.83-1.66,0.83"/>
</g>
<g id="g57338" transform="matrix(0.21683584,0,0,-0.21103892,-30.549761,417.76275)">
	<g id="g1010" transform="matrix(1.2024051,0,0,1.116236,455.82667,1911.7959)">
		<path id="path1012" class="st1" d="M-1.34,12.77c2.21-1.88,2.86-3.82,2.08-6.16c-0.77-2.32-2.69-3.67-5.55-3.73
			c-9.68-0.18-17.3-4.4-23.31-11.8c-3.12-3.84-5.69-10.45-5.54-13.59c3.17,0.32,6.36,0.84,9.56,0.91c6.2,0.15,12.41,0.07,18.61,0.02
			c2.21-0.02,4.05-0.92,5.04-2.96c0.72-1.49,0.64-3.28-0.15-4.73c-1.26-2.34-3.29-2.86-5.48-2.87c-6.76-0.01-13.51,0.01-20.27-0.01
			c-2.86-0.01-4.86-1.34-5.32-4.06c-0.24-1.42,0.32-3.09,0.88-4.5c1.07-2.69,2.78-4.31,6.13-3.75c7,1.16,13.17-1.1,19.17-4.67
			c6.84-4.07,14.01-7.61,21.03-11.38c3.3-1.77,4.99-5.76,4.1-9.62c-0.8-3.46-4.24-6.28-7.92-6.31c-5.77-0.05-11.55-0.05-17.32,0.05
			c-1.49,0.03-2.13-0.5-2.67-1.83c-5.99-14.77-12.06-29.52-18.04-44.29c-0.43-1.06-0.88-1.49-2.06-1.54
			c-7.54-0.26-15.08-0.62-22.63-0.94c-2.7-0.11-3.66-1.36-2.93-3.94c1.2-4.24,2.38-8.49,3.71-12.7c0.24-0.78,1.02-1.5,1.72-2.01
			c1.98-1.42,4.06-2.72,6.62-4.4c-2.24-2.09-4.31-3.89-6.21-5.84c-0.6-0.62-1.1-1.65-1.1-2.49c-0.05-16.27-0.02-32.55,0-48.82
			c0-3.03,0.02-6.06-0.01-9.09c-0.04-5.71-4.35-10.67-10.04-11.11c-6.46-0.5-11.82,4.42-11.82,10.76
			c-0.02,16.52,0.01,33.04,0.02,49.56c0,4.78,0,9.55,0,14.6c-1.26,0-2.28,0-3.3,0c-13.02-0.01-26.04-0.04-39.06-0.01
			c-1.19,0-1.89-0.35-2.53-1.34c-2.77-4.27-5.64-8.47-8.38-12.76c-0.31-0.49-0.22-1.53,0.09-2.09c2.58-4.6,5.25-9.14,7.89-13.7
			c0.2-0.35,0.33-0.75,0.56-1.29c-7.52-1.5-14.03-4.7-19.49-10.16c-1.45,2.43-2.82,4.72-4.18,7.02c-1.09,1.85-2.11,3.74-3.29,5.54
			c-1.37,2.1-2.13,4.25-2.02,6.86c0.21,4.95,0.06,9.92,0.06,15.4c-1.92-2.5-3.56-4.58-5.15-6.7c-2.07-2.74-4.18-5.46-6.11-8.3
			c-0.61-0.9-1.09-2.53-1.09-3.61c-0.06-12.51-0.05-25.02,0.02-37.53c0.03-6.57-4.69-11.48-11.24-11.51
			c-6.13-0.03-10.77,5.09-10.75,11.59c0.05,13.02,0.01,26.04-0.05,39.06c-0.01,3.19,0.71,5.72,5.09,8.67
			c2.83,1.9,3.94,5.18,4.1,8.59c0.03,0.62,1.09,1.57,1.1,2.45c0.05,5.99,0.03,11.98-0.38,18.09c-1.28-1.97-2.57-3.93-3.85-5.9
			c-1.21-1.85-2.36-3.74-3.64-5.54c-0.33-0.46-1.04-0.64-1.58-0.95c-0.28,0.55-0.79,1.09-0.79,1.64c-0.05,14-0.1,28.01-0.04,42.01
			c0.04,9.03,7.39,16.06,16.45,16.05c24.57-0.03,49.13-0.01,73.7-0.01c10.5,0,21,0,31.51-0.06c1.3-0.01,2.1,0.34,2.83,1.48
			c4.98,7.73,10.03,15.43,15.09,23.11c0.82,1.25,0.89,2.07-0.32,3.23c-4.13,3.94-8.15,7.99-12.1,12.11
			c-0.7,0.73-1.28,2.03-1.16,2.97c0.2,1.54,1.71,1.4,2.97,1.38c2.98-0.04,5.97-0.01,8.86-0.01c-1.04,3.71-2.34,7.18-2.94,10.77
			c-2.06,12.23,0.82,23.26,8.78,32.85c5.75,6.93,13,11.48,21.79,13.52c0.29,0.07,0.56,0.22,0.84,0.34L-1.34,12.77z"/>
	</g>
	<g id="g1014" transform="matrix(1.2024051,0,0,1.116236,258.16318,1614.5866)">
		<path id="path1016" class="st1" d="M-1.71,12.16c-0.77,0.5-1.52,1.03-2.31,1.49c-5.94,3.54-3.72,11.59,1.22,13.71
			c4.15,1.78,8.3,3.71,12.11,6.1c5.27,3.32,8.52,8.1,9.78,14.46c1.54,7.72,4.16,15.13,9.05,21.52c4.03,5.28,9.16,9.09,15.46,11.08
			c3.89,1.23,7.96,1.97,11.99,2.73c3.96,0.75,5.43,2.44,4.65,6.33c-0.57,2.81-1.71,5.5-2.34,8.3c-0.53,2.31-0.87,4.69-0.97,7.06
			c-0.11,2.56,0.98,3.17,3.36,2.11c1.73-0.77,3.41-1.66,5.16-2.4c3.2-1.35,5.99-0.59,8.4,1.82c0.87,0.87,1.64,1.88,2.65,2.54
			c0.9,0.59,2.26,1.33,3.05,1.04c0.9-0.34,1.76-1.68,1.99-2.73c0.59-2.62,0.8-5.33,1.18-8c0.09-0.6,0.18-1.22,0.36-1.8
			c0.76-2.6,0.54-4.86-1.56-6.9c-2.2-2.14-2.14-4.92-1.55-7.74c0.42-1.97,0.72-3.97,1.03-5.96c0.64-4.08-0.78-7.46-3.58-10.38
			c-2.68-2.8-5.29-5.66-6.53-9.45c-1.73-5.3-1.98-10.71-0.93-16.16c0.61-3.16,2.42-5.7,4.64-8.01c0.84-0.87,1.71-2.06,1.85-3.2
			c0.32-2.64-1.77-4.19-4.12-2.99c-4.8,2.45-8.05,6.33-9.48,11.6c-0.25,0.94-0.34,1.94-0.39,2.91c-0.09,1.69-0.77,3.04-2.38,3.6
			c-1.68,0.58-3.36,0.61-4.77-0.87c-3.01-3.15-5-6.89-6.77-11.05c1.32-0.15,2.39-0.27,3.46-0.38c3.88-0.41,4.47-1.12,4.21-5.31
			c-1.42,0-2.87,0-4.32,0c-8.66-0.01-17.31-0.06-25.97,0.01c-1.01,0.01-2,0.66-3.01,0.93c-1.37,0.37-2.97,1.28-4.09,0.89
			c-5.71-1.99-11.3-4.31-16.91-6.55c-0.49-0.2-0.9-0.63-1.33-0.98c-2.27-1.89-2.44-3.49-0.62-5.84c0.93-1.19,1.88-2.37,2.82-3.55
			H-1.71z"/>
	</g>
	<g id="g1018" transform="matrix(1.2024051,0,0,1.116236,395.52209,1755.5391)">
		<path id="path1020" class="st1" d="M-1.45,12.45c1.01,0.08,1.73,0.17,2.45,0.2c8.53,0.28,17.05,0.58,25.58,0.81
			c1.07,0.03,1.47,0.34,1.63,1.44c0.41,2.84,0.99,5.65,1.61,9.06c1.57-3.67,2.94-6.84,4.27-10.03c7.35-17.6,14.89-35.11,21.95-52.83
			c3.71-9.32,6.62-18.96,9.8-28.48c2.7-8.08,5.28-16.19,7.99-24.53c5.49,2.66,9.46,6.78,13.17,11.74c0.17-1.06,0.45-1.81,0.39-2.54
			c-0.25-3.47-0.27-7-0.98-10.39c-1.04-4.97-4.51-8.17-8.98-10.29c-0.73-0.34-1.67-0.32-2.51-0.32c-20.94,0-41.88,0.02-62.82,0.04
			c-1.96,0-3.92,0-5.93,0c-0.4,1.74,0.53,2.94,1.71,3.59c2.5,1.38,5.07,2.73,7.78,3.57c2.9,0.9,5.98,1.2,9.2,1.81
			c0.52,15.21,10.62,22.14,23.84,26.45c-0.36,0.69-0.73,1.29-1,1.94c-0.46,1.13-1.11,1.3-2.3,0.95
			c-8.01-2.38-12.54-5.17-19.32-12.15c-0.65,2.25-1.27,4.4-1.91,6.54c-0.64,2.17-1.3,4.33-2.07,6.9c-1.48-4.37-2.85-8.34-4.18-12.33
			c-1.88-5.64-3.7-11.3-5.61-16.93c-0.2-0.59-0.81-1.15-1.37-1.48c-1.06-0.61-2.26-0.96-3.34-1.53c-2.95-1.56-5.11-3.78-5.71-7.3H-4
			c0.64,2.55,2.17,4.28,4.18,5.47c1.09,0.65,1.53,1.43,1.76,2.55c1.84,8.94,3.69,17.88,5.54,26.82c3.06,14.76,6.13,29.52,9.19,44.28
			c0.58,2.82,1.25,5.62,1.68,8.46c0.13,0.82-0.17,1.96-0.7,2.59C13.61-8.7,8.52-5.14,3.4-1.63C2.93-1.31,2.37-0.86,2.22-0.36
			C0.97,3.79-0.18,7.97-1.45,12.45"/>
	</g>
	<g id="g1022" transform="matrix(1.2024051,0,0,1.116236,344.06588,1896.5042)">
		<path id="path1024" class="st1" d="M-1.55,12.74C0.84,7.62,2.22,2.2,1.6-3.45c-0.9-8.18-6.02-13.13-13.34-16.14
			c-0.74-0.3-1.48-0.63-2.25-0.79c-1.86-0.39-3.35-1.06-4.14-3.05c-0.26-0.66-1.5-1.02-2.37-1.31c-0.6-0.2-1.33-0.04-2.52-0.04
			c3.35-1.27,6.23-2.01,9.37-1.75c5.32,0.45,10.65,0.75,15.98,1.1c0.53,0.04,1.07,0.01,1.65,0.01C1.69-34.44-4.43-40.5-13.7-41.35
			c-6.82-0.62-13.25,1.05-19.94,4.05c2.35,0.59,4.25,1.07,6.45,1.63c-3.67,0.46-7.07,0.53-10.29,1.36
			c-8.59,2.2-14.8,7.11-17.13,16.11c-0.73,2.83-2.94,4.46-5.44,5.63c-1.59,0.74-3.29,1.25-5.13,1.94c3.64,2.42,7.39,4.15,11.49,5.06
			c2.07,0.46,3.93-0.32,5.46-1.63c1.96-1.67,3.76-3.52,5.64-5.27c0.34-0.32,0.71-0.71,1.14-0.81c2-0.49,6.46,1.26,7.52,3.1
			c0.34,0.59,0.16,1.63-0.09,2.36c-1.01,3.01-0.5,4.4,2.56,5.02c8.25,1.66,15.21,6.08,22.31,10.18C-6.52,8.89-4.16,10.88-1.55,12.74
			"/>
	</g>
	<g id="g1026" transform="matrix(1.2024051,0,0,1.116236,276.20166,1876.5575)">
		<path id="path1028" class="st1" d="M-1.68,12.7c-3.05,8.37-8.77,15.07-13.01,22.6c0.08,0.19,0.16,0.39,0.24,0.58
			c2.08-0.2,4.21-0.2,6.23-0.65c6.68-1.47,11.82-5.48,16.35-10.37c4.41-4.75,7.8-10.21,10.88-15.88c0.83-1.53,0.24-2.1-1.16-2.45
			c-1.47-0.37-2.67-0.49-3.86,0.97c-1.34,1.64-3.1,2.94-4.72,4.34c-2.47,2.13-5.25,2.77-8.38,1.62C0.09,13.17-0.75,12.97-1.68,12.7"
			/>
	</g>
</g>
<text transform="matrix(1.0275 0 0 1 22.0776 90.0947)" class="st1 st2 st3">Állathatározó</text>
</svg>
