<?xml version="1.0" encoding="utf-8"?>
<!-- Generator: Adobe Illustrator 26.0.1, SVG Export Plug-In . SVG Version: 6.00 Build 0)  -->
<svg version="1.1" id="Réteg_1" xmlns="http://www.w3.org/2000/svg" xmlns:xlink="http://www.w3.org/1999/xlink" x="0px" y="0px"
	 viewBox="0 0 300 300" style="enable-background:new 0 0 300 300;" xml:space="preserve">
<style type="text/css">
	.st0{fill:#914999;}
	.st1{fill:none;stroke:#FFFFFF;stroke-miterlimit:10;}
	.st2{fill:#FFFFFF;stroke:#FFFFFF;stroke-miterlimit:10;}
	.st3{fill:#FFFFFF;}
	.st4{font-family:'Helvetica-Bold';}
	.st5{font-size:23.926px;}
</style>
<g id="g444" transform="matrix(0.25929441,0,0,-0.23554185,94.397944,100)">
	<path id="path446" class="st0" d="M725.53-849.11H-299.93c-35.73,0-64.7,28.97-64.7,64.71V357.7c0,35.74,28.97,64.71,64.7,64.71
		H725.53c35.73,0,64.7-28.97,64.7-64.71V-784.4C790.22-820.14,761.26-849.11,725.53-849.11"/>
</g>
<g>
	<path class="st1" d="M166.59,92.15c-0.28,1.14-0.38,2.2-0.79,3.07c-0.65,1.37-1.47,2.64-2.28,3.9c-1.51,2.36-3.07,4.66-4.58,7.02
		c-1.08,1.69-2.11,3.43-3.16,5.15c-1.48,2.43-2.96,4.87-4.44,7.31c-0.36,0.6-0.83,0.55-1.25-0.01c-0.42-0.55-0.86-1.21-1.41-1.45
		c-1.08-0.46-2.23-0.73-3.36-0.96c-3.82-0.77-7.43-2.17-10.64-4.76c-1.51-1.21-3.04-2.43-4.44-3.8c-1.14-1.12-2.07-2.51-3.14-3.72
		c-1.5-1.7-3-3.4-4.57-5.02c-0.66-0.68-1.37-1.46-2.44-0.82c-0.79,0.47-0.89,0.98-0.23,1.69c1.22,1.32,2.45,2.64,3.65,3.99
		c1.14,1.29,2.25,2.63,3.39,3.92c1.52,1.71,3.01,3.46,4.6,5.08c1.04,1.06,2.24,1.91,3.35,2.89c1.92,1.71,4.11,2.86,6.23,4.15
		c1.76,1.07,3.74,1.44,5.67,1.94c0.59,0.15,1.16,0.39,1.79,0.6c-0.46,0.62-0.84,1.16-1.25,1.67c-0.93,1.16-1.83,2.35-2.81,3.46
		c-0.74,0.83-1.56,1.56-2.37,2.31c-1.56,1.45-3.11,2.92-4.72,4.3c-1.69,1.44-3.41,2.85-5.18,4.14c-1.48,1.07-3.06,1.94-4.59,2.91
		c-0.85,0.53-1.69,1.08-2.54,1.64c0.15,0.4,0.25,0.77,0.41,1.11c0.67,1.43,1.26,2.93,2.07,4.24c0.89,1.44,1.94,2.76,3,4.04
		c1.63,1.98,3.28,3.94,4.99,5.82c2.65,2.92,5.44,5.65,8.44,8.09c1.24,1.01,2.45,2.08,3.7,3.08c1.57,1.25,3.19,2.41,4.74,3.68
		c1.89,1.55,3.75,3.16,5.61,4.76c1.91,1.63,3.78,3.34,5.74,4.89c1.75,1.38,3.53,2.74,5.41,3.85c1.9,1.12,3.93,1.98,5.94,2.84
		c2.51,1.07,5.06,2.01,7.6,2.99c1.45,0.56,2.9,1.1,4.36,1.62c1.73,0.62,3.47,1.25,5.21,1.82c1.44,0.47,2.86,1.08,4.41,1.05
		c1.2-0.02,2.4,0.07,3.6,0.1c0.22,0.01,0.46-0.14,0.66-0.07c0.41,0.14,0.53-0.1,0.63-0.47c0.09-0.35,0.18-0.69,0.28-1.07
		c1.64,1.58,2.29,0.8,2.88-0.5c0.68-1.49,1.33-3.01,1.96-4.53c1.15-2.78,1.8-5.76,2.36-8.76c0.33-1.77,0.61-3.55,0.89-5.33
		c0.16-1.06,0.35-2.14,0.37-3.21c0.03-2.01-0.03-4.03-0.12-6.04c-0.09-2.15-0.22-4.29-0.4-6.43c-0.2-2.25-0.48-4.5-0.74-6.75
		c-0.13-1.16-0.24-2.34-0.48-3.47c-0.48-2.27-1.04-4.51-1.59-6.76c-0.45-1.83-0.92-3.65-1.4-5.47c-0.57-2.12-1.14-4.24-1.74-6.34
		c-0.46-1.62-0.93-3.23-1.45-4.82c-0.52-1.58-1.17-3.1-1.66-4.68c-0.58-1.85-1.05-3.75-1.59-5.62c-0.48-1.65-1.02-3.27-1.46-4.92
		c-0.39-1.44-0.67-2.92-1.01-4.38c-0.38-1.64-0.82-3.26-1.16-4.91c-0.59-2.85-1.27-5.64-2.64-8.16c-0.69-1.26-0.8-1.38-2.05-0.89
		c-0.09,0.03-0.18,0.05-0.24,0.07c0.4,1.75,0.78,3.46,1.2,5.16c0.7,2.82,1.44,5.62,2.13,8.44c0.04,0.16-0.18,0.44-0.31,0.62
		c-0.21,0.28-0.54,0.47-0.67,0.78c-0.23,0.57-0.38,1.2-0.49,1.82c-0.1,0.59-0.06,1.22-0.17,1.82c-0.22,1.14-0.51,2.26-0.75,3.39
		c-0.55,2.55-1.1,5.1-1.64,7.65c-0.47,2.25-1.38,4.28-2.73,5.93c-1.26,1.54-2.72,2.87-4.13,4.24c-0.83,0.81-1.25,1.84-0.83,2.77
		c0.43,0.96,0.89,2,1.57,2.68c1.56,1.56,3.24,2.98,4.92,4.35c1.07,0.87,2.23,1.58,3.37,2.33c1.19,0.78,2.36,1.62,3.61,2.24
		c1.92,0.95,3.89,1.79,5.87,2.56c1.13,0.44,2.32,0.68,3.6,0.29c0.09,0.43,0.2,0.84,0.25,1.27c0.15,1.29,0.26,2.58,0.4,3.87
		c0.24,2.21,0.61,4.41,0.72,6.63c0.12,2.49,0.09,5-0.04,7.49c-0.12,2.32-0.4,4.63-0.71,6.92c-0.18,1.38-0.51,2.74-0.86,4.08
		c-0.54,2.04-1.09,4.08-1.75,6.07c-0.63,1.89-1.42,3.71-2.09,5.59c-0.48,1.33-0.48,1.07-1.42,0.85c-1.98-0.47-3.94-1.06-5.9-1.65
		c-1.86-0.57-3.72-1.18-5.57-1.82c-3.46-1.22-6.92-2.45-10.37-3.72c-1.71-0.63-3.39-1.39-5.1-2.04c-2.51-0.95-4.83-2.39-7.1-3.89
		c-1.81-1.2-3.47-2.73-5.16-4.17c-2.07-1.76-4.08-3.62-6.14-5.37c-1.37-1.17-2.79-2.25-4.21-3.35c-1.23-0.96-2.49-1.87-3.71-2.85
		c-1.11-0.89-2.18-1.84-3.25-2.79c-1.07-0.94-2.14-1.88-3.17-2.89c-1.07-1.06-2.1-2.19-3.12-3.31c-1-1.1-2-2.21-2.97-3.35
		c-0.73-0.87-1.4-1.79-2.08-2.71c-0.94-1.28-1.87-2.58-2.86-3.96c0.97-0.63,1.87-1.22,2.77-1.81c1.33-0.87,2.68-1.71,3.98-2.63
		c1.13-0.8,2.23-1.66,3.32-2.54c1.12-0.9,2.21-1.85,3.31-2.8c0.66-0.57,1.34-1.13,1.96-1.78c1.49-1.57,3.01-3.11,4.4-4.79
		c1.32-1.59,2.53-3.3,3.73-5.01c0.98-1.4,1.87-2.87,2.79-4.32c1.4-2.21,2.79-4.42,4.16-6.65c1.72-2.78,3.43-5.57,5.13-8.37
		c0.96-1.58,2.03-3.1,2.78-4.8c0.66-1.49,0.99-3.19,1.39-4.82c0.29-1.18-0.34-2.02-1-2.77c-0.13-0.15-0.43-0.12-0.66-0.11
		C166.83,92.01,166.63,92.13,166.59,92.15z M64.78,181.79c-0.39,0.03-0.81,0.06-1.23,0.11c-1.2,0.14-2.01,0.92-2.51,2.18
		c-0.46,1.15-0.97,2.28-1.4,3.45c-0.48,1.34-0.62,2.78-0.49,4.21c0.1,1.05,0.25,2.14,0.61,3.09c0.36,0.96,0.9,1.92,1.57,2.6
		c0.9,0.92,2.09,1.3,3.23,1.79c2.14,0.92,4.06,0.39,5.99-0.63c0.38-0.2,0.81-0.66,1.13-0.57c0.35,0.1,0.59,0.71,0.89,1.08
		c1.71,2.12,3.41,4.25,5.47,5.92c1.08,0.88,2.23,1.65,3.39,2.39c0.77,0.49,1.6,0.85,2.4,1.27c1.71,0.91,3.52,1.43,5.36,1.8
		c1.76,0.35,3.54,0.55,5.32,0.73c1.7,0.17,3.42,0.37,5.12,0.32c2.33-0.07,4.66-0.19,6.97-0.79c1.35-0.35,2.65-0.76,3.89-1.42
		c0.54-0.29,1.12-0.72,1.13-1.53c0.01-0.68-0.39-1.12-0.88-1.5c-1.17-0.92-2.37-0.82-3.6-0.25c-0.77,0.36-1.53,0.81-2.33,1.07
		c-2.09,0.68-4.27,0.62-6.41,0.72c-1.87,0.08-3.76,0.05-5.63-0.15c-2.17-0.24-4.35-0.58-6.48-1.15c-2.35-0.63-4.55-1.77-6.48-3.54
		c-1.26-1.16-2.36-2.48-3.24-4.03c-0.48-0.84-0.84-1.77-1.33-2.59c-0.62-1.05-1.18-2.15-2.14-2.88c-0.49-0.38-2.15-0.87-2.66-0.48
		c-1.23,0.93-2.47,1.88-3.64,2.92c-1.18,1.04-2.5,0.91-3.12-0.53c-0.76-1.74-0.75-3.7-0.22-5.44c0.52-1.72,1.5-3.25,2.31-4.84
		c0.14-0.28,0.59-0.47,0.59-0.7c0.01-1.26,0.79-1.17,1.48-1.27c0.1-0.01,0.2,0.05,0.29,0.03c0.56-0.14,0.84-0.54,0.66-1.02
		c-0.57-1.49-0.75-3-0.5-4.62c0.39-2.59,0.66-5.2,1.08-7.78c0.34-2.09,0.74-4.18,1.24-6.22c0.69-2.81,1.38-5.64,2.31-8.35
		c1.3-3.79,2.88-7.45,5.2-10.58c0.61-0.83,1.3-1.59,1.97-2.35c0.41-0.47,0.87-0.89,1.3-1.35c0.9-0.96,1.74-2,2.69-2.89
		c2.03-1.9,4.24-3.47,6.65-4.65c1.19-0.58,1.35-1.2,0.85-2.58c-0.55-1.53-1.09-3.07-1.58-4.62c-0.38-1.18-0.32-2.33,0.42-3.33
		c1.16-1.57,3.11-3.15,5.3-2.1c0.67,0.32,1.08,0.84,0.95,1.43c-0.22,1.03-0.42,2.07-0.73,3.06c-0.52,1.64-1.13,3.23-1.68,4.85
		c-0.7,2.06-1.39,4.12-2.05,6.2c-1.23,3.9-2.5,7.79-3.63,11.74c-0.58,2.02-0.97,4.13-1.3,6.23c-0.32,2-0.57,4.04-0.65,6.08
		c-0.11,2.65-0.16,5.33,0.03,7.97c0.16,2.25,0.63,4.49,1.11,6.68c0.45,2.05,1.01,4.08,1.66,6.06c0.58,1.77,1.34,3.46,2.04,5.16
		c0.58,1.41,1.19,2.81,1.82,4.19c0.76,1.64,1.59,3.24,2.33,4.89c0.95,2.13,2.04,4.11,3.99,5.15c0.74,0.39,1.52,0.68,2.3,0.9
		c0.27,0.07,0.63-0.17,0.9-0.38c0.06-0.05-0.05-0.54-0.17-0.77c-0.57-1.08-1.23-2.11-1.76-3.21c-1.52-3.14-3.03-6.3-4.49-9.49
		c-1.33-2.9-2.55-5.86-3.21-9.08c-0.28-1.37-0.67-2.73-0.82-4.13c-0.33-3.07-0.57-6.16-0.77-9.25c-0.1-1.62-0.05-3.25-0.05-4.88
		c0-3.1,0.57-6.09,1.23-9.06c0.46-2.07,1.04-4.1,1.6-6.14c0.5-1.84,1.02-3.67,1.57-5.49c0.47-1.58,0.99-3.15,1.47-4.73
		c0.36-1.16,0.66-2.34,1.04-3.49c0.36-1.08,0.82-2.11,1.18-3.18c0.54-1.58,0.99-3.21,1.58-4.76c1.13-2.97,2.29-5.91,3.51-8.83
		c0.74-1.78,1.59-3.5,2.42-5.24c0.77-1.61,1.36-3.3,1.56-5.14c0.16-1.41,0.13-2.8-0.75-3.97c-0.31-0.42-1.16-0.85-1.61-0.72
		c-0.56,0.16-0.66,0.72-0.81,1.27c-0.31,1.14-0.6,2.29-1.01,3.38c-0.65,1.74-1.36,3.46-2.12,5.14c-0.61,1.34-1.39,2.58-2,3.92
		c-0.9,1.99-1.73,4.03-2.57,6.06c-0.15,0.37-0.25,0.44-0.57,0.18c-1.06-0.86-2.13-1.71-3.24-2.47c-0.77-0.53-1.72-0.79-2.54-0.45
		c-1.93,0.8-3.8,1.78-4.99,3.92c-0.63,1.12-1.15,2.23-0.77,3.64c0.41,1.51,0.75,3.05,1.17,4.56c0.13,0.46,0.11,0.79-0.18,1.11
		c-0.57,0.62-1.12,1.26-1.71,1.85c-1.98,1.98-4.02,3.89-5.94,5.95c-1.36,1.45-2.68,3-3.84,4.67c-1.52,2.19-2.94,4.48-4.24,6.85
		c-1.09,1.99-2.03,4.1-2.87,6.25c-0.81,2.06-1.45,4.21-2.06,6.36c-0.43,1.52-0.71,3.09-1.02,4.65c-0.24,1.23-0.48,2.47-0.63,3.72
		c-0.2,1.71-0.35,3.43-0.45,5.15c-0.06,1.11-0.08,2.24,0.06,3.34C64.15,179.57,64.52,180.68,64.78,181.79z M236.94,185.49
		c-0.47,0.05-0.85,0.16-1.21,0.11c-1.32-0.2-2.63-0.44-3.95-0.7c-0.64-0.13-1.29,0.11-1.34,0.64c-0.04,0.46,0,0.93,0.04,1.39
		c0.07,0.64,0.23,1.27,0.26,1.91c0.05,0.99,0.12,2,0,2.97c-0.15,1.19-0.35,2.43-0.78,3.51c-0.46,1.16-1.22,2.15-1.84,3.22
		c-1.12,1.93-2.57,3.42-4.33,4.5c-1.09,0.67-2.17,1.37-3.31,1.88c-0.94,0.42-1.96,0.76-2.95,0.82c-2.62,0.16-5.16-0.65-7.7-1.24
		c-2.18-0.51-4.32-1.21-6.48-1.84c-1.27-0.37-2.53-0.76-3.8-1.11c-0.43-0.12-0.77,0-0.84,0.67c-0.12,1.05,0.27,1.93,0.73,2.7
		c0.37,0.63,0.92,1.26,1.51,1.55c1.23,0.59,2.55,0.95,3.83,1.39c1.45,0.5,2.9,1.05,4.37,1.45c1.41,0.39,2.87,0.58,4.29,0.95
		c1.87,0.49,3.78,0.73,5.66,0.49c1.57-0.2,3.11-0.78,4.63-1.31c1.9-0.66,3.51-2.01,5.01-3.47c1.49-1.45,2.72-3.21,3.57-5.27
		c1.18-2.85,1.67-5.88,1.54-9.05c-0.02-0.48,0-0.96,0-1.48c0.79,0.05,1.49,0.15,2.19,0.14c1.03-0.01,2.07-0.04,3.09-0.17
		c0.42-0.05,0.88-0.3,0.86-1.01c-0.01-0.58,0.07-1.17,0.05-1.75c-0.02-1.06-0.1-2.12-0.13-3.18c-0.05-2.5,0.06-5.06-1.62-7.04
		c-0.7-0.82-1.38-1.73-2.21-2.3c-0.55-0.38-0.69-0.85-0.82-1.39c-0.1-0.43-0.07-0.91-0.1-1.36c-0.09-1.81-0.11-3.63-0.3-5.42
		c-0.19-1.76-0.5-3.52-0.87-5.24c-0.36-1.69-0.81-3.37-1.31-5.01c-0.4-1.32-0.82-2.64-1.4-3.86c-0.85-1.81-1.75-3.62-2.82-5.27
		c-0.87-1.35-1.97-2.53-3.05-3.66c-2.23-2.34-4.88-3.83-7.71-4.91c-0.91-0.35-1.86-0.54-2.81-0.81c0.17-0.5,0.32-0.9,0.46-1.3
		c0.49-1.41,1.04-2.8,1.08-4.36c0.05-1.9-0.55-3.63-1.42-5.13c-1.3-2.24-3.32-3.29-5.59-3.53c-1.8-0.2-3.26,0.56-4.4,2.33
		c-0.84,1.3-1.32,4.28-0.42,6.01c0.26,0.51,0.66,0.78,1.21,0.73c0.58-0.05,0.95-0.36,1.08-1.01c0.07-0.34,0.1-0.7,0.13-1.05
		c0.09-1.18,0.7-1.95,1.55-2.39c0.71-0.36,1.48-0.56,2.25-0.76c1.37-0.35,2.61,1.01,2.26,2.44c-0.59,2.41-1.18,4.81-1.77,7.22
		c-0.2,0.82-0.19,1.68,0.34,2.27c1.04,1.16,2.48,1.52,3.72,2.27c1.21,0.73,2.45,1.42,3.63,2.22c0.77,0.52,1.45,1.23,2.21,1.79
		c1.55,1.16,2.81,2.69,3.96,4.3c0.98,1.36,1.68,2.98,2.51,4.48c0.96,1.74,1.49,3.69,1.97,5.66c0.5,2.03,0.82,4.11,0.85,6.23
		c0.03,1.91-0.05,3.83-0.1,5.74c-0.03,1.33-0.22,2.68-0.11,4c0.19,2.13,0.87,4.09,2.07,5.75c0.36,0.5,0.9,0.48,1.19-0.1
		c0.18-0.36,0.28-0.79,0.4-1.2c0.37-1.32,0.53-1.44,1.7-1.2c0.06,0.01,0.14-0.01,0.19,0.02c0.21,0.19,0.57,0.37,0.6,0.59
		C236.66,181.76,236.78,183.57,236.94,185.49z M169.56,208.25c-0.41-0.1-0.66-0.26-0.88-0.21c-1.72,0.39-3.44,0.81-5.15,1.25
		c-1.77,0.45-3.54,0.89-5.29,1.43c-2.51,0.77-5,1.61-7.49,2.45c-1.89,0.64-3.75,1.4-5.65,1.97c-1.04,0.31-1.47,1.23-2,2.09
		c-0.19,0.31-0.32,0.73-0.33,1.11c-0.04,1,0.49,1.65,1.17,2.14c1.26,0.9,2.55,0.76,3.92,0.31c3.2-1.06,6.43-2.04,9.64-3.04
		c1.62-0.51,3.25-1.02,4.87-1.51c1.15-0.35,1.17-0.34,1.71,0.89c0.59,1.35,1.15,2.72,1.74,4.07c0.08,0.19,0.27,0.34,0.43,0.47
		c0.61,0.49,1.29,0.49,2.02,0.48c1.83-0.02,3.51-0.77,5.23-1.31c1.3-0.41,2.54-1.08,3.79-1.67c1.86-0.87,3.71-1.76,5.56-2.66
		c1.07-0.52,2.12-1.09,3.18-1.63c1.16-0.58,2.32-1.14,3.48-1.73c1.9-0.97,3.8-1.94,5.69-2.93c0.55-0.29,1.32-0.37,1.37-1.32
		c0.02-0.56-0.01-1.21-0.23-1.68c-0.6-1.3-1.43-2.46-1.95-3.79c-0.75-1.9-2.11-2.59-3.68-2.78c-0.77-0.1-1.11-0.41-1.34-1.19
		c-0.1-0.34-0.34-0.82-0.59-0.88c-1.19-0.32-2.39-0.67-3.59,0.15c-0.54,0.37-1.2,0.55-1.83,0.68c-2.43,0.5-4.86,0.97-7.29,1.4
		c-2.05,0.36-4.1,0.68-6.16,0.97c-2.71,0.39-5.43,0.7-8.14,1.12c-2.42,0.37-4.83,0.82-7.24,1.28c-1.72,0.33-3.43,0.79-5.15,1.11
		c-1.47,0.27-2.96,0.55-4.44,0.62c-2.27,0.1-4.54,0.02-6.81,0.02c-0.73,0-1.46,0-2.25,0c0.39,1.47,0.83,2.81,2.02,3.37
		c0.83,0.39,1.77,0.49,2.67,0.64c0.93,0.15,1.88,0.17,2.81,0.32c2.2,0.35,4.37,0.03,6.52-0.42c1.68-0.35,3.32-0.98,5-1.32
		c1.64-0.33,3.3-0.44,4.95-0.67c2.01-0.28,4.03-0.59,6.04-0.87c0.93-0.13,1.87-0.2,2.8-0.32c1.4-0.18,2.81-0.38,4.21-0.58
		c1.34-0.19,2.69-0.4,4.03-0.57c0.9-0.12,1.81-0.19,2.71-0.28c-0.17,0.14-0.34,0.22-0.52,0.28c-1.11,0.37-2.23,0.76-3.35,1.1
		c-0.37,0.11-0.76,0.1-1.14,0.15c-0.82,0.09-1.64,0.12-2.45,0.29c-0.35,0.07-0.66,0.41-0.99,0.62c0.02,0.08,0.03,0.15,0.05,0.23
		c0.98-0.07,1.97-0.13,2.95-0.2c-0.73,0.36-1.46,0.66-2.21,0.9c-2.75,0.91-5.51,1.78-8.25,2.7c-2.15,0.72-4.29,1.47-6.42,2.25
		c-1.6,0.59-3.18,1.27-4.77,1.88c-0.4,0.15-0.54,0.44-0.46,0.87c0.11,0.58,0.49,0.4,0.78,0.3c0.47-0.17,0.92-0.44,1.4-0.61
		c2.73-0.98,5.47-1.96,8.21-2.91c2.73-0.95,5.47-1.88,8.21-2.81c1.47-0.5,2.95-0.98,4.62-1.53c-0.27,0.25-0.4,0.39-0.54,0.49
		c-0.66,0.46-1.31,0.92-1.98,1.35c-1.87,1.19-3.72,2.44-5.81,3.08c-3.13,0.95-6.26,1.9-9.39,2.85c-1.63,0.49-3.25,1-4.88,1.46
		c-1.52,0.43-3.06,0.81-4.59,1.22c-0.36,0.1-0.75,0.19-1.06,0.41c-0.62,0.43-1.26,0.47-1.94,0.32c-0.81-0.17-1.31-0.74-1.34-1.54
		c-0.03-0.93,0.32-1.45,1.16-1.73c1.06-0.36,2.11-0.77,3.17-1.12c1.64-0.54,3.28-1.07,4.93-1.57c1.73-0.52,3.47-0.98,5.2-1.5
		c2.22-0.67,4.43-1.37,6.63-2.1c1.33-0.44,2.66-0.92,3.97-1.43C169.07,208.8,169.26,208.52,169.56,208.25z M152.36,45.46
		c-0.93-0.36-1.81-0.71-2.69-1.04c-0.56-0.21-1.13-0.54-1.7-0.54c-1.52-0.02-3.06-0.05-4.56,0.22c-2.36,0.43-4.69,1.09-7.03,1.69
		c-0.58,0.15-1.14,0.43-1.71,0.62c-1.35,0.43-2.74,0.77-4.06,1.29c-1.5,0.58-2.96,1.29-4.41,2.02c-0.84,0.43-1.69,0.91-2.43,1.54
		c-1.22,1.04-2.37,2.22-3.54,3.34c-1.21,1.16-2.45,2.27-3.61,3.49c-1.19,1.25-2.33,2.59-3.44,3.94c-0.33,0.4-0.72,0.98-0.7,1.45
		c0.02,0.48,0.47,0.99,0.81,1.4c0.77,0.94,1.72,0.4,2.19-0.53c0.3-0.58,0.64-1.14,1.01-1.66c1.43-1.97,3.03-3.72,4.81-5.24
		c1.67-1.42,3.41-2.71,5.31-3.67c1.87-0.95,3.69-2.05,5.61-2.83c1.98-0.81,4.03-1.41,6.07-1.95c1.76-0.47,3.57-0.76,5.36-1.05
		c1.21-0.19,2.43-0.28,3.65-0.34c1.31-0.06,2.59-0.07,3.86,0.66c1.77,1.02,2.94,2.63,3.94,4.52c0.52,0.98,1.1,1.91,1.69,2.82
		c0.3,0.46,0.8,0.35,1.13,0.12c0.2-0.13,0.37-0.65,0.32-0.94c-0.17-1.11-0.38-2.21-0.68-3.28c-0.3-1.09-0.73-2.13-1.15-3.32
		c0.27,0.07,0.44,0.1,0.61,0.16c2.17,0.71,4.37,1.33,6.5,2.16c2.25,0.88,4.5,1.83,6.5,3.4c0.93,0.73,1.8,1.61,1.9,3.05
		c0.08,1.16-0.12,2.27-0.71,2.97c0.11,0.25,0.16,0.44,0.26,0.59c0.54,0.82,1.08,1.63,1.63,2.43c0.36,0.52,0.77,0.27,0.99-0.12
		c0.24-0.42,0.41-0.95,0.46-1.45c0.09-0.95,0.11-1.91,0.09-2.87c-0.04-1.57-0.31-3.14-1.1-4.41c-0.84-1.35-1.81-2.64-2.89-3.72
		c-0.89-0.88-1.98-1.6-3.08-2.07c-2.04-0.86-4.15-1.5-6.23-2.21c-1.96-0.67-3.92-1.33-5.89-1.94c-0.71-0.22-1.46-0.3-2.19-0.36
		c-0.2-0.02-0.49,0.23-0.6,0.45C152.5,44.56,152.47,44.96,152.36,45.46z M114.62,185.88c1.39,0.38,2.59,0.7,3.78,1.02
		c1.35,0.36,2.7,0.78,4.06,1.06c0.98,0.2,2,0.34,2.99,0.28c1.8-0.1,3.59-0.35,5.39-0.55c0.91-0.1,1.76-0.25,2.62-0.79
		c1.39-0.88,1.82-2.22,1.78-3.87c-0.02-0.99-0.3-1.91-1.16-2.43c-0.55-0.34-1.11-0.7-1.59-1.17c-0.84-0.83-1.84-1.24-2.84-1.67
		c-1.99-0.87-4.06-0.66-6.11-0.59c-0.46,0.02-0.59,0.38-0.63,0.83c-0.06,0.89,0.58,1.82,1.37,1.98c1.45,0.3,2.91,0.58,4.36,0.91
		c0.75,0.17,1.5,0.39,2.23,0.67c0.58,0.22,0.62,0.84,0.57,1.44c-0.05,0.52-0.25,0.91-0.74,1.01c-0.64,0.14-1.27,0.32-1.91,0.42
		c-1.23,0.18-2.47,0.33-3.7,0.45c-2.23,0.22-4.38-0.31-6.5-1.05c-0.91-0.31-1.82-0.62-2.73-0.92c-0.77-0.26-1.54-0.53-2.31-0.76
		c-0.52-0.15-0.94,0.03-1.08,0.69c-0.17,0.84-0.4,1.69-0.44,2.55c-0.09,1.56-0.1,3.12-0.08,4.68c0.02,1.2,0.1,2.41,0.21,3.6
		c0.12,1.3,0.31,2.59,0.48,3.88c0.21,1.55,0.47,3.08,1.06,4.51c0.75,1.81,1.81,3.29,3.19,4.52c1.09,0.97,2.33,1.47,3.56,1.99
		c0.86,0.37,1.84,0.39,2.77,0.5c2.57,0.31,5.11,0.18,7.56-0.93c1.01-0.46,1.89-1.2,2.42-2.32c0.42-0.91,0.7-1.91,1-2.89
		c0.81-2.65,1.44-5.34,1.28-8.2c-0.05-0.97-0.28-1.83-1.16-2.18c-0.33-0.13-0.68-0.2-1.02-0.28c-0.96-0.23-1.23,0.01-1.2,1.17
		c0.04,1.54-0.04,3.06-0.41,4.53c-0.43,1.68-0.86,3.37-1.39,5.01c-0.29,0.9-0.67,1.82-1.64,2.07c-0.71,0.18-1.39,0.55-2.1,0.67
		c-1.09,0.18-2.21,0.37-3.3,0.27c-1.25-0.11-2.53-0.34-3.62-1.19c-0.8-0.63-1.69-1.15-2.36-1.93c-1.22-1.41-1.65-3.3-1.83-5.24
		c-0.19-2.04-0.36-4.07-0.5-6.12C114.81,189.69,114.73,187.84,114.62,185.88z M166.52,68.16c-1.94-1.33-3.89-2.57-5.75-3.97
		c-1.56-1.17-3.22-2.06-4.99-2.63c-1.79-0.57-3.61-1.05-5.44-1.46c-1.45-0.33-2.93-0.6-4.4-0.74c-1.96-0.19-3.93-0.27-5.89-0.31
		c-1.79-0.03-3.58,0-5.36,0.14c-1.67,0.13-3.33,0.46-5,0.67c-2.5,0.31-4.91,1.02-7.28,1.96c-1,0.39-1.99,0.86-2.94,1.39
		c-0.69,0.38-0.89,1.08-0.65,1.76c0.16,0.45,0.37,0.87,0.51,1.32c0.17,0.52,0.4,0.67,0.84,0.38c0.81-0.54,1.6-1.12,2.45-1.58
		c1.9-1.04,3.89-1.78,5.97-2.21c2.38-0.49,4.75-1.04,7.2-0.88c1.83,0.12,3.68,0.1,5.5,0.3c2.41,0.27,4.82,0.59,7.2,1.08
		c1.87,0.38,3.71,0.99,5.55,1.6c1.22,0.4,2.43,0.93,3.61,1.48c1.69,0.8,3.37,1.63,5.02,2.54c1.59,0.88,3.12,1.9,4.69,2.81
		c0.96,0.55,1.87,0.21,2.33-0.89c0.47-1.14,1.16-1.99,2.12-2.57c1.71-1.03,3.45-1,5.31-0.51c2.18,0.57,4.06,1.78,5.82,3.23
		c1.32,1.09,2.49,2.47,3.63,3.83c0.81,0.97,1.44,2.14,2.18,3.2c0.83,1.2,1.69,2.37,2.53,3.56c0.4,0.56,0.95,0.37,1.33,0.16
		c0.42-0.22,0.14-0.76,0.02-1.16c-0.16-0.54-0.3-1.09-0.47-1.62c-0.67-2.09-1.93-3.71-3.17-5.32c-0.81-1.04-1.7-1.99-2.58-2.96
		c-1.44-1.58-2.99-2.96-4.72-4.11c-2.14-1.42-4.4-2.12-6.83-2.13c-1.98-0.01-3.91,0.36-5.73,1.33
		C168.06,66.43,167.06,67.02,166.52,68.16z M101.35,85.64c-0.06-0.07-0.12-0.13-0.18-0.2c0.62-1.32,1.19-2.68,1.87-3.96
		c0.5-0.94,1.13-1.79,1.75-2.63s1.26-1.7,1.98-2.41c0.89-0.86,1.86-1.6,2.83-2.34c1.06-0.8,2.11-1.64,3.24-2.27
		c1.51-0.85,3.09-1.52,4.64-2.26c0.28-0.13,0.41-0.26,0.31-0.7c-0.3-1.29-1.49-1.97-2.69-1.8c-2.14,0.29-3.95,1.55-5.73,2.78
		c-1.35,0.93-2.6,2.09-3.79,3.28c-1.2,1.2-2.33,2.53-3.41,3.89c-0.75,0.95-1.4,2.03-2,3.12c-0.38,0.7-0.73,1.51-0.84,2.31
		c-0.25,1.74-0.44,3.51-0.45,5.27c0,0.76-0.15,1.71,0.53,2.38c0.7,0.69,1.29,1.55,2.02,2.17c0.97,0.82,1.97,1.82,3.08,2.15
		c1.92,0.56,3.92,0.78,5.91,0.92c2.61,0.2,5.05-0.81,7.44-1.92c0.34-0.16,0.61-0.5,0.66-1.1c0.09-1.09-1.41-2.46-2.35-2.13
		c-1.95,0.69-3.85,1.64-5.93,1.68c-1.22,0.03-2.48,0.14-3.65-0.17c-1.23-0.32-2.37-1.09-3.55-1.67c-0.47-0.23-0.43-0.64-0.2-1.05
		c0.15-0.26,0.37-0.47,0.53-0.72c0.88-1.34,1.65-2.76,2.86-3.77c0.91-0.75,1.74-1.65,2.64-2.43c0.92-0.8,1.86-1.59,2.85-2.27
		c1.71-1.17,3.62-1.21,5.54-1.18c0.61,0.01,1.22-0.1,1.84-0.15c0.37-0.03,0.42-0.41,0.34-0.64c-0.14-0.44-0.31-0.99-0.62-1.21
		c-0.97-0.69-2.07-1.05-3.2-0.92c-1.08,0.13-2.16,0.42-3.22,0.71c-1.52,0.42-2.97,1.12-4.28,2.11c-1.07,0.81-2.08,1.73-3.04,2.75
		c-0.88,0.94-1.74,1.9-2.57,2.9C102.13,84.67,101.75,85.16,101.35,85.64z M138.48,90.12c0.03-0.01,0.07-0.02,0.1-0.03
		c0.01-0.19,0-0.4,0.04-0.58c0.5-2.11,1.86-3.45,3.22-4.76c0.78-0.76,1.63-1.41,2.44-2.12c0.32-0.27,0.6-0.64,0.95-0.81
		c0.28-0.14,0.71-0.2,0.94-0.04c1.36,0.95,2.71,1.94,4.02,2.98c1.15,0.92,2.09,2.1,2.6,3.66c0.54,1.66,0.48,3.21-0.5,4.64
		c-0.22,0.32-0.47,0.63-0.63,0.99c-0.3,0.65-0.09,1.1,0.52,1.19c0.26,0.03,0.54-0.03,0.79-0.12c1.22-0.43,1.59-1.77,1.93-2.9
		c0.67-2.28,0.03-4.42-1.08-6.35c-1.25-2.19-2.86-3.98-4.8-5.32c-1.07-0.74-2.18-1.44-3.45-1.59c-0.47-0.06-1.07-0.02-1.44,0.27
		c-1.05,0.8-2.05,1.7-3,2.65c-1.8,1.8-3.33,3.88-4.2,6.49c-0.46,1.38-1.23,2.75-0.32,4.35c0.49,0.85,0.71,1.9,1.17,2.78
		c0.17,0.33,0.7,0.62,1.02,0.57c0.48-0.07,0.53-0.68,0.51-1.19c-0.01-0.19-0.06-0.38-0.09-0.57
		C138.99,92.91,138.73,91.51,138.48,90.12z M136.15,200.85c0.03,0.5-0.02,1.07,0.12,1.55c0.28,0.97,0.96,1.47,1.82,1.49
		c1.02,0.03,1.91-0.46,2.32-1.57c0.35-0.95,0.56-1.99,0.7-3.01c0.25-1.84,0.4-3.69,0.57-5.54c0.17-1.84,0.13-3.67-0.2-5.48
		c-0.08-0.45-0.38-0.91-0.69-1.23c-1.39-1.42-2.97-1.4-4.59-0.67c-0.19,0.08-0.37,0.45-0.4,0.71c-0.1,0.96,0.61,2.11,1.81,2.07
		c1.05-0.04,1.23,0.18,1.29,1.35c0.02,0.38-0.02,0.77-0.07,1.16c-0.29,2.23-0.6,4.45-0.87,6.68
		C137.77,199.79,137.33,200.47,136.15,200.85z M192.54,86.16c-0.07-0.17-0.14-0.32-0.19-0.48c-0.02-0.04-0.01-0.1-0.01-0.14
		c0.14-1.74-0.55-3.01-1.75-3.92c-1.02-0.78-2.13-1.4-3.11-2.24c-1.63-1.41-3.47-2.17-5.41-2.66c-1.17-0.3-2.36-0.58-3.55-0.7
		c-1.41-0.14-2.85-0.2-4.14,0.66c-0.25,0.17-0.53,0.55-0.55,0.86c-0.02,0.25,0.3,0.67,0.54,0.77c0.68,0.29,1.39,0.49,2.1,0.65
		c1.74,0.37,3.49,0.67,5.23,1.06c0.65,0.14,1.31,0.34,1.89,0.69c2.49,1.46,4.88,3.1,7.05,5.17
		C191.12,86.32,191.78,86.8,192.54,86.16z M191.09,89.01c-0.22-0.34-0.39-0.84-0.67-0.97c-0.41-0.19-0.88-0.05-1.34,0.2
		c-1.48,0.81-2.97,1.64-4.51,2.23c-1.62,0.62-3.31,0.74-5.04,0.51c-1.82-0.25-3.39-1.13-4.77-2.4c-0.91-0.84-1.86-1.54-2.89-2.11
		c-0.17-0.1-0.51,0.07-0.7,0.22c-0.1,0.07-0.08,0.4-0.07,0.61s0.08,0.42,0.13,0.63c0.26,1.12,0.58,2.18,1.47,2.85
		c0.74,0.55,1.56,1.01,2.21,1.68c1.36,1.39,3.01,1.86,4.69,2.02c2.21,0.21,4.31-0.45,6.32-1.57
		C187.74,91.89,189.34,90.52,191.09,89.01z M141.15,102.97c-0.61,0-1.11-0.04-1.61,0.01c-0.32,0.03-0.74,0.03-0.72,0.63
		c0.01,0.5-0.14,1.11,0.43,1.34c0.77,0.31,1.55,0.61,2.34,0.83c0.76,0.21,1.56,0.22,2.31,0.46c2.11,0.67,4.05,1.85,5.98,3.03
		c0.77,0.47,1.48,0.18,1.6-0.81c0.05-0.44-0.08-1.13-0.35-1.38c-1-0.93-2.02-1.92-3.17-2.52
		C145.78,103.42,143.47,102.73,141.15,102.97z M125.26,85.72c0.01,0.25-0.05,0.66,0.05,0.72c0.76,0.47,1.5,1.11,2.43,0.92
		c0.77-0.16,1.34,0.06,1.83,0.81c0.46,0.72,1.31,0.91,1.9,0.55c0.56-0.34,1.48-2.13,1.37-2.66c-0.1-0.46-1.38-1.64-1.82-1.63
		c-1.53,0.04-3.05,0.06-4.58,0.16C125.2,84.66,125.2,84.71,125.26,85.72z M146.55,84.65c0,1.7,0.03,3.15-0.01,4.59
		c-0.03,1.1,0.25,2.09,0.72,3.01c0.48,0.95,1.26,1.22,1.83,0.68c0.36-0.34,0.75-0.69,0.99-1.14c0.26-0.49,0.56-1.12,0.51-1.65
		c-0.09-1.07-0.56-2.05-1.24-2.79C148.51,86.41,147.56,85.6,146.55,84.65z M143.78,85.26c-0.69,0.94-1.69,1.74-1.8,3.24
		c-0.03,0.35-0.17,0.69-0.17,1.03c0,0.4,0.05,0.83,0.19,1.2c0.43,1.15,1.36,1.59,2.24,2.12c0.34,0.2,0.53,0.08,0.61-0.26
		c0.16-0.69,0.35-1.39,0.37-2.09C145.28,88.56,145.06,86.69,143.78,85.26z M161.84,84.7c0,0.01,0,0.02,0,0.03
		c-0.83,0.05-1.66,0.08-2.48,0.15c-0.26,0.02-0.62,0.06-0.76,0.25c-0.23,0.32-0.33,0.77-0.42,1.19c-0.01,0.04,0.41,0.27,0.65,0.31
		c0.5,0.09,1.02,0.18,1.52,0.13c0.94-0.1,1.58,0.08,1.78,1.38c0.11,0.68,0.75,0.92,1.37,0.88c0.56-0.04,0.92-0.37,1.12-0.97
		c0.1-0.29,0.23-0.55,0.35-0.83c0.06-0.15,0.17-0.31,0.15-0.45c-0.05-0.64-1.11-1.97-1.69-2.05C162.9,84.64,162.37,84.7,161.84,84.7
		z"/>
	<path class="st2" d="M166.59,92.15c0.05-0.02,0.24-0.13,0.44-0.15c0.22-0.02,0.53-0.04,0.66,0.11c0.66,0.75,1.29,1.59,1,2.77
		c-0.4,1.63-0.73,3.33-1.39,4.82c-0.75,1.71-1.82,3.23-2.78,4.8c-1.7,2.8-3.41,5.59-5.13,8.37c-1.38,2.22-2.77,4.44-4.16,6.65
		c-0.92,1.45-1.81,2.92-2.79,4.32c-1.2,1.71-2.41,3.43-3.73,5.01c-1.4,1.68-2.91,3.23-4.4,4.79c-0.61,0.64-1.29,1.2-1.96,1.78
		c-1.09,0.94-2.19,1.89-3.31,2.8c-1.09,0.88-2.19,1.74-3.32,2.54c-1.3,0.92-2.65,1.75-3.98,2.63c-0.9,0.59-1.8,1.18-2.77,1.81
		c0.99,1.37,1.92,2.68,2.86,3.96c0.68,0.92,1.35,1.84,2.08,2.71c0.96,1.15,1.96,2.25,2.97,3.35c1.03,1.12,2.05,2.25,3.12,3.31
		c1.02,1.01,2.1,1.95,3.17,2.89c1.07,0.95,2.15,1.89,3.25,2.79c1.22,0.98,2.48,1.89,3.71,2.85c1.41,1.1,2.83,2.18,4.21,3.35
		c2.07,1.76,4.08,3.61,6.14,5.37c1.69,1.44,3.35,2.97,5.16,4.17c2.27,1.51,4.59,2.95,7.1,3.89c1.71,0.64,3.39,1.4,5.1,2.04
		c3.45,1.27,6.91,2.51,10.37,3.72c1.85,0.65,3.7,1.26,5.57,1.82c1.96,0.6,3.92,1.19,5.9,1.65c0.94,0.22,0.94,0.48,1.42-0.85
		c0.67-1.87,1.46-3.69,2.09-5.59c0.66-1.99,1.21-4.03,1.75-6.07c0.35-1.34,0.67-2.7,0.86-4.08c0.31-2.3,0.59-4.61,0.71-6.92
		c0.13-2.49,0.16-5,0.04-7.49c-0.1-2.22-0.47-4.42-0.72-6.63c-0.14-1.29-0.25-2.58-0.4-3.87c-0.05-0.42-0.16-0.83-0.25-1.27
		c-1.28,0.39-2.47,0.15-3.6-0.29c-1.98-0.77-3.95-1.61-5.87-2.56c-1.25-0.62-2.42-1.46-3.61-2.24c-1.14-0.75-2.3-1.46-3.37-2.33
		c-1.69-1.38-3.36-2.79-4.92-4.35c-0.68-0.68-1.14-1.72-1.57-2.68c-0.42-0.93,0.01-1.97,0.83-2.77c1.41-1.37,2.86-2.7,4.13-4.24
		c1.35-1.65,2.26-3.68,2.73-5.93c0.54-2.55,1.09-5.1,1.64-7.65c0.25-1.13,0.54-2.25,0.75-3.39c0.11-0.59,0.07-1.22,0.17-1.82
		c0.11-0.62,0.26-1.25,0.49-1.82c0.12-0.31,0.46-0.51,0.67-0.78c0.14-0.18,0.35-0.46,0.31-0.62c-0.69-2.82-1.43-5.62-2.13-8.44
		c-0.42-1.7-0.8-3.41-1.2-5.16c0.06-0.02,0.15-0.03,0.24-0.07c1.25-0.49,1.36-0.37,2.05,0.89c1.37,2.51,2.05,5.31,2.64,8.16
		c0.34,1.65,0.78,3.27,1.16,4.91c0.34,1.46,0.62,2.94,1.01,4.38c0.44,1.66,0.98,3.28,1.46,4.92c0.54,1.87,1.01,3.77,1.59,5.62
		c0.5,1.58,1.14,3.11,1.66,4.68c0.52,1.59,0.99,3.2,1.45,4.82c0.6,2.11,1.18,4.22,1.74,6.34c0.48,1.82,0.96,3.64,1.4,5.47
		c0.55,2.25,1.1,4.49,1.59,6.76c0.24,1.13,0.34,2.31,0.48,3.47c0.26,2.25,0.54,4.49,0.74,6.75c0.19,2.14,0.31,4.28,0.4,6.43
		c0.09,2.01,0.14,4.02,0.12,6.04c-0.01,1.07-0.21,2.15-0.37,3.21c-0.27,1.78-0.55,3.56-0.89,5.33c-0.56,3-1.21,5.97-2.36,8.76
		c-0.63,1.52-1.28,3.04-1.96,4.53c-0.6,1.31-1.24,2.09-2.88,0.5c-0.1,0.38-0.2,0.72-0.28,1.07c-0.09,0.37-0.22,0.61-0.63,0.47
		c-0.2-0.07-0.44,0.08-0.66,0.07c-1.2-0.03-2.4-0.13-3.6-0.1c-1.54,0.03-2.96-0.58-4.41-1.05c-1.75-0.57-3.48-1.2-5.21-1.82
		c-1.46-0.52-2.91-1.06-4.36-1.62c-2.54-0.98-5.08-1.93-7.6-2.99c-2.01-0.85-4.03-1.72-5.94-2.84c-1.88-1.11-3.67-2.46-5.41-3.85
		c-1.96-1.55-3.83-3.26-5.74-4.89c-1.87-1.59-3.72-3.21-5.61-4.76c-1.55-1.27-3.17-2.43-4.74-3.68c-1.25-1-2.46-2.07-3.7-3.08
		c-3-2.44-5.79-5.16-8.44-8.09c-1.71-1.88-3.36-3.84-4.99-5.82c-1.06-1.29-2.11-2.6-3-4.04c-0.81-1.31-1.4-2.82-2.07-4.24
		c-0.16-0.34-0.27-0.71-0.41-1.11c0.86-0.55,1.7-1.1,2.54-1.64c1.53-0.97,3.12-1.84,4.59-2.91c1.78-1.29,3.49-2.7,5.18-4.14
		c1.61-1.37,3.16-2.85,4.72-4.3c0.81-0.75,1.63-1.47,2.37-2.31c0.98-1.1,1.88-2.29,2.81-3.46c0.41-0.51,0.79-1.05,1.25-1.67
		c-0.62-0.21-1.2-0.45-1.79-0.6c-1.93-0.5-3.9-0.87-5.67-1.94c-2.12-1.29-4.31-2.43-6.23-4.15c-1.1-0.98-2.3-1.83-3.35-2.89
		c-1.59-1.62-3.08-3.37-4.6-5.08c-1.14-1.29-2.25-2.63-3.39-3.92c-1.2-1.35-2.42-2.68-3.65-3.99c-0.66-0.71-0.56-1.22,0.23-1.69
		c1.07-0.64,1.78,0.14,2.44,0.82c1.56,1.62,3.07,3.31,4.57,5.02c1.07,1.22,2.01,2.61,3.14,3.72c1.4,1.38,2.93,2.59,4.44,3.8
		c3.21,2.58,6.82,3.99,10.64,4.76c1.14,0.23,2.29,0.49,3.36,0.96c0.55,0.24,0.99,0.9,1.41,1.45c0.43,0.56,0.89,0.61,1.25,0.01
		c1.48-2.44,2.95-4.88,4.44-7.31c1.05-1.72,2.08-3.46,3.16-5.15c1.51-2.36,3.07-4.66,4.58-7.02c0.81-1.26,1.63-2.53,2.28-3.9
		C166.21,94.35,166.31,93.29,166.59,92.15z M194.92,113.09c-0.06-0.05-0.11-0.09-0.17-0.14c-0.03,0.1-0.07,0.19-0.08,0.29
		c-0.11,1.28-0.2,2.57-0.32,3.85c-0.33,3.54-0.96,7.01-2.05,10.34c-0.75,2.32-1.84,4.38-3.51,5.97c-1.02,0.98-2.07,1.93-3.24,3.03
		c6.42,3.92,13.06,7.04,19.17,11.54c0.02-0.23,0.06-0.38,0.03-0.51c-0.4-2.03-0.73-4.07-1.22-6.07c-0.53-2.15-1.21-4.26-1.83-6.38
		c-0.72-2.45-1.43-4.9-2.17-7.34c-0.61-2.02-1.25-4.02-1.9-6.03c-0.49-1.52-1.01-3.03-1.5-4.56
		C195.72,115.77,195.33,114.43,194.92,113.09z"/>
	<path class="st2" d="M64.78,181.79c-0.27-1.11-0.63-2.22-0.78-3.38c-0.14-1.09-0.12-2.23-0.06-3.34c0.09-1.72,0.25-3.44,0.45-5.15
		c0.15-1.25,0.38-2.49,0.63-3.72c0.31-1.56,0.59-3.14,1.02-4.65c0.61-2.15,1.25-4.3,2.06-6.36c0.84-2.15,1.79-4.26,2.87-6.25
		c1.3-2.37,2.73-4.66,4.24-6.85c1.16-1.67,2.48-3.22,3.84-4.67c1.93-2.05,3.96-3.96,5.94-5.95c0.59-0.59,1.14-1.23,1.71-1.85
		c0.29-0.32,0.31-0.65,0.18-1.11c-0.42-1.51-0.76-3.05-1.17-4.56c-0.38-1.41,0.14-2.52,0.77-3.64c1.2-2.14,3.06-3.12,4.99-3.92
		c0.82-0.34,1.77-0.08,2.54,0.45c1.11,0.76,2.18,1.62,3.24,2.47c0.32,0.26,0.42,0.19,0.57-0.18c0.84-2.03,1.67-4.07,2.57-6.06
		c0.61-1.34,1.39-2.58,2-3.92c0.76-1.68,1.46-3.4,2.12-5.14c0.41-1.09,0.7-2.24,1.01-3.38c0.15-0.54,0.25-1.1,0.81-1.27
		c0.45-0.13,1.3,0.3,1.61,0.72c0.88,1.17,0.9,2.56,0.75,3.97c-0.2,1.84-0.79,3.53-1.56,5.14c-0.83,1.73-1.68,3.45-2.42,5.24
		c-1.22,2.92-2.38,5.86-3.51,8.83c-0.59,1.55-1.03,3.18-1.58,4.76c-0.37,1.07-0.83,2.1-1.18,3.18c-0.38,1.15-0.68,2.33-1.04,3.49
		c-0.48,1.58-1,3.15-1.47,4.73c-0.54,1.82-1.07,3.65-1.57,5.49c-0.56,2.04-1.14,4.07-1.6,6.14c-0.66,2.97-1.23,5.97-1.23,9.06
		c0,1.63-0.05,3.26,0.05,4.88c0.2,3.09,0.44,6.17,0.77,9.25c0.15,1.39,0.54,2.75,0.82,4.13c0.66,3.23,1.88,6.18,3.21,9.08
		c1.46,3.18,2.97,6.34,4.49,9.49c0.54,1.11,1.19,2.13,1.76,3.21c0.12,0.23,0.24,0.72,0.17,0.77c-0.26,0.2-0.63,0.45-0.9,0.38
		c-0.79-0.22-1.57-0.51-2.3-0.9c-1.96-1.04-3.04-3.01-3.99-5.15c-0.74-1.66-1.57-3.25-2.33-4.89c-0.63-1.38-1.24-2.78-1.82-4.19
		c-0.71-1.71-1.46-3.4-2.04-5.16c-0.65-1.98-1.21-4-1.66-6.06c-0.48-2.2-0.95-4.43-1.11-6.68c-0.19-2.64-0.14-5.32-0.03-7.97
		c0.08-2.03,0.33-4.07,0.65-6.08c0.33-2.1,0.72-4.21,1.3-6.23c1.13-3.94,2.4-7.83,3.63-11.74c0.66-2.08,1.35-4.14,2.05-6.2
		c0.55-1.62,1.16-3.22,1.68-4.85c0.31-0.99,0.51-2.04,0.73-3.06c0.13-0.6-0.28-1.11-0.95-1.43c-2.19-1.05-4.14,0.52-5.3,2.1
		c-0.74,1-0.8,2.15-0.42,3.33c0.5,1.55,1.03,3.09,1.58,4.62c0.5,1.39,0.34,2-0.85,2.58c-2.41,1.18-4.62,2.75-6.65,4.65
		c-0.95,0.89-1.79,1.92-2.69,2.89c-0.43,0.46-0.88,0.88-1.3,1.35c-0.67,0.77-1.35,1.53-1.97,2.35c-2.32,3.13-3.9,6.78-5.2,10.58
		c-0.93,2.71-1.62,5.54-2.31,8.35c-0.5,2.04-0.91,4.13-1.24,6.22c-0.41,2.58-0.68,5.2-1.08,7.78c-0.25,1.62-0.07,3.13,0.5,4.62
		c0.18,0.48-0.1,0.89-0.66,1.02c-0.09,0.02-0.2-0.04-0.29-0.03c-0.69,0.1-1.47,0-1.48,1.27c0,0.23-0.45,0.42-0.59,0.7
		c-0.81,1.6-1.79,3.13-2.31,4.84c-0.52,1.74-0.54,3.7,0.22,5.44c0.62,1.44,1.94,1.57,3.12,0.53c1.17-1.04,2.4-1.98,3.64-2.92
		c0.51-0.39,2.17,0.1,2.66,0.48c0.96,0.73,1.52,1.84,2.14,2.88c0.49,0.83,0.85,1.76,1.33,2.59c0.89,1.55,1.99,2.88,3.24,4.03
		c1.93,1.78,4.13,2.92,6.48,3.54c2.12,0.57,4.3,0.91,6.48,1.15c1.86,0.21,3.75,0.24,5.63,0.15c2.14-0.09,4.32-0.04,6.41-0.72
		c0.8-0.26,1.55-0.71,2.33-1.07c1.23-0.57,2.43-0.67,3.6,0.25c0.49,0.38,0.88,0.82,0.88,1.5c-0.01,0.82-0.58,1.24-1.13,1.53
		c-1.24,0.66-2.55,1.07-3.89,1.42c-2.31,0.6-4.64,0.72-6.97,0.79c-1.7,0.05-3.42-0.15-5.12-0.32c-1.78-0.18-3.56-0.38-5.32-0.73
		c-1.84-0.36-3.65-0.89-5.36-1.8c-0.8-0.43-1.63-0.78-2.4-1.27c-1.16-0.74-2.31-1.51-3.39-2.39c-2.06-1.67-3.76-3.8-5.47-5.92
		c-0.3-0.37-0.54-0.98-0.89-1.08c-0.32-0.09-0.75,0.36-1.13,0.57c-1.93,1.02-3.85,1.55-5.99,0.63c-1.14-0.49-2.33-0.87-3.23-1.79
		c-0.67-0.68-1.21-1.64-1.57-2.6c-0.36-0.95-0.51-2.05-0.61-3.09c-0.14-1.43,0-2.87,0.49-4.21c0.42-1.17,0.93-2.3,1.4-3.45
		c0.51-1.25,1.31-2.03,2.51-2.18C63.97,181.85,64.4,181.82,64.78,181.79z"/>
	<path class="st2" d="M236.94,185.49c-0.15-1.92-0.28-3.73-0.47-5.52c-0.02-0.22-0.38-0.4-0.6-0.59c-0.04-0.04-0.12-0.01-0.19-0.02
		c-1.17-0.24-1.33-0.12-1.7,1.2c-0.11,0.41-0.21,0.83-0.4,1.2c-0.29,0.58-0.83,0.6-1.19,0.1c-1.2-1.67-1.89-3.62-2.07-5.75
		c-0.12-1.31,0.07-2.66,0.11-4c0.05-1.91,0.13-3.83,0.1-5.74c-0.03-2.11-0.34-4.19-0.85-6.23c-0.49-1.97-1.01-3.92-1.97-5.66
		c-0.83-1.5-1.53-3.12-2.51-4.48c-1.16-1.61-2.42-3.15-3.96-4.3c-0.75-0.56-1.44-1.27-2.21-1.79c-1.18-0.79-2.42-1.48-3.63-2.22
		c-1.25-0.75-2.68-1.11-3.72-2.27c-0.53-0.59-0.54-1.45-0.34-2.27c0.59-2.41,1.18-4.81,1.77-7.22c0.35-1.43-0.89-2.79-2.26-2.44
		c-0.76,0.19-1.54,0.39-2.25,0.76c-0.85,0.44-1.46,1.21-1.55,2.39c-0.03,0.35-0.06,0.71-0.13,1.05c-0.14,0.65-0.5,0.96-1.08,1.01
		c-0.55,0.05-0.95-0.22-1.21-0.73c-0.9-1.73-0.42-4.71,0.42-6.01c1.14-1.77,2.6-2.53,4.4-2.33c2.27,0.25,4.29,1.29,5.59,3.53
		c0.87,1.5,1.47,3.23,1.42,5.13c-0.04,1.56-0.59,2.95-1.08,4.36c-0.14,0.4-0.28,0.81-0.46,1.3c0.94,0.27,1.9,0.46,2.81,0.81
		c2.82,1.08,5.48,2.57,7.71,4.91c1.09,1.14,2.18,2.31,3.05,3.66c1.07,1.65,1.96,3.46,2.82,5.27c0.57,1.22,1,2.54,1.4,3.86
		c0.49,1.65,0.95,3.32,1.31,5.01c0.37,1.73,0.68,3.48,0.87,5.24c0.19,1.79,0.21,3.61,0.3,5.42c0.02,0.46-0.01,0.93,0.1,1.36
		c0.13,0.55,0.27,1.02,0.82,1.39c0.84,0.58,1.52,1.48,2.21,2.3c1.68,1.98,1.57,4.53,1.62,7.04c0.02,1.06,0.1,2.12,0.13,3.18
		c0.01,0.58-0.07,1.17-0.05,1.75c0.02,0.72-0.44,0.96-0.86,1.01c-1.02,0.13-2.06,0.16-3.09,0.17c-0.7,0.01-1.4-0.09-2.19-0.14
		c0,0.51-0.02,1,0,1.48c0.13,3.17-0.36,6.19-1.54,9.05c-0.85,2.06-2.08,3.82-3.57,5.27c-1.5,1.45-3.1,2.8-5.01,3.47
		c-1.52,0.53-3.07,1.11-4.63,1.31c-1.88,0.24-3.79,0-5.66-0.49c-1.42-0.37-2.87-0.56-4.29-0.95c-1.47-0.41-2.92-0.95-4.37-1.45
		c-1.28-0.44-2.6-0.81-3.83-1.39c-0.59-0.28-1.14-0.91-1.51-1.55c-0.45-0.78-0.84-1.65-0.73-2.7c0.07-0.67,0.41-0.79,0.84-0.67
		c1.27,0.35,2.53,0.74,3.8,1.11c2.16,0.63,4.3,1.33,6.48,1.84c2.54,0.59,5.08,1.4,7.7,1.24c1-0.06,2.01-0.4,2.95-0.82
		c1.14-0.51,2.22-1.21,3.31-1.88c1.76-1.08,3.21-2.57,4.33-4.5c0.62-1.07,1.38-2.06,1.84-3.22c0.43-1.08,0.63-2.32,0.78-3.51
		c0.12-0.97,0.05-1.98,0-2.97c-0.03-0.64-0.19-1.27-0.26-1.91c-0.05-0.46-0.09-0.94-0.04-1.39c0.05-0.53,0.69-0.77,1.34-0.64
		c1.31,0.26,2.63,0.5,3.95,0.7C236.09,185.65,236.47,185.54,236.94,185.49z"/>
	<path class="st1" d="M169.56,208.25c-0.3,0.27-0.49,0.55-0.73,0.64c-1.32,0.5-2.64,0.99-3.97,1.43c-2.2,0.72-4.41,1.42-6.63,2.1
		c-1.73,0.53-3.47,0.98-5.2,1.5c-1.65,0.5-3.29,1.03-4.93,1.57c-1.06,0.35-2.11,0.76-3.17,1.12c-0.84,0.29-1.19,0.8-1.16,1.73
		c0.03,0.8,0.53,1.37,1.34,1.54c0.68,0.15,1.31,0.11,1.94-0.32c0.31-0.22,0.7-0.31,1.06-0.41c1.53-0.42,3.06-0.79,4.59-1.22
		c1.63-0.46,3.25-0.97,4.88-1.46c3.13-0.95,6.26-1.9,9.39-2.85c2.09-0.63,3.94-1.88,5.81-3.08c0.67-0.43,1.32-0.89,1.98-1.35
		c0.15-0.1,0.27-0.24,0.54-0.49c-1.66,0.55-3.14,1.02-4.62,1.53c-2.74,0.93-5.48,1.86-8.21,2.81c-2.74,0.96-5.47,1.93-8.21,2.91
		c-0.47,0.17-0.92,0.44-1.4,0.61c-0.29,0.11-0.68,0.28-0.78-0.3c-0.08-0.43,0.06-0.72,0.46-0.87c1.6-0.61,3.17-1.29,4.77-1.88
		c2.13-0.78,4.27-1.53,6.42-2.25c2.75-0.92,5.5-1.79,8.25-2.7c0.74-0.24,1.47-0.54,2.21-0.9c-0.98,0.07-1.97,0.13-2.95,0.2
		c-0.02-0.08-0.03-0.15-0.05-0.23c0.33-0.21,0.64-0.55,0.99-0.62c0.81-0.16,1.63-0.2,2.45-0.29c0.38-0.04,0.78-0.04,1.14-0.15
		c1.12-0.34,2.23-0.73,3.35-1.1c0.18-0.06,0.35-0.14,0.52-0.28c-0.9,0.09-1.81,0.17-2.71,0.28c-1.35,0.18-2.69,0.39-4.03,0.57
		c-1.4,0.2-2.81,0.4-4.21,0.58c-0.93,0.12-1.87,0.19-2.8,0.32c-2.01,0.28-4.03,0.59-6.04,0.87c-1.65,0.23-3.32,0.34-4.95,0.67
		c-1.68,0.34-3.32,0.96-5,1.32c-2.15,0.45-4.32,0.76-6.52,0.42c-0.93-0.15-1.88-0.17-2.81-0.32c-0.9-0.15-1.84-0.25-2.67-0.64
		c-1.19-0.56-1.64-1.9-2.02-3.37c0.79,0,1.52,0,2.25,0c2.27,0,4.55,0.08,6.81-0.02c1.49-0.07,2.97-0.35,4.44-0.62
		c1.72-0.32,3.43-0.78,5.15-1.11c2.41-0.46,4.82-0.91,7.24-1.28c2.71-0.42,5.43-0.73,8.14-1.12c2.06-0.3,4.11-0.61,6.16-0.97
		c2.44-0.43,4.87-0.9,7.29-1.4c0.63-0.13,1.29-0.31,1.83-0.68c1.2-0.82,2.4-0.47,3.59-0.15c0.25,0.07,0.48,0.54,0.59,0.88
		c0.23,0.78,0.57,1.09,1.34,1.19c1.57,0.19,2.94,0.88,3.68,2.78c0.52,1.33,1.35,2.49,1.95,3.79c0.22,0.47,0.25,1.12,0.23,1.68
		c-0.04,0.95-0.81,1.03-1.37,1.32c-1.89,0.99-3.79,1.96-5.69,2.93c-1.16,0.59-2.32,1.15-3.48,1.73c-1.06,0.54-2.11,1.11-3.18,1.63
		c-1.85,0.9-3.7,1.79-5.56,2.66c-1.26,0.59-2.5,1.26-3.79,1.67c-1.72,0.54-3.4,1.3-5.23,1.31c-0.73,0.01-1.4,0-2.02-0.48
		c-0.16-0.13-0.34-0.28-0.43-0.47c-0.59-1.35-1.15-2.72-1.74-4.07c-0.54-1.23-0.56-1.24-1.71-0.89c-1.63,0.49-3.25,1-4.87,1.51
		c-3.22,1.01-6.44,1.98-9.64,3.04c-1.37,0.45-2.66,0.59-3.92-0.31c-0.68-0.49-1.21-1.14-1.17-2.14c0.01-0.38,0.14-0.8,0.33-1.11
		c0.52-0.86,0.96-1.78,2-2.09c1.9-0.57,3.76-1.33,5.65-1.97c2.49-0.84,4.98-1.68,7.49-2.45c1.75-0.54,3.52-0.98,5.29-1.43
		c1.71-0.44,3.43-0.86,5.15-1.25C168.9,207.99,169.15,208.15,169.56,208.25z M164.82,215.59c0.17,0.46,0.29,0.81,0.44,1.15
		c0.48,1.11,0.91,2.25,1.46,3.31c0.42,0.83,1.02,1.39,1.97,1.03c1.16-0.44,2.36-0.75,3.52-1.2c1.7-0.65,3.4-1.34,5.07-2.07
		c2.33-1.02,4.65-2.07,6.95-3.15c2.04-0.96,4.09-1.94,6.09-3c1.5-0.79,2.97-1.69,4.42-2.62c0.98-0.63,1-0.71,0.44-1.85
		c-0.68-1.39-1.42-2.73-2.18-4.06c-0.6-1.07-1.46-1.4-2.51-0.96c-0.25,0.1-0.53,0.12-0.79,0.21c-0.95,0.33-1.9,0.66-2.88,1.01
		c0.28,0.5,0.54,0.9,0.76,1.34c0.27,0.56,0,1.05-0.34,1.31c-0.42,0.32-0.95,0.49-1.46,0.62c-0.84,0.22-1.15-0.06-1.35-1.05
		c-0.07-0.33-0.17-0.65-0.25-0.98c-0.19,0.89-0.5,1.6-1.26,1.87c-0.89,0.33-1.8,0.58-2.69,0.92c-1.03,0.4-2.11,0.73-3.07,1.31
		c-1.25,0.75-2.42,1.7-3.61,2.58c-0.71,0.52-1.35,1.08-0.95,2.26c0.14,0.43,0.16,0.93,0.26,1.38c0.04,0.16,0.16,0.31,0.28,0.41
		c0.33,0.28,0.73,0.46,0.99,0.8c0.24,0.32,0.53,0.86,0.45,1.19c-0.09,0.36-0.55,0.65-0.9,0.83c-0.2,0.1-0.51-0.07-0.67-0.1
		c0-0.58,0.13-1.18-0.03-1.63c-0.2-0.53-0.67-0.72-1.23-0.45c-0.61,0.29-0.54,0.83-0.53,1.39c0,0.2,0.08,0.49,0,0.58
		c-0.18,0.19-0.44,0.26-0.67,0.38c-0.12-0.31-0.39-0.66-0.34-0.92c0.12-0.6,0.4-1.15,0.62-1.71c-1.2-0.06-1.72-0.49-1.86-1.65
		C167.62,214.57,166.26,215.07,164.82,215.59z M182.96,204.79c-0.26,0-0.52-0.02-0.77,0.01c-0.35,0.04-0.71,0.06-1.03,0.2
		c-0.91,0.39-1.79,0.87-2.7,1.24c-0.89,0.36-1.8,0.62-2.82,0.96C176.89,207.78,182.21,205.97,182.96,204.79z M185.31,205.43
		c0.24,0.2,0.46,0.54,0.71,0.58c0.39,0.05,0.7-0.2,0.71-0.77c0.01-0.52-0.18-0.8-0.61-0.81
		C185.67,204.41,185.42,204.71,185.31,205.43z M171.84,214.28c-0.11-0.81-0.57-1.24-1.14-1.06c-0.48,0.15-0.54,0.48-0.26,1.48
		C170.89,214.56,171.35,214.43,171.84,214.28z"/>
	<path class="st2" d="M152.36,45.46c0.11-0.5,0.14-0.9,0.3-1.22c0.11-0.22,0.41-0.46,0.6-0.45c0.73,0.06,1.48,0.14,2.19,0.36
		c1.97,0.61,3.93,1.27,5.89,1.94c2.09,0.71,4.19,1.35,6.23,2.21c1.1,0.47,2.19,1.18,3.08,2.07c1.09,1.08,2.05,2.37,2.89,3.72
		c0.79,1.27,1.06,2.83,1.1,4.41c0.02,0.96,0,1.92-0.09,2.87c-0.05,0.5-0.22,1.03-0.46,1.45c-0.22,0.39-0.63,0.64-0.99,0.12
		c-0.56-0.8-1.1-1.61-1.63-2.43c-0.1-0.15-0.16-0.35-0.26-0.59c0.59-0.7,0.79-1.81,0.71-2.97c-0.1-1.44-0.97-2.31-1.9-3.05
		c-1.99-1.57-4.24-2.52-6.5-3.4c-2.14-0.83-4.33-1.45-6.5-2.16c-0.17-0.06-0.34-0.09-0.61-0.16c0.42,1.19,0.84,2.23,1.15,3.32
		c0.3,1.07,0.51,2.17,0.68,3.28c0.05,0.29-0.12,0.81-0.32,0.94c-0.34,0.22-0.83,0.34-1.13-0.12c-0.59-0.92-1.18-1.85-1.69-2.82
		c-1-1.89-2.17-3.5-3.94-4.52c-1.26-0.72-2.54-0.72-3.86-0.66c-1.22,0.06-2.44,0.15-3.65,0.34c-1.79,0.29-3.6,0.59-5.36,1.05
		c-2.05,0.54-4.1,1.14-6.07,1.95c-1.92,0.79-3.74,1.89-5.61,2.83c-1.9,0.96-3.64,2.25-5.31,3.67c-1.78,1.52-3.39,3.27-4.81,5.24
		c-0.37,0.52-0.71,1.08-1.01,1.66c-0.48,0.93-1.42,1.47-2.19,0.53c-0.34-0.41-0.79-0.91-0.81-1.4c-0.02-0.47,0.37-1.05,0.7-1.45
		c1.12-1.35,2.25-2.69,3.44-3.94c1.16-1.22,2.4-2.33,3.61-3.49c1.17-1.12,2.31-2.3,3.54-3.34c0.74-0.63,1.59-1.12,2.43-1.54
		c1.45-0.73,2.91-1.43,4.41-2.02c1.33-0.52,2.71-0.85,4.06-1.29c0.58-0.18,1.13-0.47,1.71-0.62c2.34-0.59,4.67-1.26,7.03-1.69
		c1.49-0.27,3.04-0.24,4.56-0.22c0.57,0.01,1.14,0.33,1.7,0.54C150.55,44.75,151.43,45.1,152.36,45.46z"/>
	<path class="st2" d="M114.62,185.88c0.11,1.97,0.19,3.81,0.32,5.65c0.14,2.04,0.32,4.08,0.5,6.12c0.18,1.95,0.61,3.83,1.83,5.24
		c0.67,0.78,1.56,1.31,2.36,1.93c1.09,0.85,2.37,1.07,3.62,1.19c1.09,0.1,2.21-0.09,3.3-0.27c0.71-0.12,1.39-0.49,2.1-0.67
		c0.98-0.25,1.35-1.17,1.64-2.07c0.53-1.64,0.96-3.33,1.39-5.01c0.38-1.48,0.45-3,0.41-4.53c-0.03-1.16,0.24-1.4,1.2-1.17
		c0.34,0.08,0.69,0.15,1.02,0.28c0.89,0.35,1.11,1.21,1.16,2.18c0.16,2.86-0.47,5.55-1.28,8.2c-0.3,0.98-0.58,1.98-1,2.89
		c-0.52,1.12-1.4,1.86-2.42,2.32c-2.44,1.1-4.99,1.24-7.56,0.93c-0.93-0.11-1.9-0.13-2.77-0.5c-1.23-0.52-2.48-1.02-3.56-1.99
		c-1.38-1.23-2.44-2.71-3.19-4.52c-0.59-1.43-0.86-2.96-1.06-4.51c-0.17-1.29-0.36-2.58-0.48-3.88c-0.11-1.2-0.2-2.4-0.21-3.6
		c-0.02-1.56-0.01-3.13,0.08-4.68c0.05-0.86,0.27-1.7,0.44-2.55c0.14-0.66,0.56-0.84,1.08-0.69c0.78,0.23,1.54,0.5,2.31,0.76
		c0.91,0.3,1.82,0.61,2.73,0.92c2.12,0.74,4.27,1.27,6.5,1.05c1.24-0.12,2.47-0.27,3.7-0.45c0.64-0.09,1.27-0.28,1.91-0.42
		c0.49-0.1,0.69-0.49,0.74-1.01c0.05-0.6,0.01-1.22-0.57-1.44c-0.73-0.28-1.48-0.5-2.23-0.67c-1.45-0.33-2.91-0.61-4.36-0.91
		c-0.79-0.16-1.43-1.09-1.37-1.98c0.03-0.45,0.16-0.82,0.63-0.83c2.06-0.07,4.13-0.28,6.11,0.59c0.99,0.43,2,0.84,2.84,1.67
		c0.47,0.47,1.03,0.83,1.59,1.17c0.86,0.53,1.13,1.44,1.16,2.43c0.04,1.65-0.39,2.99-1.78,3.87c-0.86,0.54-1.72,0.69-2.62,0.79
		c-1.8,0.2-3.59,0.46-5.39,0.55c-0.99,0.05-2.01-0.08-2.99-0.28c-1.36-0.28-2.71-0.7-4.06-1.06
		C117.21,186.58,116.01,186.25,114.62,185.88z"/>
	<path class="st2" d="M166.52,68.16c0.54-1.14,1.54-1.73,2.58-2.29c1.82-0.97,3.75-1.34,5.73-1.33c2.43,0.01,4.69,0.71,6.83,2.13
		c1.73,1.15,3.29,2.53,4.72,4.11c0.88,0.97,1.77,1.92,2.58,2.96c1.25,1.61,2.51,3.23,3.17,5.32c0.17,0.53,0.31,1.08,0.47,1.62
		c0.12,0.4,0.4,0.94-0.02,1.16c-0.38,0.2-0.93,0.39-1.33-0.16c-0.84-1.19-1.7-2.36-2.53-3.56c-0.73-1.06-1.37-2.23-2.18-3.2
		c-1.14-1.36-2.31-2.74-3.63-3.83c-1.76-1.45-3.64-2.66-5.82-3.23c-1.86-0.48-3.6-0.52-5.31,0.51c-0.96,0.58-1.64,1.43-2.12,2.57
		c-0.46,1.1-1.37,1.44-2.33,0.89c-1.57-0.91-3.1-1.94-4.69-2.81c-1.65-0.91-3.33-1.74-5.02-2.54c-1.18-0.56-2.38-1.08-3.61-1.48
		c-1.83-0.61-3.67-1.22-5.55-1.6c-2.38-0.49-4.79-0.81-7.2-1.08c-1.83-0.2-3.67-0.18-5.5-0.3c-2.44-0.16-4.81,0.39-7.2,0.88
		c-2.08,0.43-4.07,1.16-5.97,2.21c-0.84,0.46-1.64,1.04-2.45,1.58c-0.44,0.29-0.67,0.14-0.84-0.38c-0.15-0.45-0.35-0.88-0.51-1.32
		c-0.25-0.67-0.04-1.37,0.65-1.76c0.95-0.53,1.94-1,2.94-1.39c2.37-0.93,4.79-1.65,7.28-1.96c1.67-0.21,3.33-0.53,5-0.67
		c1.78-0.14,3.57-0.17,5.36-0.14c1.97,0.03,3.93,0.12,5.89,0.31c1.48,0.14,2.95,0.4,4.4,0.74c1.83,0.42,3.65,0.89,5.44,1.46
		c1.77,0.57,3.42,1.46,4.99,2.63C162.64,65.59,164.58,66.83,166.52,68.16z"/>
	<path class="st2" d="M101.35,85.64c0.39-0.48,0.78-0.97,1.17-1.44c0.83-1,1.68-1.96,2.57-2.9c0.96-1.02,1.97-1.94,3.04-2.75
		c1.31-0.99,2.76-1.69,4.28-2.11c1.06-0.3,2.13-0.58,3.22-0.71c1.13-0.14,2.23,0.23,3.2,0.92c0.31,0.22,0.48,0.77,0.62,1.21
		c0.07,0.23,0.02,0.61-0.34,0.64c-0.61,0.05-1.22,0.16-1.84,0.15c-1.92-0.03-3.83,0.01-5.54,1.18c-0.99,0.68-1.93,1.47-2.85,2.27
		c-0.9,0.78-1.73,1.68-2.64,2.43c-1.21,1-1.99,2.43-2.86,3.77c-0.17,0.25-0.38,0.46-0.53,0.72c-0.23,0.41-0.27,0.82,0.2,1.05
		c1.18,0.58,2.32,1.35,3.55,1.67c1.17,0.31,2.43,0.19,3.65,0.17c2.08-0.04,3.98-0.99,5.93-1.68c0.94-0.33,2.44,1.03,2.35,2.13
		c-0.05,0.6-0.32,0.94-0.66,1.1c-2.39,1.11-4.83,2.12-7.44,1.92c-1.98-0.15-3.99-0.36-5.91-0.92c-1.11-0.33-2.11-1.33-3.08-2.15
		c-0.74-0.62-1.32-1.49-2.02-2.17c-0.68-0.66-0.53-1.62-0.53-2.38c0.01-1.76,0.2-3.53,0.45-5.27c0.12-0.81,0.46-1.61,0.84-2.31
		c0.6-1.09,1.25-2.17,2-3.12c1.07-1.36,2.2-2.69,3.41-3.89c1.19-1.19,2.44-2.35,3.79-3.28c1.78-1.23,3.59-2.49,5.73-2.78
		c1.2-0.16,2.39,0.52,2.69,1.8c0.1,0.44-0.03,0.57-0.31,0.7c-1.55,0.74-3.13,1.41-4.64,2.26c-1.13,0.64-2.18,1.47-3.24,2.27
		c-0.97,0.73-1.94,1.48-2.83,2.34c-0.73,0.71-1.36,1.56-1.98,2.41c-0.62,0.84-1.25,1.69-1.75,2.63c-0.69,1.27-1.25,2.63-1.87,3.96
		C101.23,85.5,101.29,85.57,101.35,85.64z"/>
	<path class="st1" d="M138.48,90.12c0.25,1.39,0.51,2.79,0.76,4.18c0.03,0.19,0.08,0.38,0.09,0.57c0.02,0.51-0.03,1.12-0.51,1.19
		c-0.33,0.05-0.85-0.24-1.02-0.57c-0.46-0.88-0.68-1.93-1.17-2.78c-0.92-1.6-0.14-2.97,0.32-4.35c0.87-2.61,2.4-4.69,4.2-6.49
		c0.95-0.95,1.95-1.85,3-2.65c0.38-0.29,0.97-0.33,1.44-0.27c1.26,0.15,2.37,0.86,3.45,1.59c1.94,1.34,3.55,3.13,4.8,5.32
		c1.1,1.93,1.75,4.07,1.08,6.35c-0.34,1.14-0.71,2.47-1.93,2.9c-0.25,0.09-0.53,0.15-0.79,0.12c-0.62-0.08-0.82-0.54-0.52-1.19
		c0.17-0.36,0.41-0.67,0.63-0.99c0.98-1.43,1.04-2.98,0.5-4.64c-0.51-1.57-1.45-2.74-2.6-3.66c-1.31-1.05-2.66-2.03-4.02-2.98
		c-0.23-0.16-0.67-0.1-0.94,0.04c-0.35,0.18-0.64,0.54-0.95,0.81c-0.82,0.7-1.66,1.36-2.44,2.12c-1.36,1.32-2.72,2.65-3.22,4.76
		c-0.04,0.18-0.03,0.39-0.04,0.58C138.55,90.1,138.51,90.11,138.48,90.12z"/>
	<path class="st1" d="M136.15,200.85c1.18-0.38,1.62-1.06,1.79-2.49c0.27-2.23,0.58-4.45,0.87-6.68c0.05-0.38,0.09-0.77,0.07-1.16
		c-0.06-1.17-0.24-1.39-1.29-1.35c-1.19,0.04-1.91-1.11-1.81-2.07c0.03-0.26,0.21-0.63,0.4-0.71c1.62-0.73,3.21-0.75,4.59,0.67
		c0.31,0.31,0.6,0.78,0.69,1.23c0.34,1.8,0.37,3.64,0.2,5.48c-0.17,1.85-0.32,3.7-0.57,5.54c-0.14,1.02-0.35,2.07-0.7,3.01
		c-0.41,1.11-1.3,1.6-2.32,1.57c-0.85-0.03-1.53-0.53-1.82-1.49C136.12,201.92,136.18,201.36,136.15,200.85z"/>
	<path class="st1" d="M192.54,86.16c-0.77,0.64-1.43,0.16-1.92-0.3c-2.17-2.07-4.56-3.71-7.05-5.17c-0.58-0.34-1.25-0.54-1.89-0.69
		c-1.74-0.38-3.49-0.68-5.23-1.06c-0.71-0.15-1.42-0.36-2.1-0.65c-0.24-0.1-0.55-0.52-0.54-0.77c0.02-0.31,0.3-0.69,0.55-0.86
		c1.3-0.86,2.74-0.8,4.14-0.66c1.19,0.12,2.38,0.41,3.55,0.7c1.94,0.49,3.78,1.26,5.41,2.66c0.98,0.84,2.09,1.47,3.11,2.24
		c1.2,0.91,1.88,2.17,1.75,3.92c0,0.05,0,0.1,0.01,0.14C192.41,85.84,192.47,85.99,192.54,86.16z"/>
	<path class="st1" d="M191.09,89.01c-1.75,1.51-3.35,2.88-5.16,3.89c-2.01,1.11-4.12,1.78-6.32,1.57c-1.68-0.16-3.33-0.63-4.69-2.02
		c-0.65-0.67-1.47-1.12-2.21-1.68c-0.89-0.67-1.22-1.73-1.47-2.85c-0.05-0.21-0.11-0.42-0.13-0.63c-0.01-0.21-0.03-0.54,0.07-0.61
		c0.2-0.15,0.53-0.31,0.7-0.22c1.03,0.58,1.98,1.27,2.89,2.11c1.38,1.27,2.95,2.15,4.77,2.4c1.73,0.24,3.42,0.12,5.04-0.51
		c1.55-0.6,3.03-1.42,4.51-2.23c0.46-0.25,0.92-0.39,1.34-0.2C190.7,88.17,190.87,88.67,191.09,89.01z"/>
	<path class="st1" d="M141.15,102.97c2.32-0.24,4.63,0.45,6.81,1.59c1.15,0.6,2.17,1.59,3.17,2.52c0.27,0.25,0.4,0.93,0.35,1.38
		c-0.12,0.99-0.82,1.28-1.6,0.81c-1.93-1.18-3.87-2.36-5.98-3.03c-0.75-0.24-1.55-0.25-2.31-0.46c-0.79-0.22-1.57-0.52-2.34-0.83
		c-0.56-0.23-0.42-0.83-0.43-1.34c-0.01-0.6,0.41-0.59,0.72-0.63C140.04,102.93,140.54,102.97,141.15,102.97z"/>
	<path class="st1" d="M125.26,85.72c-0.07-1.01-0.07-1.05,1.18-1.13c1.52-0.1,3.05-0.12,4.58-0.16c0.44-0.01,1.73,1.17,1.82,1.63
		c0.11,0.53-0.81,2.32-1.37,2.66c-0.59,0.37-1.44,0.17-1.9-0.55c-0.48-0.75-1.05-0.97-1.83-0.81c-0.93,0.19-1.67-0.45-2.43-0.92
		C125.22,86.38,125.28,85.97,125.26,85.72z"/>
	<path class="st1" d="M146.55,84.65c1.01,0.96,1.96,1.76,2.81,2.68c0.68,0.74,1.15,1.72,1.24,2.79c0.05,0.53-0.25,1.16-0.51,1.65
		c-0.24,0.45-0.63,0.8-0.99,1.14c-0.58,0.54-1.35,0.28-1.83-0.68c-0.47-0.91-0.75-1.9-0.72-3.01
		C146.58,87.79,146.55,86.35,146.55,84.65z"/>
	<path class="st1" d="M143.78,85.26c1.28,1.44,1.5,3.3,1.44,5.23c-0.02,0.7-0.22,1.4-0.37,2.09c-0.08,0.35-0.27,0.46-0.61,0.26
		c-0.88-0.53-1.81-0.97-2.24-2.12c-0.14-0.36-0.18-0.8-0.19-1.2c0-0.34,0.14-0.68,0.17-1.03C142.09,87,143.09,86.2,143.78,85.26z"/>
	<path class="st1" d="M161.84,84.7c0.53,0,1.07-0.06,1.59,0.02c0.58,0.08,1.63,1.42,1.69,2.05c0.01,0.14-0.09,0.3-0.15,0.45
		c-0.11,0.28-0.25,0.54-0.35,0.83c-0.2,0.6-0.56,0.94-1.12,0.97c-0.62,0.04-1.26-0.2-1.37-0.88c-0.2-1.3-0.84-1.48-1.78-1.38
		c-0.5,0.06-1.02-0.04-1.52-0.13c-0.23-0.04-0.65-0.27-0.65-0.31c0.09-0.42,0.2-0.87,0.42-1.19c0.14-0.2,0.49-0.23,0.76-0.25
		c0.83-0.07,1.65-0.1,2.48-0.15C161.84,84.72,161.84,84.71,161.84,84.7z"/>
	<path class="st1" d="M194.92,113.09c0.41,1.33,0.8,2.67,1.22,4c0.49,1.53,1.01,3.03,1.5,4.56c0.64,2.01,1.28,4.01,1.9,6.03
		c0.74,2.44,1.46,4.89,2.17,7.34c0.62,2.12,1.3,4.23,1.83,6.38c0.49,1.99,0.82,4.04,1.22,6.07c0.03,0.13-0.01,0.28-0.03,0.51
		c-6.11-4.5-12.75-7.62-19.17-11.54c1.17-1.09,2.21-2.05,3.24-3.03c1.66-1.59,2.75-3.65,3.51-5.97c1.09-3.34,1.72-6.8,2.05-10.34
		c0.12-1.28,0.21-2.57,0.32-3.85c0.01-0.1,0.05-0.19,0.08-0.29C194.81,113,194.86,113.05,194.92,113.09z"/>
	<path class="st1" d="M164.82,215.59c1.44-0.52,2.8-1.02,4.18-1.52c0.14,1.16,0.65,1.59,1.86,1.65c-0.21,0.56-0.49,1.11-0.62,1.71
		c-0.05,0.26,0.21,0.61,0.34,0.92c0.23-0.12,0.49-0.2,0.67-0.38c0.08-0.09,0-0.38,0-0.58c-0.01-0.56-0.08-1.1,0.53-1.39
		c0.56-0.26,1.03-0.08,1.23,0.45c0.17,0.45,0.03,1.05,0.03,1.63c0.16,0.03,0.47,0.21,0.67,0.1c0.35-0.18,0.81-0.48,0.9-0.83
		c0.08-0.33-0.21-0.86-0.45-1.19c-0.26-0.34-0.66-0.52-0.99-0.8c-0.12-0.1-0.24-0.25-0.28-0.41c-0.11-0.45-0.12-0.95-0.26-1.38
		c-0.39-1.19,0.25-1.74,0.95-2.26c1.19-0.88,2.36-1.83,3.61-2.58c0.96-0.58,2.03-0.91,3.07-1.31c0.89-0.34,1.8-0.59,2.69-0.92
		c0.76-0.28,1.07-0.98,1.26-1.87c0.08,0.33,0.18,0.65,0.25,0.98c0.2,0.99,0.52,1.27,1.35,1.05c0.5-0.13,1.03-0.3,1.46-0.62
		c0.34-0.26,0.62-0.75,0.34-1.31c-0.21-0.44-0.47-0.84-0.76-1.34c0.98-0.35,1.93-0.68,2.88-1.01c0.26-0.09,0.53-0.11,0.79-0.21
		c1.06-0.44,1.91-0.1,2.51,0.96c0.75,1.33,1.5,2.68,2.18,4.06c0.56,1.14,0.54,1.22-0.44,1.85c-1.45,0.92-2.92,1.82-4.42,2.62
		c-2.01,1.06-4.05,2.04-6.09,3c-2.31,1.08-4.62,2.13-6.95,3.15c-1.68,0.73-3.37,1.42-5.07,2.07c-1.16,0.44-2.35,0.76-3.52,1.2
		c-0.95,0.36-1.55-0.2-1.97-1.03c-0.54-1.07-0.98-2.2-1.46-3.31C165.11,216.4,164.99,216.05,164.82,215.59z M181.48,211.18
		c-0.18-0.05-0.36-0.1-0.54-0.14c0.09-0.17,0.18-0.33,0.26-0.5c0.1-0.21,0.29-0.44,0.27-0.64c-0.1-0.91-1.12-2.18-2.2-1.85
		c-1.04,0.31-1.72,1.03-2.11,2.17c-0.14,0.4-0.18,0.78,0.27,0.95c0.5,0.19,1.01,0.51,1.51,0.51c0.61,0,0.82,0.14,0.85,0.9
		c0.02,0.46,0.3,1.01,0.6,1.34c1.13,1.21,2.13,0.5,3.12-0.45c0.32-0.3,0.35-1.48,0.1-1.9c-0.34-0.55-0.78-0.82-1.38-0.6
		C181.98,211.06,181.74,211.11,181.48,211.18z M189.93,208.09c0-0.99-0.85-1.88-1.7-1.67c-0.91,0.22-2.13,1.2-1.99,2.17
		c0.01,0.05,0.04,0.09,0.05,0.13c0.12,0.83,0.72,0.97,1.25,1.22C188.7,210.5,189.94,209.54,189.93,208.09z"/>
	<path class="st1" d="M182.96,204.79c-0.75,1.17-6.06,2.99-7.32,2.39c1.02-0.34,1.93-0.6,2.82-0.96c0.91-0.37,1.79-0.85,2.7-1.24
		c0.32-0.14,0.69-0.16,1.03-0.2C182.44,204.77,182.7,204.79,182.96,204.79z"/>
	<path class="st1" d="M185.31,205.43c0.11-0.72,0.36-1.01,0.82-1c0.42,0.01,0.62,0.3,0.61,0.81c-0.01,0.56-0.32,0.82-0.71,0.77
		C185.77,205.97,185.54,205.63,185.31,205.43z"/>
	<path class="st1" d="M171.84,214.28c-0.49,0.15-0.94,0.28-1.39,0.42c-0.28-1-0.22-1.33,0.26-1.48
		C171.27,213.04,171.73,213.47,171.84,214.28z"/>
	<path class="st1" d="M181.48,211.18c0.26-0.07,0.51-0.12,0.74-0.2c0.6-0.22,1.04,0.05,1.38,0.6c0.25,0.42,0.22,1.6-0.1,1.9
		c-0.99,0.95-1.98,1.65-3.12,0.45c-0.31-0.33-0.59-0.88-0.6-1.34c-0.03-0.76-0.23-0.9-0.85-0.9c-0.51,0-1.01-0.32-1.51-0.51
		c-0.45-0.17-0.4-0.55-0.27-0.95c0.39-1.14,1.08-1.85,2.11-2.17c1.08-0.33,2.1,0.94,2.2,1.85c0.02,0.2-0.17,0.43-0.27,0.64
		c-0.08,0.17-0.17,0.33-0.26,0.5C181.12,211.09,181.3,211.13,181.48,211.18z M182.68,213.55c0.22-0.59,0.58-1.05,0.02-1.58
		c-0.51-0.48-0.91-0.01-1.3,0.16c-0.14,0.06-0.26,0.67-0.17,0.93C181.52,213.88,182.18,213.32,182.68,213.55z M178.37,210.73
		c0.61-0.12,1.16-0.18,1.69-0.35c0.17-0.05,0.43-0.4,0.4-0.55c-0.05-0.22-0.28-0.49-0.48-0.55
		C179.24,209.05,178.81,209.44,178.37,210.73z"/>
	<path class="st1" d="M189.93,208.09c0.01,1.46-1.23,2.42-2.39,1.86c-0.53-0.25-1.13-0.4-1.25-1.22c-0.01-0.05-0.04-0.09-0.05-0.13
		c-0.13-0.97,1.08-1.95,1.99-2.17C189.08,206.2,189.93,207.1,189.93,208.09z M188.28,209.1c0.14-0.21,0.24-0.36,0.35-0.49
		s0.25-0.24,0.37-0.36c-0.69-0.9-0.69-0.9-1.52,0.18C187.74,208.66,188,208.88,188.28,209.1z"/>
	<path class="st1" d="M182.68,213.55c-0.5-0.24-1.16,0.33-1.45-0.49c-0.09-0.26,0.03-0.86,0.17-0.93c0.4-0.17,0.79-0.65,1.3-0.16
		C183.27,212.5,182.9,212.96,182.68,213.55z"/>
	<path class="st1" d="M178.37,210.73c0.44-1.28,0.88-1.68,1.61-1.45c0.2,0.06,0.43,0.33,0.48,0.55c0.03,0.14-0.22,0.49-0.4,0.55
		C179.53,210.54,178.98,210.61,178.37,210.73z"/>
	<path class="st1" d="M188.28,209.1c-0.27-0.23-0.53-0.45-0.8-0.67c0.83-1.08,0.83-1.08,1.52-0.18c-0.13,0.12-0.26,0.23-0.37,0.36
		C188.51,208.74,188.42,208.9,188.28,209.1z"/>
</g>
<text transform="matrix(1.022 0 0 1 31.343 269.107)" class="st3 st4 st5">Csülkös betegségek</text>
</svg>
