<?xml version="1.0" encoding="utf-8"?>
<!-- Generator: Adobe Illustrator 26.0.1, SVG Export Plug-In . SVG Version: 6.00 Build 0)  -->
<svg version="1.1"
	 id="Layer_1" sodipodi:docname="fegyvertan.svg" xmlns:inkscape="http://www.inkscape.org/namespaces/inkscape" xmlns:sodipodi="http://sodipodi.sourceforge.net/DTD/sodipodi-0.dtd" xmlns:svg="http://www.w3.org/2000/svg"
	 xmlns="http://www.w3.org/2000/svg" xmlns:xlink="http://www.w3.org/1999/xlink" x="0px" y="0px" viewBox="0 0 100 100"
	 style="enable-background:new 0 0 100 100;" xml:space="preserve">
<style type="text/css">
	.st0{fill:#876440;}
	.st1{fill:#FFFFFF;}
	.st2{fill:#FFFFFF;stroke:#996633;stroke-width:0.5;}
	.st3{font-family:'Helvetica-Bold';}
	.st4{font-size:9px;}
</style>
<sodipodi:namedview  bordercolor="#eeeeee" borderopacity="1" id="namedview3414" inkscape:pagecheckerboard="0" inkscape:pageopacity="0" inkscape:pageshadow="0" pagecolor="#505050" showgrid="false">
	</sodipodi:namedview>
<g id="g452" transform="matrix(0.25762615,0,0,-1.4904139,94.112165,633.05823)">
	<path id="path454" class="st0" d="M0,357.66h-342.45c-11.93,0-21.61,1.52-21.61,3.4v60.09c0,1.88,9.67,3.4,21.61,3.4H0
		c11.93,0,21.61-1.52,21.61-3.4v-60.09C21.61,359.18,11.93,357.66,0,357.66"/>
</g>
<g id="g488" transform="matrix(0.25762615,0,0,-1.4904139,43.284621,321.05526)">
	<path id="path490" class="st1" d="M0,181.3c0.44-0.55,2.42-0.76,5.01-0.52c1.8,0.17,3.34,0.44,4.76,0.7
		c1.14,0.21,1.41,0.5,0.34,0.74c-0.54,0.12-1.69,0.24-2.53,0.23c-1.79-0.01-2.61-0.27-3.2-0.53c-0.8-0.35-0.61-0.69,0.43-1.02
		C2.3,180.74,1.58,181.13,0,181.3 M3.91,185.72c5.55,0.7,10.97,1.39,16.37,2.08c0.28,0.04,0.56,0.12,0.52,0.17
		c-0.21,0.26-0.53,0.52-0.87,0.83c-6.39-0.86-12.57-1.68-18.79-2.51C2.12,186.08,2.93,185.92,3.91,185.72 M92.35,195.64
		c2.2-0.62,0.39-1.03-1.93-1.36c-4.82-0.7-9.7-1.38-14.56-2.07c-13.97-1.98-27.96-3.96-41.89-5.95c-0.59-0.08-1.17-0.26-1.06-0.37
		c0.2-0.2-0.33-0.3-1.11-0.41c-5.92-0.83-11.8-1.66-17.74-2.48c-1.02-0.14-1.45-0.26-1.05-0.49c0.71-0.39,1.24-0.8-0.42-1.18
		c-2.2-0.5-4.87-0.9-8.54-1.05c-1.75-0.07-3.4,0-4.78,0.21c-0.72,0.11-1.49,0.21-2.2,0.31c-5.93-0.6-8.77-1.81-7.22-3.04
		c0.09-0.07,0.18-0.14,0.28-0.21c0.73-0.48,0.7-0.52-1.84-0.79c-3.33-0.35-6.81-0.62-11.1-0.34c-2.82-0.61-5.74-1.22-8.59-1.85
		c-8.98-1.97-17.93-3.95-26.9-5.92c-2.45-0.54-3.75-0.58-6.26-0.05c-5.14,1.09-9.95,2.23-14.9,3.35c-0.11,0.02-0.18,0.05-0.27,0.08
		c-2.81,0.89-2.75,0.98,1.92,1.59c15.96,2.11,31.94,4.21,47.94,6.31c0.64,0.08,1.66,0.14,2.44,0.13c2.81-0.06,4.93,0.11,6.53,0.47
		c0.79,0.18,1.41,0.38,2.11,0.58c2.27,0.63,4.54,1.25,6.82,1.88l0.48-0.04c-0.69,0.13-1.36,0.26-2.06,0.39
		c-0.9,0.17-0.97,0.29,0.27,0.45c2.98,0.37,5.85,0.77,8.91,1.17c-0.39,0.1-0.78,0.19-1.47,0.36c-1.17-0.23-2.2-0.43-3.21-0.64
		c-0.64-0.13-1.14-0.29-1.92-0.39c-4.23-0.54-8.57-1.05-12.77-1.59c-3.89-0.5-4.21-0.52-7.35,0.1c-1.35,0.27-2.19,0.61-3.25,0.91
		c-0.62,0.18-0.13,0.3,0.75,0.42c3.36,0.44,6.72,0.89,10.02,1.34c2.45,0.34,4.82,0.67,8.03,0.82c1.93,0.09,3.65,0.28,4.79,0.61
		c0.68,0.2,2.15,0.33,3.36,0.47c2.49,0.28,5.04,0.55,7.57,0.82c-2.21,0.53-1.96,0.63,0.95,1.05c2.44,0.34,3.64,0.33,5.95-0.08
		c2.27,0.35,4.48,0.72,6.84,1.06c1.6,0.23,3.41,0.42,5.12,0.63c0.57,0.07,1.26,0.12,1.68,0.21c1.7,0.36,3.47,0.72,4.92,1.11
		c3.36,0.91,8,1.6,13.2,2.19c1.77,0.2,3.53,0.41,5.27,0.62c1,0.12,1.86,0.1,2.82-0.02c3.83-0.49,6.76-1.09,8.95-1.81
		c0.67-0.22,0.25-0.35-0.78-0.5c-8.04-1.13-16.4-2.18-25.99-2.92c-0.61-0.05-1.19-0.1-1.82-0.16c2.95-0.3,4.37-0.29,6.91,0.03
		c26.36,3.34,52.72,6.69,79.1,10.02c0.91,0.12,1.29,0.23,1.03,0.41c-0.32,0.22,0.22,0.35,1.24,0.49c3.08,0.43,6.03,0.88,8.99,1.34
		c1.1,0.17,2.15,0.19,3.46,0.07c1.47-0.14,3.2-0.22,4.49-0.39c1.72-0.23,1.57-0.41-0.14-0.63c-12.78-1.69-25.58-3.38-38.37-5.07
		C93.5,195.8,92.98,195.73,92.35,195.64"/>
</g>
<g id="g492" transform="matrix(0.25762615,0,0,-1.4904139,59.524968,326.54819)">
	<path id="path494" class="st2" d="M0,184.41c-1.5,0.3-2.88,0.57-4.26,0.85c-0.75-0.21-2.52-0.47-2.03-0.61
		c0.92-0.26,3.09-0.53,4.89-0.63c1.03-0.05,2.35,0.24,3.54,0.38c-0.38,0.05-0.75,0.1-1.13,0.15C0.52,184.48,0.03,184.41,0,184.41
		 M9.2,186.35c0.36-0.23,0.34-0.48,1.1-0.68c3.62-0.95,7.44-1.89,10.81-2.73c2.68-0.25,5.43-0.41,7.28-0.7
		c12.86-2.01,25.51-4.06,38.28-6.09c2.15-0.34,2.28-0.62,0.7-0.88c-5.12-0.85-10.21-1.7-15.38-2.53c-1.74-0.28-3.64-0.21-5.39,0.21
		c-4.04,0.95-8.17,1.89-12.11,2.85c-1.74,0.42-3.09,0.87-4.64,1.31c-5.15,1.46-8.91,3.1-22.2,3.49c3.54,1.14,3.58,2.21-2.78,3.4
		c-3.25-0.37-6.76-0.7-11.4,0.01c-3.95,0.6-2.96,1.12-0.73,1.6c-4.55,0.61-9.08,1.19-13.5,1.8c-14.11,1.94-28.21,3.87-42.21,5.83
		c-1.08,0.15-1.2,0.45-2.03,0.67c-0.97,0.25-2,0.52-3.41,0.7c-22.95,3.04-45.96,6.07-68.95,9.1c-1.45,0.19-2.89,0.38-5.01,0.67
		c1.66,0.31,3.23,0.59,4.73,0.88c1.9,0.37,3.81,0.29,6.66-0.09c18.32-2.46,36.75-4.91,55.17-7.36c22.75-3.02,45.54-6.03,68.25-9.06
		c3.83-0.51,7.28-1.09,10.98-1.62C5.42,186.83,7.56,186.57,9.2,186.35"/>
</g>
<text transform="matrix(1.0184 0 0 1 25.5481 88.0241)" class="st1 st3 st4">Fegyvertan</text>
</svg>
