<?xml version="1.0" encoding="utf-8"?>
<!-- Generator: Adobe Illustrator 26.0.1, SVG Export Plug-In . SVG Version: 6.00 Build 0)  -->
<svg version="1.1"
	 id="Layer_1" inkscape:version="1.1.1 (c3084ef, 2021-09-22)" sodipodi:docname="fegyvertan.svg" xmlns:inkscape="http://www.inkscape.org/namespaces/inkscape" xmlns:sodipodi="http://sodipodi.sourceforge.net/DTD/sodipodi-0.dtd" xmlns:svg="http://www.w3.org/2000/svg"
	 xmlns="http://www.w3.org/2000/svg" xmlns:xlink="http://www.w3.org/1999/xlink" x="0px" y="0px" viewBox="0 0 100 100"
	 style="enable-background:new 0 0 100 100;" xml:space="preserve">
<style type="text/css">
	.st0{fill:#876440;}
	.st1{fill:#FFFFFF;}
	.st2{fill:#FFFFFF;stroke:#996633;stroke-width:0.5;}
	.st3{font-family:'Helvetica-Bold';}
	.st4{font-size:8.4208px;}
</style>
<sodipodi:namedview  bordercolor="#eeeeee" borderopacity="1" id="namedview1191" inkscape:current-layer="Layer_1" inkscape:cx="227.39174" inkscape:cy="272.74052" inkscape:pagecheckerboard="0" inkscape:pageopacity="0" inkscape:pageshadow="0" inkscape:window-height="969" inkscape:window-maximized="0" inkscape:window-width="1296" inkscape:window-x="0" inkscape:window-y="25" inkscape:zoom="0.77179585" pagecolor="#505050" showgrid="false">
	</sodipodi:namedview>
<g id="g452" transform="matrix(0.25862271,0,0,-0.23498935,94.282803,99.882849)">
	<path id="path454" class="st0" d="M0,0h-342.45c-11.93,0-21.61,9.67-21.61,21.61v381.34c0,11.93,9.67,21.61,21.61,21.61H0
		c11.93,0,21.61-9.67,21.61-21.61V21.61C21.61,9.67,11.93,0,0,0"/>
</g>
<g id="g488" transform="matrix(0.25862271,0,0,-0.23498935,43.258646,50.690223)">
	<path id="path490" class="st1" d="M0,0c0.44-3.48,2.42-4.85,5.01-3.28c1.8,1.09,3.34,2.77,4.76,4.41c1.14,1.33,1.41,3.16,0.34,4.68
		C9.58,6.58,8.43,7.34,7.59,7.29C5.8,7.21,4.98,5.59,4.39,3.96c-0.8-2.21-0.61-4.4,0.43-6.49C2.3-3.54,1.58-1.08,0,0 M3.91,28.01
		c5.55,4.46,10.97,8.8,16.37,13.17c0.28,0.23,0.56,0.76,0.52,1.1c-0.21,1.65-0.53,3.29-0.87,5.27C13.53,42.12,7.36,36.88,1.13,31.59
		C2.12,30.32,2.93,29.27,3.91,28.01 M92.35,91c2.2-3.96,0.39-6.52-1.93-8.66c-4.82-4.43-9.7-8.78-14.56-13.15
		C61.89,56.62,47.91,44.05,33.97,31.43c-0.59-0.54-1.17-1.65-1.06-2.37c0.2-1.3-0.33-1.9-1.11-2.59
		c-5.91-5.25-11.79-10.54-17.74-15.74c-1.02-0.89-1.45-1.67-1.05-3.11c0.71-2.51,1.24-5.07-0.42-7.48c-2.2-3.17-4.87-5.69-8.54-6.68
		C2.31-7.01,0.66-6.52-0.72-5.2c-0.72,0.69-1.49,1.33-2.2,1.96c-5.93-3.8-8.77-11.48-7.22-19.28c0.09-0.44,0.18-0.89,0.28-1.33
		c0.73-3.03,0.7-3.29-1.83-4.99c-3.33-2.23-6.81-3.91-11.1-2.16c-2.82-3.85-5.74-7.76-8.59-11.73c-8.98-12.52-17.93-25.07-26.9-37.6
		c-2.45-3.43-3.75-3.71-6.26-0.31c-5.14,6.95-9.95,14.16-14.9,21.26c-0.11,0.16-0.18,0.34-0.27,0.51c-2.81,5.67-2.75,6.2,1.92,10.12
		c15.96,13.39,31.93,26.75,47.94,40.07c0.64,0.53,1.66,0.91,2.44,0.8c2.81-0.4,4.93,0.67,6.53,3.01c0.79,1.15,1.41,2.43,2.11,3.65
		c2.27,3.98,4.54,7.96,6.82,11.94l0.48-0.24c-0.69,0.83-1.36,1.66-2.06,2.47c-0.9,1.06-0.97,1.85,0.27,2.83
		c2.98,2.35,5.85,4.87,8.91,7.43c-0.39,0.6-0.78,1.22-1.47,2.29c-1.17-1.47-2.2-2.75-3.21-4.05c-0.64-0.82-1.14-1.84-1.91-2.47
		c-4.22-3.41-8.57-6.67-12.77-10.11c-3.89-3.17-4.21-3.31-7.35,0.66c-1.35,1.7-2.19,3.85-3.25,5.81c-0.62,1.15-0.13,1.9,0.75,2.64
		c3.36,2.81,6.71,5.64,10.01,8.53c2.45,2.15,4.81,4.28,8.03,5.22c1.93,0.56,3.65,1.77,4.79,3.88c0.68,1.26,2.15,2.09,3.36,2.96
		c2.49,1.78,5.04,3.46,7.57,5.19c-2.21,3.34-1.96,4.02,0.95,6.64c2.44,2.19,3.64,2.06,5.95-0.51c2.26,2.25,4.48,4.59,6.84,6.76
		c1.6,1.47,3.41,2.69,5.12,4.03c0.57,0.44,1.26,0.79,1.68,1.36c1.7,2.31,3.47,4.57,4.92,7.05c3.36,5.78,8,10.13,13.2,13.91
		c1.77,1.29,3.53,2.58,5.27,3.91c1,0.76,1.86,0.65,2.82-0.13c3.83-3.09,6.76-6.94,8.95-11.47c0.67-1.39,0.25-2.25-0.78-3.17
		c-8.04-7.18-16.39-13.84-25.99-18.55c-0.61-0.3-1.19-0.64-1.82-0.99c2.95-1.88,4.37-1.84,6.91,0.21
		c26.36,21.21,52.72,42.43,79.1,63.62c0.91,0.73,1.29,1.49,1.03,2.62c-0.32,1.38,0.22,2.2,1.24,3.1c3.08,2.73,6.03,5.61,8.99,8.48
		c1.1,1.07,2.15,1.24,3.46,0.44c1.47-0.89,3.2-1.4,4.49-2.49c1.72-1.45,1.57-2.57-0.14-4c-12.78-10.73-25.57-21.44-38.36-32.16
		C93.5,91.99,92.98,91.54,92.35,91"/>
</g>
<g id="g492" transform="matrix(0.25862271,0,0,-0.23498935,59.561815,51.556278)">
	<path id="path494" class="st2" d="M0,0c-1.5,1.89-2.88,3.64-4.26,5.38C-5.01,4.06-6.78,2.39-6.28,1.5
		c0.92-1.64,3.09-3.39,4.89-3.98c1.03-0.34,2.35,1.52,3.54,2.38C1.77,0.23,1.39,0.56,1.02,0.88C0.52,0.45,0.03,0.02,0,0 M9.2,12.33
		c0.36-1.49,0.34-3.06,1.1-4.32C13.91,1.97,17.74-3.98,21.1-9.35c2.68-1.59,5.43-2.58,7.27-4.42C41.24-26.55,53.89-39.53,66.66-52.4
		c2.15-2.17,2.28-3.91,0.7-5.57c-5.11-5.37-10.21-10.76-15.38-16.08c-1.74-1.79-3.64-1.3-5.39,1.31
		c-4.04,6.03-8.17,12.03-12.11,18.1c-1.74,2.69-3.09,5.54-4.64,8.32c-5.15,9.26-8.91,19.67-22.2,22.15
		c3.54,7.22,3.58,14.01-2.78,21.56C1.61-4.96-1.9-7.05-6.54-2.57C-10.49,1.25-9.5,4.57-7.26,7.62c-4.55,3.84-9.08,7.57-13.49,11.41
		C-34.87,31.31-48.97,43.6-62.97,56.01c-1.08,0.96-1.2,2.88-2.03,4.23c-0.97,1.57-2,3.29-3.41,4.47
		c-22.95,19.3-45.95,38.52-68.95,57.76c-1.45,1.22-2.89,2.44-5.01,4.23c1.66,1.96,3.23,3.76,4.73,5.61c1.9,2.35,3.81,1.84,6.66-0.59
		c18.32-15.64,36.75-31.15,55.17-46.68c22.75-19.18,45.54-38.3,68.25-57.52c3.82-3.24,7.28-6.9,10.98-10.3
		C5.42,15.39,7.56,13.71,9.2,12.33"/>
</g>
<text transform="matrix(1.0217 0 0 1 27.0483 89.3842)" class="st1 st3 st4">Fegyvertan</text>
</svg>
