<?xml version="1.0" encoding="utf-8"?>
<!-- Generator: Adobe Illustrator 26.0.1, SVG Export Plug-In . SVG Version: 6.00 Build 0)  -->
<svg version="1.1" id="Réteg_1" xmlns="http://www.w3.org/2000/svg" xmlns:xlink="http://www.w3.org/1999/xlink" x="0px" y="0px"
	 viewBox="0 0 500 500" style="enable-background:new 0 0 500 500;" xml:space="preserve">
<style type="text/css">
	.st0{clip-path:url(#SVGID_00000044892465596552232370000007130182681974954907_);}
	.st1{fill:#990000;}
	.st2{clip-path:url(#SVGID_00000101061718525448717250000006331006070892706716_);}
	.st3{fill:#006600;}
</style>
<g>
	<defs>
		<rect id="SVGID_1_" width="249.99" height="499.98"/>
	</defs>
	<clipPath id="SVGID_00000060714927387822157820000013938368928984235439_">
		<use xlink:href="#SVGID_1_"  style="overflow:visible;"/>
	</clipPath>
	<g style="clip-path:url(#SVGID_00000060714927387822157820000013938368928984235439_);">
		<path class="st1" d="M108.07,39.02c0-7.41-0.03-14.23,0.01-21.05c0.05-10.05,6.93-17.86,15.76-17.95
			c8.95-0.09,16.16,7.81,16.22,17.85c0.04,6.91,0.01,13.82,0.01,20.93c73.34,0,146.4,0,219.89,0c0-6.43-0.04-12.78,0.02-19.13
			c0.02-2.12,0.08-4.29,0.52-6.34c1.78-8.32,9.37-14.16,16.98-13.25c8.05,0.96,14.2,8.04,14.44,16.72c0.1,3.62,0.04,7.25,0.04,10.87
			c0,3.61,0,7.22,0,11.33c1.24,0,2.28,0,3.33,0c13.46,0,26.91-0.02,40.37,0.01c35.94,0.08,64.29,30.56,64.32,69.28
			c0.05,77.93,0.01,155.86,0.01,233.8c0,29.42,0,58.85,0,88.27c-0.01,38.94-28.5,69.62-64.65,69.62c-123.68,0-247.37,0-371.05-0.01
			c-35.56,0-64.23-30.76-64.25-69.1C0,323.3-0.01,215.73,0.04,108.16c0.02-38.53,28.35-68.98,64.14-69.15
			c13.46-0.06,26.91-0.01,40.37-0.02C105.61,39.02,106.68,39.02,108.07,39.02z M32.06,176.96c0,1.5,0,2.67,0,3.83
			c0,82.73,0,165.46,0.01,248.19c0,21.78,13.47,36.46,33.59,36.47c122.89,0.02,245.79,0.02,368.68,0
			c20.02,0,33.61-14.63,33.61-36.11c0.02-82.94,0.01-165.89,0.01-248.83c0-1.13,0-2.26,0-3.54
			C322.53,176.96,177.52,176.96,32.06,176.96z M140.06,73.62c0,1.51,0,2.67,0,3.82c0,7.46,0.11,14.93-0.04,22.39
			c-0.19,9.45-7.45,16.8-16.25,16.68c-8.67-0.12-15.59-7.53-15.69-16.93c-0.08-6.93-0.02-13.86-0.02-20.79c0-1.67,0-3.34,0-5.1
			c-1.04-0.08-1.71-0.18-2.39-0.18c-13.95-0.01-27.9-0.13-41.85,0.04c-17.89,0.22-31.61,15.24-31.76,34.55
			c-0.06,8.1-0.01,16.2-0.01,24.31c0,3.17,0,6.34,0,9.71c145.4,0,290.49,0,435.9,0c0-1.34,0-2.48,0-3.63
			c0-9.81,0.01-19.62-0.01-29.42c-0.04-20.64-13.8-35.5-32.94-35.56c-13.26-0.04-26.52-0.01-39.78,0c-1.04,0-2.07,0.12-3.29,0.19
			c0,8.68,0.05,16.98-0.01,25.29c-0.07,10.04-7.02,17.59-16.02,17.54c-8.99-0.05-15.88-7.65-15.96-17.69
			c-0.05-7.25-0.01-14.5-0.01-21.75c0-1.12,0-2.25,0-3.46C286.49,73.62,213.5,73.62,140.06,73.62z"/>
	</g>
</g>
<g>
	<defs>
		
			<rect id="SVGID_00000043450774929258023100000017857747542656627333_" x="249.99" y="0.01" transform="matrix(-1 -4.489443e-11 4.489443e-11 -1 749.9745 500)" width="249.99" height="499.98"/>
	</defs>
	<clipPath id="SVGID_00000067920763191809398500000017586478582946138790_">
		<use xlink:href="#SVGID_00000043450774929258023100000017857747542656627333_"  style="overflow:visible;"/>
	</clipPath>
	<g style="clip-path:url(#SVGID_00000067920763191809398500000017586478582946138790_);">
		<path class="st3" d="M395.43,39c13.46,0.01,26.91-0.04,40.37,0.02c35.79,0.17,64.12,30.62,64.14,69.15
			c0.05,107.57,0.04,215.14,0,322.71c-0.02,38.34-28.69,69.1-64.25,69.1c-123.68,0.01-247.37,0.01-371.05,0.01
			c-36.15,0-64.64-30.68-64.65-69.62c0-29.42,0-58.85,0-88.27c0-77.94-0.04-155.87,0.01-233.8c0.03-38.72,28.38-69.2,64.32-69.28
			c13.46-0.03,26.91-0.01,40.37-0.01c1.05,0,2.09,0,3.33,0c0-4.11,0-7.72,0-11.33c0-3.62-0.06-7.25,0.04-10.87
			c0.24-8.68,6.39-15.76,14.44-16.72c7.61-0.91,15.2,4.93,16.98,13.25c0.44,2.05,0.5,4.22,0.52,6.34c0.06,6.35,0.02,12.7,0.02,19.13
			c73.49,0,146.55,0,219.89,0c0-7.11-0.03-14.02,0.01-20.93c0.06-10.04,7.27-17.94,16.22-17.85c8.83,0.09,15.71,7.9,15.76,17.95
			c0.04,6.82,0.01,13.64,0.01,21.05C393.3,39.03,394.37,39.03,395.43,39z M32.02,176.98c0,1.28,0,2.41,0,3.54
			c0,82.94-0.01,165.89,0.01,248.83c0,21.48,13.59,36.11,33.61,36.11c122.89,0.02,245.79,0.02,368.68,0
			c20.12-0.01,33.59-14.69,33.59-36.47c0.01-82.73,0.01-165.46,0.01-248.19c0-1.16,0-2.33,0-3.83
			C322.46,176.97,177.45,176.97,32.02,176.98z M140.05,73.64c0,1.21,0,2.34,0,3.46c0,7.25,0.04,14.5-0.01,21.75
			c-0.08,10.04-6.97,17.64-15.96,17.69c-9,0.05-15.95-7.5-16.02-17.54c-0.06-8.31-0.01-16.61-0.01-25.29
			c-1.22-0.07-2.25-0.19-3.29-0.19c-13.26-0.01-26.52-0.04-39.78,0c-19.14,0.06-32.9,14.92-32.94,35.56
			c-0.02,9.8-0.01,19.61-0.01,29.42c0,1.15,0,2.29,0,3.63c145.41,0,290.5,0,435.9,0c0-3.37,0-6.54,0-9.71
			c0-8.11,0.05-16.21-0.01-24.31c-0.15-19.31-13.87-34.33-31.76-34.55c-13.95-0.17-27.9-0.05-41.85-0.04c-0.68,0-1.35,0.1-2.39,0.18
			c0,1.76,0,3.43,0,5.1c0,6.93,0.06,13.86-0.02,20.79c-0.1,9.4-7.02,16.81-15.69,16.93c-8.8,0.12-16.06-7.23-16.25-16.68
			c-0.15-7.46-0.04-14.93-0.04-22.39c0-1.15,0-2.31,0-3.82C286.48,73.63,213.49,73.63,140.05,73.64z"/>
	</g>
</g>
</svg>
