<?xml version="1.0" encoding="utf-8"?>
<!-- Generator: Adobe Illustrator 26.0.1, SVG Export Plug-In . SVG Version: 6.00 Build 0)  -->
<svg version="1.1"
	 id="Layer_1" xmlns:inkscape="http://www.inkscape.org/namespaces/inkscape" xmlns:sodipodi="http://sodipodi.sourceforge.net/DTD/sodipodi-0.dtd" xmlns:svg="http://www.w3.org/2000/svg"
	 xmlns="http://www.w3.org/2000/svg" xmlns:xlink="http://www.w3.org/1999/xlink" x="0px" y="0px" viewBox="0 0 100 100"
	 style="enable-background:new 0 0 100 100;" xml:space="preserve">
<style type="text/css">
	.st0{fill:#80265A;}
	.st1{enable-background:new    ;}
	.st2{fill:#FFFFFF;}
</style>
<sodipodi:namedview  bordercolor="#eeeeee" borderopacity="1" id="namedview11" inkscape:current-layer="Layer_1" inkscape:cx="-80.601707" inkscape:cy="179.32318" inkscape:pagecheckerboard="0" inkscape:pageopacity="0" inkscape:pageshadow="0" inkscape:window-height="969" inkscape:window-maximized="0" inkscape:window-width="1296" inkscape:window-x="0" inkscape:window-y="25" inkscape:zoom="0.80023119" pagecolor="#505050" showgrid="false">
	</sodipodi:namedview>
<g id="g464" transform="matrix(0.25929441,0,0,-0.23554185,94.397946,100)">
	<path id="path466" class="st0" d="M0,0h-342.5c-11.9,0-21.6,9.7-21.6,21.6v381.3c0,11.9,9.7,21.6,21.6,21.6H0
		c11.9,0,21.6-9.7,21.6-21.6V21.6C21.6,9.7,11.9,0,0,0"/>
</g>
<g class="st1">
	<path class="st2" d="M26.9,90.2c-0.4,0.2-0.8,0.3-1.3,0.3c-0.9,0-1.6-0.3-2.2-0.9c-0.6-0.6-0.9-1.4-0.9-2.5c0-1,0.3-1.9,0.9-2.5
		s1.4-0.9,2.3-0.9c0.8,0,1.5,0.2,2,0.6c0.5,0.4,0.8,0.9,0.9,1.6h-1.4c-0.1-0.4-0.4-0.8-0.8-0.9c-0.2-0.1-0.5-0.1-0.8-0.1
		c-0.5,0-1,0.2-1.3,0.6c-0.3,0.4-0.5,1-0.5,1.8c0,0.8,0.2,1.4,0.6,1.7c0.4,0.3,0.8,0.5,1.3,0.5c0.5,0,0.8-0.1,1.1-0.4
		c0.3-0.3,0.5-0.6,0.5-1h-1.5v-1.1h2.8v3.5h-0.9l-0.1-0.8C27.3,89.8,27.1,90,26.9,90.2z"/>
	<path class="st2" d="M31.9,89.1l1-3.5h1.4l-1.7,4.7c-0.3,0.9-0.6,1.5-0.8,1.7c-0.2,0.2-0.6,0.3-1.1,0.3c-0.1,0-0.2,0-0.3,0
		c-0.1,0-0.2,0-0.3,0v-1l0.2,0c0.1,0,0.2,0,0.4,0c0.1,0,0.2,0,0.3-0.1c0.1,0,0.1-0.2,0.2-0.3s0.1-0.3,0.1-0.3l-1.8-5h1.4L31.9,89.1z
		"/>
	<path class="st2" d="M39.2,88.9c0,0.3-0.2,0.6-0.5,0.9c-0.4,0.5-1,0.7-1.8,0.7c-0.6,0-1.2-0.2-1.6-0.6s-0.7-1-0.7-1.9
		c0-0.8,0.2-1.5,0.6-1.9c0.4-0.4,1-0.7,1.7-0.7c0.4,0,0.8,0.1,1.1,0.2c0.3,0.2,0.6,0.4,0.8,0.7c0.2,0.3,0.3,0.6,0.4,1
		c0,0.2,0,0.5,0,0.9h-3.4c0,0.5,0.2,0.8,0.5,1c0.2,0.1,0.4,0.2,0.6,0.2c0.3,0,0.5-0.1,0.6-0.2c0.1-0.1,0.2-0.2,0.2-0.3H39.2z
		 M37.9,87.4c0-0.3-0.1-0.6-0.3-0.8s-0.4-0.3-0.7-0.3c-0.3,0-0.5,0.1-0.7,0.3c-0.2,0.2-0.3,0.4-0.3,0.7H37.9z"/>
	<path class="st2" d="M42.6,86.7c-0.5,0-0.9,0.2-1,0.5c-0.1,0.2-0.1,0.5-0.1,0.9v2.3h-1.3v-4.8h1.2v0.8c0.2-0.3,0.4-0.5,0.5-0.7
		c0.2-0.2,0.6-0.3,0.9-0.3c0,0,0,0,0.1,0c0,0,0.1,0,0.1,0v1.3c-0.1,0-0.2,0-0.2,0C42.7,86.7,42.6,86.7,42.6,86.7z"/>
	<path class="st2" d="M47.9,88.9c0,0.3-0.2,0.6-0.5,0.9c-0.4,0.5-1,0.7-1.8,0.7c-0.6,0-1.2-0.2-1.6-0.6s-0.7-1-0.7-1.9
		c0-0.8,0.2-1.5,0.6-1.9c0.4-0.4,1-0.7,1.7-0.7c0.4,0,0.8,0.1,1.1,0.2c0.3,0.2,0.6,0.4,0.8,0.7c0.2,0.3,0.3,0.6,0.4,1
		c0,0.2,0,0.5,0,0.9h-3.4c0,0.5,0.2,0.8,0.5,1c0.2,0.1,0.4,0.2,0.6,0.2c0.3,0,0.5-0.1,0.6-0.2c0.1-0.1,0.2-0.2,0.2-0.3H47.9z
		 M46.6,87.4c0-0.3-0.1-0.6-0.3-0.8s-0.4-0.3-0.7-0.3c-0.3,0-0.5,0.1-0.7,0.3c-0.2,0.2-0.3,0.4-0.3,0.7H46.6z"/>
	<path class="st2" d="M53.3,90.3h-1.5l-1.2-2l-0.5,0.5v1.5h-1.3v-6.5h1.3v3.5l1.6-1.8h1.6l-1.7,1.8L53.3,90.3z"/>
	<path class="st2" d="M57.3,85.7c0.4,0.2,0.6,0.7,0.7,1.2h-1.3c0-0.2-0.1-0.3-0.1-0.4c-0.1-0.2-0.4-0.3-0.7-0.3
		c-0.3,0-0.5,0-0.6,0.1c-0.1,0.1-0.2,0.2-0.2,0.3c0,0.1,0.1,0.2,0.2,0.3c0.1,0.1,0.6,0.2,1.3,0.3c0.5,0.1,0.9,0.3,1.1,0.5
		c0.3,0.2,0.4,0.5,0.4,0.9c0,0.5-0.2,0.9-0.5,1.2c-0.4,0.3-0.9,0.5-1.7,0.5c-0.8,0-1.3-0.2-1.7-0.5c-0.4-0.3-0.5-0.7-0.5-1.2h1.3
		c0,0.2,0.1,0.4,0.2,0.5c0.2,0.2,0.5,0.3,0.9,0.3c0.3,0,0.5,0,0.6-0.1c0.1-0.1,0.2-0.2,0.2-0.3c0-0.1-0.1-0.2-0.2-0.3
		c-0.1-0.1-0.6-0.2-1.3-0.4c-0.6-0.1-0.9-0.3-1.2-0.5c-0.2-0.2-0.3-0.5-0.3-0.9c0-0.4,0.2-0.8,0.5-1.1c0.4-0.3,0.9-0.5,1.5-0.5
		C56.4,85.4,56.9,85.5,57.3,85.7z"/>
	<path class="st2" d="M59.2,86c0.3-0.4,0.9-0.6,1.7-0.6c0.5,0,1,0.1,1.4,0.3s0.6,0.6,0.6,1.2v2.2c0,0.2,0,0.3,0,0.6
		c0,0.2,0,0.3,0.1,0.3c0,0.1,0.1,0.1,0.2,0.1v0.2h-1.4c0-0.1-0.1-0.2-0.1-0.3c0-0.1,0-0.2,0-0.3c-0.2,0.2-0.4,0.3-0.6,0.5
		c-0.3,0.2-0.6,0.2-0.9,0.2c-0.4,0-0.8-0.1-1.1-0.4c-0.3-0.2-0.4-0.6-0.4-1.1c0-0.6,0.2-1,0.7-1.3c0.3-0.1,0.6-0.2,1.1-0.3l0.4-0.1
		c0.2,0,0.4-0.1,0.5-0.1c0.2-0.1,0.3-0.2,0.3-0.4c0-0.2-0.1-0.3-0.2-0.4c-0.1-0.1-0.3-0.1-0.6-0.1c-0.3,0-0.5,0.1-0.6,0.2
		c-0.1,0.1-0.1,0.3-0.2,0.4h-1.2C58.9,86.7,59,86.3,59.2,86z M60.2,89.4c0.1,0.1,0.3,0.1,0.4,0.1c0.3,0,0.5-0.1,0.8-0.2
		c0.2-0.2,0.4-0.4,0.4-0.9V88c-0.1,0-0.2,0.1-0.2,0.1c-0.1,0-0.2,0.1-0.3,0.1l-0.3,0.1c-0.3,0-0.5,0.1-0.6,0.2
		C60.1,88.5,60,88.7,60,89C60,89.2,60.1,89.3,60.2,89.4z"/>
	<path class="st2" d="M66.6,86.7c-0.5,0-0.9,0.2-1,0.5c-0.1,0.2-0.1,0.5-0.1,0.9v2.3h-1.3v-4.8h1.2v0.8c0.2-0.3,0.4-0.5,0.5-0.7
		c0.2-0.2,0.6-0.3,0.9-0.3c0,0,0,0,0.1,0c0,0,0.1,0,0.1,0v1.3c-0.1,0-0.2,0-0.2,0C66.7,86.7,66.7,86.7,66.6,86.7z"/>
	<path class="st2" d="M71.8,86.1c0.4,0.5,0.6,1.1,0.6,1.8c0,0.7-0.2,1.3-0.6,1.8c-0.4,0.5-1,0.8-1.9,0.8c-0.8,0-1.5-0.2-1.9-0.8
		c-0.4-0.5-0.6-1.1-0.6-1.8c0-0.7,0.2-1.3,0.6-1.8c0.4-0.5,1-0.8,1.9-0.8C70.8,85.4,71.4,85.6,71.8,86.1z M69.9,86.4
		c-0.4,0-0.7,0.1-0.9,0.4c-0.2,0.3-0.3,0.6-0.3,1.1s0.1,0.9,0.3,1.1c0.2,0.3,0.5,0.4,0.9,0.4c0.4,0,0.7-0.1,0.9-0.4
		c0.2-0.3,0.3-0.6,0.3-1.1s-0.1-0.9-0.3-1.1C70.6,86.6,70.3,86.4,69.9,86.4z"/>
	<path class="st2" d="M77.8,90.3h-1.5l-1.2-2l-0.5,0.5v1.5h-1.3v-6.5h1.3v3.5l1.6-1.8h1.6l-1.7,1.8L77.8,90.3z"/>
</g>
</svg>
