<?xml version="1.0" encoding="utf-8"?>
<!-- Generator: Adobe Illustrator 26.0.1, SVG Export Plug-In . SVG Version: 6.00 Build 0)  -->
<svg version="1.1" id="Réteg_1" xmlns="http://www.w3.org/2000/svg" xmlns:xlink="http://www.w3.org/1999/xlink" x="0px" y="0px"
	 viewBox="0 0 500 500" style="enable-background:new 0 0 500 500;" xml:space="preserve">
<style type="text/css">
	.st0{fill:#990000;}
</style>
<g>
	<path class="st0" d="M108.07,39.02c0-7.41-0.03-14.23,0.01-21.05c0.05-10.05,6.93-17.86,15.76-17.95
		c8.95-0.09,16.16,7.81,16.22,17.85c0.04,6.91,0.01,13.82,0.01,20.93c73.34,0,146.4,0,219.89,0c0-6.43-0.04-12.78,0.02-19.13
		c0.02-2.12,0.08-4.29,0.52-6.34c1.78-8.32,9.37-14.16,16.98-13.25c8.05,0.96,14.2,8.04,14.44,16.72c0.1,3.62,0.04,7.25,0.04,10.87
		c0,3.61,0,7.22,0,11.33c1.24,0,2.28,0,3.33,0c13.46,0,26.91-0.02,40.37,0.01c35.94,0.08,64.29,30.56,64.32,69.28
		c0.05,77.93,0.01,155.86,0.01,233.8c0,29.42,0,58.85,0,88.27c-0.01,38.94-28.5,69.62-64.65,69.62c-123.68,0-247.37,0-371.05-0.01
		c-35.56,0-64.23-30.76-64.25-69.1c-0.04-107.57-0.05-215.14,0-322.71c0.02-38.53,28.35-68.98,64.14-69.15
		c13.46-0.06,26.91-0.01,40.37-0.02C105.61,39.02,106.68,39.02,108.07,39.02z M32.06,176.96c0,1.5,0,2.67,0,3.83
		c0,82.73,0,165.46,0.01,248.19c0,21.78,13.47,36.46,33.59,36.47c122.89,0.02,245.79,0.02,368.68,0c20.02,0,33.61-14.63,33.61-36.11
		c0.02-82.94,0.01-165.89,0.01-248.83c0-1.13,0-2.26,0-3.54C322.53,176.96,177.52,176.96,32.06,176.96z M140.06,73.62
		c0,1.51,0,2.67,0,3.82c0,7.46,0.11,14.93-0.04,22.39c-0.19,9.45-7.45,16.8-16.25,16.68c-8.67-0.12-15.59-7.53-15.69-16.93
		c-0.08-6.93-0.02-13.86-0.02-20.79c0-1.67,0-3.34,0-5.1c-1.04-0.08-1.71-0.18-2.39-0.18c-13.95-0.01-27.9-0.13-41.85,0.04
		c-17.89,0.22-31.61,15.24-31.76,34.55c-0.06,8.1-0.01,16.2-0.01,24.31c0,3.17,0,6.34,0,9.71c145.4,0,290.49,0,435.9,0
		c0-1.34,0-2.48,0-3.63c0-9.81,0.01-19.62-0.01-29.42c-0.04-20.64-13.8-35.5-32.94-35.56c-13.26-0.04-26.52-0.01-39.78,0
		c-1.04,0-2.07,0.12-3.29,0.19c0,8.68,0.05,16.98-0.01,25.29c-0.07,10.04-7.02,17.59-16.02,17.54c-8.99-0.05-15.88-7.65-15.96-17.69
		c-0.05-7.25-0.01-14.5-0.01-21.75c0-1.12,0-2.25,0-3.46C286.49,73.62,213.5,73.62,140.06,73.62z"/>
</g>
</svg>
