<?xml version="1.0" encoding="utf-8"?>
<!-- Generator: Adobe Illustrator 26.0.1, SVG Export Plug-In . SVG Version: 6.00 Build 0)  -->
<svg version="1.1" id="Réteg_1" xmlns="http://www.w3.org/2000/svg" xmlns:xlink="http://www.w3.org/1999/xlink" x="0px" y="0px"
	 viewBox="0 0 100 100" style="enable-background:new 0 0 100 100;" xml:space="preserve">
<style type="text/css">
	.st0{fill:#154D3F;}
	.st1{fill:#FFFFFF;}
	.st2{font-family:'Helvetica-Bold';}
	.st3{font-size:9px;}
</style>
<g id="g444" transform="matrix(0.25929441,0,0,-0.23554185,94.397944,100)">
	<path id="path446" class="st0" d="M-0.48,0.55h-341.5c-11.9,0-21.55,9.65-21.55,21.55v380.35c0,11.9,9.65,21.55,21.55,21.55h341.5
		c11.9,0,21.55-9.65,21.55-21.55V22.1C21.07,10.2,11.43,0.55-0.48,0.55"/>
</g>
<text transform="matrix(1.022 0 0 1 11.8975 89.8576)" class="st1 st2 st3">A nyúl betegségei</text>
<g>
	<path class="st1" d="M79.64,44.16c-0.18,1.2-0.46,2.38-0.9,3.53c-0.15,0.4-0.31,0.8-0.47,1.19c-0.16,0.37,0.01,0.59,0.34,0.7
		c1.18,0.38,2.35,0.84,3.49,0.66c2.75,0.03,2.32,0.07,2.83,2.22c0.13,0.54,0.16,1.1,0.22,1.66c0.13,1.25-0.42,1.95-1.66,2.04
		c-0.49,0.04-0.82,0.21-1.15,0.56c-0.25,0.25-0.65,0.43-1.01,0.48c-1.57,0.23-3.14,0.44-4.72,0.6c-1.13,0.12-2.26,0.12-3.39,0.25
		c-0.25,0.03-0.58,0.3-0.68,0.55c-0.4,1-1.1,1.35-2.15,1.38c-2.87,0.06-5.74,0.26-8.61,0.29c-2.66,0.02-5.23-0.53-7.68-1.61
		c-0.16-0.07-0.57,0-0.61,0.1c-0.6,1.48-1.87,2.05-3.26,2.47c-1.87,0.56-3.79,0.68-5.72,0.71c-5.17,0.1-10.33,0.25-15.5,0.27
		c-1.94,0.01-3.95-0.38-5.42-1.71c-1.15-1.04-2.42-1.15-3.76-1.42c-1.72-0.35-3.16-1.23-4.17-2.68c-1.11-1.59-0.96-3.31-0.27-4.98
		c1.02-2.48,2.56-4.65,4.29-6.68c0.45-0.53,0.71-1.1,0.78-1.79c0.24-2.43,1.14-4.63,2.59-6.56c1.04-1.38,2.1-2.8,3.41-3.9
		c2.3-1.92,4.94-3.25,8.03-3.58c2.11-0.23,4.19-0.19,6.28,0.06c1.55,0.19,2.94,0.82,4.33,1.54c2.64,1.37,4.41,3.56,5.97,5.97
		c0.53,0.81,0.58,0.82,1.25,0.12c2.59-2.75,5.45-5.16,8.92-6.73c2.37-1.07,4.8-1.95,7.48-1.77c1.01,0.07,0.97-0.01,1.33-0.98
		c0.38-1.03,1.18-1.76,2.23-1.96c2.62-0.5,3.9,1.31,3.61,3.33c-0.05,0.37-0.22,0.75-0.44,1.05c-0.32,0.43-0.21,0.67,0.11,1.04
		c0.99,1.15,2.05,2.27,2.83,3.55c1.27,2.06,1.58,4.41,1.52,6.81C79.87,42.03,79.8,43.1,79.64,44.16 M51.38,44.58
		c0.02-1.66-0.32-3.23-0.91-4.77c-0.74-1.89-1.93-3.48-3.21-5.01c-0.79-0.95-1.72-1.77-2.83-2.39c-2.18-1.24-4.52-1.69-6.97-1.66
		c-1.26,0.02-2.53,0.13-3.77,0.33c-0.88,0.14-1.77,0.4-2.57,0.78c-1.86,0.9-3.55,2.09-4.95,3.63c-1.27,1.39-2.38,2.9-2.97,4.69
		c-0.39,1.19-0.59,2.45-0.78,3.69c-0.25,1.65,0.05,3.25,0.66,4.78c0.27,0.69,0.6,0.71,1.05,0.13c0.56-0.73,1.1-1.48,1.66-2.21
		c0.35-0.46,1.06-0.6,1.49-0.31c0.46,0.31,0.53,0.83,0.16,1.43c-0.12,0.2-0.28,0.38-0.42,0.57c-1.43,1.93-2.83,3.9-3.59,6.21
		c-0.66,2-0.31,3.72,1.79,4.76c1.42,0.7,2.9,1.04,4.47,1.01c5.44-0.1,10.89-0.22,16.34-0.35c1.66-0.04,3.28-0.36,4.81-1.03
		c0.75-0.33,0.94-0.91,0.68-1.68c-0.58-1.7-1.83-2.72-3.49-3.12c-1.6-0.38-3.25-0.72-4.88-0.72c-2.58-0.01-5.18,0.19-7.75,0.47
		c-1.89,0.2-3.75,0.66-5.62,1.02c-1.05,0.2-2.08,0.47-3.13,0.67c-0.41,0.08-0.8-0.07-0.86-0.56c-0.06-0.47-0.1-0.98,0.48-1.19
		c0.54-0.2,1.08-0.41,1.64-0.55c0.56-0.14,0.87-0.44,1.07-0.98c0.28-0.76,0.62-1.51,1.03-2.21c0.32-0.56,0.9-0.69,1.39-0.43
		c0.49,0.26,0.65,0.78,0.42,1.39c-0.07,0.18-0.16,0.35-0.24,0.53c-0.28,0.56-0.17,0.74,0.47,0.68c1.32-0.14,2.64-0.29,3.96-0.48
		c3.33-0.46,6.67-0.55,10-0.17c0.88,0.1,1.75,0.38,2.6,0.64c0.92,0.28,1.05,0.25,1.45-0.68C50.94,49.27,51.32,46.95,51.38,44.58z
		 M63.86,58.43c2.05-0.15,4.1-0.31,6.15-0.45c0.53-0.04,0.88-0.27,0.9-0.81c0.02-0.53,0.03-1.13-0.66-1.29
		c-0.68-0.16-1.38-0.31-2.07-0.39c-1.87-0.21-3.75-0.33-5.62-0.59c-2.2-0.3-4.19-1.2-5.95-2.56c-0.71-0.55-1.14-1.97-0.89-2.8
		c0.17-0.55,0.5-0.77,1.05-0.7c0.53,0.06,0.83,0.39,0.85,0.89c0.02,0.73,0.35,1.21,0.96,1.55C59,51.52,59.4,51.84,59.86,52
		c0.83,0.29,1.61,0.87,2.58,0.43c0.76-0.34,1.56-0.6,2.3-0.98c0.37-0.19,0.7-0.53,0.96-0.88c0.6-0.8,1.1-1.68,1.72-2.46
		c0.35-0.44,1.03-0.43,1.39-0.11c0.38,0.34,0.36,0.82,0.05,1.34c-0.66,1.08-1.31,2.16-1.93,3.26c-0.29,0.51-0.1,0.81,0.49,0.86
		c0.58,0.04,1.17,0,1.73,0.11c1.33,0.25,2.7,0.49,3.44,1.84c0.27,0.49,0.64,0.65,1.16,0.61c1.77-0.15,3.55-0.25,5.32-0.46
		c1.53-0.18,1.6-0.35,1.22-1.85c-0.28-1.13-0.28-1.13-1.43-1.14c-0.19,0-0.38-0.03-0.58-0.05c-0.79-0.05-1.59-0.29-2.3,0.38
		c-0.35,0.33-0.82,0.11-1.08-0.21c-0.17-0.21-0.31-0.63-0.21-0.85c0.57-1.35,1.22-2.66,1.83-3.99c0.2-0.43,0.45-0.85,0.55-1.3
		c0.31-1.46,0.66-2.93,0.8-4.41c0.3-3.14-0.18-6.11-2.26-8.66c-1.48-1.81-3.33-2.95-5.65-3.23c-2.66-0.32-5.2,0.22-7.63,1.29
		c-3.6,1.59-6.58,3.98-9.11,6.97c-0.49,0.57-0.59,1.12-0.38,1.82c1.1,3.7,0.74,7.34-0.53,10.91c-0.56,1.58-0.22,2.92,0.74,4.15
		c1.01,1.3,2.42,1.83,4.01,2.18C59.29,58.07,61.54,58.41,63.86,58.43z M20.43,47.3c-0.13,0.03-0.19,0.02-0.21,0.05
		c-1.25,1.66-2.52,3.32-3.18,5.31c-0.31,0.95-0.39,2.01,0.39,2.86c0.87,0.96,1.99,1.45,3.24,1.68c0.14,0.03,0.47-0.27,0.5-0.45
		c0.19-1.02,0.3-2.06,0.47-3.09c0.07-0.4-0.05-0.54-0.41-0.49c-0.38,0.05-0.75,0.16-1.14,0.21c-0.47,0.06-0.92,0.04-1.09-0.54
		c-0.16-0.56,0.13-1.11,0.71-1.33c0.44-0.17,0.89-0.32,1.33-0.46c0.62-0.19,0.8-0.58,0.52-1.18c-0.24-0.52-0.49-1.04-0.73-1.57
		C20.69,47.97,20.56,47.62,20.43,47.3z M73.04,27.15c-0.68,0.01-1.08,0.36-1.07,0.92c0.02,0.52,0.5,0.88,1.13,0.86
		c0.51-0.02,0.82-0.38,0.81-0.94C73.9,27.4,73.63,27.14,73.04,27.15z M83.1,53.7c-0.1-0.42-0.16-0.79-0.29-1.11
		c-0.05-0.12-0.3-0.17-0.45-0.25c-0.06,0.14-0.19,0.29-0.18,0.43c0.03,0.34,0.09,0.68,0.2,1c0.06,0.16,0.27,0.26,0.41,0.39
		C82.89,53.99,83,53.84,83.1,53.7z"/>
</g>
</svg>
