<?xml version="1.0" encoding="utf-8"?>
<!-- Generator: Adobe Illustrator 26.0.1, SVG Export Plug-In . SVG Version: 6.00 Build 0)  -->
<svg version="1.1"
	 id="Layer_1" inkscape:version="1.1.1 (c3084ef, 2021-09-22)" sodipodi:docname="online-teszt.svg" xmlns:inkscape="http://www.inkscape.org/namespaces/inkscape" xmlns:sodipodi="http://sodipodi.sourceforge.net/DTD/sodipodi-0.dtd" xmlns:svg="http://www.w3.org/2000/svg"
	 xmlns="http://www.w3.org/2000/svg" xmlns:xlink="http://www.w3.org/1999/xlink" x="0px" y="0px" viewBox="0 0 100 100"
	 style="enable-background:new 0 0 100 100;" xml:space="preserve">
<style type="text/css">
	.st0{fill:#2B7187;}
	.st1{fill:#FFFFFF;stroke:#336699;stroke-width:0.5;stroke-miterlimit:10;}
	.st2{fill:#FFFFFF;}
	.st3{font-family:'Helvetica-Bold';}
	.st4{font-size:9px;}
</style>
<sodipodi:namedview  bordercolor="#eeeeee" borderopacity="1" id="namedview1589" inkscape:current-layer="Layer_1" inkscape:cx="87.828788" inkscape:cy="80.972705" inkscape:pagecheckerboard="0" inkscape:pageopacity="0" inkscape:pageshadow="0" inkscape:window-height="969" inkscape:window-maximized="0" inkscape:window-width="1296" inkscape:window-x="0" inkscape:window-y="25" inkscape:zoom="4.2298204" pagecolor="#505050" showgrid="false">
	</sodipodi:namedview>
<g id="g460" transform="matrix(0.25862383,0,0,-0.23498835,94.283124,99.882503)">
	<path id="path462" class="st0" d="M-0.43,0h-342.45c-11.93,0-21.61,9.67-21.61,21.61v381.34c0,11.93,9.67,21.61,21.61,21.61H-0.43
		c11.93,0,21.6-9.67,21.6-21.61V21.61C21.18,9.67,11.5,0-0.43,0"/>
</g>
<g>
	<g id="g512" transform="matrix(0.25862383,0,0,-0.23498835,28.189746,38.577844)">
		<path id="path514" class="st1" d="M-2.35,0c0,0,11.62,38.17,71.36,74.13c59.75,35.96,89.62-13.83,89.62-13.83
			s26-28.77-17.7-101.24c-50.25-55.11-30.98-63.62,2.77-42.04c16.02,6.51-8.71-19.87-17.78-25.23c-9.07-5.36-30.39-16.07-43.94,7.01
			c-9.02,16.49,21.89,59.14,30.13,69.24c8.24,10.1,26.38,59.35,11.75,66.56c-14.63,7.21-20.19,5.77-40.39-11.95
			C63.28,4.92,34.22-33.2,34.22-33.2S1.68-32.79-2.35-1.26"/>
	</g>
	<g id="g516" transform="matrix(0.25862383,0,0,-0.23498835,30.770531,42.726384)">
		<path id="path518" class="st1" d="M-2.35,0c0,0,64.78,92.64,85.39,103.63c20.61,10.99,65.39,3.85,63.19-29.4
			c-2.2-33.25-2.2-45.06-57.97-107.98c-53.3-67.39,21.16-78.58,38.74-60.17c17.58,18.41,15.96,28.6,15.96,28.6
			s-63.22-42.2-30.52,29.92c30.96,68.29,23.74,82.28,11.54,93.69c-17.03,15.94-95.75-73.84-95.75-73.84"/>
	</g>
	<g id="g520" transform="matrix(0.25862383,0,0,-0.23498835,72.801501,72.938847)">
		<path id="path522" class="st1" d="M-2.35,0c0-8.06-6.53-14.58-14.58-14.58S-31.51-8.06-31.51,0s6.53,14.58,14.58,14.58
			S-2.35,8.06-2.35,0"/>
	</g>
</g>
<text transform="matrix(1.0217 0 0 1 23.8314 89.4535)" class="st2 st3 st4">Online teszt</text>
</svg>
