<?xml version="1.0" encoding="utf-8"?>
<!-- Generator: Adobe Illustrator 26.0.1, SVG Export Plug-In . SVG Version: 6.00 Build 0)  -->
<svg version="1.1" id="Réteg_1" xmlns="http://www.w3.org/2000/svg" xmlns:xlink="http://www.w3.org/1999/xlink" x="0px" y="0px"
	 viewBox="0 0 100 100" style="enable-background:new 0 0 100 100;" xml:space="preserve">
<style type="text/css">
	.st0{fill:#997D2B;}
	.st1{fill:#FFFFFF;}
	.st2{font-family:'Helvetica-Bold';}
	.st3{font-size:9px;}
</style>
<g id="g444" transform="matrix(0.25929441,0,0,-0.23554185,94.397944,100)">
	<path id="path446" class="st0" d="M-0.48,0.55h-341.5c-11.9,0-21.55,9.65-21.55,21.55v380.35c0,11.9,9.65,21.55,21.55,21.55h341.5
		c11.9,0,21.55-9.65,21.55-21.55V22.1C21.07,10.2,11.42,0.55-0.48,0.55"/>
</g>
<text transform="matrix(1.022 0 0 1 3.2199 90.5681)" class="st1 st2 st3">Szárnyas betegségek</text>
<g>
	<path class="st1" d="M21.76,35.3c0.98,0.16,1.96,0.31,2.93,0.46c0.31,0.05,0.63,0.06,0.94,0.1c0.81,0.1,1.62,0.2,2.43,0.31
		c0.08,0.01,0.16,0,0.24,0.03c0.51,0.17,0.51,0.17,0.78-0.34c0.06,0.11,0.12,0.21,0.22,0.41c0.09-0.2,0.17-0.32,0.18-0.44
		c0.04-1.2,0.05-2.4,0.12-3.6c0.03-0.42-0.11-0.73-0.41-0.97c-1.11-0.91-1.89-2.08-2.35-3.4c-0.29-0.84-0.71-0.96-1.48-0.99
		c-0.83-0.03-1.42-0.57-1.8-1.33c-0.46-0.9-0.33-1.87-0.37-2.82c-0.01-0.18-0.07-0.36-0.09-0.49c0.31-1.55,1.45-1.33,2.64-1.17
		c0.04-0.38,0.09-0.75,0.13-1.13c0.05-0.57,0.01-1.15,0.14-1.69c0.18-0.74,0.43-1.47,0.76-2.15c0.38-0.77,0.81-1.53,1.35-2.2
		c0.49-0.61,1.18-1.06,1.71-1.64c0.6-0.66,1.39-0.98,2.17-1.27c0.76-0.28,1.6-0.39,2.41-0.44c0.79-0.05,1.61-0.01,2.38,0.14
		c0.93,0.19,1.83,0.45,2.68,0.96c0.86,0.52,1.65,1.11,2.24,1.91c0.56,0.75,1.02,1.58,1.51,2.36c0.18-0.09,0.45-0.32,0.76-0.36
		c0.75-0.11,1.47,0.45,1.74,1.14c0.41,1.04,0.31,2.06,0.06,3.15c-0.23,1.02-0.79,1.82-1.3,2.68c-0.1,0.16-0.24,0.33-0.26,0.51
		c-0.12,0.9-0.14,1.82-0.33,2.7c-0.3,1.36-0.6,2.74-1.32,3.97c-0.16,0.28-0.22,0.57-0.07,0.88c0.59,1.29,0.79,2.68,0.93,4.07
		c0.03,0.36-0.01,0.88-0.24,1.07c-0.28,0.25-0.58-0.2-0.84-0.39c-0.95-0.7-1.9-1.41-2.86-2.1c-0.09-0.06-0.25-0.05-0.37-0.01
		c-1.05,0.32-2.11,0.61-3.23,0.57c-0.27-0.01-0.53-0.05-0.77-0.07c0,0.66-0.01,1.34,0.01,2.01c0.01,0.39-0.15,0.84,0.33,1.12
		c0.11,0.07,0.13,0.3,0.2,0.46c1.08,0.18,2.15,0.38,3.23,0.53c1.14,0.15,2.29,0.24,3.43,0.35c1.1,0.11,2.2,0.2,3.29,0.31
		c0.79,0.08,1.58,0.19,2.37,0.26c1.84,0.17,3.67,0.33,5.51,0.47c0.57,0.04,1.15,0.01,1.72,0.03c0.24,0.01,0.47,0.07,0.71,0.07
		c0.15,0,0.38,0,0.43-0.09c0.28-0.45,0.53-0.27,0.79,0c0.04,0.04,0.1,0.06,0.21,0.13c0.02-0.24,0.04-0.44,0.06-0.65
		c0.34-0.17,0.51,0.01,0.65,0.3c0.09,0.18,0.17,0.42,0.39,0.06c0.06-0.1,0.36-0.16,0.46-0.09c0.14,0.09,0.19,0.31,0.3,0.5
		c3.64,0.1,7.33,0.2,11.02,0.3c0.21-0.22-0.19-0.71,0.29-0.76c0.13-0.01,0.31,0.35,0.48,0.57c0.13-0.11,0.31-0.37,0.53-0.43
		c0.29-0.08,0.52,0.09,0.5,0.38c2.08,0.5,4.13,0.2,6.18,0.08c0,0.26,0,0.51,0,0.77c-1.79,0.03-3.58,0.05-5.36,0.1
		c-0.17,0-0.35,0.16-0.51,0.27c-0.3,0.22-0.53,0.57-0.99,0.31c-0.06-0.03-0.31,0.16-0.38,0.3c-0.45,1.02-0.85,2.07-1.3,3.09
		c-0.35,0.83-0.7,1.66-1.12,2.45c-0.23,0.43-0.14,0.55,0.26,0.81c1.22,0.78,2.28,1.75,3.1,2.96c0.52,0.76,0.73,1.63,0.95,2.48
		c0.23,0.91,0.48,1.83,0.52,2.76c0.03,0.69,0.45,0.81,0.86,1.11c0.87,0.62,1.56,1.44,2.05,2.39c0.41,0.78,0.72,1.62,0.79,2.49
		c0.06,0.64,0.05,1.32-0.47,1.83c-0.11,0.11-0.29,0.16-0.44,0.23c-0.92,0.49-1.85,0.71-2.79-0.02c-0.06,0.1-0.1,0.18-0.16,0.27
		c-0.03-0.04-0.07-0.06-0.07-0.07c0.1-0.29-0.02-0.5-0.28-0.57c-0.33-0.08-0.26,0.21-0.32,0.4c-0.26,0.82-0.57,1.63-0.8,2.47
		c-0.5,1.76-1.55,3.08-3.05,4.07c-0.34,0.23-0.62,0.49-1.09,0.53c-0.4,0.03-0.82,0.32-1.12,0.6c-0.18,0.17-0.17,0.55-0.23,0.84
		c-0.11,0.53-0.16,1.09-0.33,1.59c-0.33,0.94-0.72,1.86-1.09,2.78c-0.01,0.03-0.01,0.07-0.03,0.09c-0.16,0.16-0.32,0.32-0.48,0.48
		c-0.13-0.16-0.3-0.3-0.39-0.48c-0.69-1.42-1.37-2.84-2.04-4.26c-0.11-0.24-0.21-0.48-0.28-0.73c-0.12-0.44-0.52-0.44-0.83-0.54
		c-1.4-0.44-2.63-1.11-3.53-2.33c-0.66-0.9-1.39-1.76-2.03-2.68c-0.63-0.91-1.13-1.89-1.43-2.96c-0.06-0.22-0.14-0.43-0.19-0.58
		c-0.66,0.18-1.29,0.4-1.94,0.5c-0.28,0.04-0.63-0.09-0.89-0.24c-1.14-0.64-1.19-1.7-0.9-2.79c0.19-0.71,0.45-1.47,0.89-2.04
		c0.64-0.83,1.23-1.74,2.2-2.27c0.39-0.21,0.81-0.38,1.23-0.57c0-1.34,0.45-2.61,0.83-3.89c0.38-1.26,0.94-2.43,1.8-3.42
		c0.75-0.86,1.71-1.45,2.84-1.83c-0.66-1.89-1.31-3.77-1.98-5.68c-0.41,0.04-0.78-0.07-1.01-0.47c-0.03-0.06-0.13-0.1-0.2-0.11
		c-0.52-0.07-1.05-0.14-1.58-0.17c-0.85-0.06-1.71-0.07-2.57-0.14c-1.03-0.08-2.07-0.18-3.1-0.28c-0.98-0.09-1.97-0.19-2.95-0.29
		c-0.84-0.09-1.69-0.19-2.53-0.28c-1-0.1-2-0.18-2.99-0.31c-1.16-0.15-2.32-0.34-3.47-0.52c-0.43-0.07-0.86-0.17-1.3-0.2
		c-0.28-0.02-0.56-0.09-0.82,0.19c-0.24,0.26-0.94,0.1-1.3-0.15c-0.23-0.16-0.5-0.3-0.77-0.35c-0.8-0.15-1.6-0.28-2.41-0.35
		c-0.45-0.04-0.92,0.06-1.39,0.08c-0.12,0-0.27-0.02-0.35-0.1c-0.43-0.38-0.97-0.39-1.49-0.47c-0.82-0.13-1.64-0.23-2.45-0.35
		c-0.8-0.11-1.61-0.22-2.41-0.34c-0.29-0.04-0.57-0.12-0.86-0.18C21.76,35.69,21.76,35.5,21.76,35.3z M54.4,61.55
		c0.02,0.18,0.03,0.35,0.06,0.51c0.06,0.43,0.04,0.87,0.2,1.26c0.38,0.99,0.77,1.98,1.25,2.91c0.98,1.9,2.45,3.29,4.45,4.12
		c1.71,0.72,3.46,0.75,5.26,0.64c0.87-0.06,1.46-0.69,2.24-0.91c0.63-0.17,1.1-0.58,1.52-1.06c0.19-0.22,0.28-0.53,0.49-0.71
		c0.56-0.47,0.85-1.09,1.12-1.73c0.27-0.65,0.51-1.32,0.74-1.99c0.13-0.37,0.35-0.79,0.27-1.13c-0.11-0.48,0.13-0.83,0.15-1.28
		c0.65,0.5,1.24,1.02,1.9,1.42c0.4,0.24,0.91,0.38,1.38,0.41c0.5,0.03,0.67-0.51,0.89-0.85c0.15-0.23,0.27-0.54,0.26-0.81
		c-0.02-1-0.34-1.91-0.79-2.81c-0.54-1.09-1.31-1.91-2.3-2.58c-0.3-0.21-0.66-0.51-0.75-0.83c-0.29-1.1-0.46-2.23-0.7-3.34
		c-0.24-1.12-0.87-2.07-1.57-2.92c-0.97-1.18-2.24-2.04-3.7-2.51c-1.25-0.39-2.53-0.67-3.87-0.66c-1.51,0.01-3,0.03-4.34,0.86
		c-0.85,0.54-1.58,1.18-1.9,2.17c-0.04,0.12-0.04,0.32-0.12,0.35c-0.55,0.22-0.54,0.79-0.69,1.2c-0.36,0.98-0.64,2-0.89,3.01
		c-0.09,0.34,0.02,0.72,0.01,1.09c0,0.09-0.1,0.2-0.19,0.24c-0.21,0.1-0.44,0.13-0.65,0.23c-0.82,0.38-1.54,0.91-2.11,1.62
		c-0.7,0.88-1.32,1.8-1.6,2.92c-0.18,0.74-0.03,1.39,0.39,2c0.07,0.1,0.27,0.09,0.42,0.13c0.05,0.11,0.14,0.22,0.24,0.22
		C52.58,62.78,53.39,62.06,54.4,61.55z M26.56,21.48c-0.3-0.02-0.54-0.05-0.78-0.04c-0.25,0.01-0.5,0.07-0.75,0.08
		c-0.82,0.05-1.26,0.66-1.1,1.48c0.06,0.31,0.07,0.66,0,0.98c-0.16,0.75,0.28,1.67,1,1.86c0.55,0.15,1.12,0.23,1.68,0.29
		c0.48,0.05,0.85,0.12,0.78,0.74c-0.01,0.11,0.05,0.25,0.11,0.35c0.47,0.82,0.9,1.67,1.42,2.45c0.61,0.93,1.52,1.56,2.47,2.07
		c1.46,0.79,3.07,1.11,4.72,1.04c0.71-0.03,1.39-0.34,2.1-0.4c1.03-0.09,1.68-0.76,2.35-1.41c0.68-0.66,1.11-1.49,1.51-2.34
		c0.59-1.25,0.94-2.57,1.12-3.93c0.1-0.78,0.16-1.56,0.19-2.35c0.03-0.82,0.05-1.65-0.05-2.46c-0.11-0.92-0.32-1.84-0.55-2.75
		c-0.18-0.69-0.43-1.37-0.73-2.02c-0.27-0.58-0.59-1.16-1.01-1.64c-0.55-0.62-1.15-1.28-1.86-1.66c-1.2-0.64-2.58-0.82-3.94-0.89
		c-0.66-0.03-1.33,0.17-2,0.26c-1.25,0.17-2.26,0.85-3.24,1.55c-0.65,0.47-1.21,1.06-1.62,1.8c-0.95,1.71-1.91,3.4-1.86,5.46
		c0.01,0.4-0.17,0.81,0.12,1.19C26.68,21.26,26.58,21.42,26.56,21.48z M60.19,46.17c2.62-0.59,5.08-0.19,7.47,0.91
		c0.12-0.27,0.25-0.52,0.35-0.77c0.3-0.76,0.54-1.54,0.9-2.27c0.48-0.95,1.05-1.85,1.58-2.78c0.16-0.29-0.11-0.79-0.44-0.8
		c-1.94-0.03-3.88-0.04-5.82-0.09c-1.05-0.02-2.09-0.07-3.13-0.11c-0.6-0.03-1.19-0.07-1.78-0.08c-0.46-0.01-0.86,0.43-0.75,0.78
		c0.14,0.45,0.33,0.88,0.48,1.32c0.23,0.71,0.46,1.42,0.67,2.13C59.88,44.97,60.02,45.53,60.19,46.17z M30.47,32.4
		c0.01-0.02-0.02,0-0.02,0.03c-0.1,1.05-0.2,2.09-0.29,3.14c0,0.06,0.05,0.14,0.09,0.2c0.1,0.16,0.3,0.31,0.3,0.47
		c0,0.4,0.21,0.43,0.51,0.41c0.11-0.01,0.22,0.06,0.33,0.04c0.83-0.14,1.67,0.76,2.48-0.03c0.01-0.01,0.03,0,0.06-0.01
		c0.05,0.09,0.1,0.18,0.15,0.27c0.05,0,0.1-0.01,0.15-0.01c0.08-1.1,0.16-2.2,0.23-3.15C33.06,33.29,31.77,32.85,30.47,32.4z
		 M62.1,71.9c0.74,1.51,1.45,2.96,2.18,4.48c0.99-1.2,0.98-2.64,1.32-3.84c-0.12-0.27-0.2-0.45-0.29-0.64
		C64.31,71.9,63.27,71.9,62.1,71.9z M44.46,20.95c0.21-0.4,0.54-0.81,0.67-1.28c0.17-0.62,0.19-1.29,0.24-1.94
		c0.07-0.87-0.29-1.51-1.11-1.82c-0.21-0.08-0.54-0.01-0.75,0.1c-0.11,0.06-0.16,0.38-0.13,0.56c0.06,0.37,0.19,0.72,0.28,1.08
		C43.93,18.75,44.2,19.85,44.46,20.95z M42.83,35.01c0.31-0.79-0.36-2.75-0.7-3.46c-0.24-0.48-0.31-0.47-0.67-0.09
		c-0.43,0.44-0.87,0.85-1.39,1.34C40.95,33.52,41.86,34.25,42.83,35.01z"/>
	<path class="st1" d="M66.37,67.81c0.46,0.1,0.83,0.17,1.19,0.25c-0.01,0.08-0.01,0.16-0.02,0.24c-0.23,0-0.45,0.02-0.68,0
		c-0.37-0.04-0.57,0.12-0.58,0.52c-0.01,0.2-0.04,0.4-0.06,0.6c-0.07,0.01-0.14,0.01-0.2,0.02c-0.06-0.19-0.17-0.38-0.17-0.57
		c0.01-0.43-0.21-0.56-0.6-0.58c-0.16-0.01-0.32-0.08-0.55-0.14c0.33-0.39,0.72-0.17,1.14-0.31c0.06-0.33,0.14-0.73,0.21-1.13
		c0.03-0.01,0.06-0.03,0.08-0.04c0.05,0.18,0.11,0.36,0.14,0.55C66.33,67.42,66.35,67.64,66.37,67.81z"/>
	<path class="st1" d="M59.87,67.91c0.4-0.03,0.81-0.06,1.22-0.09c0.02-0.44,0.04-0.84,0.06-1.3c0.39,0.25,0.34,0.63,0.31,0.9
		c-0.04,0.41,0.1,0.46,0.44,0.48c0.25,0.01,0.59-0.2,0.74,0.2c-0.24,0.06-0.49,0.14-0.73,0.16c-0.31,0.03-0.55,0.07-0.44,0.47
		c0.02,0.07-0.03,0.15-0.06,0.23c-0.05,0.12-0.11,0.24-0.17,0.36c-0.06-0.11-0.18-0.23-0.17-0.34c0.05-0.61-0.3-0.76-0.81-0.78
		c-0.15-0.01-0.3-0.09-0.45-0.14C59.83,68.01,59.85,67.96,59.87,67.91z"/>
	<path class="st1" d="M40.85,28.93c-0.01,0.45-0.27,0.53-0.53,0.53c-0.28,0-0.4-0.2-0.4-0.49c-0.01-0.3,0.15-0.53,0.4-0.49
		C40.51,28.5,40.67,28.77,40.85,28.93z"/>
	<path class="st1" d="M38.12,30.84c-0.13-0.17-0.36-0.35-0.34-0.5c0.02-0.17,0.24-0.4,0.43-0.45c0.31-0.09,0.35,0.24,0.34,0.43
		c0,0.17-0.15,0.34-0.23,0.51C38.25,30.82,38.18,30.83,38.12,30.84z"/>
</g>
</svg>
