<?xml version="1.0" encoding="utf-8"?>
<!-- Generator: Adobe Illustrator 15.0.0, SVG Export Plug-In . SVG Version: 6.00 Build 0)  -->
<!DOCTYPE svg PUBLIC "-//W3C//DTD SVG 1.1//EN" "http://www.w3.org/Graphics/SVG/1.1/DTD/svg11.dtd">
<svg version="1.1" id="Layer_1" xmlns="http://www.w3.org/2000/svg" xmlns:xlink="http://www.w3.org/1999/xlink" x="0px" y="0px"
	 width="385.877px" height="425.005px" viewBox="0 0 385.877 425.005" enable-background="new 0 0 385.877 425.005"
	 xml:space="preserve">
<path fill="#57744C" d="M364.057,424.553H21.606C9.672,424.553,0,414.88,0,402.948V21.605C0,9.673,9.672,0,21.606,0h342.451
	c11.934,0,21.605,9.673,21.605,21.605v381.343C385.662,414.88,375.99,424.553,364.057,424.553"/>
<path fill="#FFFFFF" d="M60.161,366.736v-5.279h23.941v5.279h-8.943v29.674h-6.132v-29.674H60.161z M85.295,378.979
	c0-3.068-0.088-5.598-0.207-7.815h5.322l0.25,4.501h0.174c1.164-3.258,3.852-5.025,6.375-5.025c0.6,0,0.945,0.026,1.402,0.124v5.869
	c-0.484-0.098-0.982-0.145-1.665-0.145c-2.704,0-4.759,1.835-5.336,4.681c-0.116,0.577-0.183,1.305-0.183,2.074v13.167h-6.133
	V378.979z M123.926,383.596c0,9.551-6.133,13.338-11.805,13.338c-6.592,0-11.545-4.784-11.545-12.998
	c0-8.533,5.161-13.296,11.901-13.296C119.327,370.64,123.926,375.741,123.926,383.596 M106.827,383.796
	c0,4.677,1.912,8.609,5.492,8.609c3.389,0,5.357-3.969,5.357-8.668c0-3.876-1.418-8.569-5.359-8.569
	C108.292,375.168,106.827,379.752,106.827,383.796 M119.608,360.404l-6.027,7.513h-4.162l4.275-7.513H119.608z M129.665,396.41
	v-20.713h-3.386v-4.533h3.386v-1.126c0-3.128,0.771-6.241,2.879-8.309c1.754-1.721,4.147-2.383,6.305-2.383
	c1.662,0,2.979,0.275,3.934,0.617l-0.525,4.73c-0.643-0.239-1.444-0.435-2.547-0.435c-2.972,0-3.942,2.603-3.942,5.571v1.333h5.209
	v4.533h-5.179v20.713H129.665z M155.616,392.224c2.609,0,4.549-0.446,6.236-1.087l0.896,4.271c-1.985,0.864-4.813,1.478-8.072,1.478
	c-7.689,0-12.098-4.962-12.098-12.722c0-7.383,4.159-13.523,11.461-13.523c7.336,0,10.01,6.163,10.01,12.065
	c0,1.265-0.09,2.184-0.202,2.765H148.47C148.607,390.364,151.872,392.224,155.616,392.224 M158.303,381.172
	c0.033-2.853-1.078-6.244-4.66-6.244c-3.473,0-4.941,3.548-5.173,6.244H158.303z M181.601,393.67h-0.146
	c-1.449,1.979-3.859,3.264-6.812,3.264c-4.672,0-7.478-3.472-7.478-7.496c0-6.405,5.619-9.485,13.842-9.476v-0.492
	c0-1.95-0.769-4.437-4.721-4.425c-2.272,0-4.548,0.717-6.164,1.738l-1.205-4.033c1.709-1.047,4.793-2.11,8.5-2.11
	c7.617,0,9.734,4.909,9.734,10.398v9.391c0,2.195,0.098,4.388,0.372,5.981h-5.521L181.601,393.67z M181.17,383.962
	c-3.799-0.032-7.986,0.812-7.986,4.821c0,2.584,1.591,3.709,3.367,3.709c2.201,0,3.887-1.435,4.455-3.312
	c0.127-0.428,0.164-0.915,0.164-1.356V383.962z M193.204,396.41c0.105-1.753,0.207-4.571,0.207-7.004V359.87h6.119v14.552h0.104
	c1.463-2.369,3.908-3.782,7.23-3.782c5.652,0,9.51,5.097,9.479,12.719c0,9.045-5.111,13.575-10.42,13.575
	c-2.986,0-5.426-1.223-7.061-4.119h-0.125l-0.299,3.596H193.204z M199.529,386.403c0,0.553,0.066,1.088,0.18,1.531
	c0.689,2.607,2.623,4.098,4.832,4.098c3.609,0,5.613-3.284,5.613-8.376c0-4.512-1.826-8.137-5.58-8.137
	c-2.236,0-4.258,1.789-4.842,4.255c-0.113,0.49-0.203,1.076-0.203,1.65V386.403z M221.268,371.164h6.133v25.246h-6.133V371.164z
	 M231.736,360.404l-6.027,7.513h-4.162l4.275-7.513H231.736z M233.752,378.979c0-3.068-0.086-5.598-0.207-7.815h5.322l0.25,4.501
	h0.174c1.164-3.258,3.852-5.025,6.377-5.025c0.598,0,0.943,0.026,1.4,0.124v5.869c-0.484-0.098-0.982-0.145-1.664-0.145
	c-2.703,0-4.76,1.835-5.336,4.681c-0.117,0.577-0.184,1.305-0.184,2.074v13.167h-6.133V378.979z M263.322,393.67h-0.146
	c-1.447,1.979-3.859,3.264-6.811,3.264c-4.672,0-7.477-3.472-7.477-7.496c0-6.405,5.617-9.485,13.84-9.476v-0.492
	c0-1.95-0.768-4.437-4.721-4.425c-2.271,0-4.547,0.717-6.162,1.738l-1.205-4.033c1.709-1.047,4.793-2.11,8.498-2.11
	c7.617,0,9.734,4.909,9.734,10.398v9.391c0,2.195,0.1,4.388,0.373,5.981h-5.52L263.322,393.67z M262.893,383.962
	c-3.801-0.032-7.988,0.812-7.988,4.821c0,2.584,1.592,3.709,3.369,3.709c2.201,0,3.885-1.435,4.455-3.312
	c0.127-0.428,0.164-0.915,0.164-1.356V383.962z M266.895,360.404l-6.027,7.513h-4.16l4.273-7.513H266.895z M275.143,359.87h6.133
	v36.54h-6.133V359.87z M300.5,393.67h-0.145c-1.449,1.979-3.859,3.264-6.812,3.264c-4.672,0-7.477-3.472-7.477-7.496
	c0-6.405,5.619-9.485,13.842-9.476v-0.492c0-1.95-0.768-4.437-4.721-4.425c-2.273,0-4.547,0.717-6.164,1.738l-1.203-4.033
	c1.707-1.047,4.793-2.11,8.498-2.11c7.617,0,9.734,4.909,9.734,10.398v9.391c0,2.195,0.098,4.388,0.373,5.981h-5.521L300.5,393.67z
	 M300.07,383.962c-3.799-0.032-7.986,0.812-7.986,4.821c0,2.584,1.59,3.709,3.369,3.709c2.199,0,3.885-1.435,4.453-3.312
	c0.127-0.428,0.164-0.915,0.164-1.356V383.962z M319.061,364.073v7.091h5.721v4.533h-5.721v11.726c0,3.09,0.936,4.425,3.062,4.425
	c0.959,0,1.688-0.103,2.248-0.241l0.123,4.692c-0.922,0.329-2.457,0.586-4.336,0.586c-2.18,0-4.021-0.693-5.182-1.928
	c-1.326-1.388-1.955-3.562-1.955-7.005v-12.255h-3.43v-4.533h3.43v-5.608L319.061,364.073z"/>
<path fill="#FFFFFF" d="M214.51,289.994l5.582-2.79c0,0,3.984,17.141,13.553,19.532c14.748,1.993,14.348-12.756,19.531-31.093
	c5.182-18.335,3.189-17.14,3.189-17.14s-6.484,6.495-9.967,15.546c-2.988,7.773-5.58,22.322-8.77,19.931
	c-3.188-2.392-7.273-4.982-6.775-16.144s23.848,10.636,27.205,12.457c4.137,2.241,7.375,2.59,10.863,1.395
	c3.486-1.196,9.965-5.281,7.672-12.655c-2.689,3.669-4.783,6.378-8.967,6.277c-4.186-0.1-17.439-9.566-24.316-17.14
	s16.191-22.866,16.84-23.121c2.293-0.896,13.373-1.784,24.217,2.791c6.377,2.69,16.629,2.119,22.023-2.192
	c5.955-4.758,8.572-8.271,10.064-28.003c1.488-19.625,8.971-22.023,2.096-19.233c-6.879,2.79-10.365,28.999-16.246,35.479
	c-5.879,6.477-21.824,6.774-24.018-0.399c-2.191-7.176,11.062-24.914,18.139-34.082c7.076-9.169,23.318-23.519,27.504-39.164
	s7.375-26.608,4.385-34.58c-4.584,3.688-5.182,13.055-8.271,13.354c-3.088,0.3-4.186-6.179-3.785-8.371
	c0.398-2.191-0.201-11.36-0.201-11.36s-4.484-5.88-5.381-5.78c-0.896,0.101,1.994,10.364-1.594,10.862
	c-3.588,0.499-2.891-7.872-5.779-7.474c-2.893,0.398,1.096,16.642,1.096,18.137s-0.598,3.588-5.48,4.584
	c-4.885,0.997-10.764-10.363-13.654-10.762c-2.889-0.398-10.188-10.265-13.264-10.166c-3.078,0.101-5.67-7.573-5.869-8.271
	s-2.99,11.161,13.055,24.116s14.301,38.89,14.051,41.755c-0.248,2.865-6.277,20.429-19.73,34.979
	c-5.689,4.285-24.539-4.534-23.221-1.595c-1.992,0.499,12.955,5.281,14.65,8.77c1.695,3.489-7.574,13.853-7.574,13.853
	s-22.123,12.755-26.508,25.512c-4.385,12.756-19.93,16.642-19.93,16.642s-2.592-0.996-3.389,0.399c-0.797,1.395,0,2.789,0,2.789
	s-4.734,2.691,0.598,6.079c-0.398,1.993-0.199,2.79,1.992,2.691C209.328,290.94,214.51,289.994,214.51,289.994"/>
<path fill="none" stroke="#030405" stroke-width="0.25" stroke-miterlimit="10" d="M214.51,289.994l5.582-2.79
	c0,0,3.984,17.141,13.553,19.532c14.748,1.993,14.348-12.756,19.531-31.093c5.182-18.335,3.189-17.14,3.189-17.14
	s-6.484,6.495-9.967,15.546c-2.988,7.773-5.58,22.322-8.77,19.931c-3.188-2.392-7.273-4.982-6.775-16.144
	s23.848,10.636,27.205,12.457c4.137,2.241,7.375,2.59,10.863,1.395c3.486-1.196,9.965-5.281,7.672-12.655
	c-2.689,3.669-4.783,6.378-8.967,6.277c-4.186-0.1-17.439-9.566-24.316-17.14s16.191-22.866,16.84-23.121
	c2.293-0.896,13.373-1.784,24.217,2.791c6.377,2.69,16.629,2.119,22.023-2.192c5.955-4.758,8.572-8.271,10.064-28.003
	c1.488-19.625,8.971-22.023,2.096-19.233c-6.879,2.79-10.365,28.999-16.246,35.479c-5.879,6.477-21.824,6.774-24.018-0.399
	c-2.191-7.176,11.062-24.914,18.139-34.082c7.076-9.169,23.318-23.519,27.504-39.164s7.375-26.608,4.385-34.58
	c-4.584,3.688-5.182,13.055-8.271,13.354c-3.088,0.3-4.186-6.179-3.785-8.371c0.398-2.191-0.201-11.36-0.201-11.36
	s-4.484-5.88-5.381-5.78c-0.896,0.101,1.994,10.364-1.594,10.862c-3.588,0.499-2.891-7.872-5.779-7.474
	c-2.893,0.398,1.096,16.642,1.096,18.137s-0.598,3.588-5.48,4.584c-4.885,0.997-10.764-10.363-13.654-10.762
	c-2.889-0.398-10.188-10.265-13.264-10.166c-3.078,0.101-5.67-7.573-5.869-8.271s-2.99,11.161,13.055,24.116
	s14.301,38.89,14.051,41.755c-0.248,2.865-6.277,20.429-19.73,34.979c-5.689,4.285-24.539-4.534-23.221-1.595
	c-1.992,0.499,12.955,5.281,14.65,8.77c1.695,3.489-7.574,13.853-7.574,13.853s-22.123,12.755-26.508,25.512
	c-4.385,12.756-19.93,16.642-19.93,16.642s-2.592-0.996-3.389,0.399c-0.797,1.395,0,2.789,0,2.789s-4.734,2.691,0.598,6.079
	c-0.398,1.993-0.199,2.79,1.992,2.691C209.328,290.94,214.51,289.994,214.51,289.994z"/>
<path fill="#FFFFFF" d="M175.165,289.994l-5.58-2.79c0,0-3.986,17.141-13.554,19.532c-14.747,1.993-14.349-12.756-19.532-31.093
	c-5.182-18.335-3.188-17.14-3.188-17.14s6.482,6.495,9.965,15.546c2.989,7.773,5.581,22.322,8.77,19.931s7.274-4.982,6.775-16.144
	c-0.498-11.161-23.847,10.636-27.203,12.457c-4.138,2.241-7.377,2.59-10.863,1.395c-3.488-1.196-9.965-5.281-7.674-12.655
	c2.69,3.669,4.783,6.378,8.969,6.277c4.185-0.1,17.439-9.566,24.315-17.14c6.878-7.573-16.192-22.866-16.841-23.121
	c-2.293-0.896-13.372-1.784-24.217,2.791c-6.377,2.69-16.628,2.119-22.021-2.192c-5.955-4.758-8.572-8.271-10.066-28.003
	c-1.487-19.625-8.969-22.023-2.094-19.233c6.877,2.79,10.364,28.999,16.244,35.479c5.879,6.477,21.824,6.774,24.017-0.399
	c2.192-7.176-11.062-24.914-18.138-34.082c-7.074-9.169-23.318-23.519-27.504-39.164c-4.185-15.646-7.373-26.608-4.385-34.58
	c4.585,3.688,5.182,13.055,8.271,13.354c3.089,0.3,4.186-6.179,3.787-8.371c-0.399-2.191,0.199-11.36,0.199-11.36
	s4.484-5.88,5.381-5.78c0.896,0.101-1.992,10.364,1.594,10.862c3.589,0.499,2.891-7.872,5.781-7.474s-1.097,16.642-1.097,18.137
	s0.599,3.588,5.481,4.584c4.883,0.997,10.763-10.363,13.652-10.762c2.889-0.398,10.188-10.265,13.266-10.166
	c3.078,0.101,5.669-7.573,5.867-8.271c0.199-0.697,2.99,11.161-13.055,24.116c-16.044,12.955-14.3,38.89-14.051,41.755
	s6.279,20.429,19.73,34.979c5.689,4.285,24.541-4.534,23.221-1.595c1.992,0.499-12.954,5.281-14.648,8.77
	c-1.695,3.489,7.572,13.853,7.572,13.853s22.123,12.755,26.508,25.512c4.385,12.756,19.932,16.642,19.932,16.642
	s2.59-0.996,3.389,0.399c0.796,1.395,0,2.789,0,2.789s4.732,2.691-0.598,6.079c0.398,1.993,0.199,2.79-1.994,2.691
	C180.347,290.94,175.165,289.994,175.165,289.994"/>
<path fill="none" stroke="#030405" stroke-width="0.25" stroke-miterlimit="10" d="M175.165,289.994l-5.58-2.79
	c0,0-3.986,17.141-13.554,19.532c-14.747,1.993-14.349-12.756-19.532-31.093c-5.182-18.335-3.188-17.14-3.188-17.14
	s6.482,6.495,9.965,15.546c2.989,7.773,5.581,22.322,8.77,19.931s7.274-4.982,6.775-16.144
	c-0.498-11.161-23.847,10.636-27.203,12.457c-4.138,2.241-7.377,2.59-10.863,1.395c-3.488-1.196-9.965-5.281-7.674-12.655
	c2.69,3.669,4.783,6.378,8.969,6.277c4.185-0.1,17.439-9.566,24.315-17.14c6.878-7.573-16.192-22.866-16.841-23.121
	c-2.293-0.896-13.372-1.784-24.217,2.791c-6.377,2.69-16.628,2.119-22.021-2.192c-5.955-4.758-8.572-8.271-10.066-28.003
	c-1.487-19.625-8.969-22.023-2.094-19.233c6.877,2.79,10.364,28.999,16.244,35.479c5.879,6.477,21.824,6.774,24.017-0.399
	c2.192-7.176-11.062-24.914-18.138-34.082c-7.074-9.169-23.318-23.519-27.504-39.164c-4.185-15.646-7.373-26.608-4.385-34.58
	c4.585,3.688,5.182,13.055,8.271,13.354c3.089,0.3,4.186-6.179,3.787-8.371c-0.399-2.191,0.199-11.36,0.199-11.36
	s4.484-5.88,5.381-5.78c0.896,0.101-1.992,10.364,1.594,10.862c3.589,0.499,2.891-7.872,5.781-7.474s-1.097,16.642-1.097,18.137
	s0.599,3.588,5.481,4.584c4.883,0.997,10.763-10.363,13.652-10.762c2.889-0.398,10.188-10.265,13.266-10.166
	c3.078,0.101,5.669-7.573,5.867-8.271c0.199-0.697,2.99,11.161-13.055,24.116c-16.044,12.955-14.3,38.89-14.051,41.755
	s6.279,20.429,19.73,34.979c5.689,4.285,24.541-4.534,23.221-1.595c1.992,0.499-12.954,5.281-14.648,8.77
	c-1.695,3.489,7.572,13.853,7.572,13.853s22.123,12.755,26.508,25.512c4.385,12.756,19.932,16.642,19.932,16.642
	s2.59-0.996,3.389,0.399c0.796,1.395,0,2.789,0,2.789s4.732,2.691-0.598,6.079c0.398,1.993,0.199,2.79-1.994,2.691
	C180.347,290.94,175.165,289.994,175.165,289.994z"/>
</svg>
