<?xml version="1.0" encoding="utf-8"?>
<!-- Generator: Adobe Illustrator 26.0.1, SVG Export Plug-In . SVG Version: 6.00 Build 0)  -->
<svg version="1.1"
	 id="Layer_1" inkscape:version="1.1.1 (c3084ef, 2021-09-22)" sodipodi:docname="vadaszkutyak.svg" xmlns:inkscape="http://www.inkscape.org/namespaces/inkscape" xmlns:sodipodi="http://sodipodi.sourceforge.net/DTD/sodipodi-0.dtd" xmlns:svg="http://www.w3.org/2000/svg"
	 xmlns="http://www.w3.org/2000/svg" xmlns:xlink="http://www.w3.org/1999/xlink" x="0px" y="0px" viewBox="0 0 100 100"
	 style="enable-background:new 0 0 100 100;" xml:space="preserve">
<style type="text/css">
	.st0{fill:#57744B;}
	.st1{fill:#FFFFFF;}
	.st2{font-family:'Helvetica-Bold';}
	.st3{font-size:9px;}
</style>
<sodipodi:namedview  bordercolor="#eeeeee" borderopacity="1" id="namedview1397" inkscape:current-layer="Layer_1" inkscape:cx="189.44938" inkscape:cy="99.010206" inkscape:pagecheckerboard="0" inkscape:pageopacity="0" inkscape:pageshadow="0" inkscape:window-height="969" inkscape:window-maximized="0" inkscape:window-width="1296" inkscape:window-x="0" inkscape:window-y="25" inkscape:zoom="1.6917448" pagecolor="#505050" showgrid="false">
	</sodipodi:namedview>
<g id="g456" transform="matrix(0.25862338,0,0,-0.23498935,94.283045,99.882853)">
	<path id="path458" class="st0" d="M0,0h-342.45c-11.93,0-21.61,9.67-21.61,21.61v381.34c0,11.93,9.67,21.61,21.61,21.61H0
		c11.93,0,21.61-9.67,21.61-21.61V21.61C21.61,9.67,11.93,0,0,0"/>
</g>
<g id="g57348" transform="matrix(0.21508838,0,0,-0.21051942,-146.01293,301.92648)">
	<g id="g496" transform="matrix(1.2024051,0,0,1.116236,1003.2052,1250.7012)">
		<path id="path498" class="st1" d="M0,0c4.2,6.25,5.81,13.2,4.57,20.8c-0.34-1.77-0.65-3.54-1.01-5.31
			C2.62,10.98,1.25,6.61-1.31,2.72C-2,1.67-2.74,0.64-3.62-0.25c-2.27-2.29-4.47-2.12-5.97,0.71c-1.14,2.14-1.91,4.52-2.57,6.86
			c-0.64,2.28-0.94,4.65-1.51,6.96C-13.96,9.74-14.1,5.22-12.8,0.8c0.76-2.59,1.92-4.91,5.01-5.79c-1.87-1.4-3.63-2.65-5.3-4
			c-0.51-0.41-1-1.05-1.14-1.67c-3.4-14.87-12.74-24.6-26.53-30.25c-2.96-1.21-3.87-2.73-4.04-5.77c-0.5-8.52-1.25-17.02-0.5-25.54
			c0.39-4.39,1.12-8.77,2.03-13.08c0.74-3.53,2.87-6.27,5.85-8.42c1.52-1.1,2.91-2.51,3.98-4.04c1.46-2.1,0.64-3.84-1.88-4.02
			c-4.57-0.31-8.73,0.21-12.01,4.3c-3.91,4.87-6.09,10.3-7.12,16.31c-1.39,8.13-2.66,16.27-3.95,24.41
			c-0.49,3.13-0.85,6.28-1.36,9.41c-0.08,0.47-0.54,1.11-0.97,1.26c-10.44,3.55-20.8,7.41-31.81,8.89
			c-8.78,1.18-17.35,0.68-25.34-3.69c-4.38-2.4-8.15-5.55-11.07-9.59c-8.98-12.43-20.74-20.3-36.1-22.39
			c-0.37-0.05-0.76-0.16-1.07-0.36c-5.85-3.93-11.16-8.41-14.9-14.53c-1.08-1.76-1.03-3.29,0.15-4.84c1.16-1.51,2.39-2.98,3.64-4.42
			c2.4-2.76,2.06-4.37-1.23-5.88c-2.25-1.03-4.34-0.88-6.3,0.67c-0.04,0.04-0.09,0.07-0.13,0.1c-6.97,5.21-7.98,9.7-3.84,17.36
			c2.79,5.15,6.8,9.35,10.77,13.58c0.89,0.95,1.56,1.88,1.57,3.26c0,0.91,0.32,1.82,0.51,2.73c0.41,1.88,1.58,3.07,3.38,3.67
			c0.67,0.22,1.34,0.51,2.03,0.62c5.26,0.83,9.11,3.93,12.61,7.66c4.63,4.94,8.03,10.59,10.23,16.99c2.51,7.3,5.51,14.39,9.94,20.78
			c4.65,6.7,10.67,11.46,19.01,12.42c7.38,0.85,14.8,1.33,22.19,2.06c10.38,1.04,20.82,1.73,31.09,3.41
			c6.12,1,12.03,3.47,17.94,5.54c13.19,4.62,25.18,11.56,36.7,19.37c1.63,1.1,3.31,2.15,4.83,3.39c1.32,1.07,2.71,1.4,4.38,1.36
			c7.17-0.16,13.77-2.12,19.82-5.98c1.18-0.75,2-1.73,2-3.17c0.01-1.63,0.81-2.41,2.36-2.81c3.17-0.82,6.32-1.73,9.43-2.75
			c1.54-0.5,3.07-1.19,4.44-2.05c1.98-1.24,2.26-2.91,1.17-4.95c-0.82-1.53-1.62-3.07-2.41-4.62c-0.94-1.85-2.17-3.43-4.15-4.24
			c-1.81-0.74-3.41-0.8-5.38,0.22c-4.92,2.55-10.15,4.1-15.74,2.08C6.68,2.59,3.39,1.29,0,0"/>
	</g>
	<g id="g500" transform="matrix(1.2024051,0,0,1.116236,886.69519,1205.8273)">
		<path id="path502" class="st1" d="M0,0c-1.76-12.44-7.25-22.24-17.6-29.13c-3.87-2.58-7.23-5.73-9.83-9.61
			c-1.88-2.81-3.05-5.87-1.91-9.27c0.48-1.42,1.34-2.74,2.19-4c0.67-0.99,1.63-1.77,2.36-2.72c2.12-2.77,4.65-4.67,8.19-5.59
			c2.27-0.59,4.55-2.05,6.26-3.71c2.91-2.81,1.96-5.6-1.99-6.15c-3.02-0.41-6.13-0.45-9.18-0.34c-2.63,0.09-4.88,1.35-6.61,3.38
			c-5.98,7.02-11.99,14.02-17.91,21.09c-2.56,3.05-2.48,4.17,0.24,7.05c4.94,5.22,9.52,10.71,12.59,17.26
			c1.29,2.77,2.23,5.71,3.14,8.64c0.82,2.62,0.68,5.18-1.72,7.29C-21.89,0.27-11.29,1.27,0,0"/>
	</g>
	<g id="g504" transform="matrix(1.2024051,0,0,1.116236,976.25321,1210.0382)">
		<path id="path506" class="st1" d="M0,0c2.15,2.29,4.48,4.74,6.77,7.23C7.4,7.91,8.1,8.63,8.44,9.47c1.24,3.06,3.56,3.53,6.44,2.99
			c2.95-0.56,5.96-0.84,8.84-1.62c3.19-0.86,4.53-2.91,4.7-6.19c0.16-2.96-0.42-5.83-2.1-8.21c-4.91-6.98-9.96-13.86-15.07-20.7
			c-0.89-1.19-2.23-2.12-3.53-2.91c-2.13-1.29-4.08-0.74-4.52,1.63c-0.61,3.24-0.72,6.6-0.7,9.9c0.01,0.87,1.15,1.86,1.96,2.59
			c2.43,2.19,5.05,4.16,7.39,6.43c1.68,1.64,3.45,3.83,2.35,6.18c-1.06,2.25-3.82,1.88-5.97,1.69C5.4,1,2.59,0.41,0,0"/>
	</g>
	<g id="g508" transform="matrix(1.2024051,0,0,1.116236,829.26628,1231.4832)">
		<path id="path510" class="st1" d="M0,0c-5,1.75-10.03,3.49-15.03,5.31c-0.78,0.28-1.52,0.87-2.1,1.48
			c-1.31,1.38-1.59,3.09-0.95,4.84c0.63,1.76,2.14,2.31,3.86,2.23c1.53-0.08,3.07-0.2,4.56-0.51c4.77-0.98,11.93-2.11,16.74-3.17
			C5.53,6.79,1.61,3.54,0,0"/>
	</g>
</g>
<text transform="matrix(1.0217 0 0 1 19.8389 90.095)" class="st1 st2 st3">Vadászkutyák</text>
</svg>
