<?xml version="1.0" encoding="utf-8"?>
<!-- Generator: Adobe Illustrator 15.0.0, SVG Export Plug-In . SVG Version: 6.00 Build 0)  -->
<!DOCTYPE svg PUBLIC "-//W3C//DTD SVG 1.1//EN" "http://www.w3.org/Graphics/SVG/1.1/DTD/svg11.dtd">
<svg version="1.1" id="Layer_1" xmlns="http://www.w3.org/2000/svg" xmlns:xlink="http://www.w3.org/1999/xlink" x="0px" y="0px"
	 width="245.859px" height="178.981px" viewBox="0 0 245.859 178.981" enable-background="new 0 0 245.859 178.981"
	 xml:space="preserve">
<path fill="#EB2227" d="M122.491,147.312c-4.487-1.488-11.268-3.741-17.086-8.016c-6.999-5.143-10.548-11.838-10.548-19.903V72.515
	h56.167v46.861c0,8.067-3.55,14.767-10.546,19.91c-5.816,4.275-12.596,6.529-17.082,8.021l-0.461,0.153L122.491,147.312z"/>
<path fill="#FCEE21" d="M122.932,39.478c-0.873,0-1.582-0.664-1.582-1.479c-0.001-0.247,0.062-0.48,0.184-0.694l0.145-0.252
	l-2.193-3.468l-2.511,1.829l-0.048,0.124c-0.147,0.368-0.484,0.606-0.86,0.606c-0.515,0-0.934-0.45-0.934-1.003
	c0-0.543,0.428-1.003,0.936-1.003l0.173,0.006l2.464-1.791l-1.441-2.282l-0.135-0.05c-0.372-0.137-0.632-0.527-0.632-0.948
	c0-0.553,0.42-1.003,0.935-1.003c0.505,0,0.916,0.424,0.934,0.965l0.004,0.131l1.484,2.349l2.409-1.752l0.045-0.145
	c0.129-0.398,0.493-0.677,0.885-0.677c0.515,0,0.934,0.451,0.934,1.003c0,0.536-0.405,0.986-0.904,1.003l-0.125,0.004l-2.464,1.797
	l2.383,3.764l0.185,0.03c0.747,0.121,1.312,0.748,1.312,1.457C124.516,38.813,123.805,39.478,122.932,39.478"/>
<path fill="#FCEE21" d="M98.475,72.53V60.047c0.009-4.481,7.612-19.243,24.332-19.243c9.021,0,14.977,4.288,18.385,7.884
	c3.854,4.068,5.941,8.888,5.946,11.357l0.001,12.485H98.475z"/>
<path fill="#FCEE21" d="M130.895,122.335l-2.675-10.268l5.049,3.593l4.022-5.175l4.129,5.176l4.854-3.493l-2.617,10.146
	l-0.205,0.453c-0.092-0.064-0.196-0.136-0.311-0.207c-0.424-0.269-0.886-0.489-0.905-0.498c-1.442-0.688-3.152-1.052-4.944-1.052
	c-1.752,0-3.51,0.378-4.949,1.065c-0.021,0.01-0.508,0.242-0.89,0.486c-0.12,0.076-0.241,0.16-0.351,0.237L130.895,122.335z"/>
<path fill="#03A550" d="M122.932,147.451l-0.005-23.047c0,0,1.545-1.111,3.241-1.111s3.289,1.078,3.289,1.078
	s2.088-3.471,7.832-3.471c5.745,0,7.786,3.369,7.786,3.369s1.34-0.932,3.118-0.932c1.779,0,2.428,0.472,2.428,0.472
	s-0.563,6.963-7.765,13.566C135.657,143.978,122.932,147.451,122.932,147.451"/>
<polygon fill="#FFFFFF" points="134.475,77.327 140.084,77.327 140.084,85.02 146.414,85.02 146.414,91.096 140.084,91.096 
	140.084,98.305 148.538,98.305 148.538,104.347 140.084,104.347 140.084,113.904 137.289,110.625 134.475,114.129 134.475,104.358 
	125.957,104.358 125.957,98.305 134.475,98.305 134.475,91.107 128.07,91.107 128.07,85.031 134.475,85.031 "/>
<polygon fill="#FFFFFF" points="122.93,91.109 94.846,91.101 94.846,81.542 122.935,81.542 "/>
<polygon fill="#FFFFFF" points="122.93,110.066 94.846,110.058 94.846,100.499 122.935,100.499 "/>
<path fill="#FFFFFF" d="M122.932,129.02l-26.113,0.022c0,0-0.262-0.547-0.612-1.521c-0.58-1.613-1.358-4.33-1.358-8.156
	c6.193-0.003,28.086,0,28.086,0L122.932,129.02z"/>
<path fill="#FFFFFF" d="M104.279,138.437l18.653-0.006v9.03c0,0-5.065-1.562-9.868-3.651
	C108.26,141.722,104.279,138.437,104.279,138.437"/>
<path fill="#EB2227" d="M134.747,116.685c0,0.653-0.661,1.184-1.476,1.184c-0.815,0-1.476-0.53-1.476-1.184
	c0-0.652,0.66-1.184,1.476-1.184C134.086,115.501,134.747,116.033,134.747,116.685"/>
<path fill="#EB2227" d="M142.856,116.685c0,0.653-0.66,1.184-1.476,1.184c-0.814,0-1.476-0.53-1.476-1.184
	c0-0.652,0.661-1.184,1.476-1.184C142.196,115.501,142.856,116.033,142.856,116.685"/>
<path fill-rule="evenodd" clip-rule="evenodd" fill="#076F39" d="M3.354,106.837c0.049-0.58,0.145-1.074,0.239-1.492
	c0.165-0.726,0.549-1.539,0.907-2.074c2.54-3.799,9.228-3.754,14.739-3.176c0.423,0.043,1.004,0.422,1.451,0
	c0.079-0.379-0.335-0.658-0.544-0.844c-1.798-1.586-4.307-3.295-5.196-5.705c-0.378-1.029-0.298-2.371,0.243-3.242
	c1.029-1.655,3.767-3.126,5.98-3.436c2.845-0.397,5.106,0.383,7.007,1.232c1.234,0.551,2.339,1.168,3.444,1.815
	c1.683,0.988,3.2,2.137,4.772,3.112c0.567,0.353,1.143,0.792,1.812,0.843c-0.091-0.674-0.552-1.209-0.906-1.814
	c-0.974-1.67-2.169-3.745-2.537-5.835c-0.215-1.222-0.115-2.829,0.302-3.695c0.823-1.71,3.187-2.854,5.195-3.177
	c2.594-0.418,4.886,0.331,6.524,1.037c3.876,1.67,6.695,4.293,9.666,6.743c0.513,0.422,1.45,1.039,2.08,1.187
	c-0.314-0.352-0.599-0.719-0.751-0.928c-1.168-1.608-2.58-3.899-2.96-6.224c-0.117-0.716-0.164-1.676,0-2.528
	c0.204-1.063,0.94-2.364,1.873-3.242c1.637-1.541,4.028-2.923,7.068-2.269c1.164,0.251,2.079,0.701,3.081,1.232
	c0.087-1.179,0.167-2.461,0.181-3.566c-0.513,0.584-0.789,1.19-1.329,1.816c-0.269-0.101-0.431-0.162-0.785-0.324
	c0.262-1.641,0.485-3.035,0.725-4.668c-0.384,0.422-2.454,3.006-2.84,3.436c-0.126-0.767-0.221-1.123-0.339-1.788
	c-0.099-0.555-0.161-0.997-0.325-1.648c-0.672,1.148-1.125,2.162-1.812,3.241c-0.395-0.023-0.622-0.023-1.088-0.065
	c-0.055-1.236-0.026-2.567-0.121-3.695c-0.476,0.462-0.757,0.765-1.087,1.167c-0.336,0.409-0.659,0.774-1.087,1.167
	c-0.372-0.21-0.464-0.266-0.786-0.454c0.227-0.858,0.526-1.608,0.725-2.528c-0.898,0.266-1.449,0.551-2.295,0.843
	c-0.325-0.577-0.493-0.883-0.786-1.491c0.51-0.301,0.825-0.449,1.208-0.778c-0.915-0.336-3.542-1.392-3.542-1.392
	s2.654-0.621,3.784-1.072c0.015-0.375,0.004-0.523,0-0.843c-1.482-0.43-3.026-0.757-4.651-1.167c0.669-0.608,1.601-1.34,1.601-1.34
	l1.117-0.929L53.1,57.632c0,0,0.02-0.231,0.09-0.326c0.671,0.254,1.143,0.423,1.812,0.649c-0.367-0.733-0.537-1.043-0.845-1.686
	c0.247-0.642,0.491-1.288,0.725-1.944c0.566,0.756,0.948,1.233,1.389,1.879c0.218,0.321,0.451,0.646,0.665,0.973
	c0.201,0.309,0.415,0.594,0.724,0.908c-0.033-1.327-0.033-1.609-0.181-2.853h1.269c0.335,0.765,0.668,1.472,1.07,2.145
	c0.328,0.549,1.037,1.634,1.037,1.634l0.328-0.282c0,0-0.197-1.323-0.321-2.265c0.859,1.209,1.607,2.476,2.477,3.631
	c0.6-0.07,1.072-0.155,1.692-0.26c-0.354-0.758-0.649-1.288-1.028-1.945c-0.183-0.317-0.377-0.647-0.543-0.972
	c-0.18-0.354-0.299-0.576-0.479-1.006c0.384-0.224,0.849-0.531,1.264-0.745c0.429-0.221,0.707-0.399,1.208-0.713
	c-0.875-0.003-1.681,0.029-2.709,0.079c-0.389,0.018-1.863,0.112-1.863,0.112l-0.321-0.58c0,0,0.627-0.389,0.886-0.518
	c0.708-0.354,1.651-0.908,1.651-0.908c0.301-0.143,0.514-0.275,0.846-0.519c-1.658-0.221-2.878-0.334-4.712-0.584
	c-0.252-0.44-0.279-0.496-0.544-1.037c1.4-0.053,2.693-0.146,4.108-0.259c0.159-0.298,0.169-0.351,0.302-0.713
	c-1.934-0.409-2.977-0.578-4.953-0.972c-0.015-0.404-0.015-1.413,0-1.816c1.635-0.079,2.645-0.107,4.349-0.194
	c-0.707-0.49-1.084-0.705-1.713-1.082c-0.582-0.347-1.041-0.591-1.67-0.992c0.567-0.434,0.892-0.676,1.45-1.038
	c0.531,0.34,0.649,0.481,1.208,0.843c-0.519-0.981-0.9-1.587-1.389-2.529c0.185-0.212,0.319-0.41,0.544-0.648h3.201
	c0.13,1.224,0.221,2.153,0.363,3.372c0.331,0.035,0.58,0.063,0.906,0.064c0.028-1.127,0.023-2.395,0.06-3.565
	c0.69,0.057,1.291,0.11,1.933,0.194c-0.036,0.891-0.073,1.993-0.121,2.917c0.392,0.488,0.728,0.848,1.269,1.362
	c0.154-1.331,0.221-3.007,0.363-4.149c0.327,0.494,0.661,0.948,0.661,0.948l0.587,0.757c0,0-0.25,1.063-0.341,1.507
	c-0.123,0.596-0.315,1.521-0.315,1.521s0.355,0.296,0.683,0.492c0.321-0.833,0.577-1.633,0.9-2.438
	c0.399,0.425,0.662,0.721,1.026,1.167c-0.264,0.749-0.595,1.994-0.877,2.905c-0.125,0.405-0.331,1.179-0.331,1.179
	s0.394,0.439,0.604,0.649c0.222,0.222,0.712,0.665,0.712,0.665s0.642-2.958,1.04-4.49c0.318,0.374,0.968,1.068,0.968,1.068
	s-0.228,1.736-0.303,2.506c-0.083,0.864-0.17,1.381-0.242,2.196c0.452-0.576,0.611-0.874,0.912-1.393
	c0.367-0.634,0.603-1.099,0.961-1.719c0.256,0.811,0.423,1.434,0.664,2.204c-0.247,0.416-0.759,1.078-0.759,1.078
	s0.245,0.991,0.336,1.45c0.095,0.476,0.359,1.381,0.359,1.381s0.657-1.113,1.152-1.899c0.528,1.293,0.901,2.404,1.389,3.566
	c0.372-0.252,0.726-0.527,0.726-0.527l0.539-0.436c0,0-0.223-0.676-0.42-1.169c-0.114-0.284-0.206-0.542-0.301-0.786
	c-0.492-1.257-0.883-2.384-1.329-3.5c-0.248-0.621-0.456-1.178-0.604-1.686c0.41-0.224,0.685-0.351,0.685-0.351
	s0.985,1.394,1.429,1.972c-0.248-1.254-0.444-2.394-0.725-3.826c0,0,0.32-0.258,0.665-0.518c0.469,0.935,1.166,2.525,1.636,3.597
	c0.164,0.373,0.512,1.127,0.512,1.127s0.486-0.352,0.751-0.575c-0.509-1.873-1.121-3.637-1.631-5.51
	c0.611-0.21,1.077-0.435,1.812-0.649c0.289,0.524,0.549,1.049,0.786,1.621c0.232,0.561,0.487,1.043,0.846,1.621
	c0.113-0.62,0.167-0.988,0.241-1.556c0.053-0.4,0.141-0.862,0.187-1.332c0.057-0.572,0.197-1.366,0.197-1.366
	s0.669-0.38,1.187-0.738c0.558,0.499,1.214,1.062,1.214,1.062s-0.131,1.054-0.187,1.531c-0.154,1.299-0.312,2.708-0.423,3.89
	c0.544-0.45,1.001-0.788,1.45-1.232c0.221-0.219,0.487-0.393,0.709-0.612c0.199-0.196,0.354-0.323,0.68-0.555
	c0.015,0.401,0.028,0.837,0.028,0.837l-1.055,2.469c0,0,0.255,0.319,0.423,0.519c0.672-0.566,0.934-0.763,1.631-1.297
	c-0.001,0.731-0.028,1.294-0.06,1.88c-1.07,0.992-2.172,1.823-3.323,2.853c-0.004,0.476-0.108,1.092-0.07,1.448
	c1.117-0.496,1.824-0.986,2.849-1.448c-0.04,0.758-0.067,1.124-0.121,1.815c-1.192,0.816-1.741,1.096-2.905,1.893
	c-0.049,0.539-0.174,1.208-0.197,1.711c1.057-0.436,1.846-0.766,2.881-1.239c-0.235,1.107-0.565,2.535-0.565,2.535l-2.624,1.112
	c0,0-0.166,0.885-0.236,1.324c0.955-0.243,1.496-0.38,2.438-0.658c-0.326,1.038-0.601,1.714-0.906,2.658
	c-0.601,0.098-2.011,0.331-2.011,0.331s-0.118,0.464-0.224,0.836c0.638,0.101,1.254,0.171,1.933,0.259
	c-0.102,1.658-0.181,3.221-0.242,4.733c0.494-0.836,1.308-2.427,1.308-2.427l0.709,1.436c0,0-0.064,1.498-0.092,2.098
	c-0.087,1.874-0.184,3.563-0.233,5.181c0.207-0.477,0.334-0.912,0.43-1.28c0.332-1.273,1.076-3.971,1.076-3.971l1.22,1.964
	c0,0-0.073,0.578-0.131,1.247c-0.171,1.957-0.302,3.999-0.421,5.476c0.395-0.872,0.607-1.488,0.906-2.336
	c0.329-0.93,0.616-1.803,0.946-2.76c0.354,0.374,1.108,1.206,1.108,1.206s0.048,1.038,0.061,1.621
	c0.093,4.16,0.621,9.265,0.666,12.915c0,1.601,0,13.084-0.002,16c-1.225-0.622-2.348-1.217-3.553-1.831
	c-1.187-0.605-2.375-1.311-3.635-1.93c0.184,0.55,0.578,1.605,0.578,1.605l0.551,1.381c0,0,1.122,0.565,1.614,0.816
	c0.491,0.25,0.975,0.502,1.425,0.734c1.027,0.533,2.178,1.119,3.017,1.66v3.864c-0.704-0.454-1.6-1.102-2.413-1.44
	c-1.164,1.389-2.239,2.842-2.9,4.799c1.437,1.117,3.045,2.592,3.444,4.992c0.242,1.457-0.035,3.516-0.302,4.732
	c0.557,0.014,0.848-0.001,1.329,0.064c1.743,0.238,3.667,2.313,3.383,4.603c-0.066,0.529-0.566,0.919-0.544,1.298
	c0.01,0.182,0.398,0.562,0.604,0.907c0.594,0.998,1.065,2.229,1.329,3.437c0.452,2.067,0.524,5.363-0.665,6.548
	c-0.648,0.645-1.743,0.952-2.476,1.036c-0.335,0.039-0.725,0.033-1.027,0c-1.809-0.188-3.383-1.065-4.531-2.074
	c-0.953-0.836-1.552-1.984-2.115-2.982c-0.299,0.074-0.581,0.195-0.845,0.131c-0.604-0.148-1.233-1.446-1.51-2.529
	c-0.2-0.78-0.268-1.488-0.363-2.334c-1.185,0.635-2.497,1.44-3.987,1.751c-2.952,0.614-4.64-0.818-5.074-3.372
	c-0.357-2.096,0.258-4.522,0.846-6.158c-0.528,0.027-0.984,0.062-1.451,0.064c-2.565,0.017-3.858-1.726-4.59-3.631
	c-0.199-0.516-0.431-1.223-0.52-1.528c-0.482,0.159-2.179,1.948-2.32,2.112c-1.986,2.312-3.846,5.105-7.128,5.771
	c-1.697,0.343-3.638-0.047-4.893-0.519c-1.506-0.566-2.982-1.473-3.625-2.789c-0.983-2.013,0.07-4.754,0.665-6.418
	c0.325-0.91,0.837-1.893,0.603-2.916c-0.626-0.11-1.175,0.318-1.57,0.711c-0.636,0.635-1.133,1.498-1.691,2.271
	c-1.611,2.228-3.507,4.646-6.525,5.251c-2.207,0.444-4.601,0.089-5.437-1.426c-0.365-0.663-0.586-1.615-0.302-2.982
	c0.199-0.957,0.532-1.963,0.846-2.853c0.321-0.909,0.976-2.56,0.665-2.787c-0.712-0.449-1.846,1.158-2.296,1.88
	c-2.031,3.255-3.937,7.42-9.424,6.872c-2.048-0.205-3.633-1.188-4.047-3.047c-0.479-2.148,0.244-4.479,0.483-6.224
	c0.112-0.822,0.36-1.99-0.161-2.528c-0.472-0.444-1.429,0.09-2.135,0.388c-1.963,0.832-4.185,1.439-6.463,1.814
	c-5.797,0.959-11.554-0.283-12.01-5.899C3.314,107.778,3.314,107.418,3.354,106.837 M67.749,75.006
	c0.31,0.228,0.725,0.518,0.725,0.518s0.397-0.543,0.604-0.908c0.203-0.358,0.634-1.044,0.634-1.044s-0.288-0.352-0.577-0.676
	c0.065-0.338,0.053-0.423,0.124-0.808c-0.077-0.004-0.083-0.083-0.181-0.065C68.597,73.121,68.23,73.811,67.749,75.006
	 M69.32,76.237c0.51,0.504,0.878,0.856,1.329,1.297c0.52-0.667,0.89-1.22,1.328-1.815c0.44-0.598,0.754-1.119,1.269-1.881
	C73.169,73.834,70.749,75.29,69.32,76.237 M71.132,77.988l0.906,1.102l1.073-1.096l1.102-1.303L71.132,77.988z M72.521,79.673
	c0.563,0.983,1.233,2.292,1.233,2.292l0.881-2.81C74.635,79.155,73.215,79.488,72.521,79.673 M89.252,112.32
	c0,0-0.12,0.058-0.179,0.092c-1.177,0.697-2.64,1.506-4.047,2.399c-1.347,0.854-2.799,1.892-3.624,2.917
	c-0.381,0.473-0.78,1.109-0.786,1.751c0.408-0.421,0.574-0.599,0.846-0.907c1.288-1.462,3.075-2.467,5.678-2.464
	c0.025-0.229,0.025-0.317,0.061-0.584c0.389-0.531,0.713-1.228,1.105-1.775c0.393-0.548,0.617-0.86,1.07-1.466
	C89.335,112.283,89.252,112.32,89.252,112.32 M97.531,138.993c-0.163-2.263-1.046-5.894-2.658-6.418
	c-0.103-0.034-0.118-0.075-0.242,0c-1.054,0.633-2.075,1.552-3.141,2.334c-0.809,0.592-1.672,1.14-2.417,1.685
	c-0.268,0.197-0.599,0.383-0.724,0.713c0.609,2.428,2.736,5.084,5.436,5.771c1.124,0.286,2.388-0.039,3.203-0.324
	C97.51,141.817,97.642,140.536,97.531,138.993"/>
<path fill-rule="evenodd" clip-rule="evenodd" fill="#00A55F" d="M75.407,90.761c0.171-0.479,0.271-0.897,0.376-1.34
	c0.197-0.829,0.358-1.833,0.569-2.758c0.091-0.401,0.188-0.945,0.263-1.352c0.133-0.734,0.245-1.266,0.437-1.92
	c0.397-1.358,1.313-2.462,3.02-2.399c2.378,0.089,5.109,1.48,5.799,3.372c0.626,1.714,0.279,4.504,0,6.548
	c-0.409,3.004-1.001,6.493-0.664,9.983c0.153,1.583,0.604,2.992,1.027,4.344c-1.09-0.521-1.757-0.846-2.599-1.254
	c-0.823-0.398-1.561-0.747-2.533-1.191c0.803-4.524,1.256-10.002,0.722-15.188c-0.328-0.083-0.578-0.126-0.966-0.195
	c-0.018,1.421-0.071,2.464-0.121,3.892c-0.207,3.752-1.151,7.502-2.128,10.457c-1.535-0.52-2.664-0.95-4.397-1.446
	c-1.655-7.927-5.906-13.067-10.451-17.893c-0.354,0.16-0.575,0.333-0.785,0.583c0.195,0.38,0.398,0.673,0.604,0.973
	c1.411,2.048,2.859,4.297,4.108,6.611c1.43,2.652,2.856,5.709,3.454,9.061c-1.193-0.225-2.571-0.508-3.816-0.697
	c-3.038-0.46-6.323-0.974-9.545-1.23c-0.71-0.058-1.994-0.131-1.994-0.131s-1.066-0.987-1.51-1.426
	c-2.935-2.895-6.034-5.424-9.424-7.78c-0.428-0.297-1.142-1.166-1.752-0.454c0.212,0.573,0.797,0.811,1.209,1.167
	c2.022,1.754,4.141,3.656,5.98,5.705c0.368,0.41,0.781,0.914,1.117,1.382c0.3,0.418,0.695,0.845,1.063,1.45
	c-6.745,0.069-12.217,0.693-17.768,2.041c-0.517,0.127-1.725,0.479-1.725,0.479s-0.819-0.76-1.233-1.14
	c-2.465-2.252-4.992-3.928-7.914-5.704c-0.572-0.349-1.728-0.962-1.728-0.962s-0.434,0.3-0.729,0.539
	c0.305,0.232,0.496,0.391,0.689,0.518c3.1,2.027,6.788,4.48,8.743,7.665c-0.748,0.351-1.56,0.663-2.262,0.992
	c-4.848,2.274-11.07,3.54-17.217,4.538c0.018,0.342,0.032,0.539,0.06,0.843c7.933-0.399,15.094-2.085,21.566-4.345
	c0.9-0.312,1.724-0.635,2.659-0.906c-1.378,4.681-3.729,8.316-5.74,12.318c0.069,0.412-0.004,0.572,0,1.037
	c0.34,0.013,0.564-0.412,0.725-0.649c2.879-4.239,5.989-8.659,8.337-13.55c4.647-0.868,10.243-1.377,15.321-1.336
	c-0.347,1.38-1.004,2.625-1.608,3.801c-1.504,2.925-3.167,5.474-4.887,8.226c-0.327,0.523-0.669,1.071-1.011,1.704
	c0.317,0.173,0.722,0.38,0.722,0.38s0.702-0.927,0.947-1.233c3.084-3.855,5.974-8.396,8.458-12.836
	c4.4,0.298,8.375,1.115,12.207,1.86c-2.345,6.3-5.267,11.681-9.247,16.226c0.085,0.386,0.367,0.558,0.543,0.844
	c1.302-0.989,2.418-2.216,3.444-3.501c1.033-1.293,1.98-2.664,2.899-4.084c1.837-2.836,3.464-5.894,5.135-8.882
	c1.989,0.439,3.932,1.102,5.9,1.75c0.682,4.154-0.279,8.104-1.369,11.15c0.213,0.137,1.074,0.687,1.074,0.687
	s0.946-1.63,1.222-2.177c1.149-2.287,1.722-5.766,1.993-8.623c3.201,1.342,6.275,3.035,9.323,4.539
	c-0.394,0.338-0.901,0.649-1.288,0.906c-2.038,1.35-4.335,2.461-6.344,4.021c-1.274,0.989-2.481,2.058-3.141,3.696
	c-0.322,0.797-0.543,1.916-0.725,2.916c-0.237,1.31-0.326,2.608-1.147,3.241c-0.904,0.697-2.52,0.814-3.504,0.324
	c-1.815-0.903-2.182-3.696-2.779-5.834c-1.676,0.853-3.137,2.146-4.47,3.694c-1.275,1.482-2.459,3.09-3.987,4.149
	c-0.999,0.692-2.296,1.237-4.048,1.103c-1.051-0.08-2.054-0.432-3.081-0.907c-1.249-0.579-2.432-1.442-2.174-3.696
	c0.22-1.924,1.499-3.625,1.691-5.64c0.105-1.101-0.013-1.664-0.241-2.658c-3.388-0.429-4.812,2.38-6.344,4.409
	c-0.902,1.195-1.775,2.273-3.08,3.111c-0.983,0.63-2.319,1.151-4.108,0.973c-0.575-0.057-1.442-0.229-1.752-0.778
	c-0.47-0.833,0.075-2.62,0.423-3.694c0.397-1.229,0.978-2.42,1.087-3.373c0.148-1.293-0.235-2.033-1.087-2.334
	c-1.786-0.573-3.087,1.222-3.988,2.66c-1.082,1.727-2.312,3.979-3.926,5.121c-1.87,1.322-6.514,1.651-6.947-1.103
	c-0.321-2.039,0.585-4.582,0.724-6.613c0.126-1.815-0.653-3.347-2.597-3.241c-0.578,0.031-1.132,0.25-1.631,0.453
	c-3.076,1.262-7.57,2.674-11.961,2.01c-2.106-0.317-4.035-1.494-4.531-3.564c-0.201-0.842-0.267-1.996-0.06-3.112
	c0.119-0.644,0.418-1.143,0.664-1.556c2.144-3.604,8.491-3.373,13.532-2.723c0.665,0.086,1.502,0.188,2.054,0
	c0.601-0.205,1.082-0.803,1.148-1.297c0.065-0.49-0.11-0.914-0.242-1.231c-0.399-0.96-1.723-1.783-2.658-2.595
	c-0.944-0.817-2.018-1.78-2.597-2.657c-0.247-0.371-0.706-1.162-0.665-1.945c0.062-1.186,1.563-2.2,2.417-2.657
	c1.554-0.833,3.959-1.23,6.222-0.777c2.49,0.496,5.144,2.133,7.249,3.435c1.768,1.095,3.628,2.595,5.799,3.566
	c0.363,0.161,0.849,0.354,0.966,0.323c0.372-0.093,0.363-0.519,0.544-0.906c0.174-0.371,0.389-0.6,0.423-0.973
	c0.071-0.785-0.508-1.699-0.846-2.27c-0.415-0.701-0.821-1.346-1.148-1.945c-0.727-1.337-1.545-2.955-1.691-4.538
	c-0.227-2.472,1.211-3.255,2.839-3.89c1.461-0.569,3.361-0.739,5.135-0.324c0.686,0.16,1.37,0.487,2.054,0.778
	c1.864,0.793,3.72,1.876,5.256,3.112c0.957,0.77,2.052,1.573,3.141,2.528c0.931,0.818,2.445,2.104,3.507,2.299
	c1.139,0.209,2.037,0.06,3.241-0.127c-0.354-0.521-0.539-0.781-0.787-1.113c-0.738-0.984-1.361-1.876-2.087-2.971
	c-0.946-1.428-1.993-3.152-2.182-5.024c-0.353-3.482,2.891-5.347,4.832-5.9c0.29-0.082,1.145-0.119,1.692-0.065
	c1.797,0.177,3.467,1.25,4.772,2.269c2.624,2.049,4.683,4.958,5.86,8.493C74.095,87.213,74.775,89.061,75.407,90.761"/>
<path fill-rule="evenodd" clip-rule="evenodd" fill="#FFFFFF" d="M83.395,53.873h0.181c-0.131,2.26-0.348,5.407-0.348,5.407
	l-0.679,2.632l-1.51,6.288c0,0-0.816-1.104-1.269-1.815C81.042,61.752,82.105,58.14,83.395,53.873"/>
<path fill-rule="evenodd" clip-rule="evenodd" fill="#FFFFFF" d="M72.098,63.857c0.363,0.557,0.481,0.778,0.846,1.426
	c-1.103,0.039-1.752,0.061-2.779,0.065c-1.057,0.005-3.166-0.005-3.166-0.005s-1.109-0.481-1.624-0.708
	c-1.433-0.631-4.332-2.01-4.332-2.01l0.06-0.129c0,0,0.082,0.009,0.137,0.017c1.608,0.27,3.427,0.803,5.119,1.15
	c0.34,0.069,1.063,0.212,1.063,0.212S70.482,63.864,72.098,63.857"/>
<path fill-rule="evenodd" clip-rule="evenodd" fill="#FFFFFF" d="M84.482,120c-0.237,0.697-0.35,1.527-1.39,1.361
	c-0.28-0.367-0.127-1.089,0-1.556C83.568,119.738,84.3,119.511,84.482,120"/>
<path fill-rule="evenodd" clip-rule="evenodd" fill="#FFFFFF" d="M87.744,120.778c0.221,0.465,0.589,0.979,0.121,1.491
	c-0.079,0.086-1.177,0.706-1.268,0.714c-0.664,0.058-0.906-0.623-0.726-1.362C86.043,120.913,86.867,120.474,87.744,120.778"/>
<path fill-rule="evenodd" clip-rule="evenodd" fill="#FFFFFF" d="M82.488,122.333c-0.353,0.033-0.509-0.146-0.665-0.323
	C81.888,121.274,82.874,121.598,82.488,122.333"/>
<path fill-rule="evenodd" clip-rule="evenodd" fill="#FFFFFF" d="M83.878,122.205c0.123-0.854,1.583-0.715,1.631-0.065
	c0.018,0.249-0.451,0.719-0.785,0.713C84.322,122.846,84.14,122.33,83.878,122.205"/>
<path fill-rule="evenodd" clip-rule="evenodd" fill="#FFFFFF" d="M79.891,122.269c0.37-0.109,0.443,0.352,0.302,0.583h-0.302
	C79.771,122.717,79.845,122.422,79.891,122.269"/>
<path fill-rule="evenodd" clip-rule="evenodd" fill="#FFFFFF" d="M90.583,123.177c0.153,0.848-0.076,1.297-0.725,1.426
	c-0.159-0.4-0.314-1.121-0.181-1.62C89.982,122.808,90.376,123.035,90.583,123.177"/>
<path fill-rule="evenodd" clip-rule="evenodd" fill="#FFFFFF" d="M82.005,122.982c1.819,1.414,3.716,2.841,5.679,4.344
	c0.329,0.253,0.669,0.406,0.724,0.648c0.183,0.791-0.796,2.039-1.208,2.594c-1.503,2.021-4.275,4.556-6.947,4.797
	c-0.441,0.04-0.811,0.019-1.147-0.065c-0.936-0.231-1.718-0.704-2.115-1.426c-0.046-0.084-0.226-0.529-0.241-0.583
	c-0.13-0.444-0.178-1.098-0.182-1.621c-0.017-2.075,0.703-3.931,1.571-5.381C79.036,124.79,80.444,123.418,82.005,122.982"/>
<path fill-rule="evenodd" clip-rule="evenodd" fill="#FFFFFF" d="M88.65,125.057c-0.243,0.247-0.846,0.269-1.208,0.194
	c-0.201-0.477-0.56-0.891-0.362-1.426c0.154-0.422,0.974-0.752,1.268-0.648C88.881,123.365,88.564,124.281,88.65,125.057"/>
<path fill-rule="evenodd" clip-rule="evenodd" fill="#FFFFFF" d="M90.04,125.77c-0.059,0.521-0.198,0.954-0.242,1.491
	c-0.57-0.079-0.854-0.467-0.785-1.232C89.244,125.853,89.659,125.576,90.04,125.77"/>
<path fill-rule="evenodd" clip-rule="evenodd" fill="#FFFFFF" d="M93.604,129.4c0.335,0.38,0.536,1.418,0,1.686
	c-0.839-0.051-1.139-0.679-1.208-1.556C92.649,129.185,93.128,129.442,93.604,129.4"/>
<path fill-rule="evenodd" clip-rule="evenodd" fill="#FFFFFF" d="M91.006,132.253c-0.206,0.168-0.409,0.339-0.665,0.453
	c-0.789-0.412-2.249-1.056-1.208-2.334C90.325,130.166,91.194,130.773,91.006,132.253"/>
<path fill-rule="evenodd" clip-rule="evenodd" fill="#FFFFFF" d="M94.389,131.215c0.267-0.006,0.436,0.095,0.543,0.259
	c0.054,0.426-0.182,0.539-0.543,0.52C94.273,131.822,94.326,131.398,94.389,131.215"/>
<path fill-rule="evenodd" clip-rule="evenodd" fill="#FFFFFF" d="M93,131.734c-0.276,0.715-1.202,1.03-1.631,0.259
	c-0.033-0.294,0.121-0.387,0.181-0.583C92.103,131.173,92.712,131.337,93,131.734"/>
<path fill-rule="evenodd" clip-rule="evenodd" fill="#FFFFFF" d="M96.987,142.755c-0.815,0.285-2.078,0.61-3.202,0.324
	c-2.7-0.688-4.827-3.344-5.437-5.77c0.125-0.33,0.456-0.517,0.725-0.714c0.745-0.545,1.608-1.093,2.416-1.685
	c1.067-0.782,2.087-1.701,3.142-2.334c0.124-0.074,0.139-0.034,0.241,0c1.612,0.523,2.496,4.154,2.658,6.418
	C97.641,140.539,97.509,141.82,96.987,142.755"/>
<path fill-rule="evenodd" clip-rule="evenodd" fill="#FFFFFF" d="M87.2,132.707c-0.008,0.576,0.028,1.197-0.181,1.557
	c-0.4-0.141-0.808-0.23-0.846-0.584C86.15,133.463,86.838,132.571,87.2,132.707"/>
<path fill-rule="evenodd" clip-rule="evenodd" fill="#FFFFFF" d="M89.194,135.041c-0.338-0.111-0.746-0.15-1.027-0.324
	c-0.005-0.654-0.024-1.322,0.121-1.815C89.854,132.566,90.211,134.263,89.194,135.041"/>
<path fill-rule="evenodd" clip-rule="evenodd" fill="#FFFFFF" d="M87.804,135.625c0.235,0.647-0.202,1.059-0.544,1.295
	c-0.411-0.182-0.449-1.045-0.362-1.555C87.264,135.383,87.532,135.506,87.804,135.625"/>
<path fill-rule="evenodd" clip-rule="evenodd" fill="#FFFFFF" d="M94.509,91.035c-0.687-0.709-2.428-2.641-2.988-3.462
	c-1.72-2.524-2.863-3.867-4.566-6.366C81.306,72.92,76.18,64.358,70.588,56.142c-1.133-1.664-2.146-3.41-3.444-4.927
	c0.049,0.477,0.448,1.003,0.665,1.361c2.3,3.788,4.559,7.723,6.826,11.475c1.851,3.063,3.678,5.96,5.498,9.141
	c1.186,2.074,2.629,4.36,3.805,6.418c0.184,0.322,0.359,0.75,0.544,0.973c0.242,0.293,0.6,0.392,0.845,0.583
	c0.838,0.65,1.5,1.405,1.933,2.594c0.177,0.481,0.166,0.988,0.363,1.491c0.149,0.377,0.536,0.739,0.846,1.167
	c1.8,2.484,3.43,4.729,5.256,7.196c0.338,0.455,0.786,1.148,0.786,1.148L94.509,91.035z"/>
<path fill-rule="evenodd" clip-rule="evenodd" fill="#076F39" d="M242.395,108.328c-0.457,5.615-6.214,6.857-12.01,5.9
	c-2.279-0.377-4.5-0.983-6.464-1.815c-0.706-0.299-1.662-0.833-2.135-0.39c-0.521,0.539-0.273,1.707-0.162,2.528
	c0.239,1.744,0.963,4.076,0.484,6.224c-0.415,1.858-1.999,2.843-4.048,3.048c-5.486,0.548-7.393-3.617-9.424-6.872
	c-0.45-0.721-1.584-2.329-2.296-1.88c-0.312,0.227,0.344,1.878,0.665,2.786c0.314,0.891,0.646,1.896,0.846,2.854
	c0.284,1.368,0.062,2.319-0.302,2.982c-0.836,1.516-3.23,1.869-5.438,1.426c-3.018-0.606-4.913-3.023-6.524-5.251
	c-0.558-0.773-1.056-1.636-1.691-2.269c-0.395-0.394-0.943-0.824-1.57-0.714c-0.233,1.025,0.278,2.007,0.604,2.917
	c0.595,1.663,1.647,4.406,0.664,6.418c-0.643,1.316-2.119,2.223-3.625,2.788c-1.255,0.472-3.195,0.863-4.893,0.519
	c-3.282-0.664-5.144-3.457-7.129-5.77c-0.141-0.164-1.837-1.954-2.319-2.111c-0.089,0.306-0.321,1.012-0.52,1.527
	c-0.732,1.906-2.025,3.647-4.591,3.631c-0.467-0.003-0.923-0.035-1.45-0.064c0.588,1.637,1.202,4.062,0.846,6.158
	c-0.435,2.555-2.121,3.985-5.074,3.371c-1.49-0.31-2.803-1.115-3.987-1.75c-0.095,0.846-0.162,1.554-0.362,2.334
	c-0.277,1.082-0.906,2.381-1.511,2.528c-0.264,0.065-0.546-0.056-0.845-0.129c-0.563,0.998-1.162,2.146-2.115,2.981
	c-1.148,1.009-2.722,1.888-4.53,2.074c-0.302,0.032-0.692,0.039-1.027,0c-0.733-0.084-1.828-0.391-2.477-1.037
	c-1.188-1.184-1.117-4.479-0.664-6.547c0.263-1.207,0.734-2.438,1.328-3.437c0.206-0.347,0.594-0.726,0.604-0.908
	c0.022-0.378-0.478-0.769-0.545-1.296c-0.283-2.29,1.641-4.366,3.384-4.604c0.48-0.064,0.772-0.051,1.329-0.064
	c-0.267-1.217-0.544-3.275-0.302-4.732c0.399-2.4,2.007-3.873,3.443-4.992c-0.661-1.957-1.735-3.41-2.899-4.797
	c-0.813,0.336-1.709,0.984-2.414,1.439v-3.866c0.841-0.541,1.99-1.126,3.018-1.659c0.45-0.231,0.934-0.484,1.425-0.734
	c0.492-0.251,1.614-0.817,1.614-0.817l0.552-1.38c0,0,0.394-1.056,0.578-1.605c-1.261,0.621-2.448,1.323-3.636,1.93
	c-1.205,0.613-2.328,1.209-3.554,1.831c-0.001-2.916-0.002-14.4-0.001-16c0.045-3.65,0.573-8.755,0.666-12.915
	c0.013-0.583,0.06-1.62,0.06-1.62s0.756-0.832,1.109-1.207c0.329,0.957,0.617,1.831,0.945,2.76c0.3,0.848,0.512,1.465,0.906,2.336
	c-0.119-1.477-0.25-3.519-0.421-5.476c-0.058-0.669-0.131-1.246-0.131-1.246l1.22-1.965c0,0,0.744,2.698,1.076,3.971
	c0.096,0.368,0.224,0.803,0.431,1.28c-0.05-1.617-0.146-3.307-0.233-5.18c-0.028-0.601-0.092-2.099-0.092-2.099l0.708-1.436
	c0,0,0.814,1.591,1.309,2.427c-0.062-1.512-0.141-3.075-0.242-4.733c0.68-0.088,1.296-0.158,1.934-0.259
	c-0.106-0.372-0.225-0.836-0.225-0.836s-1.41-0.232-2.011-0.331c-0.305-0.943-0.58-1.62-0.906-2.658
	c0.942,0.278,1.483,0.415,2.438,0.658c-0.07-0.439-0.236-1.324-0.236-1.324l-2.624-1.112c0,0-0.33-1.428-0.564-2.535
	c1.035,0.473,1.823,0.804,2.88,1.24c-0.022-0.504-0.147-1.173-0.196-1.711c-1.164-0.798-1.712-1.078-2.905-1.893
	c-0.054-0.692-0.08-1.058-0.121-1.816c1.025,0.463,1.733,0.952,2.849,1.448c0.039-0.356-0.065-0.971-0.069-1.448
	c-1.15-1.03-2.253-1.861-3.323-2.852c-0.032-0.586-0.06-1.15-0.06-1.88c0.696,0.533,0.958,0.73,1.631,1.296
	c0.168-0.2,0.423-0.518,0.423-0.518l-1.055-2.47c0,0,0.013-0.436,0.027-0.837c0.326,0.232,0.481,0.359,0.681,0.556
	c0.222,0.218,0.487,0.392,0.709,0.611c0.449,0.444,0.905,0.783,1.45,1.232c-0.111-1.181-0.27-2.591-0.423-3.89
	c-0.057-0.477-0.188-1.531-0.188-1.531s0.656-0.563,1.215-1.062c0.517,0.358,1.187,0.739,1.187,0.739s0.14,0.794,0.197,1.365
	c0.046,0.471,0.134,0.933,0.187,1.332c0.074,0.568,0.127,0.936,0.241,1.556c0.358-0.578,0.613-1.061,0.845-1.621
	c0.238-0.571,0.498-1.097,0.786-1.621c0.735,0.214,1.202,0.439,1.812,0.649c-0.51,1.873-1.121,3.637-1.631,5.51
	c0.266,0.223,0.751,0.575,0.751,0.575s0.349-0.754,0.512-1.127c0.47-1.071,1.168-2.661,1.637-3.597
	c0.345,0.26,0.665,0.519,0.665,0.519c-0.282,1.431-0.478,2.571-0.726,3.825c0.443-0.578,1.429-1.972,1.429-1.972
	s0.275,0.127,0.686,0.351c-0.147,0.508-0.355,1.064-0.604,1.686c-0.446,1.116-0.837,2.243-1.329,3.5
	c-0.096,0.244-0.188,0.502-0.302,0.786c-0.196,0.493-0.419,1.169-0.419,1.169l0.538,0.436c0,0,0.354,0.275,0.727,0.527
	c0.488-1.161,0.86-2.272,1.389-3.566c0.495,0.787,1.151,1.899,1.151,1.899s0.265-0.904,0.359-1.381
	c0.092-0.459,0.337-1.45,0.337-1.45s-0.513-0.661-0.76-1.078c0.241-0.77,0.407-1.393,0.664-2.204
	c0.357,0.621,0.594,1.085,0.961,1.719c0.302,0.519,0.46,0.817,0.912,1.393c-0.072-0.815-0.159-1.332-0.242-2.195
	c-0.074-0.771-0.302-2.507-0.302-2.507s0.649-0.694,0.967-1.068c0.397,1.533,1.041,4.49,1.041,4.49s0.488-0.443,0.711-0.665
	c0.21-0.209,0.604-0.648,0.604-0.648s-0.206-0.775-0.331-1.18c-0.281-0.911-0.612-2.155-0.877-2.904
	c0.365-0.447,0.628-0.743,1.027-1.168c0.322,0.805,0.578,1.605,0.899,2.439c0.328-0.197,0.683-0.493,0.683-0.493
	s-0.192-0.925-0.315-1.521c-0.091-0.443-0.341-1.506-0.341-1.506l0.587-0.758c0,0,0.335-0.454,0.662-0.948
	c0.142,1.142,0.209,2.818,0.362,4.149c0.541-0.514,0.877-0.874,1.269-1.362c-0.048-0.924-0.085-2.025-0.121-2.917
	c0.644-0.083,1.243-0.137,1.934-0.194c0.037,1.17,0.032,2.438,0.061,3.565c0.325-0.001,0.575-0.029,0.906-0.064
	c0.141-1.218,0.232-2.147,0.362-3.372h3.2c0.227,0.238,0.36,0.436,0.545,0.649c-0.489,0.942-0.87,1.547-1.39,2.528
	c0.56-0.361,0.677-0.502,1.209-0.843c0.558,0.362,0.883,0.605,1.449,1.038c-0.629,0.401-1.088,0.646-1.669,0.992
	c-0.63,0.377-1.007,0.592-1.714,1.082c1.703,0.087,2.714,0.116,4.35,0.194c0.015,0.404,0.015,1.412,0,1.815
	c-1.977,0.395-3.02,0.563-4.954,0.972c0.133,0.362,0.144,0.415,0.303,0.713c1.415,0.114,2.708,0.206,4.107,0.26
	c-0.265,0.54-0.291,0.596-0.544,1.037c-1.833,0.25-3.054,0.362-4.712,0.584c0.333,0.243,0.545,0.375,0.846,0.518
	c0,0,0.943,0.554,1.652,0.908c0.259,0.129,0.886,0.518,0.886,0.518l-0.321,0.58c0,0-1.474-0.094-1.863-0.112
	c-1.027-0.05-1.834-0.081-2.709-0.079c0.501,0.315,0.779,0.492,1.208,0.714c0.415,0.213,0.88,0.521,1.265,0.745
	c-0.181,0.429-0.299,0.651-0.479,1.005c-0.166,0.325-0.36,0.655-0.543,0.973c-0.38,0.656-0.674,1.187-1.027,1.945
	c0.619,0.104,1.092,0.189,1.69,0.259c0.871-1.155,1.619-2.422,2.478-3.631c-0.124,0.942-0.32,2.265-0.32,2.265l0.328,0.282
	c0,0,0.708-1.085,1.036-1.633c0.402-0.674,0.734-1.38,1.07-2.146h1.269c-0.147,1.244-0.147,1.526-0.181,2.853
	c0.309-0.313,0.523-0.599,0.725-0.908c0.213-0.327,0.446-0.652,0.665-0.972c0.44-0.647,0.822-1.123,1.388-1.88
	c0.235,0.656,0.479,1.302,0.727,1.945c-0.309,0.643-0.479,0.952-0.846,1.685c0.669-0.225,1.141-0.394,1.812-0.648
	c0.07,0.094,0.091,0.325,0.091,0.325l-0.211,0.647l1.116,0.929c0,0,0.932,0.732,1.602,1.34c-1.624,0.41-3.17,0.737-4.651,1.167
	c-0.005,0.32-0.015,0.468,0,0.843c1.13,0.451,3.784,1.072,3.784,1.072s-2.627,1.056-3.542,1.392
	c0.383,0.329,0.698,0.477,1.208,0.778c-0.293,0.608-0.461,0.914-0.785,1.491c-0.847-0.292-1.397-0.577-2.296-0.843
	c0.199,0.921,0.498,1.67,0.725,2.528c-0.322,0.188-0.414,0.244-0.785,0.454c-0.429-0.392-0.751-0.758-1.088-1.167
	c-0.329-0.402-0.61-0.704-1.087-1.167c-0.095,1.128-0.063,2.459-0.121,3.696c-0.466,0.041-0.692,0.041-1.087,0.065
	c-0.688-1.08-1.141-2.094-1.812-3.242c-0.164,0.652-0.227,1.093-0.325,1.647c-0.118,0.665-0.213,1.021-0.339,1.788
	c-0.386-0.429-2.456-3.013-2.84-3.436c0.239,1.634,0.461,3.028,0.725,4.668c-0.354,0.162-0.516,0.223-0.784,0.324
	c-0.541-0.626-0.816-1.232-1.329-1.815c0.014,1.104,0.093,2.386,0.181,3.565c1.001-0.531,1.917-0.981,3.081-1.231
	c3.04-0.655,5.431,0.728,7.068,2.269c0.933,0.878,1.668,2.178,1.872,3.241c0.164,0.853,0.117,1.812,0,2.529
	c-0.38,2.324-1.791,4.615-2.96,6.223c-0.152,0.21-0.436,0.576-0.751,0.928c0.631-0.147,1.567-0.765,2.08-1.187
	c2.972-2.45,5.79-5.073,9.666-6.743c1.639-0.706,3.93-1.454,6.523-1.037c2.009,0.323,4.373,1.467,5.195,3.177
	c0.417,0.867,0.519,2.474,0.303,3.695c-0.369,2.091-1.563,4.165-2.538,5.836c-0.354,0.606-0.814,1.141-0.905,1.814
	c0.669-0.051,1.245-0.491,1.812-0.844c1.572-0.975,3.089-2.123,4.773-3.11c1.104-0.647,2.209-1.265,3.442-1.815
	c1.902-0.849,4.162-1.629,7.007-1.233c2.214,0.309,4.951,1.78,5.981,3.436c0.541,0.87,0.621,2.215,0.242,3.242
	c-0.89,2.411-3.398,4.119-5.195,5.705c-0.21,0.186-0.623,0.465-0.544,0.843c0.446,0.425,1.027,0.044,1.45,0
	c5.511-0.577,12.2-0.62,14.739,3.177c0.358,0.535,0.741,1.35,0.906,2.074c0.095,0.418,0.19,0.911,0.24,1.492
	C242.443,107.418,242.443,107.777,242.395,108.328 M176.68,72.023c-0.098-0.019-0.104,0.061-0.181,0.064
	c0.071,0.386,0.059,0.47,0.124,0.808c-0.289,0.324-0.577,0.676-0.577,0.676s0.431,0.686,0.634,1.044
	c0.207,0.365,0.604,0.908,0.604,0.908s0.415-0.29,0.725-0.518C177.528,73.811,177.161,73.121,176.68,72.023 M172.512,73.837
	c0.516,0.762,0.829,1.283,1.269,1.881c0.438,0.596,0.809,1.148,1.329,1.815c0.45-0.441,0.818-0.793,1.329-1.297
	C175.009,75.29,172.589,73.834,172.512,73.837 M171.545,76.69l1.102,1.303l1.073,1.096l0.905-1.102L171.545,76.69z M171.122,79.155
	l0.882,2.81c0,0,0.669-1.309,1.232-2.292C172.543,79.488,171.122,79.155,171.122,79.155 M156.382,112.283
	c0.452,0.607,0.677,0.918,1.069,1.466c0.393,0.547,0.717,1.245,1.105,1.774c0.036,0.268,0.036,0.355,0.061,0.584
	c2.604-0.002,4.392,1.002,5.679,2.465c0.271,0.308,0.438,0.486,0.846,0.906c-0.006-0.642-0.405-1.277-0.785-1.75
	c-0.826-1.024-2.277-2.062-3.624-2.918c-1.408-0.893-2.871-1.701-4.048-2.397c-0.06-0.035-0.179-0.093-0.179-0.093
	S156.423,112.283,156.382,112.283 M148.771,142.752c0.813,0.286,2.078,0.61,3.201,0.325c2.701-0.688,4.828-3.344,5.438-5.77
	c-0.125-0.332-0.456-0.517-0.725-0.715c-0.745-0.545-1.607-1.093-2.417-1.685c-1.066-0.781-2.087-1.701-3.141-2.334
	c-0.124-0.075-0.14-0.033-0.242,0c-1.611,0.524-2.495,4.155-2.658,6.418C148.116,140.536,148.248,141.816,148.771,142.752"/>
<path fill-rule="evenodd" clip-rule="evenodd" fill="#00A55F" d="M170.352,90.761c-0.171-0.479-0.271-0.897-0.376-1.34
	c-0.197-0.829-0.358-1.833-0.569-2.758c-0.091-0.401-0.188-0.945-0.263-1.352c-0.133-0.734-0.245-1.266-0.437-1.92
	c-0.398-1.358-1.313-2.462-3.021-2.399c-2.378,0.089-5.109,1.48-5.8,3.372c-0.626,1.714-0.278,4.504,0,6.548
	c0.41,3.004,1.002,6.493,0.665,9.983c-0.153,1.583-0.605,2.992-1.027,4.344c1.09-0.521,1.758-0.846,2.599-1.254
	c0.823-0.398,1.562-0.747,2.533-1.191c-0.803-4.524-1.256-10.002-0.722-15.188c0.328-0.083,0.577-0.126,0.967-0.195
	c0.018,1.421,0.069,2.464,0.12,3.892c0.207,3.752,1.15,7.502,2.128,10.457c1.535-0.52,2.664-0.95,4.396-1.446
	c1.655-7.927,5.906-13.067,10.452-17.893c0.354,0.16,0.574,0.333,0.784,0.583c-0.194,0.38-0.397,0.673-0.604,0.973
	c-1.411,2.048-2.858,4.297-4.107,6.611c-1.431,2.652-2.855,5.709-3.454,9.061c1.194-0.225,2.571-0.508,3.816-0.697
	c3.038-0.46,6.322-0.974,9.545-1.23c0.71-0.058,1.993-0.131,1.993-0.131s1.066-0.987,1.511-1.426
	c2.935-2.895,6.033-5.424,9.424-7.78c0.427-0.297,1.143-1.166,1.752-0.454c-0.212,0.573-0.797,0.811-1.208,1.167
	c-2.023,1.754-4.143,3.656-5.98,5.705c-0.369,0.41-0.781,0.914-1.117,1.382c-0.3,0.418-0.695,0.845-1.063,1.45
	c6.746,0.069,12.218,0.693,17.769,2.041c0.517,0.127,1.725,0.479,1.725,0.479s0.818-0.76,1.232-1.14
	c2.466-2.252,4.992-3.928,7.914-5.704c0.573-0.349,1.729-0.962,1.729-0.962s0.434,0.3,0.728,0.539
	c-0.305,0.232-0.495,0.391-0.688,0.518c-3.101,2.027-6.787,4.48-8.743,7.665c0.748,0.351,1.56,0.663,2.263,0.992
	c4.848,2.274,11.069,3.54,17.217,4.538c-0.019,0.342-0.032,0.539-0.06,0.843c-7.934-0.399-15.095-2.085-21.567-4.345
	c-0.899-0.312-1.724-0.635-2.658-0.906c1.378,4.681,3.729,8.316,5.739,12.318c-0.068,0.412,0.004,0.572,0,1.037
	c-0.339,0.013-0.563-0.412-0.725-0.649c-2.879-4.239-5.988-8.659-8.337-13.55c-4.647-0.868-10.243-1.377-15.321-1.336
	c0.347,1.38,1.004,2.625,1.608,3.801c1.504,2.925,3.167,5.474,4.888,8.226c0.326,0.523,0.669,1.071,1.01,1.704
	c-0.316,0.173-0.722,0.38-0.722,0.38s-0.701-0.927-0.947-1.233c-3.084-3.855-5.974-8.396-8.457-12.836
	c-4.4,0.298-8.376,1.115-12.208,1.86c2.346,6.3,5.268,11.681,9.248,16.226c-0.085,0.386-0.367,0.558-0.544,0.844
	c-1.302-0.989-2.417-2.216-3.443-3.501c-1.033-1.293-1.981-2.664-2.899-4.084c-1.837-2.836-3.464-5.894-5.135-8.882
	c-1.989,0.439-3.932,1.102-5.9,1.75c-0.682,4.154,0.279,8.104,1.369,11.15c-0.213,0.137-1.073,0.687-1.073,0.687
	s-0.946-1.63-1.223-2.177c-1.148-2.287-1.722-5.766-1.993-8.623c-3.2,1.342-6.274,3.035-9.322,4.539
	c0.394,0.338,0.9,0.649,1.288,0.906c2.038,1.35,4.334,2.461,6.343,4.021c1.275,0.989,2.482,2.058,3.142,3.696
	c0.322,0.797,0.543,1.916,0.725,2.916c0.237,1.31,0.325,2.608,1.147,3.241c0.903,0.697,2.521,0.814,3.504,0.324
	c1.814-0.903,2.183-3.696,2.779-5.834c1.676,0.853,3.137,2.146,4.47,3.694c1.275,1.482,2.459,3.09,3.987,4.149
	c0.999,0.692,2.296,1.237,4.048,1.103c1.051-0.08,2.054-0.432,3.081-0.907c1.249-0.579,2.432-1.442,2.175-3.696
	c-0.221-1.924-1.5-3.625-1.691-5.64c-0.105-1.101,0.013-1.664,0.241-2.658c3.388-0.429,4.812,2.38,6.343,4.409
	c0.902,1.195,1.775,2.273,3.081,3.111c0.982,0.63,2.318,1.151,4.108,0.973c0.574-0.057,1.44-0.229,1.751-0.778
	c0.471-0.833-0.074-2.62-0.423-3.694c-0.397-1.229-0.979-2.42-1.087-3.373c-0.148-1.293,0.235-2.033,1.087-2.334
	c1.786-0.573,3.087,1.222,3.987,2.66c1.083,1.727,2.312,3.979,3.927,5.121c1.87,1.322,6.514,1.651,6.947-1.103
	c0.319-2.039-0.585-4.582-0.726-6.613c-0.125-1.815,0.654-3.347,2.598-3.241c0.578,0.031,1.132,0.25,1.632,0.453
	c3.075,1.262,7.569,2.674,11.961,2.01c2.106-0.317,4.034-1.494,4.531-3.564c0.201-0.842,0.267-1.996,0.06-3.112
	c-0.119-0.644-0.418-1.143-0.664-1.556c-2.144-3.604-8.491-3.373-13.532-2.723c-0.665,0.086-1.502,0.188-2.054,0
	c-0.601-0.205-1.082-0.803-1.147-1.297c-0.065-0.49,0.109-0.914,0.241-1.231c0.399-0.96,1.724-1.783,2.658-2.595
	c0.943-0.817,2.018-1.78,2.598-2.657c0.246-0.371,0.705-1.162,0.664-1.945c-0.062-1.186-1.562-2.2-2.416-2.657
	c-1.554-0.833-3.96-1.23-6.223-0.777c-2.489,0.496-5.144,2.133-7.249,3.435c-1.768,1.095-3.628,2.595-5.799,3.566
	c-0.363,0.161-0.85,0.354-0.967,0.323c-0.371-0.093-0.362-0.519-0.544-0.906c-0.173-0.371-0.389-0.6-0.423-0.973
	c-0.071-0.785,0.508-1.699,0.846-2.27c0.415-0.701,0.822-1.346,1.148-1.945c0.728-1.337,1.544-2.955,1.691-4.538
	c0.228-2.472-1.211-3.255-2.84-3.89c-1.461-0.569-3.36-0.739-5.135-0.324c-0.686,0.16-1.369,0.487-2.054,0.778
	c-1.863,0.793-3.72,1.876-5.256,3.112c-0.957,0.77-2.052,1.573-3.142,2.528c-0.931,0.818-2.444,2.104-3.506,2.299
	c-1.14,0.209-2.037,0.06-3.242-0.127c0.354-0.521,0.539-0.781,0.788-1.113c0.736-0.984,1.36-1.876,2.086-2.971
	c0.947-1.428,1.994-3.152,2.183-5.024c0.353-3.482-2.891-5.347-4.832-5.9c-0.29-0.082-1.145-0.119-1.691-0.065
	c-1.798,0.177-3.468,1.25-4.772,2.269c-2.624,2.049-4.683,4.958-5.861,8.493C171.663,87.213,170.983,89.061,170.352,90.761"/>
<path fill-rule="evenodd" clip-rule="evenodd" fill="#FFFFFF" d="M162.364,53.873h-0.182c0.131,2.26,0.348,5.407,0.348,5.407
	l0.68,2.632l1.509,6.288c0,0,0.816-1.104,1.27-1.815C164.716,61.752,163.652,58.14,162.364,53.873"/>
<path fill-rule="evenodd" clip-rule="evenodd" fill="#FFFFFF" d="M173.66,63.857c-0.363,0.557-0.481,0.778-0.846,1.426
	c1.103,0.039,1.752,0.061,2.779,0.065c1.057,0.005,3.165-0.005,3.165-0.005s1.109-0.481,1.624-0.708
	c1.434-0.631,4.333-2.01,4.333-2.01l-0.061-0.129c0,0-0.082,0.009-0.137,0.017c-1.607,0.27-3.428,0.803-5.119,1.15
	c-0.34,0.069-1.063,0.212-1.063,0.212S175.275,63.864,173.66,63.857"/>
<path fill-rule="evenodd" clip-rule="evenodd" fill="#FFFFFF" d="M161.276,120c0.236,0.697,0.35,1.527,1.39,1.361
	c0.28-0.367,0.127-1.089,0-1.556C162.189,119.738,161.458,119.511,161.276,120"/>
<path fill-rule="evenodd" clip-rule="evenodd" fill="#FFFFFF" d="M158.015,120.778c-0.221,0.465-0.589,0.979-0.121,1.491
	c0.079,0.086,1.177,0.706,1.269,0.714c0.664,0.058,0.905-0.623,0.725-1.362C159.715,120.913,158.892,120.474,158.015,120.778"/>
<path fill-rule="evenodd" clip-rule="evenodd" fill="#FFFFFF" d="M163.27,122.333c0.354,0.033,0.509-0.146,0.665-0.323
	C163.869,121.274,162.884,121.598,163.27,122.333"/>
<path fill-rule="evenodd" clip-rule="evenodd" fill="#FFFFFF" d="M161.88,122.205c-0.123-0.854-1.582-0.715-1.631-0.065
	c-0.019,0.249,0.451,0.719,0.785,0.713C161.436,122.846,161.619,122.33,161.88,122.205"/>
<path fill-rule="evenodd" clip-rule="evenodd" fill="#FFFFFF" d="M165.868,122.269c-0.37-0.109-0.444,0.352-0.303,0.583h0.303
	C165.986,122.717,165.914,122.422,165.868,122.269"/>
<path fill-rule="evenodd" clip-rule="evenodd" fill="#FFFFFF" d="M155.175,123.177c-0.152,0.848,0.076,1.297,0.725,1.426
	c0.159-0.4,0.314-1.121,0.182-1.62C155.775,122.808,155.382,123.035,155.175,123.177"/>
<path fill-rule="evenodd" clip-rule="evenodd" fill="#FFFFFF" d="M163.753,122.982c-1.819,1.414-3.716,2.841-5.678,4.344
	c-0.33,0.253-0.67,0.406-0.726,0.648c-0.183,0.791,0.796,2.039,1.208,2.594c1.504,2.021,4.275,4.556,6.947,4.797
	c0.441,0.04,0.812,0.019,1.147-0.065c0.937-0.231,1.719-0.704,2.114-1.426c0.048-0.084,0.227-0.529,0.242-0.583
	c0.129-0.444,0.177-1.098,0.181-1.621c0.018-2.075-0.702-3.931-1.57-5.381C166.723,124.79,165.314,123.418,163.753,122.982"/>
<path fill-rule="evenodd" clip-rule="evenodd" fill="#FFFFFF" d="M157.108,125.057c0.243,0.247,0.846,0.269,1.208,0.194
	c0.201-0.477,0.56-0.891,0.362-1.426c-0.155-0.422-0.975-0.752-1.269-0.648C156.877,123.365,157.194,124.281,157.108,125.057"/>
<path fill-rule="evenodd" clip-rule="evenodd" fill="#FFFFFF" d="M155.719,125.77c0.059,0.521,0.198,0.954,0.241,1.491
	c0.57-0.079,0.854-0.467,0.785-1.232C156.515,125.853,156.1,125.576,155.719,125.77"/>
<path fill-rule="evenodd" clip-rule="evenodd" fill="#FFFFFF" d="M152.154,129.4c-0.335,0.38-0.536,1.418,0,1.686
	c0.839-0.051,1.14-0.679,1.208-1.556C153.108,129.185,152.629,129.442,152.154,129.4"/>
<path fill-rule="evenodd" clip-rule="evenodd" fill="#FFFFFF" d="M154.752,132.253c0.205,0.168,0.408,0.339,0.665,0.453
	c0.789-0.412,2.248-1.056,1.208-2.334C155.433,130.166,154.563,130.773,154.752,132.253"/>
<path fill-rule="evenodd" clip-rule="evenodd" fill="#FFFFFF" d="M151.369,131.215c-0.268-0.006-0.436,0.095-0.544,0.259
	c-0.053,0.426,0.183,0.539,0.544,0.52C151.484,131.822,151.432,131.398,151.369,131.215"/>
<path fill-rule="evenodd" clip-rule="evenodd" fill="#FFFFFF" d="M152.759,131.734c0.276,0.715,1.201,1.03,1.631,0.259
	c0.032-0.294-0.121-0.387-0.182-0.583C153.654,131.173,153.046,131.337,152.759,131.734"/>
<path fill-rule="evenodd" clip-rule="evenodd" fill="#FFFFFF" d="M148.771,142.755c0.814,0.285,2.078,0.61,3.201,0.324
	c2.7-0.688,4.828-3.344,5.438-5.77c-0.125-0.33-0.456-0.517-0.725-0.714c-0.745-0.545-1.608-1.093-2.417-1.685
	c-1.066-0.782-2.087-1.701-3.142-2.334c-0.123-0.074-0.139-0.034-0.241,0c-1.611,0.523-2.495,4.154-2.658,6.418
	C148.117,140.539,148.249,141.82,148.771,142.755"/>
<path fill-rule="evenodd" clip-rule="evenodd" fill="#FFFFFF" d="M158.558,132.707c0.008,0.576-0.027,1.197,0.182,1.557
	c0.399-0.141,0.808-0.23,0.846-0.584C159.607,133.463,158.921,132.571,158.558,132.707"/>
<path fill-rule="evenodd" clip-rule="evenodd" fill="#FFFFFF" d="M156.564,135.041c0.339-0.111,0.745-0.15,1.027-0.324
	c0.005-0.654,0.023-1.322-0.121-1.815C155.904,132.566,155.547,134.263,156.564,135.041"/>
<path fill-rule="evenodd" clip-rule="evenodd" fill="#FFFFFF" d="M157.954,135.625c-0.235,0.647,0.201,1.059,0.544,1.295
	c0.411-0.182,0.449-1.045,0.362-1.555C158.494,135.383,158.227,135.506,157.954,135.625"/>
<path fill-rule="evenodd" clip-rule="evenodd" fill="#FFFFFF" d="M151.247,94.763c0,0,0.448-0.692,0.787-1.149
	c1.825-2.465,3.455-4.712,5.255-7.196c0.311-0.427,0.698-0.79,0.846-1.167c0.197-0.503,0.187-1.009,0.363-1.491
	c0.434-1.188,1.096-1.943,1.933-2.593c0.245-0.191,0.604-0.291,0.846-0.584c0.185-0.223,0.36-0.651,0.544-0.972
	c1.176-2.059,2.619-4.344,3.806-6.418c1.819-3.181,3.646-6.078,5.497-9.141c2.268-3.752,4.526-7.687,6.826-11.476
	c0.218-0.357,0.616-0.883,0.665-1.361c-1.298,1.518-2.311,3.263-3.443,4.927c-5.593,8.217-10.719,16.778-16.367,25.065
	c-1.703,2.499-2.846,3.841-4.566,6.366c-0.561,0.821-2.302,2.753-2.988,3.461L151.247,94.763z"/>
<path fill="#EF393C" d="M52.459,137.517c0.244,0.188,0.369,0.468,0.181,0.75c-0.175,0.263-0.457,0.259-0.702,0.283
	c-0.36,0.027-0.593,0.122-0.875,0.331l-2.11,1.79c-2.578,2.194-7.862,5.96-11.326,7.223c-0.376,0.139-1.122,0.445-1.497,0.156
	c-0.338-0.259-0.342-0.72-0.335-1.113c0.054-2.797,0.552-5.617,1.204-8.289c0.673-2.744,1.532-5.471,2.568-8.118
	c0.596-1.527-0.354-1.679,0.063-2.304c0.229-0.34,0.626-0.125,0.871,0.062l2.679,2.07c0.281,0.218,0.528,0.528,0.285,0.889
	c-0.148,0.222-0.481,0.21-0.704,0.16c-0.695-0.109-0.955-0.187-1.386,0.455c-0.916,1.371-1.992,5.395-2.402,7.151
	c-0.538,2.332-0.922,4.6-1.133,7.123c2.067-0.877,3.961-2.134,5.81-3.453c1.314-0.94,4.905-3.539,5.74-4.787
	c0.674-1.006-0.705-1.704-0.275-2.348c0.243-0.361,0.532-0.199,0.813,0.016L52.459,137.517z"/>
<path fill="#EF393C" d="M55.76,140.648c0.528-0.367,1.459-1.062,1.764-0.885c0.384,0.223,0.376,1.797,0.385,2.143
	c0.125,4.16-0.367,9.231-1.109,13.339l-0.4,2.812c-0.058,0.53,0.038,0.755,0.313,1.198c0.148,0.227,0.235,0.417,0.102,0.68
	c-0.253,0.5-0.709,0.207-1.054,0.004l-2.515-1.466c-0.324-0.192-0.707-0.47-0.476-0.928c0.341-0.674,1.255,0.169,1.608-0.528
	c0.209-0.414,0.628-3.47,0.712-4.151l0.067-0.498l-6.591-3.845c-0.654,0.715-2.278,2.11-2.665,2.873
	c-0.684,1.347,0.557,1.648,0.226,2.301c-0.319,0.632-1.094-0.017-1.459-0.231l-1.177-0.685c-0.364-0.213-1.384-0.639-1.064-1.271
	c0.131-0.261,0.34-0.308,0.588-0.334c0.498-0.046,0.666-0.119,1.048-0.459l1.866-1.814L55.76,140.648z M55.406,151.047l0.052-0.675
	l0.521-8.184l-6.515,5.391L55.406,151.047z"/>
<path fill="#EF393C" d="M69.228,146.302c2.39,0.987,4.38,1.914,5.81,4.338c1.504,2.559,1.533,5.304,0.545,8.052
	c-0.82,2.286-2.352,4.147-4.448,5.164c-2.377,1.112-4.489,0.797-6.833-0.173l-5.576-2.305c-0.367-0.15-0.766-0.343-0.584-0.852
	c0.132-0.369,0.423-0.354,0.738-0.332c0.916,0.061,0.918-0.15,1.241-1.051l4.61-12.844c0.124-0.346-0.26-0.584-0.506-0.793
	c-0.261-0.24-0.516-0.427-0.375-0.82c0.175-0.483,0.601-0.358,0.944-0.219L69.228,146.302z M62.639,158.329
	c-0.853,2.377-1.1,2.86,1.331,3.864c4.197,1.738,7.777,0.164,9.41-4.389c0.714-1.985,0.932-4.387,0.083-6.356
	c-0.829-1.96-2.741-3.175-4.528-3.914c-1.959-0.81-2.284-0.388-2.963,1.508L62.639,158.329z"/>
<path fill="#EF393C" d="M84.385,152.93c0.427-0.5,1.168-1.422,1.504-1.33c0.425,0.114,0.78,1.642,0.869,1.972
	c1.083,4,1.777,9.045,2.007,13.223l0.264,2.83c0.066,0.529,0.211,0.722,0.579,1.078c0.196,0.18,0.324,0.343,0.258,0.631
	c-0.131,0.553-0.64,0.39-1.022,0.285l-2.774-0.752c-0.359-0.099-0.795-0.269-0.677-0.77c0.176-0.747,1.255-0.174,1.435-0.941
	c0.108-0.455-0.192-3.525-0.27-4.213l-0.049-0.5l-7.275-1.97c-0.467,0.869-1.721,2.649-1.918,3.492
	c-0.35,1.489,0.921,1.45,0.752,2.17c-0.164,0.697-1.065,0.274-1.468,0.165l-1.298-0.352c-0.403-0.107-1.49-0.252-1.325-0.946
	c0.067-0.289,0.258-0.39,0.493-0.479c0.471-0.18,0.617-0.296,0.91-0.725l1.388-2.258L84.385,152.93z M86.445,163.097l-0.104-0.666
	l-1.388-8.07l-5.067,6.961L86.445,163.097z M85.595,150.115c-0.191,0.102-0.538,0.365-0.785,0.299
	c-0.201-0.055-0.346-0.248-0.295-0.465c0.057-0.238,0.242-0.418,0.376-0.588l1.628-1.858c0.073-0.106,0.321-0.45,0.472-0.485
	c0.18-0.054,0.879,0.11,1.035,0.153l0.868,0.16c0.201,0.053,0.369,0.149,0.307,0.413c-0.057,0.24-0.51,0.451-0.678,0.556
	L85.595,150.115z"/>
<path fill="#EF393C" d="M100.152,162.874c1.037,0.437,2.31,1.037,3.1,1.909c0.927,1.07,1.316,2.506,1.125,3.926
	c-0.22,1.617-1.179,3.021-2.456,3.85c-1.454,0.924-3.105,1.065-4.749,0.81c-1.484-0.231-2.972-0.786-4.056-1.907
	c-0.713-0.761-1.698-2.267-1.543-3.418c0.053-0.392,0.311-0.752,0.723-0.688c0.388,0.061,0.55,0.414,0.687,0.785
	c0.357,0.979,0.69,1.781,1.457,2.502c0.889,0.838,2.014,1.313,3.178,1.496c2.123,0.327,4.576-0.565,4.924-3.14
	c0.702-5.192-9.982-3.429-9.095-9.998c0.2-1.468,1.044-2.714,2.219-3.479c1.31-0.898,2.75-1.025,4.28-0.786
	c1.393,0.216,2.961,0.858,4.04,1.853c0.228,0.213,0.367,0.385,0.419,0.691c0.029,0.306-0.08,1.115-0.123,1.435
	c-0.037,0.267-0.071,0.863-0.482,0.798c-0.64-0.098-1.123-3.076-4.594-3.615c-1.621-0.252-3.42,0.645-3.673,2.505
	c-0.268,1.985,1.092,2.974,2.611,3.633L100.152,162.874z"/>
<path fill="#EF393C" d="M116.997,156.732c0.552,0.033,1.083,0.041,1.044,0.781c-0.084,1.607-4.696,7.629-5.859,9.12l-2.806,3.7
	c-0.274,0.379-1.382,1.727-1.41,2.245c-0.026,0.494,0.346,0.467,0.737,0.491l2.81,0.169c1.774,0.106,3.503,0.161,4.889-1.171
	c0.219-0.209,0.662-0.728,1.008-0.705c0.206,0.014,0.315,0.167,0.303,0.39c-0.03,0.593-0.293,2.063-0.438,2.626
	c-0.142,0.487-0.487,0.49-0.879,0.467l-9.673-0.58c-0.553-0.035-1.403-0.136-1.36-0.951c0.044-0.84,0.564-1.502,0.991-2.17
	l1.644-2.281l5.731-7.516c0.372-0.498,1.769-2.474,1.799-3.039c0.024-0.472-0.599-0.462-0.876-0.478l-2.072-0.124
	c-0.808-0.049-1.64-0.049-2.431,0.076c-1.025,0.162-1.59,0.351-2.301,1.15c-0.148,0.164-0.327,0.479-0.58,0.461
	c-0.506-0.03-0.359-0.641-0.319-0.959c0.069-0.418,0.187-1.799,0.385-2.061c0.199-0.262,0.634-0.186,0.887-0.171L116.997,156.732z"
	/>
<path fill="#EF393C" d="M122.873,173.089c0.014,0.396,0.453,0.43,0.758,0.539c0.305,0.111,0.606,0.173,0.622,0.594
	c0.02,0.545-0.441,0.588-0.81,0.605l-3.182,0.13c-0.393,0.017-0.832,0.01-0.852-0.535c-0.015-0.397,0.26-0.507,0.578-0.619
	c0.89-0.31,0.814-0.528,0.779-1.496l-0.492-13.762c-0.013-0.371-0.456-0.452-0.757-0.513c-0.351-0.11-0.676-0.172-0.692-0.617
	c-0.019-0.521,0.418-0.564,0.788-0.579l3.16-0.128c0.369-0.018,0.831-0.01,0.849,0.507c0.016,0.423-0.237,0.483-0.532,0.646
	c-0.816,0.402-0.722,0.449-0.709,1.49l0.259,7.202l3.779-4.144l2.015-2.416c0.309-0.409,1-1.156,0.979-1.728
	c-0.033-0.915-1.239-0.419-1.27-1.308c-0.021-0.473,0.397-0.491,0.72-0.501l3.391-0.14c0.346-0.015,0.874-0.086,0.892,0.434
	c0.015,0.369-0.234,0.529-0.505,0.665c-0.952,0.534-1.26,0.967-1.921,1.887l-3.648,4.517l0.599,0.617
	c1.897,2.029,4.024,4.62,5.271,7.197c0.349,0.729,0.574,1.24,1.323,1.507c0.351,0.134,0.677,0.222,0.694,0.691
	c0.019,0.47-0.444,0.537-0.789,0.552l-2.999,0.124c-0.367,0.015-1.081,0.068-1.104-0.524c-0.021-0.645,0.908-0.483,0.882-1.227
	c-0.051-1.411-4.086-6.329-5.28-7.443l-2.961,3.121L122.873,173.089z"/>
<path fill="#EF393C" d="M140.064,156.507c0.22-0.633,0.576-1.789,0.92-1.842c0.434-0.068,1.303,1.198,1.502,1.47
	c2.418,3.255,4.846,7.634,6.538,11.399l1.247,2.512c0.247,0.463,0.449,0.58,0.917,0.758c0.245,0.091,0.422,0.185,0.46,0.482
	c0.075,0.562-0.452,0.618-0.842,0.678l-2.832,0.439c-0.364,0.055-0.828,0.078-0.898-0.439c-0.102-0.76,1.1-0.672,0.995-1.452
	c-0.063-0.466-1.43-3.183-1.742-3.786l-0.222-0.441l-7.426,1.146c-0.123,0.994-0.648,3.152-0.535,4.009
	c0.206,1.521,1.365,0.965,1.465,1.702c0.096,0.71-0.889,0.686-1.299,0.75l-1.325,0.206c-0.411,0.063-1.464,0.375-1.56-0.336
	c-0.041-0.294,0.101-0.468,0.286-0.644c0.372-0.359,0.467-0.524,0.584-1.043l0.484-2.65L140.064,156.507z M145.57,165.066
	l-0.331-0.574l-4.144-6.89l-2.218,8.497L145.57,165.066z"/>
<path fill="#EF393C" d="M161.639,157.337l0.773-6.119c0.039-0.5,0.058-1.096,0.57-1.243l2.872-0.836
	c0.377-0.109,0.636-0.132,0.773,0.419c0.09,0.357-0.218,0.55-0.471,0.697c-0.699,0.435-0.82,0.625-0.597,1.509l3.388,13.426
	c0.096,0.382,0.627,0.306,0.96,0.312c0.359-0.004,0.705-0.052,0.82,0.4c0.132,0.528-0.283,0.674-0.662,0.783l-3.005,0.873
	c-0.358,0.104-0.792,0.181-0.918-0.323c-0.098-0.382,0.107-0.519,0.368-0.723c0.715-0.566,0.514-0.608,0.266-1.589l-3.158-12.518
	l-1.179,8.957l-0.737,4.188c-0.061,0.328-0.18,1.181-0.557,1.293c-0.357,0.102-0.644-0.277-0.849-0.523l-3.763-4.779l-3.643-5.147
	l-0.743-1.067l3.44,13.644c0.176,0.411,0.592,0.366,0.986,0.407c0.364,0.021,0.768,0.009,0.881,0.461
	c0.09,0.357-0.191,0.568-0.482,0.651l-2.67,0.777c-0.4,0.114-0.801,0.233-0.936-0.292c-0.095-0.385,0.125-0.549,0.386-0.753
	c0.617-0.488,0.587-0.606,0.391-1.396l-3.329-13.187c-0.355-1.409-1.604-0.201-1.816-1.038c-0.095-0.38,0.134-0.601,0.469-0.699
	l2.963-0.858c0.548-0.188,0.942,0.619,1.231,1l6.89,9.51L161.639,157.337z"/>
<path fill="#EF393C" d="M172.559,147.457c0.064-0.67,0.146-1.885,0.465-2.027c0.404-0.18,1.538,0.814,1.794,1.024
	c3.09,2.509,6.449,6.101,8.959,9.298l1.782,2.099c0.347,0.381,0.571,0.442,1.064,0.491c0.257,0.017,0.451,0.067,0.557,0.34
	c0.205,0.525-0.295,0.722-0.657,0.883l-2.642,1.175c-0.34,0.153-0.783,0.294-0.97-0.185c-0.272-0.707,0.911-0.939,0.626-1.67
	c-0.166-0.435-2.116-2.705-2.56-3.201l-0.315-0.368l-6.921,3.081c0.109,0.995,0.099,3.224,0.406,4.023
	c0.549,1.418,1.545,0.571,1.809,1.258c0.257,0.662-0.7,0.902-1.082,1.072l-1.237,0.549c-0.383,0.17-1.329,0.752-1.586,0.092
	c-0.105-0.276-0.011-0.481,0.129-0.703c0.277-0.445,0.33-0.628,0.326-1.161l-0.146-2.692L172.559,147.457z M179.863,154.279
	l-0.454-0.466l-5.599-5.574l-0.188,8.813L179.863,154.279z"/>
<path fill="#EF393C" d="M190.944,155.065c0.172,0.321,0.554,0.144,0.872,0.091c0.33-0.029,0.612-0.146,0.82,0.24
	c0.252,0.472-0.151,0.719-0.49,0.929l-2.686,1.646c-0.321,0.195-0.733,0.42-0.973-0.033c-0.196-0.367,0.01-0.577,0.214-0.846
	c0.624-0.722,0.462-0.823,0.027-1.695l-6.349-11.941c-0.185-0.343-0.619-0.162-0.926-0.088c-0.346,0.098-0.661,0.205-0.867-0.182
	c-0.251-0.473,0.117-0.73,0.458-0.938l6.233-3.816c1.063-0.65,2.143-1.169,3.385-1.077c1.287,0.07,2.398,0.757,3.028,1.941
	c1.144,2.149,0.187,4.447-1.035,6.25c2.256,0.842,4.23,2.256,6.167,3.752c0.636,0.494,0.937,0.709,1.718,0.629
	c0.299-0.039,0.613-0.147,0.797,0.199c0.229,0.43-0.175,0.674-0.453,0.846l-2.969,1.817c-0.299,0.185-0.799,0.492-1.041,0.04
	c-0.354-0.666,0.795-1.056,0.369-1.852c-0.629-1.184-4.747-3.337-6.177-3.773l-2.915,2.612L190.944,155.065z M187.56,148.695
	c1.949-1.678,5.904-4.729,4.225-7.893c-1.291-2.43-3.911-1.256-5.652-0.186c-0.462,0.281-1.444,0.883-1.656,1.385
	c-0.233,0.51,0.108,1.104,0.348,1.554L187.56,148.695z"/>
<path fill="#EF393C" d="M198.108,132.218c-0.101-0.666-0.318-1.861-0.045-2.09c0.348-0.287,1.686,0.358,1.98,0.488
	c3.596,1.562,7.712,4.096,10.912,6.484l2.232,1.528c0.427,0.274,0.658,0.271,1.146,0.179c0.256-0.054,0.454-0.061,0.622,0.174
	c0.323,0.453-0.111,0.781-0.423,1.037l-2.266,1.873c-0.293,0.242-0.688,0.504-0.982,0.091c-0.437-0.606,0.651-1.16,0.202-1.79
	c-0.27-0.371-2.701-2.019-3.251-2.377l-0.394-0.269l-5.941,4.91c0.348,0.931,0.875,3.087,1.368,3.774
	c0.872,1.217,1.631,0.121,2.052,0.709c0.409,0.57-0.458,1.065-0.787,1.34l-1.06,0.874c-0.328,0.274-1.104,1.1-1.512,0.53
	c-0.169-0.234-0.128-0.457-0.046-0.711c0.16-0.506,0.167-0.701,0.031-1.215l-0.791-2.562L198.108,132.218z M206.818,136.769
	l-0.555-0.324l-6.758-3.82l1.955,8.57L206.818,136.769z"/>
<path fill="#EF393C" d="M23.894,83.347c-2.27,0.776-4.494,0.367-6.614-0.731c-4.384-2.272-6.607-7.243-4.41-12.127
	c0.992-2.208,2.725-3.895,4.914-4.658c2.26-0.81,4.587-0.402,6.706,0.696c4.467,2.314,6.33,7.457,4.144,12.319
	C27.672,80.987,26.02,82.606,23.894,83.347 M27.417,72.552c-0.827-1.638-2.288-2.889-3.846-3.697
	c-1.621-0.84-3.641-1.418-5.433-1.08c-1.79,0.336-3.375,1.523-4.167,3.284c-0.843,1.873-0.578,3.963,0.436,5.697
	c0.897,1.593,2.316,2.768,3.875,3.575c1.6,0.827,3.412,1.3,5.214,0.995c1.771-0.292,3.305-1.367,4.108-3.152
	C28.416,76.369,28.286,74.322,27.417,72.552"/>
<path fill="#EF393C" d="M34.196,64.47c0.273,0.228,0.565-0.095,0.84-0.272c0.292-0.164,0.511-0.388,0.842-0.115
	c0.4,0.333,0.118,0.725-0.122,1.057l-1.894,2.624c-0.225,0.313-0.526,0.69-0.91,0.371c-0.309-0.258-0.195-0.538-0.102-0.868
	c0.317-0.927,0.134-0.954-0.581-1.58l-10.125-8.415c-0.292-0.242-0.63,0.104-0.887,0.297c-0.284,0.234-0.536,0.462-0.864,0.19
	c-0.403-0.334-0.152-0.721,0.089-1.053l4.393-6.09c0.749-1.037,1.561-1.961,2.744-2.386c1.21-0.465,2.482-0.285,3.485,0.548
	c1.824,1.515,1.76,4.033,1.276,6.198c2.384-0.149,4.713,0.345,7.034,0.929c0.764,0.195,1.118,0.27,1.812-0.125
	c0.259-0.157,0.513-0.387,0.805-0.145c0.365,0.304,0.082,0.695-0.115,0.969l-2.092,2.898c-0.211,0.294-0.565,0.782-0.948,0.464
	c-0.565-0.47,0.356-1.302-0.319-1.862c-1.002-0.835-5.577-1.129-7.053-0.945l-1.759,3.611L34.196,64.47z M28.796,59.981
	c1.203-2.352,3.767-6.796,1.086-9.025c-2.061-1.713-4.059,0.448-5.288,2.15c-0.325,0.451-1.016,1.41-1.035,1.96
	c-0.031,0.569,0.494,0.974,0.878,1.292L28.796,59.981z"/>
<path fill="#EF393C" d="M42.52,41.604c0.97-0.588,2.205-1.269,3.335-1.376c1.359-0.096,2.644,0.487,3.549,1.543
	c1.032,1.202,1.44,2.886,1.232,4.471c-0.249,1.794-1.188,3.259-2.411,4.466c-1.103,1.09-2.443,1.978-3.937,2.172
	c-1.001,0.114-2.71-0.014-3.445-0.871c-0.249-0.292-0.347-0.735-0.041-1.036c0.288-0.284,0.644-0.199,0.999-0.079
	c0.934,0.323,1.726,0.551,2.729,0.369c1.167-0.212,2.221-0.848,3.087-1.702c1.579-1.561,2.479-4.166,0.84-6.079
	c-3.313-3.864-8.779,6.144-12.966,1.261c-0.938-1.094-1.305-2.582-1.117-4.045c0.179-1.657,0.996-2.936,2.133-4.059
	c1.036-1.023,2.492-1.922,3.889-2.193c0.297-0.056,0.51-0.063,0.765,0.087c0.238,0.169,0.754,0.769,0.958,1.006
	c0.171,0.202,0.579,0.606,0.274,0.906c-0.475,0.471-2.933-1.006-5.514,1.543c-1.205,1.19-1.693,3.254-0.506,4.638
	c1.266,1.476,2.837,0.968,4.273,0.121L42.52,41.604z"/>
<path fill="#EF393C" d="M53.451,23.123c0.457-0.335,0.881-0.677,1.272-0.064c0.846,1.328,0.616,9.115,0.541,11.06l-0.118,4.765
	c-0.001,0.481-0.114,2.274,0.158,2.702c0.261,0.408,0.54,0.144,0.864-0.094l2.321-1.705c1.465-1.076,2.867-2.165,3.209-4.127
	c0.054-0.308,0.11-1.01,0.396-1.22c0.171-0.126,0.345-0.073,0.462,0.111c0.312,0.49,0.941,1.827,1.146,2.366
	c0.166,0.479-0.107,0.709-0.431,0.947l-7.993,5.871c-0.456,0.335-1.186,0.812-1.617,0.138c-0.442-0.694-0.407-1.56-0.449-2.369
	l0.006-2.884l0.267-9.703c0.011-0.639-0.004-3.117-0.304-3.585c-0.247-0.39-0.734,0.03-0.963,0.197l-1.713,1.257
	c-0.666,0.491-1.325,1.034-1.881,1.653c-0.72,0.799-1.06,1.318-1.168,2.417c-0.024,0.227,0.013,0.591-0.197,0.745
	c-0.417,0.307-0.649-0.273-0.799-0.553c-0.183-0.376-0.875-1.548-0.866-1.883c0.009-0.336,0.397-0.562,0.606-0.715L53.451,23.123z"
	/>
<path fill="#EF393C" d="M63.776,14.879c-0.084,0.209-0.193,0.649-0.42,0.77c-0.187,0.098-0.415,0.05-0.505-0.151
	c-0.101-0.222-0.066-0.488-0.064-0.71l0.132-2.546c-0.009-0.133-0.024-0.566,0.069-0.697c0.106-0.165,0.739-0.523,0.885-0.598
	l0.759-0.477c0.186-0.097,0.373-0.139,0.483,0.105c0.101,0.223-0.12,0.697-0.185,0.896L63.776,14.879z M64.538,17.87
	c0.028-0.678,0.042-1.895,0.353-2.057c0.395-0.206,1.583,0.718,1.848,0.91c3.225,2.313,6.781,5.693,9.462,8.729l1.897,1.986
	c0.367,0.36,0.594,0.407,1.09,0.424c0.258,0.003,0.453,0.04,0.574,0.307c0.232,0.513-0.256,0.74-0.609,0.922l-2.575,1.341
	c-0.332,0.172-0.768,0.344-0.979-0.123c-0.312-0.692,0.858-0.998,0.535-1.711c-0.192-0.423-2.263-2.566-2.732-3.038l-0.337-0.347
	l-6.749,3.513c0.164,0.988,0.272,3.215,0.626,3.997c0.624,1.381,1.574,0.474,1.875,1.142c0.293,0.647-0.65,0.945-1.024,1.139
	l-1.204,0.627c-0.373,0.195-1.29,0.837-1.582,0.191c-0.121-0.268-0.034-0.478,0.091-0.709c0.253-0.461,0.296-0.649,0.26-1.182
	l-0.289-2.683L64.538,17.87z M72.209,24.227l-0.481-0.438l-5.896-5.217l0.292,8.822L72.209,24.227z"/>
<path fill="#EF393C" d="M90.815,15.475c0.485-0.163,1.534-0.462,1.988-0.485c0.284-0.018,0.408,0.07,0.496,0.378l0.108,0.534
	l0.58,2.738c0.2,0.686,0.443,1.356,0.768,1.973c0.057,0.112,0.134,0.293,0.162,0.388c0.227,0.78-1.137,2.068-1.635,2.52
	c-1.275,1.103-2.434,1.856-4.021,2.388c-2.18,0.732-4.584,0.864-6.741-0.151c-2.246-1.063-3.799-3.162-4.522-5.644
	c-1.536-5.271,1.147-10.583,6.014-12.218c1.432-0.479,3.509-0.735,5.007-0.408c1.345,0.301,1.378,0.913,1.807,2.299
	c0.118,0.324,0.484,1.163-0.045,1.339c-0.264,0.09-0.48-0.151-0.658-0.35c-0.642-0.796-1.355-1.491-2.312-1.793
	c-1.111-0.328-2.413-0.228-3.492,0.135c-4.14,1.389-5.225,6.295-4.048,10.336c0.559,1.915,1.61,3.533,3.22,4.578
	c1.639,1.057,3.657,1.262,5.485,0.649c1.036-0.348,2.413-1.095,3.044-2.086c0.728-1.153,0.352-2.609-0.007-3.838
	c-0.558-1.915-0.878-2.014-2.666-1.518c-0.331,0.111-0.918,0.256-1.253,0.265c-0.248-0.021-0.369-0.187-0.439-0.423
	c-0.061-0.214,0.008-0.392,0.163-0.523c0.258-0.19,1.213-0.485,1.499-0.582L90.815,15.475z"/>
<path fill="#EF393C" d="M99.736,20.244c-1.868-1.588-2.793-3.797-3.128-6.298c-0.693-5.171,1.911-9.926,6.913-10.699
	c2.262-0.348,4.533,0.252,6.346,1.774c1.887,1.561,2.871,3.859,3.206,6.36c0.706,5.271-2.23,9.802-7.21,10.57
	C103.67,22.29,101.495,21.725,99.736,20.244 M110.05,17.353c0.803-1.65,0.957-3.651,0.71-5.49c-0.256-1.911-0.937-4.033-2.198-5.44
	c-1.26-1.407-3.062-2.154-4.866-1.877c-1.92,0.297-3.387,1.698-4.163,3.57c-0.73,1.689-0.845,3.608-0.599,5.446
	c0.254,1.888,0.901,3.765,2.141,5.199c1.216,1.415,2.904,2.18,4.732,1.898C107.655,20.374,109.167,19.114,110.05,17.353"/>
<path fill="#EF393C" d="M124.151,9.75c1.084,0.273,2.422,0.669,3.323,1.413c1.062,0.916,1.638,2.278,1.634,3.715
	c0.002,1.635-0.76,3.171-1.916,4.186c-1.314,1.138-2.931,1.534-4.592,1.533c-1.5-0.001-3.046-0.325-4.269-1.265
	c-0.808-0.645-1.984-1.983-1.983-3.147c0-0.396,0.208-0.792,0.623-0.792c0.392-0.001,0.6,0.322,0.785,0.669
	c0.484,0.917,0.922,1.66,1.776,2.255c0.992,0.692,2.168,0.992,3.346,0.993c2.146,0,4.454-1.262,4.455-3.863
	c0.004-5.25-10.338-1.863-10.334-8.5c0.001-1.486,0.67-2.848,1.733-3.789c1.177-1.088,2.585-1.434,4.131-1.434
	c1.409,0.001,3.047,0.398,4.247,1.216c0.254,0.174,0.413,0.322,0.508,0.619c0.069,0.297,0.066,1.116,0.066,1.437
	c0.002,0.272,0.045,0.867-0.367,0.867c-0.647-0.001-1.524-2.874-5.032-2.876c-1.638-0.002-3.3,1.162-3.3,3.044
	c-0.002,2.007,1.474,2.776,3.067,3.197L124.151,9.75z"/>
<path fill="#EF393C" d="M154.462,12.903l3.368-5.01c0.258-0.418,0.534-0.935,1.052-0.807l2.898,0.715
	c0.382,0.095,0.618,0.205,0.501,0.76c-0.079,0.361-0.437,0.375-0.723,0.381c-0.809,0.027-0.999,0.133-1.19,1.025l-2.906,13.556
	c-0.082,0.387,0.419,0.586,0.715,0.761c0.314,0.179,0.64,0.31,0.542,0.768c-0.112,0.532-0.545,0.45-0.927,0.356l-3.034-0.75
	c-0.36-0.088-0.776-0.242-0.668-0.749c0.084-0.385,0.323-0.402,0.642-0.45c0.88-0.139,0.723-0.28,0.933-1.268l2.713-12.64
	l-4.976,7.306l-2.488,3.322c-0.195,0.256-0.677,0.95-1.06,0.855c-0.358-0.088-0.443-0.568-0.518-0.89l-1.22-6.116l-0.953-6.382
	l-0.189-1.317l-2.952,13.772c-0.027,0.451,0.36,0.623,0.69,0.858c0.312,0.203,0.673,0.394,0.574,0.852
	c-0.078,0.362-0.418,0.405-0.708,0.332l-2.7-0.665c-0.404-0.1-0.808-0.2-0.694-0.731c0.084-0.386,0.352-0.422,0.668-0.469
	c0.76-0.118,0.786-0.239,0.955-1.034l2.857-13.314c0.305-1.423-1.328-0.987-1.147-1.832c0.084-0.386,0.384-0.464,0.722-0.381
	l2.99,0.738c0.566,0.115,0.56,1.027,0.646,1.505l1.901,11.874L154.462,12.903z"/>
<path fill="#EF393C" d="M172.413,13.341c0.491-0.425,1.35-1.222,1.671-1.079c0.404,0.18,0.546,1.747,0.589,2.088
	c0.525,4.125,0.522,9.222,0.183,13.389l-0.127,2.841c-0.007,0.534,0.109,0.747,0.426,1.155c0.169,0.21,0.273,0.391,0.167,0.666
	c-0.202,0.526-0.685,0.284-1.048,0.122l-2.642-1.18c-0.343-0.153-0.749-0.388-0.563-0.869c0.277-0.709,1.264,0.028,1.548-0.704
	c0.168-0.434,0.29-3.52,0.31-4.208l0.017-0.501l-6.926-3.093c-0.58,0.785-2.06,2.351-2.372,3.151
	c-0.549,1.417,0.713,1.58,0.447,2.266c-0.258,0.663-1.09,0.104-1.475-0.068l-1.235-0.552c-0.383-0.171-1.438-0.482-1.18-1.145
	c0.105-0.274,0.309-0.345,0.553-0.397c0.49-0.103,0.649-0.192,0.997-0.573l1.682-2.013L172.413,13.341z M173.062,23.72l-0.013-0.678
	l-0.27-8.196l-5.962,6.083L173.062,23.72z"/>
<path fill="#EF393C" d="M192.58,33.725c0.429,0.291,1.325,0.95,1.637,1.304c0.196,0.222,0.214,0.379,0.055,0.652l-0.308,0.435
	l-1.562,2.254c-0.355,0.61-0.671,1.244-0.897,1.912c-0.041,0.118-0.12,0.298-0.17,0.382c-0.402,0.693-2.204,0.418-2.848,0.307
	c-1.611-0.322-2.896-0.777-4.306-1.724c-1.935-1.303-3.593-3.176-4.277-5.596c-0.706-2.521-0.232-5.154,1.054-7.359
	c2.73-4.681,8.238-5.948,12.562-3.043c1.272,0.856,2.804,2.383,3.549,3.818c0.661,1.292,0.247,1.717-0.456,2.969
	c-0.151,0.307-0.506,1.149-0.977,0.834c-0.234-0.159-0.205-0.489-0.18-0.765c0.146-1.042,0.175-2.073-0.235-3.051
	c-0.491-1.119-1.406-2.116-2.364-2.759c-3.679-2.472-7.857-0.167-9.953,3.423c-0.991,1.7-1.452,3.611-1.146,5.603
	c0.317,2.024,1.483,3.802,3.108,4.895c0.919,0.618,2.345,1.255,3.456,1.124c1.289-0.156,2.077-1.41,2.712-2.502
	c0.993-1.699,0.856-2.026-0.659-3.162c-0.294-0.197-0.778-0.582-1.002-0.848c-0.146-0.216-0.107-0.425,0.016-0.634
	c0.111-0.188,0.283-0.25,0.477-0.207c0.301,0.087,1.131,0.674,1.384,0.844L192.58,33.725z"/>
<path fill="#EF393C" d="M213.815,41.172c0.239,0.232,0.667,0.683,0.405,0.995c-0.187,0.22-0.397,0.214-0.663,0.157
	c-0.577-0.127-0.645-0.157-1.268,0.103c-1.493,0.624-3.026,1.004-4.646,1.371c-1.696,0.387-3.396,0.707-5.13,1.028l-3.455,4.093
	c-0.232,0.276,0.031,0.665,0.194,0.955c0.192,0.322,0.368,0.593,0.09,0.923c-0.34,0.404-0.68,0.108-0.954-0.159l-2.343-2.277
	c-0.291-0.283-0.603-0.616-0.262-1.02c0.25-0.294,0.498-0.185,0.781-0.041c0.836,0.375,0.895,0.197,1.497-0.519l2.943-3.488
	c0.428-3.46,0.609-6.923,1.354-10.243c0.138-0.603,0.173-0.902-0.065-1.469c-0.131-0.326-0.296-0.719-0.048-1.013
	c0.263-0.313,0.568-0.083,0.825,0.166l2.532,2.46c0.274,0.265,0.548,0.566,0.253,0.916c-0.402,0.477-1.146-0.412-1.549,0.064
	c-0.449,0.532-0.726,3.002-0.787,3.811c-0.13,1.78-0.39,3.563-0.569,5.326c1.847-0.343,3.61-0.701,5.388-1.111
	c0.695-0.16,2.281-0.525,2.715-1.039c0.695-0.826-0.478-1.464,0.032-2.07c0.28-0.331,0.625,0.036,0.812,0.218L213.815,41.172z"/>
<path fill="#EF393C" d="M219.144,49.78c0.62-0.115,1.734-0.359,1.946-0.068c0.271,0.37-0.317,1.812-0.433,2.132
	c-1.423,3.875-3.743,8.322-5.94,11.78l-1.402,2.412c-0.247,0.462-0.242,0.71-0.152,1.234c0.052,0.27,0.06,0.484-0.158,0.666
	c-0.417,0.353-0.726-0.109-0.97-0.442l-1.767-2.415c-0.23-0.312-0.479-0.731-0.098-1.053c0.563-0.474,1.09,0.688,1.671,0.198
	c0.346-0.291,1.855-2.92,2.187-3.513l0.243-0.427l-4.636-6.33c-0.865,0.382-2.871,0.972-3.505,1.508
	c-1.125,0.948-0.097,1.751-0.644,2.211c-0.523,0.444-0.997-0.481-1.253-0.833l-0.827-1.13c-0.258-0.35-1.037-1.174-0.511-1.618
	c0.218-0.184,0.427-0.139,0.664-0.055c0.476,0.166,0.655,0.173,1.133,0.022l2.382-0.875L219.144,49.78z M214.987,59.177l0.296-0.597
	l3.496-7.295l-7.971,2.184L214.987,59.177z"/>
<path fill="#EF393C" d="M216.377,72.246c-0.308,0.167-0.163,0.587-0.131,0.931c0.012,0.355,0.105,0.663-0.265,0.864
	c-0.454,0.246-0.662-0.197-0.839-0.572l-1.392-2.962c-0.165-0.354-0.354-0.807,0.078-1.042c0.352-0.189,0.539,0.042,0.775,0.274
	c0.641,0.706,0.747,0.54,1.58,0.115l11.436-6.189c0.328-0.178,0.183-0.652,0.131-0.986c-0.075-0.375-0.158-0.718,0.212-0.919
	c0.455-0.245,0.673,0.164,0.848,0.539l3.232,6.876c0.552,1.173,0.978,2.356,0.826,3.686c-0.127,1.373-0.826,2.527-1.96,3.14
	c-2.059,1.116-4.148-0.028-5.762-1.429c-0.901,2.373-2.318,4.417-3.809,6.416c-0.494,0.655-0.709,0.965-0.677,1.807
	c0.023,0.321,0.107,0.664-0.222,0.843c-0.414,0.224-0.622-0.219-0.768-0.529l-1.538-3.272c-0.154-0.332-0.415-0.885,0.02-1.119
	c0.637-0.345,0.94,0.905,1.704,0.493c1.132-0.614,3.349-4.92,3.826-6.427l-2.28-3.259L216.377,72.246z M222.476,68.944
	c1.462,2.177,4.097,6.575,7.127,4.936c2.327-1.26,1.368-4.126,0.465-6.05c-0.24-0.507-0.748-1.592-1.203-1.844
	c-0.464-0.275-1.031,0.06-1.465,0.294L222.476,68.944z"/>
<path fill="#231F20" d="M122.932,147.931l-0.571-0.19c-4.512-1.498-11.329-3.761-17.201-8.075
	c-7.122-5.231-10.733-12.056-10.733-20.281V72.048h57.021v47.32c0,8.228-3.611,15.054-10.731,20.289
	c-5.87,4.315-12.688,6.581-17.199,8.08L122.932,147.931z M95.306,72.991v46.394c0,18.386,18.449,24.512,27.315,27.457l0.311,0.103
	l0.326-0.108c8.864-2.945,27.311-9.076,27.311-27.468V72.991H95.306z"/>
<rect x="122.493" y="72.52" fill="#231F20" width="0.878" height="74.917"/>
<rect x="94.867" y="81.067" fill="#231F20" width="28.066" height="0.943"/>
<rect x="94.867" y="90.635" fill="#231F20" width="28.066" height="0.943"/>
<rect x="94.867" y="99.98" fill="#231F20" width="28.066" height="0.942"/>
<rect x="94.867" y="109.57" fill="#231F20" width="28.066" height="0.942"/>
<rect x="94.867" y="118.914" fill="#231F20" width="28.066" height="0.943"/>
<rect x="96.854" y="128.548" fill="#231F20" width="26.078" height="0.943"/>
<rect x="104.358" y="137.969" fill="#231F20" width="18.574" height="0.943"/>
<path fill="#231F20" d="M134.045,115.428V104.83h-8.518v-6.985h8.518v-6.267h-6.403v-7.03h6.403v-7.682h6.488v7.682h6.342v7.03
	h-6.342v6.267h8.456v6.985h-8.456v10.466l-3.238-4.058L134.045,115.428z M126.406,103.886h8.518v8.934l2.361-3.043l2.369,2.967
	v-8.857h8.455v-5.1h-8.455v-8.151h6.342V85.49h-6.342v-7.681h-4.73v7.681h-6.403v5.145h6.403v8.151h-8.518V103.886z"/>
<path fill="#231F20" d="M129.589,125.126l-0.416-0.297c-0.881-0.631-1.911-0.965-2.98-0.965c-1.06,0-2.085,0.332-2.968,0.959
	l-0.555-0.898c1.047-0.744,2.266-1.139,3.522-1.139c1.107,0,2.181,0.303,3.131,0.877c1.529-2.002,4.586-3.272,7.967-3.272
	c3.332,0,6.372,1.247,7.917,3.211c0.925-0.535,1.961-0.815,3.023-0.815c0.899,0,1.771,0.198,2.587,0.59l-0.407,0.983
	c-0.688-0.328-1.421-0.495-2.18-0.495c-1.026,0-2.022,0.311-2.882,0.896l-0.405,0.275l-0.274-0.422
	c-1.25-1.91-4.146-3.146-7.379-3.146c-3.233,0-6.216,1.291-7.422,3.213L129.589,125.126z"/>
<polygon fill="#231F20" points="130.596,122.889 127.499,111.005 133.186,115.052 137.285,109.777 141.497,115.053 146.992,111.099 
	143.96,122.854 143.113,122.602 145.513,113.3 142.143,115.724 140.835,115.673 137.294,111.238 133.863,115.654 132.539,115.723 
	128.981,113.193 131.442,122.635 "/>
<path fill="#231F20" d="M133.271,118.302c-1.057,0-1.884-0.71-1.884-1.617c0-0.906,0.827-1.617,1.884-1.617
	c1.056,0,1.884,0.711,1.884,1.617C135.155,117.592,134.327,118.302,133.271,118.302 M133.271,116.011
	c-0.593,0-1.005,0.355-1.005,0.674c0,0.319,0.412,0.674,1.005,0.674c0.592,0,1.004-0.354,1.004-0.674
	C134.275,116.367,133.863,116.011,133.271,116.011"/>
<path fill="#231F20" d="M141.381,118.302c-1.056,0-1.883-0.71-1.883-1.617c0-0.906,0.827-1.617,1.883-1.617
	c1.057,0,1.884,0.711,1.884,1.617C143.265,117.592,142.438,118.302,141.381,118.302 M141.381,116.011
	c-0.592,0-1.004,0.355-1.004,0.674c0,0.319,0.412,0.674,1.004,0.674c0.593,0,1.005-0.354,1.005-0.674
	C142.386,116.367,141.974,116.011,141.381,116.011"/>
<polygon fill="#231F20" points="98.905,54.593 98.07,53.994 102.354,47.108 113.763,39.133 131.881,39.133 143.301,47.063 
	147.586,53.978 146.75,54.575 142.58,47.846 131.585,40.211 114.061,40.211 103.075,47.89 "/>
<path fill="#231F20" d="M122.932,39.936c-1.108,0-2.009-0.869-2.009-1.937c0-0.332,0.085-0.65,0.247-0.934l-1.798-2.843
	l-2.053,1.495c-0.212,0.535-0.699,0.885-1.252,0.885c-0.751,0-1.362-0.655-1.362-1.461c0-0.824,0.651-1.49,1.412-1.46l1.996-1.451
	l-1.123-1.775c-0.541-0.2-0.919-0.756-0.919-1.382c0-0.807,0.611-1.462,1.362-1.462c0.734,0,1.334,0.626,1.361,1.407l1.175,1.86
	l1.937-1.409c0.187-0.58,0.705-0.986,1.288-0.986c0.75,0,1.361,0.656,1.361,1.461c0,0.791-0.587,1.436-1.318,1.461l-2.009,1.464
	l2.038,3.219c0.953,0.155,1.675,0.961,1.675,1.911C124.941,39.067,124.04,39.936,122.932,39.936 M119.572,33.098l2.533,4.005
	l-0.19,0.235c-0.156,0.194-0.239,0.422-0.239,0.661c0,0.622,0.563,1.129,1.256,1.129s1.256-0.507,1.256-1.129
	c0-0.587-0.511-1.081-1.16-1.126l-0.184-0.012l-2.662-4.207l2.837-2.068l0.13,0.009c0.344,0.025,0.651-0.275,0.651-0.651
	c0-0.36-0.271-0.653-0.606-0.653c-0.285,0-0.535,0.217-0.595,0.515l-0.032,0.158l-2.799,2.038l-1.737-2.75l0.009-0.138
	c0.001-0.014,0.001-0.027,0.001-0.041c0-0.36-0.273-0.653-0.608-0.653c-0.336,0-0.609,0.293-0.609,0.653
	c0,0.305,0.202,0.574,0.48,0.638l0.148,0.034l1.707,2.701l-2.853,2.074l-0.146-0.024c-0.03-0.005-0.061-0.008-0.093-0.008
	c-0.335,0-0.608,0.293-0.608,0.653s0.273,0.653,0.608,0.653c0.268,0,0.502-0.184,0.581-0.459l0.04-0.134L119.572,33.098z"/>
<path fill="#231F20" d="M114.958,69.366h-6.363V63.57h6.363V69.366z M109.476,68.421h4.604v-3.908h-4.604V68.421z"/>
<path fill="#231F20" d="M136.976,69.366h-6.32V63.57h6.32V69.366z M131.534,68.421h4.562v-3.908h-4.562V68.421z"/>
<path fill="#231F20" d="M146.875,69.366h-3.537V63.57h3.537V69.366z M144.217,68.421h1.778v-3.908h-1.778V68.421z"/>
<path fill="#231F20" d="M102.275,69.366h-3.495V63.57h3.495V69.366z M99.66,68.421h1.737v-3.908H99.66V68.421z"/>
<rect x="98.047" y="60.046" fill="#231F20" width="0.879" height="12.473"/>
<rect x="146.687" y="60.043" fill="#231F20" width="0.879" height="12.476"/>
<rect x="98.486" y="69.995" fill="#231F20" width="48.64" height="0.943"/>
<rect x="98.486" y="61.412" fill="#231F20" width="48.64" height="0.943"/>
<rect x="98.486" y="59.571" fill="#231F20" width="48.64" height="0.943"/>
<path fill="#231F20" d="M129.315,71.207h-13.018V61.145h13.018V71.207z M117.68,69.725h10.255v-7.098H117.68V69.725z"/>
<path fill="#231F20" d="M122.932,68.466c-2.347,0-4.186-1.094-4.186-2.492c0-1.399,1.839-2.494,4.186-2.494s4.186,1.095,4.186,2.494
	C127.118,67.372,125.279,68.466,122.932,68.466 M122.932,64.289c-2.022,0-3.432,0.888-3.432,1.685c0,0.796,1.41,1.684,3.432,1.684
	c2.023,0,3.432-0.888,3.432-1.684C126.364,65.177,124.955,64.289,122.932,64.289"/>
<path fill="#231F20" d="M106.36,69.366h-1.987c-0.661,0-1.199-0.681-1.199-1.518V65.11c0-0.837,0.538-1.518,1.199-1.518h1.987
	c0.661,0,1.199,0.681,1.199,1.518v2.738C107.56,68.685,107.021,69.366,106.36,69.366 M104.374,64.535
	c-0.151,0-0.32,0.246-0.32,0.575v2.738c0,0.329,0.169,0.575,0.32,0.575h1.987c0.151,0,0.32-0.246,0.32-0.575V65.11
	c0-0.329-0.169-0.575-0.32-0.575H104.374z"/>
<path fill="#231F20" d="M141.275,69.366h-1.986c-0.661,0-1.199-0.681-1.199-1.518V65.11c0-0.837,0.538-1.518,1.199-1.518h1.986
	c0.662,0,1.2,0.681,1.2,1.518v2.738C142.476,68.685,141.938,69.366,141.275,69.366 M139.289,64.535c-0.151,0-0.32,0.246-0.32,0.575
	v2.738c0,0.329,0.169,0.575,0.32,0.575h1.986c0.151,0,0.32-0.246,0.32-0.575V65.11c0-0.329-0.169-0.575-0.32-0.575H139.289z"/>
<path fill="#231F20" d="M147.565,60.055h-0.879c0-1.89-1.578-6.553-5.812-11.022c-3.348-3.533-9.199-7.744-18.067-7.744
	c-8.844,0-14.698,4.216-18.052,7.753c-4.246,4.477-5.828,9.131-5.828,11.013h-0.879c0-4.59,7.718-19.709,24.759-19.709
	c9.165,0,15.22,4.358,18.684,8.015C145.437,52.525,147.565,57.493,147.565,60.055"/>
<path fill="#231F20" d="M122.849,48.795c-0.949,0-1.721-0.738-1.721-1.644c0-0.907,0.771-1.644,1.721-1.644
	c0.948,0,1.72,0.737,1.72,1.644C124.568,48.058,123.797,48.795,122.849,48.795 M122.849,46.37c-0.505,0-0.917,0.351-0.917,0.782
	c0,0.431,0.412,0.781,0.917,0.781s0.917-0.35,0.917-0.781C123.766,46.721,123.354,46.37,122.849,46.37"/>
<path fill="#231F20" d="M113.138,52.564c-0.981,0-1.779-0.856-1.779-1.909c0-1.053,0.798-1.909,1.779-1.909s1.779,0.856,1.779,1.909
	C114.917,51.708,114.119,52.564,113.138,52.564 M113.138,49.689c-0.497,0-0.9,0.433-0.9,0.966c0,0.533,0.403,0.966,0.9,0.966
	c0.496,0,0.9-0.433,0.9-0.966C114.038,50.123,113.634,49.689,113.138,49.689"/>
<path fill="#231F20" d="M106.555,52.9c-0.912,0-1.653-0.795-1.653-1.773s0.741-1.774,1.653-1.774s1.653,0.796,1.653,1.774
	S107.467,52.9,106.555,52.9 M106.555,50.296c-0.427,0-0.774,0.373-0.774,0.831s0.347,0.831,0.774,0.831
	c0.427,0,0.774-0.373,0.774-0.831S106.982,50.296,106.555,50.296"/>
<path fill="#231F20" d="M139.048,52.9c-0.912,0-1.653-0.795-1.653-1.773s0.741-1.774,1.653-1.774c0.911,0,1.652,0.796,1.652,1.774
	S139.959,52.9,139.048,52.9 M139.048,50.296c-0.427,0-0.774,0.373-0.774,0.831s0.348,0.831,0.774,0.831s0.772-0.373,0.772-0.831
	S139.475,50.296,139.048,50.296"/>
<path fill="#231F20" d="M143.811,55.035c-0.639,0-1.14-0.69-1.14-1.572c0-0.881,0.501-1.572,1.14-1.572s1.14,0.691,1.14,1.572
	C144.95,54.345,144.449,55.035,143.811,55.035 M143.811,52.834c-0.079,0-0.261,0.238-0.261,0.629s0.182,0.629,0.261,0.629
	s0.261-0.238,0.261-0.629S143.89,52.834,143.811,52.834"/>
<path fill="#231F20" d="M101.823,55.035c-0.639,0-1.14-0.69-1.14-1.572c0-0.881,0.501-1.572,1.14-1.572s1.139,0.691,1.139,1.572
	C102.962,54.345,102.462,55.035,101.823,55.035 M101.823,52.834c-0.08,0-0.26,0.238-0.26,0.629s0.18,0.629,0.26,0.629
	s0.26-0.238,0.26-0.629S101.903,52.834,101.823,52.834"/>
<path fill="#231F20" d="M132.476,52.564c-0.98,0-1.778-0.856-1.778-1.909c0-1.053,0.798-1.909,1.778-1.909
	c0.981,0,1.779,0.856,1.779,1.909C134.255,51.708,133.457,52.564,132.476,52.564 M132.476,49.689c-0.496,0-0.899,0.433-0.899,0.966
	c0,0.533,0.403,0.966,0.899,0.966c0.497,0,0.9-0.433,0.9-0.966C133.376,50.123,132.973,49.689,132.476,49.689"/>
<rect x="116.55" y="41.424" fill="#231F20" width="0.879" height="18.62"/>
<rect x="128.186" y="41.458" fill="#231F20" width="0.879" height="18.586"/>
<rect x="125.046" y="40.884" fill="#231F20" width="0.879" height="8.878"/>
<rect x="119.688" y="40.918" fill="#231F20" width="0.879" height="8.844"/>
<polygon fill="#231F20" points="100.149,60.237 99.347,59.851 101.584,54.506 102.111,54.486 104.135,59.7 103.324,60.063 
	101.831,56.217 "/>
<polygon fill="#231F20" points="142.239,60.232 141.434,59.856 143.585,54.547 144.158,54.536 146.103,59.704 145.287,60.058 
	143.854,56.249 "/>
<polygon fill="#231F20" points="129.005,60.281 128.245,59.807 132.48,51.976 136.62,59.811 135.855,60.277 132.472,53.872 "/>
<polygon fill="#231F20" points="116.611,60.281 113.144,53.872 109.76,60.277 108.996,59.811 113.135,51.976 117.371,59.807 "/>
<path fill="#231F20" d="M109.79,60.515h-6.499l0.001-4.673c0.01-1.941,1.467-3.52,3.248-3.52c1.781,0,3.238,1.579,3.249,3.518
	L109.79,60.515z M104.169,59.572h4.74l-0.001-3.729c-0.007-1.42-1.07-2.577-2.369-2.577c-1.299,0-2.362,1.157-2.369,2.579
	L104.169,59.572z"/>
<path fill="#231F20" d="M142.302,60.515h-6.487l0.001-4.673c0.01-1.941,1.465-3.52,3.242-3.52c1.778,0,3.233,1.579,3.243,3.518
	L142.302,60.515z M136.693,59.572h4.729v-3.729c-0.007-1.42-1.067-2.577-2.364-2.577c-1.296,0-2.356,1.157-2.363,2.579
	L136.693,59.572z"/>
<path fill="#231F20" d="M129.064,60.515h-12.515v-6.213c0-3.079,2.807-5.584,6.257-5.584c3.451,0,6.258,2.505,6.258,5.584V60.515z
	 M117.428,59.572h10.757v-5.27c0-2.559-2.413-4.641-5.379-4.641c-2.965,0-5.378,2.082-5.378,4.641V59.572z"/>
<rect x="98.047" y="72.045" fill="#231F20" width="49.518" height="0.943"/>
</svg>
