<?xml version="1.0" encoding="utf-8"?>
<!-- Generator: Adobe Illustrator 26.0.1, SVG Export Plug-In . SVG Version: 6.00 Build 0)  -->
<svg version="1.1"
	 id="Layer_1" inkscape:version="1.1.1 (c3084ef, 2021-09-22)" sodipodi:docname="vadaszat.svg" xmlns:inkscape="http://www.inkscape.org/namespaces/inkscape" xmlns:sodipodi="http://sodipodi.sourceforge.net/DTD/sodipodi-0.dtd" xmlns:svg="http://www.w3.org/2000/svg"
	 xmlns="http://www.w3.org/2000/svg" xmlns:xlink="http://www.w3.org/1999/xlink" x="0px" y="0px" viewBox="0 0 100 100"
	 style="enable-background:new 0 0 100 100;" xml:space="preserve">
<style type="text/css">
	.st0{fill:#E59840;}
	.st1{fill:#FFFFFF;}
	.st2{font-family:'Helvetica-Bold';}
	.st3{font-size:9px;}
</style>
<sodipodi:namedview  bordercolor="#eeeeee" borderopacity="1" id="namedview11" inkscape:current-layer="Layer_1" inkscape:cx="-80.601707" inkscape:cy="179.32318" inkscape:pagecheckerboard="0" inkscape:pageopacity="0" inkscape:pageshadow="0" inkscape:window-height="969" inkscape:window-maximized="0" inkscape:window-width="1296" inkscape:window-x="0" inkscape:window-y="25" inkscape:zoom="0.80023119" pagecolor="#505050" showgrid="false">
	</sodipodi:namedview>
<g id="g464" transform="matrix(0.25929441,0,0,-0.23554185,94.397946,100)">
	<path id="path466" class="st0" d="M0,0h-342.45c-11.93,0-21.61,9.67-21.61,21.6v381.34c0,11.93,9.67,21.61,21.61,21.61H0
		c11.93,0,21.61-9.67,21.61-21.61V21.6C21.61,9.67,11.93,0,0,0"/>
</g>
<g id="g524" transform="matrix(0.25929441,0,0,-0.23554185,50.039803,40.310609)">
	<path id="path526" class="st1" d="M0,0v-8.32h-19.89v8.33h-2.76v-8.56h-36.88v-2.73h36.97v-11.17h2.72v11.06h19.69v-17.12h-11.08
		c0.05-0.99,0.09-1.76,0.13-2.72h11.04c0.1-1.92,0.19-3.66,0.29-5.56c1.06,0.09,1.86,0.16,2.89,0.24v5.44h8.22v2.69H3.2v17.08h19.74
		v-8.28h2.84v8.51h25.64c-0.09,1.01-0.15,1.72-0.23,2.71H25.58V2.94c-1.01-0.09-1.72-0.15-2.72-0.24V-8.35H3.01V0H0z M-37.5,65.37
		c0.26-0.07,0.52-0.14,0.77-0.21c-0.33-0.99-0.43-2.15-1.02-2.93c-3.15-4.12-6.48-8.11-9.65-12.22c-1.56-2.03-0.91-4.52,1.44-5.94
		c2.39-1.44,3.51,0.48,4.36,2.07c1.24,2.31,2.12,4.8,3.18,7.21c0.12,0.28,0.38,0.49,0.64,0.81c0.66-0.45,1.2-0.83,1.69-1.16
		c4.26,3.13,6.39,7.44,8.1,12.35c1.42,4.08,4.13,7.72,6.39,11.49c0.72,1.19,1.87,1.65,3.38,0.26c-0.71-0.75-1.41-1.34-1.92-2.06
		c-1.72-2.49-3.63-4.89-4.98-7.58c-1.1-2.21,0.28-3.72,2.71-3.22c1.09,0.23,2.23,0.89,3.04,1.67c1.85,1.76,3.34,3.9,5.29,5.53
		c2.64,2.21,5.49,4.2,8.4,6.04c0.85,0.54,2.22,0.27,3.35,0.38c0.08-0.27,0.15-0.54,0.22-0.81c-4.03-1.05-6.95-3.34-8.74-7.25
		c3.37-0.65,6.43-1.25,9.48-1.84c-3.24-0.75-6.44-0.47-9.45-1.12c-8.51-1.83-14.6-7.33-19.83-13.94c-0.41-0.51-0.63-1.21-0.81-1.85
		c-0.52-1.82,0.25-3,2.09-2.81c1.82,0.19,3.62,0.81,5.38,1.41c1.96,0.67,3.86,1.52,5.78,2.29l0.34-0.61
		c-0.81-0.7-1.52-1.58-2.43-2.06c-3.08-1.62-6.21-3.15-9.37-4.6c-2.82-1.29-5.43-5.88-5.1-8.45c2.49-1.12,4.89-1.76,6.76-3.12
		c4.59-3.37,8.96-7.04,13.37-10.64c2.98-2.44,2.63-5.89-0.8-7.63c-0.78-0.4-1.8-0.41-2.71-0.41c-4.83-0.04-9.65-0.02-14.62-0.02
		c-0.25-4.13-0.48-7.9-0.72-11.96c1.25,0.27,2.08,0.41,2.88,0.64c5.85,1.66,11.63,2.7,17.73,0.73C-8.77,2.47-4.43,1.98-0.12,1.1
		v10.38H-11.1v2.9h11v39.8h-11v2.76H0.08V68.4v11.32h-5.74v16.96C-60.38,95.33-108.55,49.72-111.66-5.62h14.75
		c0.16-1.08,0.27-1.89,0.39-2.69h31.15v8.3h3.01v-7.91c0.6,0.55,0.83,1.1,0.96,1.66c1.74,7.79,3.37,15.61,5.21,23.38
		c1.7,7.18,3.3,14.47,9.32,18.9c-1.69,3.18-3.72,6.14-4.9,9.41c-2.06,5.71-1.71,11.72-1.1,17.68c0.19,1.81,0.51,3.5-0.42,5.39
		c-0.71,1.45-0.39,3.4-0.53,5.13c0.42,0.1,0.83,0.21,1.25,0.31c0.84-1.66,1.69-3.32,2.86-5.63c3.12,4.2,6.09,7.79,8.56,11.7
		c1.06,1.68,1.06,4.02,1.58,6.2c3.69-1.18-0.08-4.39,1.82-6.32c2.49,1.7,5.05,3.45,7.64,5.22c1.15-1.99-0.36-2.67-1.47-3.18
		c-9.39-4.36-15.58-11.46-18.56-21.37c-0.19-0.64-0.71-1.21-0.81-1.86c-0.19-1.18-0.18-2.39-0.26-3.59
		c1.35,0.26,2.73,0.42,4.03,0.84c0.58,0.19,1.01,0.89,1.49,1.36C-42.95,60.01-40.23,62.69-37.5,65.37 M111.68-16.9H94v5.57H68.49
		v-8.52c-1.14,0.08-1.95,0.13-3.01,0.2v8.29h-9.03c1.3-2.11,2.97-3.94,3.65-6.09c1.06-3.38,1.59-6.96,2.08-10.49
		c0.22-1.63,0.02-3.4-0.43-4.99c-0.21-0.73-1.42-1.45-2.28-1.61c-0.43-0.08-1.31,1.02-1.61,1.74c-1.25,2.94-2.35,5.95-3.64,9.29
		c-3.47-4.94-5.49-9.97-5.47-15.53c0.03-6.91,1.71-13.28,7.51-17.89c1.63-1.29,3.09-2.93,1.79-5.26
		c-4.42-7.87-6.28-16.37-6.98-25.31c-0.48-6.08-1.74-12.09-2.71-18.12c-0.15-0.91-0.49-1.83-0.95-2.62
		c-0.28-0.5-0.94-1.07-1.45-1.09c-2.28-0.12-4.57-0.05-7.53-0.05c2.69,5.88,6.27,11.18,3.87,18.35c-0.3-2.75-0.66-4.86-0.72-6.97
		c-0.05-1.86-0.26-3.32-2.47-3.82c-0.55-0.12-1.05-1.18-1.27-1.9c-1.09-3.6-1.69-4.1-5.33-4.06c-3.28,0.03-4.13,1.23-2.07,3.77
		c3.68,4.53,5.46,9.88,7.55,15.14c1.81,4.57,4.24,8.94,5.65,13.62c2.5,8.31,0.84,14.66-6.14,19.57c-1.6,1.12-3.06,2.45-4.47,3.81
		c-4.77,4.58-10.05,8.67-12.92,14.96c-1.36,2.99-4.68,3.98-7.86,2.82c-3.01-1.1-5.97-2.35-8.98-3.54v-33.45h8.27
		c-0.06-1.08-0.11-1.95-0.18-3.02H3.15v-30.86c0.9-0.18,1.68-0.33,2.71-0.53v-19.14C61.32-122.87,110.67-75.92,111.68-16.9
		 M-111.84-16.94c0.12-58.28,50.99-106.93,106.26-107.55v19.2c1.96,0.09,3.7,0.16,5.45,0.24v31.15h-10.91v3.06h11v32.22
		c-7.41-0.92-14.74-1.75-22.04-2.81c-1.17-0.17-2.89-1.17-3.17-2.14c-1.27-4.38-2.73-8.85-3.01-13.35
		c-0.7-11.55-0.81-23.14-1.14-34.71c-0.11-3.99-0.4-8-0.12-11.96c0.14-2,0.41-3.85-1.32-5.04c-1.9-1.32-3.98-1.01-6.17,0.33
		c0.59,1.3,1.18,2.5,1.7,3.73c0.29,0.68,0.7,1.42,0.67,2.12c-0.53,11.35,2.24,22.7-0.51,34.09c-1.35,5.57-1.5,11.44-2.2,17.22
		c-1.76-0.4-2.46-1.21-2.51-3.02c-0.29-11.91-0.58-23.83-1.15-35.73c-0.33-6.93-1.18-13.84-1.8-20.82h-6.29
		c0.6,3.92,1.34,7.67,1.71,11.46c0.53,5.41,1.11,10.84,1.06,16.26c-0.06,6.63-0.86,13.24-1.14,19.87
		c-0.33,7.87-0.35,15.76-0.75,23.63c-0.11,2.11-0.46,4.97-1.84,6.09c-2.74,2.25-4.27,5.04-5.57,8.07
		c-1.71,3.98-3.15,8.07-4.76,12.09c-0.31,0.76-0.86,1.42-1.29,2.12c-0.23-0.07-0.47-0.14-0.7-0.21v-11.09h-3.21v11.09h-31.09v-5.61
		L-111.84-16.94z M3.2,54.1V14.35h8.08v-3.02h-8.1V1.73c0.82,0,1.5-0.07,2.16,0.01c4.81,0.57,9.61,1.27,14.44,1.75
		c6.46,0.63,12.99,1.09,18.87-2.45C42.86-1.5,46.88-4.36,51-7.06c0.77-0.5,1.56-1.34,2.36-1.37c3.97-0.14,7.96-0.06,12.2-0.06v11.2
		h3.13V-8.37h25.29c0.1,0.94,0.19,1.76,0.31,2.84h17.1C107.88,52.17,57.33,95.68,5.69,96.6V79.9c-1.03-0.2-1.76-0.34-2.46-0.47
		V56.81h8.27c-0.06-0.99-0.11-1.78-0.16-2.71L3.2,54.1z M-0.15-135.66c-68.49-0.02-122.83,55.83-122.74,122.69
		c0.09,65.64,52.94,122.43,122.85,122.34c68.69-0.09,122.69-55.04,122.64-122.57C122.53-82.26,66.56-135.7-0.15-135.66"/>
</g>
<text transform="matrix(1.022 0 0 1 12.6843 90.3167)" class="st1 st2 st3">Vadászati módok</text>
</svg>
