<?xml version="1.0" encoding="utf-8"?>
<!-- Generator: Adobe Illustrator 26.0.1, SVG Export Plug-In . SVG Version: 6.00 Build 0)  -->
<svg version="1.1"
	 id="svg1208" inkscape:version="1.1.1 (c3084ef, 2021-09-22)" sodipodi:docname="vadbetegsegek.svg" xmlns:inkscape="http://www.inkscape.org/namespaces/inkscape" xmlns:sodipodi="http://sodipodi.sourceforge.net/DTD/sodipodi-0.dtd" xmlns:svg="http://www.w3.org/2000/svg"
	 xmlns="http://www.w3.org/2000/svg" xmlns:xlink="http://www.w3.org/1999/xlink" x="0px" y="0px" viewBox="0 0 100 100"
	 style="enable-background:new 0 0 100 100;" xml:space="preserve">
<style type="text/css">
	.st0{fill:#3A9981;}
	.st1{fill:#FFFFFF;}
	.st2{font-family:'Helvetica-Bold';}
	.st3{font-size:9px;}
</style>
<sodipodi:namedview  bordercolor="#eeeeee" borderopacity="1" id="namedview1210" inkscape:current-layer="layer1" inkscape:cx="387.96404" inkscape:cy="498.8109" inkscape:document-units="mm" inkscape:pagecheckerboard="0" inkscape:pageopacity="0" inkscape:pageshadow="0" inkscape:window-height="969" inkscape:window-maximized="0" inkscape:window-width="1312" inkscape:window-x="0" inkscape:window-y="25" inkscape:zoom="0.64052329" pagecolor="#505050" showgrid="false">
	</sodipodi:namedview>
<g id="g444" transform="matrix(0.25929441,0,0,-0.23554185,94.397944,100)">
	<path id="path446" class="st0" d="M-0.36,0.8h-341.73c-11.9,0-21.55,9.65-21.55,21.55V402.9c0,11.9,9.65,21.55,21.55,21.55H-0.36
		c11.9,0,21.55-9.65,21.55-21.55V22.35C21.22,10.45,11.54,0.8-0.36,0.8"/>
</g>
<g id="g57374" transform="matrix(0.21564646,0,0,-0.21101438,-26.892696,185.72486)">
	<g id="g1038" transform="matrix(1.2024051,0,0,1.116236,-111.53828,57.126998)">
		<g>
			<g id="g1040">
				<g id="g1046" transform="translate(481.8359,653.9092)">
					<path id="path1048" class="st1" d="M-0.22,8.7c-6.09-5.14-11.79-9.96-17.5-14.75c-10.6-8.87-21.19-17.74-31.79-26.58
						c-1.73-1.41-3.63-2.61-5.32-3.8c18.98-18.98,38.23-38.23,57.66-57.7C1.83-59.87,0.81-25.8-0.22,8.7 M-112.02-31.78
						c37.03-37.03,73.96-74.03,110.96-111c2.53,7.11,4.19,14.54,4.37,22.18c0.14,5.21-0.07,10.46-0.25,15.7
						c-0.04,0.84-0.49,1.87-1.09,2.5c-12.25,12.32-24.57,24.61-36.86,36.89c-10.63,10.63-21.3,21.3-31.93,31.9
						c-0.35,0.35-0.77,0.7-1.23,0.81c-3.87,0.74-7.74,1.62-11.65,2.11c-8.41,1.06-16.86,0.99-25.28,0.04
						C-107.41-30.97-109.77-31.43-112.02-31.78 M-184.72,8.6c-0.04-0.67-0.07-0.99-0.07-1.34c-0.39-11.69-0.77-23.38-1.16-35.06
						c-0.53-16.33-0.99-32.63-1.48-48.97c-0.21-6.97-0.42-13.94-0.6-20.88c-0.18-6.97-0.46-13.91-0.42-20.88
						c0.07-9.22,1.9-18.17,5.28-26.76c6.83-17.46,18.45-31.05,34.01-41.37c12.81-8.48,26.97-13.52,42.17-15.63
						c11.62-1.58,23.23-1.3,34.75,0.95c18.1,3.56,34.22,11.23,47.95,23.73c8.48,7.71,15.24,16.72,20.14,27.11
						c0.35,0.74,0.39,1.2-0.25,1.83c-4.01,3.94-7.99,7.96-12,11.93c-7.04,7.04-14.05,14.12-21.09,21.16
						c-8.84,8.84-17.71,17.67-26.54,26.51c-9.72,9.72-19.4,19.43-29.08,29.15c-8.31,8.31-16.62,16.58-24.89,24.92
						c-1.02,1.02-1.94,1.62-3.45,0.99c-1.3-0.53-2.78-0.67-4.05-1.23c-3.49-1.62-6.27-0.67-9.01,1.8
						c-4.05,3.63-8.31,7.04-12.46,10.53c-6.97,5.84-13.98,11.69-20.95,17.53C-173.49-0.84-178.98,3.78-184.72,8.6 M13.73-39.1
						c0.56-20.17,1.09-40.38,1.69-60.55c0.18-6.65,0.84-13.31,0.56-19.96c-0.25-5.84-1.23-11.72-2.43-17.46
						c-2.01-9.79-5.88-18.87-11.02-27.42c-4.58-7.6-10.14-14.5-16.58-20.59c-15.81-15-34.54-24.22-55.83-28.41
						c-9.58-1.9-19.22-2.43-28.97-1.94c-18.48,0.92-35.77,5.91-51.82,15.1c-9.29,5.32-17.6,11.9-24.82,19.78
						c-11.83,12.85-19.86,27.78-23.48,44.89c-1.76,8.41-2.68,16.93-1.76,25.59c0.35,3.41,0.32,6.9,0.42,10.35
						c0.46,16.76,0.88,33.55,1.34,50.31c0.35,13.06,0.77,26.16,1.16,39.22c0.32,10.39,0.6,20.74,0.92,31.12
						c0.14,3.98,2.01,6.3,5.42,6.83c1.87,0.32,3.52-0.25,4.96-1.44c7.29-6.09,14.57-12.22,21.86-18.31
						c9.15-7.67,18.31-15.31,27.49-22.99c2.85-2.39,5.67-4.79,8.55-7.11c0.46-0.35,1.34-0.56,1.87-0.39
						c7.71,2.29,15.56,3.91,23.55,4.58c7.32,0.6,14.61,0.6,21.93-0.07c7.82-0.7,15.42-2.32,22.95-4.51c0.56-0.18,1.44,0,1.9,0.39
						c9.01,7.46,17.95,14.96,26.93,22.46c8.45,7.08,16.9,14.15,25.38,21.23c1.8,1.51,3.63,2.96,5.35,4.51
						c2.15,1.87,4.54,2.29,7.08,1.16c2.46-1.13,3.49-3.31,3.59-5.91c0.25-8.8,0.46-17.6,0.74-26.4c0.32-11.34,0.7-22.67,1.02-34.01
						C13.65-39.1,13.69-39.1,13.73-39.1"/>
				</g>
				<g id="g1050" transform="translate(389.0527,476.5918)">
					<path id="path1052" class="st1" d="M-0.01,9.08C-5.75,1.79-13.92-1.94-22.93-3.81c-4.79-0.99-9.75-1.2-14.65-1.62
						c-2.04-0.18-3.41,1.2-3.45,2.99c-0.04,1.83,1.3,3.06,3.38,3.1c7.29,0.11,14.36,1.23,21.12,4.01c4.51,1.83,8.66,4.26,11.58,8.34
						c1.34,1.83,2.01,3.87,2.04,6.09c0.07,2.64-0.04,5.28,0.04,7.92c0.04,0.99-0.39,1.23-1.3,1.41c-6.3,1.37-11.44,4.4-14.12,10.63
						c-2.36,5.49-0.7,12.08,3.98,16.19c8.06,7.11,20.7,7.18,28.83,0.18c7.99-6.86,6.76-18.55-2.64-24.11
						c-2.25-1.34-4.96-1.94-7.46-2.92c-0.42-0.18-1.06-0.6-1.06-0.95c-0.04-3.24-0.18-6.51,0.18-9.75c0.49-4.61,3.7-7.43,7.29-9.82
						c5.81-3.91,12.39-5.74,19.26-6.62c2.78-0.35,5.56-0.46,8.34-0.63c1.76-0.11,2.99-1.3,3.03-2.99s-1.2-3.13-2.85-3.13
						c-10.98,0-21.55,1.9-30.91,8.03C4.95,4.36,2.63,6.83-0.01,9.08"/>
				</g>
				<g id="g1054" transform="translate(304.2422,609.9805)">
					<path id="path1056" class="st1" d="M0.16,8.79c0.21,6.09,0.42,12.22,0.6,18.31c0.04,1.27,0.53,2.29,1.73,2.85
						c1.34,0.63,2.57,0.32,3.66-0.6c3.94-3.31,7.85-6.62,11.79-9.89c5-4.15,9.96-8.34,14.96-12.5c1.23-1.02,1.73-2.25,1.3-3.8
						c-0.39-1.41-1.48-1.83-2.82-2.15C21.85-1.35,12.8-4.8,5.34-11.52c-1.16-1.02-2.39-1.58-3.87-0.92
						c-1.55,0.67-1.87,2.01-1.8,3.52C-0.16-3,0.02,2.88,0.2,8.79C0.2,8.79,0.2,8.79,0.16,8.79"/>
				</g>
				<g id="g1058" transform="translate(355.0986,547.207)">
					<path id="path1060" class="st1" d="M0.05,8.91c0-5.39-3.34-10.67-8.41-12.67c-4.75-1.87-8.8-0.53-12.25,2.89
						c-5.95,5.88-5.39,16.86,1.02,22.25c5,4.22,12.18,3.45,16.23-1.65C-1.04,16.76,0.09,13.45,0.05,8.91"/>
				</g>
				<g id="g1062" transform="translate(335.0039,502.7588)">
					<path id="path1064" class="st1" d="M0.08,9.02c-8.55,0-17.07,0-25.63,0c-1.97,0-3.17,1.06-3.31,2.82
						c-0.14,1.97,1.13,3.31,3.27,3.31c8.1,0,16.16,0,24.26,0c9.01,0,17.99,0,27,0c1.97,0,3.2-1.09,3.27-2.82
						c0.11-2.11-1.13-3.31-3.41-3.31C17.09,8.99,8.6,9.02,0.08,9.02"/>
				</g>
				<g id="g1066" transform="translate(368.4497,489.4385)">
					<path id="path1068" class="st1" d="M0.03,9.03C-0.36,8.53-0.89,7.34-1.8,6.84C-11.87,1.53-22.04-3.68-32.15-8.93
						c-0.92-0.46-1.8-0.99-2.68-1.44c-1.97-0.99-3.7-0.56-4.54,1.16c-0.84,1.69-0.21,3.41,1.69,4.37
						C-26.76,0.82-15.81,6.53-4.9,12.2C-2.58,13.43-0.01,12.06,0.03,9.03"/>
				</g>
				<g id="g1070" transform="translate(414.6016,493.2422)">
					<path id="path1072" class="st1" d="M-0.06,9.03c0.77-0.25,1.41-0.39,1.97-0.67C12.51,2.87,23.11-2.63,33.7-8.12
						c0.77-0.39,1.58-0.77,2.18-1.34c1.06-1.02,1.09-2.75,0.25-3.91c-0.92-1.27-2.39-1.69-3.91-0.95c-2.5,1.23-4.96,2.53-7.46,3.84
						C16.21-6.04,7.62-1.6-0.94,2.87c-2.43,1.27-2.85,3.66-0.95,5.32C-1.4,8.57-0.66,8.75-0.06,9.03"/>
				</g>
				<g id="g1074" transform="translate(435.9814,502.7598)">
					<path id="path1076" class="st1" d="M-0.11,9.02c-5.49,0-10.98,0-16.48,0c-2.08,0-3.59,1.37-3.52,3.13
						c0.04,1.73,1.51,2.99,3.52,2.99c10.98,0,21.97,0,32.92,0c1.97,0,3.49-1.37,3.49-3.06c0-1.65-1.58-3.06-3.49-3.06
						C10.87,8.99,5.38,9.02-0.11,9.02"/>
				</g>
				<g id="g1078" transform="translate(429.7104,494.7783)">
					<path id="path1080" class="st1" d="M-0.1,9.02c0.04,1.87,1.76,3.38,3.59,2.99c6.09-1.2,12.22-2.46,18.31-3.7
						c3.56-0.7,7.15-1.37,10.74-2.04c2.61-0.49,3.8-2.04,3.13-4.19c-0.49-1.51-1.83-2.43-3.41-2.15c-4.93,0.99-9.82,2.01-14.72,2.99
						C12.82,3.88,8.11,4.76,3.39,5.67C1.03,6.13-0.13,7.22-0.1,9.02"/>
				</g>
				<g id="g1082" transform="translate(314.3101,488.8193)">
					<path id="path1084" class="st1" d="M0.15,9.04c0,1.69,0.95,2.71,2.92,3.13c3.49,0.7,6.97,1.37,10.46,2.04
						c6.16,1.23,12.32,2.46,18.48,3.7c1.9,0.39,3.52-0.46,3.84-2.01c0.42-1.97-0.49-3.52-2.53-3.94c-8.13-1.65-16.3-3.27-24.47-4.93
						C7.16,6.68,5.47,6.3,3.78,5.98C1.88,5.59,0.12,7.07,0.15,9.04"/>
				</g>
				<g id="g1086" transform="translate(475.1865,609.7441)">
					<path id="path1088" class="st1" d="M-0.2,8.77c0.14-5.95,0.32-11.9,0.46-17.85c0.04-1.37-0.35-2.53-1.69-3.13
						c-1.27-0.56-2.5-0.39-3.52,0.56c-5.42,4.96-11.79,8.24-18.66,10.63c-2.53,0.88-5.14,1.55-7.74,2.25
						c-1.27,0.35-2.5,0.7-2.85,2.15c-0.39,1.48,0.14,2.64,1.3,3.63c8.38,7.01,16.72,14.05,25.07,21.09c0.46,0.39,0.95,0.77,1.41,1.2
						c1.13,1.06,2.46,1.51,3.91,0.84c1.41-0.63,1.83-1.9,1.87-3.38C-0.55,20.74-0.38,14.76-0.2,8.77C-0.24,8.77-0.2,8.77-0.2,8.77"
						/>
				</g>
			</g>
		</g>
	</g>
</g>
<text transform="matrix(1.022 0 0 1 16.5112 89.5781)" class="st1 st2 st3">Vadbetegségek</text>
</svg>
